%TF.GenerationSoftware,KiCad,Pcbnew,6.0.2+dfsg-1*%
%TF.CreationDate,2023-04-29T01:12:18-04:00*%
%TF.ProjectId,BFUSB_HUB,42465553-425f-4485-9542-2e6b69636164,rev?*%
%TF.SameCoordinates,Original*%
%TF.FileFunction,AssemblyDrawing,Bot*%
%FSLAX46Y46*%
G04 Gerber Fmt 4.6, Leading zero omitted, Abs format (unit mm)*
G04 Created by KiCad (PCBNEW 6.0.2+dfsg-1) date 2023-04-29 01:12:18*
%MOMM*%
%LPD*%
G01*
G04 APERTURE LIST*
%TA.AperFunction,Profile*%
%ADD10C,0.100000*%
%TD*%
%ADD11C,0.150000*%
%ADD12C,0.100000*%
%ADD13C,0.010000*%
G04 APERTURE END LIST*
D10*
X71170000Y-15400000D02*
X225860000Y-15400000D01*
X225860000Y-15400000D02*
X225860000Y-111370000D01*
X225860000Y-111370000D02*
X71170000Y-111370000D01*
X71170000Y-111370000D02*
X71170000Y-15400000D01*
X224595691Y-18325000D02*
G75*
G03*
X224595691Y-18325000I-1520691J0D01*
G01*
X224648975Y-108425000D02*
G75*
G03*
X224648975Y-108425000I-1523975J0D01*
G01*
X75676843Y-108350000D02*
G75*
G03*
X75676843Y-108350000I-1526843J0D01*
G01*
X75620691Y-18275000D02*
G75*
G03*
X75620691Y-18275000I-1520691J0D01*
G01*
D11*
%TO.C,F4*%
X191333571Y-44407142D02*
X191333571Y-44073809D01*
X191857380Y-44073809D02*
X190857380Y-44073809D01*
X190857380Y-44550000D01*
X191190714Y-45359523D02*
X191857380Y-45359523D01*
X191190714Y-44930952D02*
X191714523Y-44930952D01*
X191809761Y-44978571D01*
X191857380Y-45073809D01*
X191857380Y-45216666D01*
X191809761Y-45311904D01*
X191762142Y-45359523D01*
X191809761Y-45788095D02*
X191857380Y-45883333D01*
X191857380Y-46073809D01*
X191809761Y-46169047D01*
X191714523Y-46216666D01*
X191666904Y-46216666D01*
X191571666Y-46169047D01*
X191524047Y-46073809D01*
X191524047Y-45930952D01*
X191476428Y-45835714D01*
X191381190Y-45788095D01*
X191333571Y-45788095D01*
X191238333Y-45835714D01*
X191190714Y-45930952D01*
X191190714Y-46073809D01*
X191238333Y-46169047D01*
X191809761Y-47026190D02*
X191857380Y-46930952D01*
X191857380Y-46740476D01*
X191809761Y-46645238D01*
X191714523Y-46597619D01*
X191333571Y-46597619D01*
X191238333Y-46645238D01*
X191190714Y-46740476D01*
X191190714Y-46930952D01*
X191238333Y-47026190D01*
X191333571Y-47073809D01*
X191428809Y-47073809D01*
X191524047Y-46597619D01*
X191952619Y-47264285D02*
X191952619Y-48026190D01*
X191809761Y-48216666D02*
X191857380Y-48359523D01*
X191857380Y-48597619D01*
X191809761Y-48692857D01*
X191762142Y-48740476D01*
X191666904Y-48788095D01*
X191571666Y-48788095D01*
X191476428Y-48740476D01*
X191428809Y-48692857D01*
X191381190Y-48597619D01*
X191333571Y-48407142D01*
X191285952Y-48311904D01*
X191238333Y-48264285D01*
X191143095Y-48216666D01*
X191047857Y-48216666D01*
X190952619Y-48264285D01*
X190905000Y-48311904D01*
X190857380Y-48407142D01*
X190857380Y-48645238D01*
X190905000Y-48788095D01*
X191857380Y-49216666D02*
X191190714Y-49216666D01*
X191285952Y-49216666D02*
X191238333Y-49264285D01*
X191190714Y-49359523D01*
X191190714Y-49502380D01*
X191238333Y-49597619D01*
X191333571Y-49645238D01*
X191857380Y-49645238D01*
X191333571Y-49645238D02*
X191238333Y-49692857D01*
X191190714Y-49788095D01*
X191190714Y-49930952D01*
X191238333Y-50026190D01*
X191333571Y-50073809D01*
X191857380Y-50073809D01*
X191857380Y-50978571D02*
X191333571Y-50978571D01*
X191238333Y-50930952D01*
X191190714Y-50835714D01*
X191190714Y-50645238D01*
X191238333Y-50550000D01*
X191809761Y-50978571D02*
X191857380Y-50883333D01*
X191857380Y-50645238D01*
X191809761Y-50550000D01*
X191714523Y-50502380D01*
X191619285Y-50502380D01*
X191524047Y-50550000D01*
X191476428Y-50645238D01*
X191476428Y-50883333D01*
X191428809Y-50978571D01*
X191857380Y-51597619D02*
X191809761Y-51502380D01*
X191714523Y-51454761D01*
X190857380Y-51454761D01*
X191857380Y-52121428D02*
X191809761Y-52026190D01*
X191714523Y-51978571D01*
X190857380Y-51978571D01*
X187653571Y-47716666D02*
X187653571Y-47383333D01*
X188177380Y-47383333D02*
X187177380Y-47383333D01*
X187177380Y-47859523D01*
X187510714Y-48669047D02*
X188177380Y-48669047D01*
X187129761Y-48430952D02*
X187844047Y-48192857D01*
X187844047Y-48811904D01*
%TO.C,F2*%
X143617857Y-64798571D02*
X143951190Y-64798571D01*
X143951190Y-65322380D02*
X143951190Y-64322380D01*
X143475000Y-64322380D01*
X142665476Y-64655714D02*
X142665476Y-65322380D01*
X143094047Y-64655714D02*
X143094047Y-65179523D01*
X143046428Y-65274761D01*
X142951190Y-65322380D01*
X142808333Y-65322380D01*
X142713095Y-65274761D01*
X142665476Y-65227142D01*
X142236904Y-65274761D02*
X142141666Y-65322380D01*
X141951190Y-65322380D01*
X141855952Y-65274761D01*
X141808333Y-65179523D01*
X141808333Y-65131904D01*
X141855952Y-65036666D01*
X141951190Y-64989047D01*
X142094047Y-64989047D01*
X142189285Y-64941428D01*
X142236904Y-64846190D01*
X142236904Y-64798571D01*
X142189285Y-64703333D01*
X142094047Y-64655714D01*
X141951190Y-64655714D01*
X141855952Y-64703333D01*
X140998809Y-65274761D02*
X141094047Y-65322380D01*
X141284523Y-65322380D01*
X141379761Y-65274761D01*
X141427380Y-65179523D01*
X141427380Y-64798571D01*
X141379761Y-64703333D01*
X141284523Y-64655714D01*
X141094047Y-64655714D01*
X140998809Y-64703333D01*
X140951190Y-64798571D01*
X140951190Y-64893809D01*
X141427380Y-64989047D01*
X140760714Y-65417619D02*
X139998809Y-65417619D01*
X139808333Y-65274761D02*
X139665476Y-65322380D01*
X139427380Y-65322380D01*
X139332142Y-65274761D01*
X139284523Y-65227142D01*
X139236904Y-65131904D01*
X139236904Y-65036666D01*
X139284523Y-64941428D01*
X139332142Y-64893809D01*
X139427380Y-64846190D01*
X139617857Y-64798571D01*
X139713095Y-64750952D01*
X139760714Y-64703333D01*
X139808333Y-64608095D01*
X139808333Y-64512857D01*
X139760714Y-64417619D01*
X139713095Y-64370000D01*
X139617857Y-64322380D01*
X139379761Y-64322380D01*
X139236904Y-64370000D01*
X138808333Y-65322380D02*
X138808333Y-64655714D01*
X138808333Y-64750952D02*
X138760714Y-64703333D01*
X138665476Y-64655714D01*
X138522619Y-64655714D01*
X138427380Y-64703333D01*
X138379761Y-64798571D01*
X138379761Y-65322380D01*
X138379761Y-64798571D02*
X138332142Y-64703333D01*
X138236904Y-64655714D01*
X138094047Y-64655714D01*
X137998809Y-64703333D01*
X137951190Y-64798571D01*
X137951190Y-65322380D01*
X137046428Y-65322380D02*
X137046428Y-64798571D01*
X137094047Y-64703333D01*
X137189285Y-64655714D01*
X137379761Y-64655714D01*
X137475000Y-64703333D01*
X137046428Y-65274761D02*
X137141666Y-65322380D01*
X137379761Y-65322380D01*
X137475000Y-65274761D01*
X137522619Y-65179523D01*
X137522619Y-65084285D01*
X137475000Y-64989047D01*
X137379761Y-64941428D01*
X137141666Y-64941428D01*
X137046428Y-64893809D01*
X136427380Y-65322380D02*
X136522619Y-65274761D01*
X136570238Y-65179523D01*
X136570238Y-64322380D01*
X135903571Y-65322380D02*
X135998809Y-65274761D01*
X136046428Y-65179523D01*
X136046428Y-64322380D01*
X140308333Y-68478571D02*
X140641666Y-68478571D01*
X140641666Y-69002380D02*
X140641666Y-68002380D01*
X140165476Y-68002380D01*
X139832142Y-68097619D02*
X139784523Y-68050000D01*
X139689285Y-68002380D01*
X139451190Y-68002380D01*
X139355952Y-68050000D01*
X139308333Y-68097619D01*
X139260714Y-68192857D01*
X139260714Y-68288095D01*
X139308333Y-68430952D01*
X139879761Y-69002380D01*
X139260714Y-69002380D01*
%TO.C,F3*%
X121183571Y-44082142D02*
X121183571Y-43748809D01*
X121707380Y-43748809D02*
X120707380Y-43748809D01*
X120707380Y-44225000D01*
X121040714Y-45034523D02*
X121707380Y-45034523D01*
X121040714Y-44605952D02*
X121564523Y-44605952D01*
X121659761Y-44653571D01*
X121707380Y-44748809D01*
X121707380Y-44891666D01*
X121659761Y-44986904D01*
X121612142Y-45034523D01*
X121659761Y-45463095D02*
X121707380Y-45558333D01*
X121707380Y-45748809D01*
X121659761Y-45844047D01*
X121564523Y-45891666D01*
X121516904Y-45891666D01*
X121421666Y-45844047D01*
X121374047Y-45748809D01*
X121374047Y-45605952D01*
X121326428Y-45510714D01*
X121231190Y-45463095D01*
X121183571Y-45463095D01*
X121088333Y-45510714D01*
X121040714Y-45605952D01*
X121040714Y-45748809D01*
X121088333Y-45844047D01*
X121659761Y-46701190D02*
X121707380Y-46605952D01*
X121707380Y-46415476D01*
X121659761Y-46320238D01*
X121564523Y-46272619D01*
X121183571Y-46272619D01*
X121088333Y-46320238D01*
X121040714Y-46415476D01*
X121040714Y-46605952D01*
X121088333Y-46701190D01*
X121183571Y-46748809D01*
X121278809Y-46748809D01*
X121374047Y-46272619D01*
X121802619Y-46939285D02*
X121802619Y-47701190D01*
X121659761Y-47891666D02*
X121707380Y-48034523D01*
X121707380Y-48272619D01*
X121659761Y-48367857D01*
X121612142Y-48415476D01*
X121516904Y-48463095D01*
X121421666Y-48463095D01*
X121326428Y-48415476D01*
X121278809Y-48367857D01*
X121231190Y-48272619D01*
X121183571Y-48082142D01*
X121135952Y-47986904D01*
X121088333Y-47939285D01*
X120993095Y-47891666D01*
X120897857Y-47891666D01*
X120802619Y-47939285D01*
X120755000Y-47986904D01*
X120707380Y-48082142D01*
X120707380Y-48320238D01*
X120755000Y-48463095D01*
X121707380Y-48891666D02*
X121040714Y-48891666D01*
X121135952Y-48891666D02*
X121088333Y-48939285D01*
X121040714Y-49034523D01*
X121040714Y-49177380D01*
X121088333Y-49272619D01*
X121183571Y-49320238D01*
X121707380Y-49320238D01*
X121183571Y-49320238D02*
X121088333Y-49367857D01*
X121040714Y-49463095D01*
X121040714Y-49605952D01*
X121088333Y-49701190D01*
X121183571Y-49748809D01*
X121707380Y-49748809D01*
X121707380Y-50653571D02*
X121183571Y-50653571D01*
X121088333Y-50605952D01*
X121040714Y-50510714D01*
X121040714Y-50320238D01*
X121088333Y-50225000D01*
X121659761Y-50653571D02*
X121707380Y-50558333D01*
X121707380Y-50320238D01*
X121659761Y-50225000D01*
X121564523Y-50177380D01*
X121469285Y-50177380D01*
X121374047Y-50225000D01*
X121326428Y-50320238D01*
X121326428Y-50558333D01*
X121278809Y-50653571D01*
X121707380Y-51272619D02*
X121659761Y-51177380D01*
X121564523Y-51129761D01*
X120707380Y-51129761D01*
X121707380Y-51796428D02*
X121659761Y-51701190D01*
X121564523Y-51653571D01*
X120707380Y-51653571D01*
X117503571Y-47391666D02*
X117503571Y-47058333D01*
X118027380Y-47058333D02*
X117027380Y-47058333D01*
X117027380Y-47534523D01*
X117027380Y-47820238D02*
X117027380Y-48439285D01*
X117408333Y-48105952D01*
X117408333Y-48248809D01*
X117455952Y-48344047D01*
X117503571Y-48391666D01*
X117598809Y-48439285D01*
X117836904Y-48439285D01*
X117932142Y-48391666D01*
X117979761Y-48344047D01*
X118027380Y-48248809D01*
X118027380Y-47963095D01*
X117979761Y-47867857D01*
X117932142Y-47820238D01*
%TO.C,F6*%
X94823571Y-75182142D02*
X94823571Y-74848809D01*
X95347380Y-74848809D02*
X94347380Y-74848809D01*
X94347380Y-75325000D01*
X94680714Y-76134523D02*
X95347380Y-76134523D01*
X94680714Y-75705952D02*
X95204523Y-75705952D01*
X95299761Y-75753571D01*
X95347380Y-75848809D01*
X95347380Y-75991666D01*
X95299761Y-76086904D01*
X95252142Y-76134523D01*
X95299761Y-76563095D02*
X95347380Y-76658333D01*
X95347380Y-76848809D01*
X95299761Y-76944047D01*
X95204523Y-76991666D01*
X95156904Y-76991666D01*
X95061666Y-76944047D01*
X95014047Y-76848809D01*
X95014047Y-76705952D01*
X94966428Y-76610714D01*
X94871190Y-76563095D01*
X94823571Y-76563095D01*
X94728333Y-76610714D01*
X94680714Y-76705952D01*
X94680714Y-76848809D01*
X94728333Y-76944047D01*
X95299761Y-77801190D02*
X95347380Y-77705952D01*
X95347380Y-77515476D01*
X95299761Y-77420238D01*
X95204523Y-77372619D01*
X94823571Y-77372619D01*
X94728333Y-77420238D01*
X94680714Y-77515476D01*
X94680714Y-77705952D01*
X94728333Y-77801190D01*
X94823571Y-77848809D01*
X94918809Y-77848809D01*
X95014047Y-77372619D01*
X95442619Y-78039285D02*
X95442619Y-78801190D01*
X95299761Y-78991666D02*
X95347380Y-79134523D01*
X95347380Y-79372619D01*
X95299761Y-79467857D01*
X95252142Y-79515476D01*
X95156904Y-79563095D01*
X95061666Y-79563095D01*
X94966428Y-79515476D01*
X94918809Y-79467857D01*
X94871190Y-79372619D01*
X94823571Y-79182142D01*
X94775952Y-79086904D01*
X94728333Y-79039285D01*
X94633095Y-78991666D01*
X94537857Y-78991666D01*
X94442619Y-79039285D01*
X94395000Y-79086904D01*
X94347380Y-79182142D01*
X94347380Y-79420238D01*
X94395000Y-79563095D01*
X95347380Y-79991666D02*
X94680714Y-79991666D01*
X94775952Y-79991666D02*
X94728333Y-80039285D01*
X94680714Y-80134523D01*
X94680714Y-80277380D01*
X94728333Y-80372619D01*
X94823571Y-80420238D01*
X95347380Y-80420238D01*
X94823571Y-80420238D02*
X94728333Y-80467857D01*
X94680714Y-80563095D01*
X94680714Y-80705952D01*
X94728333Y-80801190D01*
X94823571Y-80848809D01*
X95347380Y-80848809D01*
X95347380Y-81753571D02*
X94823571Y-81753571D01*
X94728333Y-81705952D01*
X94680714Y-81610714D01*
X94680714Y-81420238D01*
X94728333Y-81325000D01*
X95299761Y-81753571D02*
X95347380Y-81658333D01*
X95347380Y-81420238D01*
X95299761Y-81325000D01*
X95204523Y-81277380D01*
X95109285Y-81277380D01*
X95014047Y-81325000D01*
X94966428Y-81420238D01*
X94966428Y-81658333D01*
X94918809Y-81753571D01*
X95347380Y-82372619D02*
X95299761Y-82277380D01*
X95204523Y-82229761D01*
X94347380Y-82229761D01*
X95347380Y-82896428D02*
X95299761Y-82801190D01*
X95204523Y-82753571D01*
X94347380Y-82753571D01*
X98503571Y-78491666D02*
X98503571Y-78158333D01*
X99027380Y-78158333D02*
X98027380Y-78158333D01*
X98027380Y-78634523D01*
X98027380Y-79444047D02*
X98027380Y-79253571D01*
X98075000Y-79158333D01*
X98122619Y-79110714D01*
X98265476Y-79015476D01*
X98455952Y-78967857D01*
X98836904Y-78967857D01*
X98932142Y-79015476D01*
X98979761Y-79063095D01*
X99027380Y-79158333D01*
X99027380Y-79348809D01*
X98979761Y-79444047D01*
X98932142Y-79491666D01*
X98836904Y-79539285D01*
X98598809Y-79539285D01*
X98503571Y-79491666D01*
X98455952Y-79444047D01*
X98408333Y-79348809D01*
X98408333Y-79158333D01*
X98455952Y-79063095D01*
X98503571Y-79015476D01*
X98598809Y-78967857D01*
%TO.C,F5*%
X164923571Y-75832142D02*
X164923571Y-75498809D01*
X165447380Y-75498809D02*
X164447380Y-75498809D01*
X164447380Y-75975000D01*
X164780714Y-76784523D02*
X165447380Y-76784523D01*
X164780714Y-76355952D02*
X165304523Y-76355952D01*
X165399761Y-76403571D01*
X165447380Y-76498809D01*
X165447380Y-76641666D01*
X165399761Y-76736904D01*
X165352142Y-76784523D01*
X165399761Y-77213095D02*
X165447380Y-77308333D01*
X165447380Y-77498809D01*
X165399761Y-77594047D01*
X165304523Y-77641666D01*
X165256904Y-77641666D01*
X165161666Y-77594047D01*
X165114047Y-77498809D01*
X165114047Y-77355952D01*
X165066428Y-77260714D01*
X164971190Y-77213095D01*
X164923571Y-77213095D01*
X164828333Y-77260714D01*
X164780714Y-77355952D01*
X164780714Y-77498809D01*
X164828333Y-77594047D01*
X165399761Y-78451190D02*
X165447380Y-78355952D01*
X165447380Y-78165476D01*
X165399761Y-78070238D01*
X165304523Y-78022619D01*
X164923571Y-78022619D01*
X164828333Y-78070238D01*
X164780714Y-78165476D01*
X164780714Y-78355952D01*
X164828333Y-78451190D01*
X164923571Y-78498809D01*
X165018809Y-78498809D01*
X165114047Y-78022619D01*
X165542619Y-78689285D02*
X165542619Y-79451190D01*
X165399761Y-79641666D02*
X165447380Y-79784523D01*
X165447380Y-80022619D01*
X165399761Y-80117857D01*
X165352142Y-80165476D01*
X165256904Y-80213095D01*
X165161666Y-80213095D01*
X165066428Y-80165476D01*
X165018809Y-80117857D01*
X164971190Y-80022619D01*
X164923571Y-79832142D01*
X164875952Y-79736904D01*
X164828333Y-79689285D01*
X164733095Y-79641666D01*
X164637857Y-79641666D01*
X164542619Y-79689285D01*
X164495000Y-79736904D01*
X164447380Y-79832142D01*
X164447380Y-80070238D01*
X164495000Y-80213095D01*
X165447380Y-80641666D02*
X164780714Y-80641666D01*
X164875952Y-80641666D02*
X164828333Y-80689285D01*
X164780714Y-80784523D01*
X164780714Y-80927380D01*
X164828333Y-81022619D01*
X164923571Y-81070238D01*
X165447380Y-81070238D01*
X164923571Y-81070238D02*
X164828333Y-81117857D01*
X164780714Y-81213095D01*
X164780714Y-81355952D01*
X164828333Y-81451190D01*
X164923571Y-81498809D01*
X165447380Y-81498809D01*
X165447380Y-82403571D02*
X164923571Y-82403571D01*
X164828333Y-82355952D01*
X164780714Y-82260714D01*
X164780714Y-82070238D01*
X164828333Y-81975000D01*
X165399761Y-82403571D02*
X165447380Y-82308333D01*
X165447380Y-82070238D01*
X165399761Y-81975000D01*
X165304523Y-81927380D01*
X165209285Y-81927380D01*
X165114047Y-81975000D01*
X165066428Y-82070238D01*
X165066428Y-82308333D01*
X165018809Y-82403571D01*
X165447380Y-83022619D02*
X165399761Y-82927380D01*
X165304523Y-82879761D01*
X164447380Y-82879761D01*
X165447380Y-83546428D02*
X165399761Y-83451190D01*
X165304523Y-83403571D01*
X164447380Y-83403571D01*
X168603571Y-79141666D02*
X168603571Y-78808333D01*
X169127380Y-78808333D02*
X168127380Y-78808333D01*
X168127380Y-79284523D01*
X168127380Y-80141666D02*
X168127380Y-79665476D01*
X168603571Y-79617857D01*
X168555952Y-79665476D01*
X168508333Y-79760714D01*
X168508333Y-79998809D01*
X168555952Y-80094047D01*
X168603571Y-80141666D01*
X168698809Y-80189285D01*
X168936904Y-80189285D01*
X169032142Y-80141666D01*
X169079761Y-80094047D01*
X169127380Y-79998809D01*
X169127380Y-79760714D01*
X169079761Y-79665476D01*
X169032142Y-79617857D01*
%TO.C,U1*%
X140554761Y-53489476D02*
X140602380Y-53632333D01*
X140602380Y-53870428D01*
X140554761Y-53965666D01*
X140507142Y-54013285D01*
X140411904Y-54060904D01*
X140316666Y-54060904D01*
X140221428Y-54013285D01*
X140173809Y-53965666D01*
X140126190Y-53870428D01*
X140078571Y-53679952D01*
X140030952Y-53584714D01*
X139983333Y-53537095D01*
X139888095Y-53489476D01*
X139792857Y-53489476D01*
X139697619Y-53537095D01*
X139650000Y-53584714D01*
X139602380Y-53679952D01*
X139602380Y-53918047D01*
X139650000Y-54060904D01*
X140602380Y-54965666D02*
X140602380Y-54489476D01*
X139602380Y-54489476D01*
X139697619Y-55251380D02*
X139650000Y-55299000D01*
X139602380Y-55394238D01*
X139602380Y-55632333D01*
X139650000Y-55727571D01*
X139697619Y-55775190D01*
X139792857Y-55822809D01*
X139888095Y-55822809D01*
X140030952Y-55775190D01*
X140602380Y-55203761D01*
X140602380Y-55822809D01*
X140507142Y-56251380D02*
X140554761Y-56299000D01*
X140602380Y-56251380D01*
X140554761Y-56203761D01*
X140507142Y-56251380D01*
X140602380Y-56251380D01*
X140602380Y-57251380D02*
X140602380Y-56679952D01*
X140602380Y-56965666D02*
X139602380Y-56965666D01*
X139745238Y-56870428D01*
X139840476Y-56775190D01*
X139888095Y-56679952D01*
X140316666Y-57632333D02*
X140316666Y-58108523D01*
X140602380Y-57537095D02*
X139602380Y-57870428D01*
X140602380Y-58203761D01*
D12*
%TO.C,F4*%
X185165000Y-44372500D02*
X185165000Y-51727500D01*
X185165000Y-51727500D02*
X190285000Y-51727500D01*
X190285000Y-44372500D02*
X185165000Y-44372500D01*
X190285000Y-51727500D02*
X190285000Y-44372500D01*
%TO.C,F2*%
X143652500Y-71110000D02*
X143652500Y-65990000D01*
X136297500Y-71110000D02*
X143652500Y-71110000D01*
X136297500Y-65990000D02*
X136297500Y-71110000D01*
X143652500Y-65990000D02*
X136297500Y-65990000D01*
%TO.C,F3*%
X115015000Y-44047500D02*
X115015000Y-51402500D01*
X120135000Y-44047500D02*
X115015000Y-44047500D01*
X120135000Y-51402500D02*
X120135000Y-44047500D01*
X115015000Y-51402500D02*
X120135000Y-51402500D01*
%TO.C,F6*%
X96015000Y-75147500D02*
X96015000Y-82502500D01*
X101135000Y-82502500D02*
X101135000Y-75147500D01*
X101135000Y-75147500D02*
X96015000Y-75147500D01*
X96015000Y-82502500D02*
X101135000Y-82502500D01*
%TO.C,F5*%
X171235000Y-75797500D02*
X166115000Y-75797500D01*
X171235000Y-83152500D02*
X171235000Y-75797500D01*
X166115000Y-83152500D02*
X171235000Y-83152500D01*
X166115000Y-75797500D02*
X166115000Y-83152500D01*
D13*
%TO.C,U1*%
X138194200Y-55164000D02*
X138194200Y-54656000D01*
X138194200Y-54656000D02*
X137051200Y-54656000D01*
X137051200Y-54656000D02*
X137051200Y-55164000D01*
X137051200Y-55164000D02*
X138194200Y-55164000D01*
G36*
X138194200Y-55164000D02*
G01*
X137051200Y-55164000D01*
X137051200Y-54656000D01*
X138194200Y-54656000D01*
X138194200Y-55164000D01*
G37*
X138194200Y-55164000D02*
X137051200Y-55164000D01*
X137051200Y-54656000D01*
X138194200Y-54656000D01*
X138194200Y-55164000D01*
X143248800Y-52624000D02*
X143248800Y-52116000D01*
X143248800Y-52116000D02*
X142105800Y-52116000D01*
X142105800Y-52116000D02*
X142105800Y-52624000D01*
X142105800Y-52624000D02*
X143248800Y-52624000D01*
G36*
X143248800Y-52624000D02*
G01*
X142105800Y-52624000D01*
X142105800Y-52116000D01*
X143248800Y-52116000D01*
X143248800Y-52624000D01*
G37*
X143248800Y-52624000D02*
X142105800Y-52624000D01*
X142105800Y-52116000D01*
X143248800Y-52116000D01*
X143248800Y-52624000D01*
X143248800Y-57704000D02*
X143248800Y-57196000D01*
X143248800Y-57196000D02*
X142105800Y-57196000D01*
X142105800Y-57196000D02*
X142105800Y-57704000D01*
X142105800Y-57704000D02*
X143248800Y-57704000D01*
G36*
X143248800Y-57704000D02*
G01*
X142105800Y-57704000D01*
X142105800Y-57196000D01*
X143248800Y-57196000D01*
X143248800Y-57704000D01*
G37*
X143248800Y-57704000D02*
X142105800Y-57704000D01*
X142105800Y-57196000D01*
X143248800Y-57196000D01*
X143248800Y-57704000D01*
X143248800Y-53894000D02*
X143248800Y-53386000D01*
X143248800Y-53386000D02*
X142105800Y-53386000D01*
X142105800Y-53386000D02*
X142105800Y-53894000D01*
X142105800Y-53894000D02*
X143248800Y-53894000D01*
G36*
X143248800Y-53894000D02*
G01*
X142105800Y-53894000D01*
X142105800Y-53386000D01*
X143248800Y-53386000D01*
X143248800Y-53894000D01*
G37*
X143248800Y-53894000D02*
X142105800Y-53894000D01*
X142105800Y-53386000D01*
X143248800Y-53386000D01*
X143248800Y-53894000D01*
X138194200Y-52624000D02*
X138194200Y-52116000D01*
X138194200Y-52116000D02*
X137051200Y-52116000D01*
X137051200Y-52116000D02*
X137051200Y-52624000D01*
X137051200Y-52624000D02*
X138194200Y-52624000D01*
G36*
X138194200Y-52624000D02*
G01*
X137051200Y-52624000D01*
X137051200Y-52116000D01*
X138194200Y-52116000D01*
X138194200Y-52624000D01*
G37*
X138194200Y-52624000D02*
X137051200Y-52624000D01*
X137051200Y-52116000D01*
X138194200Y-52116000D01*
X138194200Y-52624000D01*
X138219600Y-56434000D02*
X138219600Y-55926000D01*
X138219600Y-55926000D02*
X137076600Y-55926000D01*
X137076600Y-55926000D02*
X137076600Y-56434000D01*
X137076600Y-56434000D02*
X138219600Y-56434000D01*
G36*
X138219600Y-56434000D02*
G01*
X137076600Y-56434000D01*
X137076600Y-55926000D01*
X138219600Y-55926000D01*
X138219600Y-56434000D01*
G37*
X138219600Y-56434000D02*
X137076600Y-56434000D01*
X137076600Y-55926000D01*
X138219600Y-55926000D01*
X138219600Y-56434000D01*
X143248800Y-58974000D02*
X143248800Y-58466000D01*
X143248800Y-58466000D02*
X142105800Y-58466000D01*
X142105800Y-58466000D02*
X142105800Y-58974000D01*
X142105800Y-58974000D02*
X143248800Y-58974000D01*
G36*
X143248800Y-58974000D02*
G01*
X142105800Y-58974000D01*
X142105800Y-58466000D01*
X143248800Y-58466000D01*
X143248800Y-58974000D01*
G37*
X143248800Y-58974000D02*
X142105800Y-58974000D01*
X142105800Y-58466000D01*
X143248800Y-58466000D01*
X143248800Y-58974000D01*
X138194200Y-57704000D02*
X138194200Y-57196000D01*
X138194200Y-57196000D02*
X137051200Y-57196000D01*
X137051200Y-57196000D02*
X137051200Y-57704000D01*
X137051200Y-57704000D02*
X138194200Y-57704000D01*
G36*
X138194200Y-57704000D02*
G01*
X137051200Y-57704000D01*
X137051200Y-57196000D01*
X138194200Y-57196000D01*
X138194200Y-57704000D01*
G37*
X138194200Y-57704000D02*
X137051200Y-57704000D01*
X137051200Y-57196000D01*
X138194200Y-57196000D01*
X138194200Y-57704000D01*
X143248800Y-50084000D02*
X143248800Y-49576000D01*
X143248800Y-49576000D02*
X142105800Y-49576000D01*
X142105800Y-49576000D02*
X142105800Y-50084000D01*
X142105800Y-50084000D02*
X143248800Y-50084000D01*
G36*
X143248800Y-50084000D02*
G01*
X142105800Y-50084000D01*
X142105800Y-49576000D01*
X143248800Y-49576000D01*
X143248800Y-50084000D01*
G37*
X143248800Y-50084000D02*
X142105800Y-50084000D01*
X142105800Y-49576000D01*
X143248800Y-49576000D01*
X143248800Y-50084000D01*
X138194200Y-50084000D02*
X138194200Y-49576000D01*
X138194200Y-49576000D02*
X137051200Y-49576000D01*
X137051200Y-49576000D02*
X137051200Y-50084000D01*
X137051200Y-50084000D02*
X138194200Y-50084000D01*
G36*
X138194200Y-50084000D02*
G01*
X137051200Y-50084000D01*
X137051200Y-49576000D01*
X138194200Y-49576000D01*
X138194200Y-50084000D01*
G37*
X138194200Y-50084000D02*
X137051200Y-50084000D01*
X137051200Y-49576000D01*
X138194200Y-49576000D01*
X138194200Y-50084000D01*
X143248800Y-51354000D02*
X143248800Y-50846000D01*
X143248800Y-50846000D02*
X142105800Y-50846000D01*
X142105800Y-50846000D02*
X142105800Y-51354000D01*
X142105800Y-51354000D02*
X143248800Y-51354000D01*
G36*
X143248800Y-51354000D02*
G01*
X142105800Y-51354000D01*
X142105800Y-50846000D01*
X143248800Y-50846000D01*
X143248800Y-51354000D01*
G37*
X143248800Y-51354000D02*
X142105800Y-51354000D01*
X142105800Y-50846000D01*
X143248800Y-50846000D01*
X143248800Y-51354000D01*
X143248800Y-56434000D02*
X143248800Y-55926000D01*
X143248800Y-55926000D02*
X142105800Y-55926000D01*
X142105800Y-55926000D02*
X142105800Y-56434000D01*
X142105800Y-56434000D02*
X143248800Y-56434000D01*
G36*
X143248800Y-56434000D02*
G01*
X142105800Y-56434000D01*
X142105800Y-55926000D01*
X143248800Y-55926000D01*
X143248800Y-56434000D01*
G37*
X143248800Y-56434000D02*
X142105800Y-56434000D01*
X142105800Y-55926000D01*
X143248800Y-55926000D01*
X143248800Y-56434000D01*
X138194200Y-51354000D02*
X138194200Y-50846000D01*
X138194200Y-50846000D02*
X137051200Y-50846000D01*
X137051200Y-50846000D02*
X137051200Y-51354000D01*
X137051200Y-51354000D02*
X138194200Y-51354000D01*
G36*
X138194200Y-51354000D02*
G01*
X137051200Y-51354000D01*
X137051200Y-50846000D01*
X138194200Y-50846000D01*
X138194200Y-51354000D01*
G37*
X138194200Y-51354000D02*
X137051200Y-51354000D01*
X137051200Y-50846000D01*
X138194200Y-50846000D01*
X138194200Y-51354000D01*
X138194200Y-58974000D02*
X138194200Y-58466000D01*
X138194200Y-58466000D02*
X137051200Y-58466000D01*
X137051200Y-58466000D02*
X137051200Y-58974000D01*
X137051200Y-58974000D02*
X138194200Y-58974000D01*
G36*
X138194200Y-58974000D02*
G01*
X137051200Y-58974000D01*
X137051200Y-58466000D01*
X138194200Y-58466000D01*
X138194200Y-58974000D01*
G37*
X138194200Y-58974000D02*
X137051200Y-58974000D01*
X137051200Y-58466000D01*
X138194200Y-58466000D01*
X138194200Y-58974000D01*
X138194200Y-53894000D02*
X138194200Y-53386000D01*
X138194200Y-53386000D02*
X137051200Y-53386000D01*
X137051200Y-53386000D02*
X137051200Y-53894000D01*
X137051200Y-53894000D02*
X138194200Y-53894000D01*
G36*
X138194200Y-53894000D02*
G01*
X137051200Y-53894000D01*
X137051200Y-53386000D01*
X138194200Y-53386000D01*
X138194200Y-53894000D01*
G37*
X138194200Y-53894000D02*
X137051200Y-53894000D01*
X137051200Y-53386000D01*
X138194200Y-53386000D01*
X138194200Y-53894000D01*
X143248800Y-55164000D02*
X143248800Y-54656000D01*
X143248800Y-54656000D02*
X142105800Y-54656000D01*
X142105800Y-54656000D02*
X142105800Y-55164000D01*
X142105800Y-55164000D02*
X143248800Y-55164000D01*
G36*
X143248800Y-55164000D02*
G01*
X142105800Y-55164000D01*
X142105800Y-54656000D01*
X143248800Y-54656000D01*
X143248800Y-55164000D01*
G37*
X143248800Y-55164000D02*
X142105800Y-55164000D01*
X142105800Y-54656000D01*
X143248800Y-54656000D01*
X143248800Y-55164000D01*
%TD*%
M02*
