%TF.GenerationSoftware,KiCad,Pcbnew,6.0.2+dfsg-1*%
%TF.CreationDate,2023-03-05T21:27:34-05:00*%
%TF.ProjectId,BFUSB_HUB,42465553-425f-4485-9542-2e6b69636164,rev?*%
%TF.SameCoordinates,Original*%
%TF.FileFunction,Other,User*%
%FSLAX46Y46*%
G04 Gerber Fmt 4.6, Leading zero omitted, Abs format (unit mm)*
G04 Created by KiCad (PCBNEW 6.0.2+dfsg-1) date 2023-03-05 21:27:34*
%MOMM*%
%LPD*%
G01*
G04 APERTURE LIST*
%TA.AperFunction,Profile*%
%ADD10C,0.100000*%
%TD*%
%ADD11C,0.050000*%
G04 APERTURE END LIST*
D10*
X75676843Y-108350000D02*
G75*
G03*
X75676843Y-108350000I-1526843J0D01*
G01*
X224648975Y-108425000D02*
G75*
G03*
X224648975Y-108425000I-1523975J0D01*
G01*
X224595691Y-18325000D02*
G75*
G03*
X224595691Y-18325000I-1520691J0D01*
G01*
X75620691Y-18275000D02*
G75*
G03*
X75620691Y-18275000I-1520691J0D01*
G01*
X71100000Y-13325000D02*
X226100000Y-13325000D01*
X226100000Y-13325000D02*
X226100000Y-113325000D01*
X226100000Y-113325000D02*
X71100000Y-113325000D01*
X71100000Y-113325000D02*
X71100000Y-13325000D01*
D11*
%TO.C,F4*%
X190705000Y-52830000D02*
X190705000Y-43270000D01*
X184745000Y-52830000D02*
X190705000Y-52830000D01*
X190705000Y-43270000D02*
X184745000Y-43270000D01*
X184745000Y-43270000D02*
X184745000Y-52830000D01*
%TO.C,F2*%
X144755000Y-65570000D02*
X135195000Y-65570000D01*
X135195000Y-71530000D02*
X144755000Y-71530000D01*
X135195000Y-65570000D02*
X135195000Y-71530000D01*
X144755000Y-71530000D02*
X144755000Y-65570000D01*
%TO.C,F3*%
X120555000Y-42945000D02*
X114595000Y-42945000D01*
X114595000Y-52505000D02*
X120555000Y-52505000D01*
X120555000Y-52505000D02*
X120555000Y-42945000D01*
X114595000Y-42945000D02*
X114595000Y-52505000D01*
%TO.C,F6*%
X95595000Y-74045000D02*
X95595000Y-83605000D01*
X95595000Y-83605000D02*
X101555000Y-83605000D01*
X101555000Y-83605000D02*
X101555000Y-74045000D01*
X101555000Y-74045000D02*
X95595000Y-74045000D01*
%TO.C,F5*%
X165695000Y-74695000D02*
X165695000Y-84255000D01*
X171655000Y-74695000D02*
X165695000Y-74695000D01*
X165695000Y-84255000D02*
X171655000Y-84255000D01*
X171655000Y-84255000D02*
X171655000Y-74695000D01*
%TD*%
M02*
