%TF.GenerationSoftware,KiCad,Pcbnew,6.0.2+dfsg-1*%
%TF.CreationDate,2023-03-05T21:27:33-05:00*%
%TF.ProjectId,BFUSB_HUB,42465553-425f-4485-9542-2e6b69636164,rev?*%
%TF.SameCoordinates,Original*%
%TF.FileFunction,Legend,Bot*%
%TF.FilePolarity,Positive*%
%FSLAX46Y46*%
G04 Gerber Fmt 4.6, Leading zero omitted, Abs format (unit mm)*
G04 Created by KiCad (PCBNEW 6.0.2+dfsg-1) date 2023-03-05 21:27:33*
%MOMM*%
%LPD*%
G01*
G04 APERTURE LIST*
%TA.AperFunction,Profile*%
%ADD10C,0.100000*%
%TD*%
%ADD11C,0.150000*%
%ADD12C,0.120000*%
%ADD13C,0.152400*%
%ADD14C,0.050800*%
G04 APERTURE END LIST*
D10*
X75676843Y-108350000D02*
G75*
G03*
X75676843Y-108350000I-1526843J0D01*
G01*
X224648975Y-108425000D02*
G75*
G03*
X224648975Y-108425000I-1523975J0D01*
G01*
X224595691Y-18325000D02*
G75*
G03*
X224595691Y-18325000I-1520691J0D01*
G01*
X75620691Y-18275000D02*
G75*
G03*
X75620691Y-18275000I-1520691J0D01*
G01*
X71100000Y-13325000D02*
X226100000Y-13325000D01*
X226100000Y-13325000D02*
X226100000Y-113325000D01*
X226100000Y-113325000D02*
X71100000Y-113325000D01*
X71100000Y-113325000D02*
X71100000Y-13325000D01*
D11*
%TO.C,F4*%
X183973571Y-47716666D02*
X183973571Y-47383333D01*
X184497380Y-47383333D02*
X183497380Y-47383333D01*
X183497380Y-47859523D01*
X183830714Y-48669047D02*
X184497380Y-48669047D01*
X183449761Y-48430952D02*
X184164047Y-48192857D01*
X184164047Y-48811904D01*
%TO.C,F2*%
X140308333Y-72158571D02*
X140641666Y-72158571D01*
X140641666Y-72682380D02*
X140641666Y-71682380D01*
X140165476Y-71682380D01*
X139832142Y-71777619D02*
X139784523Y-71730000D01*
X139689285Y-71682380D01*
X139451190Y-71682380D01*
X139355952Y-71730000D01*
X139308333Y-71777619D01*
X139260714Y-71872857D01*
X139260714Y-71968095D01*
X139308333Y-72110952D01*
X139879761Y-72682380D01*
X139260714Y-72682380D01*
%TO.C,F3*%
X113823571Y-47391666D02*
X113823571Y-47058333D01*
X114347380Y-47058333D02*
X113347380Y-47058333D01*
X113347380Y-47534523D01*
X113347380Y-47820238D02*
X113347380Y-48439285D01*
X113728333Y-48105952D01*
X113728333Y-48248809D01*
X113775952Y-48344047D01*
X113823571Y-48391666D01*
X113918809Y-48439285D01*
X114156904Y-48439285D01*
X114252142Y-48391666D01*
X114299761Y-48344047D01*
X114347380Y-48248809D01*
X114347380Y-47963095D01*
X114299761Y-47867857D01*
X114252142Y-47820238D01*
%TO.C,F6*%
X102183571Y-78491666D02*
X102183571Y-78158333D01*
X102707380Y-78158333D02*
X101707380Y-78158333D01*
X101707380Y-78634523D01*
X101707380Y-79444047D02*
X101707380Y-79253571D01*
X101755000Y-79158333D01*
X101802619Y-79110714D01*
X101945476Y-79015476D01*
X102135952Y-78967857D01*
X102516904Y-78967857D01*
X102612142Y-79015476D01*
X102659761Y-79063095D01*
X102707380Y-79158333D01*
X102707380Y-79348809D01*
X102659761Y-79444047D01*
X102612142Y-79491666D01*
X102516904Y-79539285D01*
X102278809Y-79539285D01*
X102183571Y-79491666D01*
X102135952Y-79444047D01*
X102088333Y-79348809D01*
X102088333Y-79158333D01*
X102135952Y-79063095D01*
X102183571Y-79015476D01*
X102278809Y-78967857D01*
%TO.C,F5*%
X172283571Y-79141666D02*
X172283571Y-78808333D01*
X172807380Y-78808333D02*
X171807380Y-78808333D01*
X171807380Y-79284523D01*
X171807380Y-80141666D02*
X171807380Y-79665476D01*
X172283571Y-79617857D01*
X172235952Y-79665476D01*
X172188333Y-79760714D01*
X172188333Y-79998809D01*
X172235952Y-80094047D01*
X172283571Y-80141666D01*
X172378809Y-80189285D01*
X172616904Y-80189285D01*
X172712142Y-80141666D01*
X172759761Y-80094047D01*
X172807380Y-79998809D01*
X172807380Y-79760714D01*
X172759761Y-79665476D01*
X172712142Y-79617857D01*
%TO.C,U1*%
X140999380Y-59609095D02*
X141808904Y-59609095D01*
X141904142Y-59656714D01*
X141951761Y-59704333D01*
X141999380Y-59799571D01*
X141999380Y-59990047D01*
X141951761Y-60085285D01*
X141904142Y-60132904D01*
X141808904Y-60180523D01*
X140999380Y-60180523D01*
X141999380Y-61180523D02*
X141999380Y-60609095D01*
X141999380Y-60894809D02*
X140999380Y-60894809D01*
X141142238Y-60799571D01*
X141237476Y-60704333D01*
X141285095Y-60609095D01*
D12*
%TO.C,F4*%
X190395000Y-45846248D02*
X190395000Y-50253752D01*
X185055000Y-45846248D02*
X185055000Y-50253752D01*
%TO.C,F2*%
X137771248Y-65880000D02*
X142178752Y-65880000D01*
X137771248Y-71220000D02*
X142178752Y-71220000D01*
%TO.C,F3*%
X114905000Y-45521248D02*
X114905000Y-49928752D01*
X120245000Y-45521248D02*
X120245000Y-49928752D01*
%TO.C,F6*%
X95905000Y-81028752D02*
X95905000Y-76621248D01*
X101245000Y-81028752D02*
X101245000Y-76621248D01*
%TO.C,F5*%
X166005000Y-81678752D02*
X166005000Y-77271248D01*
X171345000Y-81678752D02*
X171345000Y-77271248D01*
D13*
%TO.C,U1*%
X140658000Y-59355000D02*
X139642000Y-59355000D01*
X141724800Y-59355000D02*
X140658000Y-59355000D01*
X138575200Y-49195000D02*
X141724800Y-49195000D01*
D14*
X138549800Y-59355000D02*
X138549800Y-49195000D01*
D13*
X139642000Y-59355000D02*
X138575200Y-59355000D01*
X142105800Y-49576000D02*
X142105800Y-58974000D01*
X138194200Y-58974000D02*
X138194200Y-49576000D01*
X142105800Y-49576000D02*
G75*
G03*
X141724800Y-49195000I-380999J1D01*
G01*
X138194200Y-58974000D02*
G75*
G03*
X138575200Y-59355000I380999J-1D01*
G01*
X141724800Y-59355000D02*
G75*
G03*
X142105800Y-58974000I1J380999D01*
G01*
X140658000Y-59355000D02*
G75*
G03*
X139642000Y-59355000I-508000J0D01*
G01*
X138575200Y-49195000D02*
G75*
G03*
X138194200Y-49576000I-1J-380999D01*
G01*
%TD*%
M02*
