M48
; DRILL file {KiCad 6.0.2+dfsg-1} date Sat 29 Apr 2023 01:16:42 AM EDT
; FORMAT={-:-/ absolute / inch / decimal}
; #@! TF.CreationDate,2023-04-29T01:16:42-04:00
; #@! TF.GenerationSoftware,Kicad,Pcbnew,6.0.2+dfsg-1
; #@! TF.FileFunction,Plated,1,2,PTH
FMAT,2
INCH
; #@! TA.AperFunction,Plated,PTH,ViaDrill
T1C0.0157
; #@! TA.AperFunction,Plated,PTH,ComponentDrill
T2C0.0236
; #@! TA.AperFunction,Plated,PTH,ComponentDrill
T3C0.0276
; #@! TA.AperFunction,Plated,PTH,ComponentDrill
T4C0.0315
; #@! TA.AperFunction,Plated,PTH,ComponentDrill
T5C0.0354
; #@! TA.AperFunction,Plated,PTH,ComponentDrill
T6C0.0362
; #@! TA.AperFunction,Plated,PTH,ComponentDrill
T7C0.0394
; #@! TA.AperFunction,Plated,PTH,ComponentDrill
T8C0.0433
; #@! TA.AperFunction,Plated,PTH,ComponentDrill
T9C0.0591
; #@! TA.AperFunction,Plated,PTH,ComponentDrill
T10C0.0906
%
G90
G05
T1
X3.8819Y-2.8937
X3.9321Y-2.7628
X3.9843Y-2.7608
X4.5256Y-2.2254
X4.5787Y-2.2254
X4.6289Y-2.0935
X5.4744Y-2.2126
X5.4764Y-2.1122
X5.4764Y-2.1624
X5.4793Y-2.062
X5.9754Y-2.1437
X6.6398Y-2.9134
X7.3917Y-2.1152
X7.9547Y-3.2372
X8.44Y-3.5531
X8.4744Y-3.5226
X8.622Y-3.5148
T3
X8.1112Y-2.7766
X8.1112Y-2.8514
X8.2707Y-2.7783
X8.2707Y-2.8531
T4
X2.9823Y-3.5689
X3.1791Y-3.5689
X3.4213Y-2.8738
X3.4213Y-3.0659
X3.4429Y-1.4222
X3.5581Y-2.4045
X3.5581Y-2.6014
X3.6398Y-1.4222
X3.6919Y-3.565
X3.8888Y-3.565
X3.9793Y-2.3967
X3.9793Y-2.5935
X4.1596Y-1.4222
X4.2608Y-1.9449
X4.2608Y-2.1417
X4.2717Y-2.8553
X4.2717Y-3.0522
X4.3564Y-1.4222
X4.4026Y-3.565
X4.5384Y-2.376
X4.5384Y-2.5728
X4.5994Y-3.565
X4.8763Y-1.4222
X4.9626Y-2.378
X4.9626Y-2.5748
X5.0731Y-1.4222
X5.0856Y-1.9252
X5.0856Y-2.1173
X5.1161Y-3.5689
X5.313Y-3.5689
X5.3533Y-2.938
X5.3533Y-3.1348
X5.427Y-2.4478
X5.5929Y-1.4222
X5.6191Y-2.4478
X5.7898Y-1.4222
X5.8258Y-3.563
X5.9114Y-2.1614
X5.9902Y-1.6339
X5.9902Y-1.8307
X6.0226Y-3.563
X6.1083Y-2.1614
X6.1909Y-2.9033
X6.1909Y-3.0955
X6.3041Y-2.4203
X6.3041Y-2.6171
X6.3096Y-1.4222
X6.5065Y-1.4222
X6.5394Y-3.5679
X6.7254Y-2.4213
X6.7254Y-2.6181
X6.7362Y-3.5679
X6.9872Y-2.8278
X6.9872Y-3.0246
X7.0263Y-1.4222
X7.0472Y-1.9557
X7.0472Y-2.1526
X7.2231Y-1.4222
X7.249Y-3.5699
X7.3031Y-2.4163
X7.3031Y-2.6132
X7.4459Y-3.5699
X7.7234Y-2.4163
X7.7234Y-2.6132
X7.743Y-1.4222
X7.8494Y-1.9545
X7.8494Y-2.1467
X7.9398Y-1.4222
X7.9596Y-3.561
X8.1565Y-3.561
X8.4596Y-1.4222
X8.6565Y-1.4222
T5
X8.063Y-2.589
X8.063Y-2.689
X8.3189Y-2.59
X8.3189Y-2.69
T6
X3.1683Y-1.0931
X3.1801Y-3.897
X3.2667Y-1.0931
X3.2785Y-3.897
X3.3455Y-1.0931
X3.3573Y-3.897
X3.4439Y-1.0931
X3.4557Y-3.897
X3.885Y-1.0931
X3.8909Y-3.897
X3.9834Y-1.0931
X3.9893Y-3.897
X4.0621Y-1.0931
X4.068Y-3.897
X4.1606Y-1.0931
X4.1665Y-3.897
X4.6016Y-3.897
X4.6017Y-1.0931
X4.7Y-3.897
X4.7001Y-1.0931
X4.7788Y-3.897
X4.7788Y-1.0931
X4.8772Y-3.897
X4.8772Y-1.0931
X5.3123Y-3.897
X5.3183Y-1.0931
X5.4108Y-3.897
X5.4168Y-1.0931
X5.4895Y-3.897
X5.4955Y-1.0931
X5.5879Y-3.897
X5.5939Y-1.0931
X6.0231Y-3.897
X6.035Y-1.0931
X6.1215Y-3.897
X6.1334Y-1.0931
X6.2003Y-3.897
X6.2122Y-1.0931
X6.2987Y-3.897
X6.3106Y-1.0931
X6.7338Y-3.897
X6.7517Y-1.0931
X6.8323Y-3.897
X6.8501Y-1.0931
X6.911Y-3.897
X6.9289Y-1.0931
X7.0094Y-3.897
X7.0273Y-1.0931
X7.4446Y-3.897
X7.4684Y-1.0931
X7.543Y-3.897
X7.5668Y-1.0931
X7.6217Y-3.897
X7.6455Y-1.0931
X7.7202Y-3.897
X7.744Y-1.0931
X8.1553Y-3.897
X8.185Y-1.0931
X8.2537Y-3.897
X8.2835Y-1.0931
X8.3325Y-3.897
X8.3622Y-1.0931
X8.4309Y-3.897
X8.4606Y-1.0931
T8
X8.1929Y-1.9447
X8.1929Y-2.3447
T9
X8.688Y-1.749
X8.688Y-2.6388
T10
X3.0474Y-0.9864
X3.0593Y-4.0037
X3.5648Y-0.9864
X3.5766Y-4.0037
X3.7641Y-0.9864
X3.77Y-4.0037
X4.2814Y-0.9864
X4.2873Y-4.0037
X4.4807Y-4.0037
X4.4808Y-0.9864
X4.9981Y-4.0037
X4.9981Y-0.9864
X5.1915Y-4.0037
X5.1975Y-0.9864
X5.7088Y-4.0037
X5.7148Y-0.9864
X5.9022Y-4.0037
X5.9141Y-0.9864
X6.4195Y-4.0037
X6.4315Y-0.9864
X6.613Y-4.0037
X6.6308Y-0.9864
X7.1303Y-4.0037
X7.1481Y-0.9864
X7.3237Y-4.0037
X7.3475Y-0.9864
X7.841Y-4.0037
X7.8648Y-0.9864
X8.0344Y-4.0037
X8.0642Y-0.9864
X8.5518Y-4.0037
X8.5815Y-0.9864
T2
G00X8.5787Y-3.3537
M15
G01X8.622Y-3.3537
M16
G05
G00X8.5787Y-3.6939
M15
G01X8.622Y-3.6939
M16
G05
G00X8.7531Y-3.3537
M15
G01X8.7768Y-3.3537
M16
G05
G00X8.7531Y-3.6939
M15
G01X8.7768Y-3.6939
M16
G05
T7
G00X8.4134Y-3.0404
M15
G01X8.4134Y-2.9616
M16
G05
G00X8.6496Y-3.0266
M15
G01X8.6496Y-2.9754
M16
G05
G00X8.6594Y-2.8238
M15
G01X8.7185Y-2.8238
M16
G05
G00X8.6594Y-3.1781
M15
G01X8.7185Y-3.1781
M16
G05
T0
M30
