%TF.GenerationSoftware,KiCad,Pcbnew,6.0.2+dfsg-1*%
%TF.CreationDate,2023-03-05T21:27:34-05:00*%
%TF.ProjectId,BFUSB_HUB,42465553-425f-4485-9542-2e6b69636164,rev?*%
%TF.SameCoordinates,Original*%
%TF.FileFunction,Other,User*%
%FSLAX46Y46*%
G04 Gerber Fmt 4.6, Leading zero omitted, Abs format (unit mm)*
G04 Created by KiCad (PCBNEW 6.0.2+dfsg-1) date 2023-03-05 21:27:34*
%MOMM*%
%LPD*%
G01*
G04 APERTURE LIST*
%TA.AperFunction,Profile*%
%ADD10C,0.100000*%
%TD*%
%ADD11C,0.050000*%
G04 APERTURE END LIST*
D10*
X75676843Y-108350000D02*
G75*
G03*
X75676843Y-108350000I-1526843J0D01*
G01*
X224648975Y-108425000D02*
G75*
G03*
X224648975Y-108425000I-1523975J0D01*
G01*
X224595691Y-18325000D02*
G75*
G03*
X224595691Y-18325000I-1520691J0D01*
G01*
X75620691Y-18275000D02*
G75*
G03*
X75620691Y-18275000I-1520691J0D01*
G01*
X71100000Y-13325000D02*
X226100000Y-13325000D01*
X226100000Y-13325000D02*
X226100000Y-113325000D01*
X226100000Y-113325000D02*
X71100000Y-113325000D01*
X71100000Y-113325000D02*
X71100000Y-13325000D01*
D11*
%TO.C,J17*%
X95577857Y-110975000D02*
X94577857Y-110975000D01*
X93677857Y-100975000D02*
X94577857Y-99675000D01*
X95577857Y-103725000D02*
X95577857Y-110975000D01*
X110977857Y-100975000D02*
X110077857Y-99675000D01*
X95577857Y-99675000D02*
X95577857Y-97475000D01*
X110977857Y-100975000D02*
X110977857Y-102425000D01*
X109077857Y-103725000D02*
X110077857Y-103725000D01*
X95577857Y-99675000D02*
X94577857Y-99675000D01*
X110077857Y-112475000D02*
X110077857Y-110975000D01*
X109077857Y-110975000D02*
X109077857Y-103725000D01*
X94577857Y-110975000D02*
X94577857Y-112475000D01*
X94577857Y-112475000D02*
X110077857Y-112475000D01*
X110077857Y-110975000D02*
X109077857Y-110975000D01*
X109077857Y-99675000D02*
X109077857Y-97475000D01*
X109077857Y-99675000D02*
X110077857Y-99675000D01*
X93677857Y-102425000D02*
X93677857Y-100975000D01*
X93677857Y-102425000D02*
X94577857Y-103725000D01*
X95577857Y-103725000D02*
X94577857Y-103725000D01*
X109077857Y-97475000D02*
X95577857Y-97475000D01*
X110977857Y-102425000D02*
X110077857Y-103725000D01*
%TO.C,C3*%
X157400000Y-44000000D02*
G75*
G03*
X157400000Y-44000000I-5250000J0D01*
G01*
%TO.C,C2*%
X157900000Y-54900000D02*
G75*
G03*
X157900000Y-54900000I-5250000J0D01*
G01*
%TO.C,C31*%
X83500000Y-90650000D02*
G75*
G03*
X83500000Y-90650000I-5250000J0D01*
G01*
%TO.C,Y5*%
X84100000Y-81375000D02*
X89700000Y-81375000D01*
X84100000Y-69475000D02*
X84100000Y-81375000D01*
X89700000Y-81375000D02*
X89700000Y-69475000D01*
X89700000Y-69475000D02*
X84100000Y-69475000D01*
%TO.C,C28*%
X137700000Y-90650000D02*
G75*
G03*
X137700000Y-90650000I-5250000J0D01*
G01*
%TO.C,J10*%
X204650000Y-15775000D02*
X204650000Y-23025000D01*
X202750000Y-25775000D02*
X202750000Y-24325000D01*
X219150000Y-14275000D02*
X203650000Y-14275000D01*
X220050000Y-24325000D02*
X220050000Y-25775000D01*
X204650000Y-27075000D02*
X204650000Y-29275000D01*
X202750000Y-24325000D02*
X203650000Y-23025000D01*
X218150000Y-23025000D02*
X218150000Y-15775000D01*
X203650000Y-14275000D02*
X203650000Y-15775000D01*
X204650000Y-23025000D02*
X203650000Y-23025000D01*
X218150000Y-27075000D02*
X219150000Y-27075000D01*
X204650000Y-27075000D02*
X203650000Y-27075000D01*
X220050000Y-24325000D02*
X219150000Y-23025000D01*
X218150000Y-27075000D02*
X218150000Y-29275000D01*
X218150000Y-23025000D02*
X219150000Y-23025000D01*
X219150000Y-15775000D02*
X219150000Y-14275000D01*
X204650000Y-29275000D02*
X218150000Y-29275000D01*
X203650000Y-15775000D02*
X204650000Y-15775000D01*
X202750000Y-25775000D02*
X203650000Y-27075000D01*
X218150000Y-15775000D02*
X219150000Y-15775000D01*
X220050000Y-25775000D02*
X219150000Y-27075000D01*
%TO.C,C17*%
X113403571Y-36125000D02*
G75*
G03*
X113403571Y-36125000I-5250000J0D01*
G01*
%TO.C,Y2*%
X126375000Y-45400000D02*
X126375000Y-57300000D01*
X126375000Y-57300000D02*
X131975000Y-57300000D01*
X131975000Y-45400000D02*
X126375000Y-45400000D01*
X131975000Y-57300000D02*
X131975000Y-45400000D01*
%TO.C,C7*%
X182725000Y-74325000D02*
G75*
G03*
X182725000Y-74325000I-5250000J0D01*
G01*
%TO.C,C19*%
X149810713Y-36125000D02*
G75*
G03*
X149810713Y-36125000I-5250000J0D01*
G01*
%TO.C,J1*%
X216310000Y-94825000D02*
X225730000Y-94825000D01*
X225730000Y-94825000D02*
X225730000Y-84185000D01*
X216310000Y-84185000D02*
X225730000Y-84185000D01*
X216310000Y-94825000D02*
X216310000Y-84185000D01*
%TO.C,C25*%
X191875000Y-90675000D02*
G75*
G03*
X191875000Y-90675000I-5250000J0D01*
G01*
%TO.C,Y3*%
X202175000Y-46145000D02*
X196575000Y-46145000D01*
X196575000Y-58045000D02*
X202175000Y-58045000D01*
X196575000Y-46145000D02*
X196575000Y-58045000D01*
X202175000Y-58045000D02*
X202175000Y-46145000D01*
%TO.C,J3*%
X91725000Y-14275000D02*
X76225000Y-14275000D01*
X75325000Y-25775000D02*
X75325000Y-24325000D01*
X92625000Y-24325000D02*
X92625000Y-25775000D01*
X77225000Y-27075000D02*
X77225000Y-29275000D01*
X77225000Y-29275000D02*
X90725000Y-29275000D01*
X90725000Y-15775000D02*
X91725000Y-15775000D01*
X91725000Y-15775000D02*
X91725000Y-14275000D01*
X75325000Y-25775000D02*
X76225000Y-27075000D01*
X90725000Y-27075000D02*
X90725000Y-29275000D01*
X75325000Y-24325000D02*
X76225000Y-23025000D01*
X76225000Y-15775000D02*
X77225000Y-15775000D01*
X77225000Y-23025000D02*
X76225000Y-23025000D01*
X92625000Y-25775000D02*
X91725000Y-27075000D01*
X90725000Y-27075000D02*
X91725000Y-27075000D01*
X92625000Y-24325000D02*
X91725000Y-23025000D01*
X90725000Y-23025000D02*
X91725000Y-23025000D01*
X77225000Y-27075000D02*
X76225000Y-27075000D01*
X76225000Y-14275000D02*
X76225000Y-15775000D01*
X77225000Y-15775000D02*
X77225000Y-23025000D01*
X90725000Y-23025000D02*
X90725000Y-15775000D01*
%TO.C,Y4*%
X160050000Y-82125000D02*
X160050000Y-70225000D01*
X160050000Y-70225000D02*
X154450000Y-70225000D01*
X154450000Y-70225000D02*
X154450000Y-82125000D01*
X154450000Y-82125000D02*
X160050000Y-82125000D01*
%TO.C,C22*%
X204421426Y-36125000D02*
G75*
G03*
X204421426Y-36125000I-5250000J0D01*
G01*
%TO.C,C27*%
X155725000Y-90500000D02*
G75*
G03*
X155725000Y-90500000I-5250000J0D01*
G01*
%TO.C,C4*%
X184250000Y-52175000D02*
G75*
G03*
X184250000Y-52175000I-5250000J0D01*
G01*
%TO.C,C8*%
X120550000Y-62875000D02*
G75*
G03*
X120550000Y-62875000I-5250000J0D01*
G01*
%TO.C,C26*%
X173850000Y-90625000D02*
G75*
G03*
X173850000Y-90625000I-5250000J0D01*
G01*
%TO.C,C14*%
X106325000Y-63375000D02*
G75*
G03*
X106325000Y-63375000I-5250000J0D01*
G01*
%TO.C,C11*%
X201425000Y-63875000D02*
G75*
G03*
X201425000Y-63875000I-5250000J0D01*
G01*
%TO.C,C10*%
X190750000Y-63875000D02*
G75*
G03*
X190750000Y-63875000I-5250000J0D01*
G01*
%TO.C,C9*%
X131300000Y-62900000D02*
G75*
G03*
X131300000Y-62900000I-5250000J0D01*
G01*
%TO.C,J11*%
X219295000Y-100975000D02*
X219295000Y-102425000D01*
X201995000Y-102425000D02*
X202895000Y-103725000D01*
X217395000Y-110975000D02*
X217395000Y-103725000D01*
X201995000Y-102425000D02*
X201995000Y-100975000D01*
X203895000Y-103725000D02*
X203895000Y-110975000D01*
X203895000Y-103725000D02*
X202895000Y-103725000D01*
X218395000Y-110975000D02*
X217395000Y-110975000D01*
X219295000Y-102425000D02*
X218395000Y-103725000D01*
X217395000Y-99675000D02*
X217395000Y-97475000D01*
X202895000Y-112475000D02*
X218395000Y-112475000D01*
X217395000Y-97475000D02*
X203895000Y-97475000D01*
X217395000Y-103725000D02*
X218395000Y-103725000D01*
X203895000Y-99675000D02*
X202895000Y-99675000D01*
X218395000Y-112475000D02*
X218395000Y-110975000D01*
X219295000Y-100975000D02*
X218395000Y-99675000D01*
X201995000Y-100975000D02*
X202895000Y-99675000D01*
X202895000Y-110975000D02*
X202895000Y-112475000D01*
X203895000Y-99675000D02*
X203895000Y-97475000D01*
X203895000Y-110975000D02*
X202895000Y-110975000D01*
X217395000Y-99675000D02*
X218395000Y-99675000D01*
%TO.C,C16*%
X95200000Y-36125000D02*
G75*
G03*
X95200000Y-36125000I-5250000J0D01*
G01*
%TO.C,J8*%
X168242855Y-27075000D02*
X168242855Y-29275000D01*
X183642855Y-25775000D02*
X182742855Y-27075000D01*
X181742855Y-27075000D02*
X181742855Y-29275000D01*
X168242855Y-23025000D02*
X167242855Y-23025000D01*
X167242855Y-15775000D02*
X168242855Y-15775000D01*
X168242855Y-29275000D02*
X181742855Y-29275000D01*
X168242855Y-27075000D02*
X167242855Y-27075000D01*
X166342855Y-24325000D02*
X167242855Y-23025000D01*
X181742855Y-23025000D02*
X181742855Y-15775000D01*
X181742855Y-27075000D02*
X182742855Y-27075000D01*
X183642855Y-24325000D02*
X182742855Y-23025000D01*
X166342855Y-25775000D02*
X167242855Y-27075000D01*
X182742855Y-15775000D02*
X182742855Y-14275000D01*
X167242855Y-14275000D02*
X167242855Y-15775000D01*
X182742855Y-14275000D02*
X167242855Y-14275000D01*
X181742855Y-23025000D02*
X182742855Y-23025000D01*
X166342855Y-25775000D02*
X166342855Y-24325000D01*
X168242855Y-15775000D02*
X168242855Y-23025000D01*
X181742855Y-15775000D02*
X182742855Y-15775000D01*
X183642855Y-24325000D02*
X183642855Y-25775000D01*
%TO.C,C6*%
X113750000Y-75025000D02*
G75*
G03*
X113750000Y-75025000I-5250000J0D01*
G01*
%TO.C,J18*%
X77525000Y-110975000D02*
X76525000Y-110975000D01*
X77525000Y-99675000D02*
X77525000Y-97475000D01*
X75625000Y-100975000D02*
X76525000Y-99675000D01*
X92925000Y-100975000D02*
X92925000Y-102425000D01*
X75625000Y-102425000D02*
X76525000Y-103725000D01*
X91025000Y-110975000D02*
X91025000Y-103725000D01*
X92025000Y-112475000D02*
X92025000Y-110975000D01*
X77525000Y-103725000D02*
X77525000Y-110975000D01*
X77525000Y-103725000D02*
X76525000Y-103725000D01*
X91025000Y-99675000D02*
X91025000Y-97475000D01*
X91025000Y-99675000D02*
X92025000Y-99675000D01*
X76525000Y-110975000D02*
X76525000Y-112475000D01*
X92925000Y-102425000D02*
X92025000Y-103725000D01*
X92925000Y-100975000D02*
X92025000Y-99675000D01*
X92025000Y-110975000D02*
X91025000Y-110975000D01*
X77525000Y-99675000D02*
X76525000Y-99675000D01*
X75625000Y-102425000D02*
X75625000Y-100975000D01*
X76525000Y-112475000D02*
X92025000Y-112475000D01*
X91025000Y-97475000D02*
X77525000Y-97475000D01*
X91025000Y-103725000D02*
X92025000Y-103725000D01*
%TO.C,C1*%
X141225000Y-77125000D02*
G75*
G03*
X141225000Y-77125000I-5250000J0D01*
G01*
%TO.C,J2*%
X212200000Y-70225000D02*
X212200000Y-82225000D01*
X226200000Y-82225000D02*
X226200000Y-70225000D01*
X226200000Y-70225000D02*
X212200000Y-70225000D01*
X212200000Y-82225000D02*
X226200000Y-82225000D01*
%TO.C,C12*%
X176075000Y-64000000D02*
G75*
G03*
X176075000Y-64000000I-5250000J0D01*
G01*
%TO.C,C23*%
X222625000Y-36125000D02*
G75*
G03*
X222625000Y-36125000I-5250000J0D01*
G01*
%TO.C,C20*%
X168014284Y-36125000D02*
G75*
G03*
X168014284Y-36125000I-5250000J0D01*
G01*
%TO.C,J16*%
X113630714Y-99675000D02*
X113630714Y-97475000D01*
X111730714Y-100975000D02*
X112630714Y-99675000D01*
X128130714Y-112475000D02*
X128130714Y-110975000D01*
X127130714Y-99675000D02*
X128130714Y-99675000D01*
X113630714Y-103725000D02*
X113630714Y-110975000D01*
X129030714Y-102425000D02*
X128130714Y-103725000D01*
X127130714Y-97475000D02*
X113630714Y-97475000D01*
X127130714Y-110975000D02*
X127130714Y-103725000D01*
X111730714Y-102425000D02*
X111730714Y-100975000D01*
X129030714Y-100975000D02*
X129030714Y-102425000D01*
X113630714Y-103725000D02*
X112630714Y-103725000D01*
X129030714Y-100975000D02*
X128130714Y-99675000D01*
X113630714Y-99675000D02*
X112630714Y-99675000D01*
X127130714Y-103725000D02*
X128130714Y-103725000D01*
X111730714Y-102425000D02*
X112630714Y-103725000D01*
X112630714Y-112475000D02*
X128130714Y-112475000D01*
X113630714Y-110975000D02*
X112630714Y-110975000D01*
X127130714Y-99675000D02*
X127130714Y-97475000D01*
X112630714Y-110975000D02*
X112630714Y-112475000D01*
X128130714Y-110975000D02*
X127130714Y-110975000D01*
%TO.C,C5*%
X113475000Y-51900000D02*
G75*
G03*
X113475000Y-51900000I-5250000J0D01*
G01*
%TO.C,J14*%
X163236428Y-97475000D02*
X149736428Y-97475000D01*
X165136428Y-100975000D02*
X165136428Y-102425000D01*
X147836428Y-102425000D02*
X147836428Y-100975000D01*
X148736428Y-112475000D02*
X164236428Y-112475000D01*
X147836428Y-102425000D02*
X148736428Y-103725000D01*
X163236428Y-110975000D02*
X163236428Y-103725000D01*
X149736428Y-99675000D02*
X149736428Y-97475000D01*
X149736428Y-99675000D02*
X148736428Y-99675000D01*
X163236428Y-99675000D02*
X164236428Y-99675000D01*
X164236428Y-112475000D02*
X164236428Y-110975000D01*
X149736428Y-103725000D02*
X149736428Y-110975000D01*
X165136428Y-100975000D02*
X164236428Y-99675000D01*
X163236428Y-103725000D02*
X164236428Y-103725000D01*
X147836428Y-100975000D02*
X148736428Y-99675000D01*
X149736428Y-110975000D02*
X148736428Y-110975000D01*
X164236428Y-110975000D02*
X163236428Y-110975000D01*
X149736428Y-103725000D02*
X148736428Y-103725000D01*
X148736428Y-110975000D02*
X148736428Y-112475000D01*
X165136428Y-102425000D02*
X164236428Y-103725000D01*
X163236428Y-99675000D02*
X163236428Y-97475000D01*
%TO.C,J6*%
X147235713Y-24325000D02*
X146335713Y-23025000D01*
X146335713Y-15775000D02*
X146335713Y-14275000D01*
X129935713Y-25775000D02*
X129935713Y-24325000D01*
X145335713Y-23025000D02*
X145335713Y-15775000D01*
X145335713Y-27075000D02*
X146335713Y-27075000D01*
X145335713Y-15775000D02*
X146335713Y-15775000D01*
X131835713Y-15775000D02*
X131835713Y-23025000D01*
X131835713Y-27075000D02*
X131835713Y-29275000D01*
X131835713Y-27075000D02*
X130835713Y-27075000D01*
X130835713Y-14275000D02*
X130835713Y-15775000D01*
X146335713Y-14275000D02*
X130835713Y-14275000D01*
X130835713Y-15775000D02*
X131835713Y-15775000D01*
X147235713Y-25775000D02*
X146335713Y-27075000D01*
X129935713Y-25775000D02*
X130835713Y-27075000D01*
X129935713Y-24325000D02*
X130835713Y-23025000D01*
X147235713Y-24325000D02*
X147235713Y-25775000D01*
X145335713Y-27075000D02*
X145335713Y-29275000D01*
X145335713Y-23025000D02*
X146335713Y-23025000D01*
X131835713Y-29275000D02*
X145335713Y-29275000D01*
X131835713Y-23025000D02*
X130835713Y-23025000D01*
%TO.C,C24*%
X209925000Y-90450000D02*
G75*
G03*
X209925000Y-90450000I-5250000J0D01*
G01*
%TO.C,D1*%
X209700000Y-48045000D02*
X206500000Y-48045000D01*
X209700000Y-60905000D02*
X209700000Y-48045000D01*
X206500000Y-48045000D02*
X206500000Y-60905000D01*
X206500000Y-60905000D02*
X209700000Y-60905000D01*
%TO.C,C13*%
X165375000Y-63975000D02*
G75*
G03*
X165375000Y-63975000I-5250000J0D01*
G01*
%TO.C,J4*%
X110828571Y-24325000D02*
X110828571Y-25775000D01*
X110828571Y-25775000D02*
X109928571Y-27075000D01*
X108928571Y-23025000D02*
X109928571Y-23025000D01*
X94428571Y-14275000D02*
X94428571Y-15775000D01*
X93528571Y-25775000D02*
X93528571Y-24325000D01*
X94428571Y-15775000D02*
X95428571Y-15775000D01*
X109928571Y-15775000D02*
X109928571Y-14275000D01*
X95428571Y-23025000D02*
X94428571Y-23025000D01*
X109928571Y-14275000D02*
X94428571Y-14275000D01*
X108928571Y-27075000D02*
X109928571Y-27075000D01*
X95428571Y-27075000D02*
X95428571Y-29275000D01*
X95428571Y-29275000D02*
X108928571Y-29275000D01*
X108928571Y-15775000D02*
X109928571Y-15775000D01*
X108928571Y-27075000D02*
X108928571Y-29275000D01*
X110828571Y-24325000D02*
X109928571Y-23025000D01*
X93528571Y-24325000D02*
X94428571Y-23025000D01*
X95428571Y-15775000D02*
X95428571Y-23025000D01*
X108928571Y-23025000D02*
X108928571Y-15775000D01*
X95428571Y-27075000D02*
X94428571Y-27075000D01*
X93528571Y-25775000D02*
X94428571Y-27075000D01*
%TO.C,J9*%
X200946426Y-14275000D02*
X185446426Y-14275000D01*
X186446426Y-15775000D02*
X186446426Y-23025000D01*
X185446426Y-15775000D02*
X186446426Y-15775000D01*
X201846426Y-24325000D02*
X201846426Y-25775000D01*
X186446426Y-29275000D02*
X199946426Y-29275000D01*
X199946426Y-27075000D02*
X199946426Y-29275000D01*
X185446426Y-14275000D02*
X185446426Y-15775000D01*
X184546426Y-24325000D02*
X185446426Y-23025000D01*
X184546426Y-25775000D02*
X184546426Y-24325000D01*
X186446426Y-27075000D02*
X186446426Y-29275000D01*
X186446426Y-23025000D02*
X185446426Y-23025000D01*
X186446426Y-27075000D02*
X185446426Y-27075000D01*
X199946426Y-23025000D02*
X200946426Y-23025000D01*
X201846426Y-24325000D02*
X200946426Y-23025000D01*
X199946426Y-23025000D02*
X199946426Y-15775000D01*
X201846426Y-25775000D02*
X200946426Y-27075000D01*
X184546426Y-25775000D02*
X185446426Y-27075000D01*
X200946426Y-15775000D02*
X200946426Y-14275000D01*
X199946426Y-15775000D02*
X200946426Y-15775000D01*
X199946426Y-27075000D02*
X200946426Y-27075000D01*
%TO.C,C29*%
X119575000Y-90550000D02*
G75*
G03*
X119575000Y-90550000I-5250000J0D01*
G01*
%TO.C,C21*%
X186217855Y-36125000D02*
G75*
G03*
X186217855Y-36125000I-5250000J0D01*
G01*
%TO.C,J5*%
X113632142Y-27075000D02*
X112632142Y-27075000D01*
X128132142Y-15775000D02*
X128132142Y-14275000D01*
X112632142Y-14275000D02*
X112632142Y-15775000D01*
X111732142Y-25775000D02*
X111732142Y-24325000D01*
X129032142Y-24325000D02*
X129032142Y-25775000D01*
X111732142Y-24325000D02*
X112632142Y-23025000D01*
X127132142Y-27075000D02*
X128132142Y-27075000D01*
X112632142Y-15775000D02*
X113632142Y-15775000D01*
X127132142Y-23025000D02*
X128132142Y-23025000D01*
X127132142Y-15775000D02*
X128132142Y-15775000D01*
X129032142Y-25775000D02*
X128132142Y-27075000D01*
X127132142Y-23025000D02*
X127132142Y-15775000D01*
X127132142Y-27075000D02*
X127132142Y-29275000D01*
X129032142Y-24325000D02*
X128132142Y-23025000D01*
X111732142Y-25775000D02*
X112632142Y-27075000D01*
X113632142Y-27075000D02*
X113632142Y-29275000D01*
X113632142Y-15775000D02*
X113632142Y-23025000D01*
X113632142Y-29275000D02*
X127132142Y-29275000D01*
X128132142Y-14275000D02*
X112632142Y-14275000D01*
X113632142Y-23025000D02*
X112632142Y-23025000D01*
%TO.C,J7*%
X149039284Y-14275000D02*
X149039284Y-15775000D01*
X150039284Y-23025000D02*
X149039284Y-23025000D01*
X150039284Y-27075000D02*
X149039284Y-27075000D01*
X164539284Y-14275000D02*
X149039284Y-14275000D01*
X163539284Y-23025000D02*
X164539284Y-23025000D01*
X150039284Y-15775000D02*
X150039284Y-23025000D01*
X163539284Y-15775000D02*
X164539284Y-15775000D01*
X165439284Y-25775000D02*
X164539284Y-27075000D01*
X164539284Y-15775000D02*
X164539284Y-14275000D01*
X148139284Y-24325000D02*
X149039284Y-23025000D01*
X150039284Y-27075000D02*
X150039284Y-29275000D01*
X165439284Y-24325000D02*
X164539284Y-23025000D01*
X149039284Y-15775000D02*
X150039284Y-15775000D01*
X163539284Y-27075000D02*
X163539284Y-29275000D01*
X150039284Y-29275000D02*
X163539284Y-29275000D01*
X148139284Y-25775000D02*
X149039284Y-27075000D01*
X163539284Y-27075000D02*
X164539284Y-27075000D01*
X148139284Y-25775000D02*
X148139284Y-24325000D01*
X165439284Y-24325000D02*
X165439284Y-25775000D01*
X163539284Y-23025000D02*
X163539284Y-15775000D01*
%TO.C,C15*%
X95625000Y-63575000D02*
G75*
G03*
X95625000Y-63575000I-5250000J0D01*
G01*
%TO.C,J15*%
X147083571Y-100975000D02*
X147083571Y-102425000D01*
X131683571Y-103725000D02*
X131683571Y-110975000D01*
X131683571Y-99675000D02*
X130683571Y-99675000D01*
X147083571Y-100975000D02*
X146183571Y-99675000D01*
X131683571Y-99675000D02*
X131683571Y-97475000D01*
X129783571Y-102425000D02*
X129783571Y-100975000D01*
X146183571Y-112475000D02*
X146183571Y-110975000D01*
X147083571Y-102425000D02*
X146183571Y-103725000D01*
X146183571Y-110975000D02*
X145183571Y-110975000D01*
X145183571Y-99675000D02*
X146183571Y-99675000D01*
X129783571Y-102425000D02*
X130683571Y-103725000D01*
X129783571Y-100975000D02*
X130683571Y-99675000D01*
X145183571Y-97475000D02*
X131683571Y-97475000D01*
X131683571Y-110975000D02*
X130683571Y-110975000D01*
X130683571Y-112475000D02*
X146183571Y-112475000D01*
X145183571Y-103725000D02*
X146183571Y-103725000D01*
X130683571Y-110975000D02*
X130683571Y-112475000D01*
X131683571Y-103725000D02*
X130683571Y-103725000D01*
X145183571Y-110975000D02*
X145183571Y-103725000D01*
X145183571Y-99675000D02*
X145183571Y-97475000D01*
%TO.C,J12*%
X184842142Y-110975000D02*
X184842142Y-112475000D01*
X184842142Y-112475000D02*
X200342142Y-112475000D01*
X200342142Y-110975000D02*
X199342142Y-110975000D01*
X201242142Y-100975000D02*
X200342142Y-99675000D01*
X183942142Y-102425000D02*
X184842142Y-103725000D01*
X201242142Y-100975000D02*
X201242142Y-102425000D01*
X185842142Y-103725000D02*
X184842142Y-103725000D01*
X185842142Y-99675000D02*
X185842142Y-97475000D01*
X201242142Y-102425000D02*
X200342142Y-103725000D01*
X185842142Y-99675000D02*
X184842142Y-99675000D01*
X199342142Y-99675000D02*
X200342142Y-99675000D01*
X183942142Y-100975000D02*
X184842142Y-99675000D01*
X200342142Y-112475000D02*
X200342142Y-110975000D01*
X185842142Y-103725000D02*
X185842142Y-110975000D01*
X199342142Y-110975000D02*
X199342142Y-103725000D01*
X185842142Y-110975000D02*
X184842142Y-110975000D01*
X183942142Y-102425000D02*
X183942142Y-100975000D01*
X199342142Y-103725000D02*
X200342142Y-103725000D01*
X199342142Y-99675000D02*
X199342142Y-97475000D01*
X199342142Y-97475000D02*
X185842142Y-97475000D01*
%TO.C,C30*%
X101525000Y-90550000D02*
G75*
G03*
X101525000Y-90550000I-5250000J0D01*
G01*
%TO.C,J13*%
X183189285Y-100975000D02*
X183189285Y-102425000D01*
X183189285Y-100975000D02*
X182289285Y-99675000D01*
X167789285Y-99675000D02*
X167789285Y-97475000D01*
X181289285Y-99675000D02*
X182289285Y-99675000D01*
X181289285Y-97475000D02*
X167789285Y-97475000D01*
X181289285Y-99675000D02*
X181289285Y-97475000D01*
X165889285Y-102425000D02*
X165889285Y-100975000D01*
X183189285Y-102425000D02*
X182289285Y-103725000D01*
X167789285Y-110975000D02*
X166789285Y-110975000D01*
X167789285Y-103725000D02*
X166789285Y-103725000D01*
X181289285Y-103725000D02*
X182289285Y-103725000D01*
X167789285Y-103725000D02*
X167789285Y-110975000D01*
X166789285Y-110975000D02*
X166789285Y-112475000D01*
X165889285Y-100975000D02*
X166789285Y-99675000D01*
X167789285Y-99675000D02*
X166789285Y-99675000D01*
X165889285Y-102425000D02*
X166789285Y-103725000D01*
X166789285Y-112475000D02*
X182289285Y-112475000D01*
X182289285Y-112475000D02*
X182289285Y-110975000D01*
X182289285Y-110975000D02*
X181289285Y-110975000D01*
X181289285Y-110975000D02*
X181289285Y-103725000D01*
%TO.C,F1*%
X225625000Y-44275000D02*
X225625000Y-67175000D01*
X215725000Y-67175000D02*
X215725000Y-44275000D01*
X222525000Y-67175000D02*
X225625000Y-67175000D01*
X219425000Y-68475000D02*
X220225000Y-68875000D01*
X219425000Y-42975000D02*
X220225000Y-42575000D01*
X222425000Y-67775000D02*
X222525000Y-67425000D01*
X221125000Y-68875000D02*
X221925000Y-68475000D01*
X218925000Y-43675000D02*
X218825000Y-44025000D01*
X219425000Y-42975000D02*
X218925000Y-43675000D01*
X218825000Y-67425000D02*
X218925000Y-67775000D01*
X218825000Y-67175000D02*
X218825000Y-67425000D01*
X222525000Y-44275000D02*
X222525000Y-44025000D01*
X218925000Y-67775000D02*
X219425000Y-68475000D01*
X218825000Y-44025000D02*
X218825000Y-44275000D01*
X221125000Y-42575000D02*
X221925000Y-42975000D01*
X215725000Y-44275000D02*
X218825000Y-44275000D01*
X221925000Y-68475000D02*
X222425000Y-67775000D01*
X222525000Y-44275000D02*
X225625000Y-44275000D01*
X222525000Y-67175000D02*
X222525000Y-67425000D01*
X222425000Y-43675000D02*
X221925000Y-42975000D01*
X220225000Y-68875000D02*
X221125000Y-68875000D01*
X221125000Y-42575000D02*
X220225000Y-42575000D01*
X218825000Y-67175000D02*
X215725000Y-67175000D01*
X222525000Y-44025000D02*
X222425000Y-43675000D01*
%TO.C,C18*%
X131607142Y-36125000D02*
G75*
G03*
X131607142Y-36125000I-5250000J0D01*
G01*
%TO.C,Y1*%
X146225000Y-59375000D02*
X134325000Y-59375000D01*
X146225000Y-64975000D02*
X146225000Y-59375000D01*
X134325000Y-64975000D02*
X146225000Y-64975000D01*
X134325000Y-59375000D02*
X134325000Y-64975000D01*
%TD*%
M02*
