%TF.GenerationSoftware,KiCad,Pcbnew,6.0.2+dfsg-1*%
%TF.CreationDate,2023-04-29T01:12:17-04:00*%
%TF.ProjectId,BFUSB_HUB,42465553-425f-4485-9542-2e6b69636164,rev?*%
%TF.SameCoordinates,Original*%
%TF.FileFunction,Soldermask,Bot*%
%TF.FilePolarity,Negative*%
%FSLAX46Y46*%
G04 Gerber Fmt 4.6, Leading zero omitted, Abs format (unit mm)*
G04 Created by KiCad (PCBNEW 6.0.2+dfsg-1) date 2023-04-29 01:12:17*
%MOMM*%
%LPD*%
G01*
G04 APERTURE LIST*
G04 Aperture macros list*
%AMRoundRect*
0 Rectangle with rounded corners*
0 $1 Rounding radius*
0 $2 $3 $4 $5 $6 $7 $8 $9 X,Y pos of 4 corners*
0 Add a 4 corners polygon primitive as box body*
4,1,4,$2,$3,$4,$5,$6,$7,$8,$9,$2,$3,0*
0 Add four circle primitives for the rounded corners*
1,1,$1+$1,$2,$3*
1,1,$1+$1,$4,$5*
1,1,$1+$1,$6,$7*
1,1,$1+$1,$8,$9*
0 Add four rect primitives between the rounded corners*
20,1,$1+$1,$2,$3,$4,$5,0*
20,1,$1+$1,$4,$5,$6,$7,0*
20,1,$1+$1,$6,$7,$8,$9,0*
20,1,$1+$1,$8,$9,$2,$3,0*%
G04 Aperture macros list end*
%TA.AperFunction,Profile*%
%ADD10C,0.100000*%
%TD*%
%ADD11R,1.600000X1.600000*%
%ADD12C,1.600000*%
%ADD13C,3.000000*%
%ADD14C,1.500000*%
%ADD15R,1.800000X1.800000*%
%ADD16C,1.800000*%
%ADD17C,1.400000*%
%ADD18O,1.400000X1.400000*%
%ADD19C,0.650000*%
%ADD20O,2.100000X1.000000*%
%ADD21O,1.600000X1.000000*%
%ADD22R,2.000000X4.000000*%
%ADD23O,2.000000X3.300000*%
%ADD24O,3.500000X2.000000*%
%ADD25R,2.200000X2.200000*%
%ADD26O,2.200000X2.200000*%
%ADD27RoundRect,0.250001X-2.474999X0.799999X-2.474999X-0.799999X2.474999X-0.799999X2.474999X0.799999X0*%
%ADD28RoundRect,0.250001X-0.799999X-2.474999X0.799999X-2.474999X0.799999X2.474999X-0.799999X2.474999X0*%
%ADD29RoundRect,0.250001X2.474999X-0.799999X2.474999X0.799999X-2.474999X0.799999X-2.474999X-0.799999X0*%
%ADD30R,2.032000X0.660400*%
G04 APERTURE END LIST*
D10*
X71170000Y-15400000D02*
X225860000Y-15400000D01*
X225860000Y-15400000D02*
X225860000Y-111370000D01*
X225860000Y-111370000D02*
X71170000Y-111370000D01*
X71170000Y-111370000D02*
X71170000Y-15400000D01*
X224595691Y-18325000D02*
G75*
G03*
X224595691Y-18325000I-1520691J0D01*
G01*
X224648975Y-108425000D02*
G75*
G03*
X224648975Y-108425000I-1523975J0D01*
G01*
X75676843Y-108350000D02*
G75*
G03*
X75676843Y-108350000I-1526843J0D01*
G01*
X75620691Y-18275000D02*
G75*
G03*
X75620691Y-18275000I-1520691J0D01*
G01*
D11*
%TO.C,J17*%
X98827857Y-98985000D03*
D12*
X101327857Y-98985000D03*
X103327857Y-98985000D03*
X105827857Y-98985000D03*
D13*
X108897857Y-101695000D03*
X95757857Y-101695000D03*
%TD*%
D12*
%TO.C,C3*%
X152150000Y-41500000D03*
X152150000Y-46500000D03*
%TD*%
%TO.C,C2*%
X155150000Y-54900000D03*
X150150000Y-54900000D03*
%TD*%
%TO.C,C31*%
X80750000Y-90650000D03*
X75750000Y-90650000D03*
%TD*%
D14*
%TO.C,Y5*%
X86900000Y-77875000D03*
X86900000Y-72995000D03*
%TD*%
D12*
%TO.C,C28*%
X134950000Y-90650000D03*
X129950000Y-90650000D03*
%TD*%
D15*
%TO.C,D3*%
X211300000Y-68325000D03*
D16*
X211300000Y-65785000D03*
%TD*%
D11*
%TO.C,J10*%
X214900000Y-27765000D03*
D12*
X212400000Y-27765000D03*
X210400000Y-27765000D03*
X207900000Y-27765000D03*
D13*
X217970000Y-25055000D03*
X204830000Y-25055000D03*
%TD*%
D12*
%TO.C,C17*%
X105653571Y-36125000D03*
X110653571Y-36125000D03*
%TD*%
D14*
%TO.C,Y2*%
X129175000Y-48900000D03*
X129175000Y-53780000D03*
%TD*%
D17*
%TO.C,R1*%
X206025000Y-72425000D03*
D18*
X206025000Y-70525000D03*
%TD*%
D12*
%TO.C,C7*%
X177475000Y-71825000D03*
X177475000Y-76825000D03*
%TD*%
%TO.C,C19*%
X142060713Y-36125000D03*
X147060713Y-36125000D03*
%TD*%
D19*
%TO.C,J1*%
X218980000Y-86615000D03*
X218980000Y-92395000D03*
D20*
X218450000Y-93825000D03*
D21*
X222630000Y-85185000D03*
X222630000Y-93825000D03*
D20*
X218450000Y-85185000D03*
%TD*%
D12*
%TO.C,C25*%
X189125000Y-90675000D03*
X184125000Y-90675000D03*
%TD*%
D14*
%TO.C,Y3*%
X199375000Y-49645000D03*
X199375000Y-54525000D03*
%TD*%
D11*
%TO.C,J3*%
X87475000Y-27765000D03*
D12*
X84975000Y-27765000D03*
X82975000Y-27765000D03*
X80475000Y-27765000D03*
D13*
X90545000Y-25055000D03*
X77405000Y-25055000D03*
%TD*%
D14*
%TO.C,Y4*%
X157250000Y-78625000D03*
X157250000Y-73745000D03*
%TD*%
D12*
%TO.C,C22*%
X196671426Y-36125000D03*
X201671426Y-36125000D03*
%TD*%
%TO.C,C27*%
X152975000Y-90500000D03*
X147975000Y-90500000D03*
%TD*%
%TO.C,C4*%
X179000000Y-54675000D03*
X179000000Y-49675000D03*
%TD*%
%TO.C,C8*%
X115275000Y-65350000D03*
X115275000Y-60350000D03*
%TD*%
%TO.C,C26*%
X171100000Y-90625000D03*
X166100000Y-90625000D03*
%TD*%
%TO.C,C14*%
X101075000Y-60875000D03*
X101075000Y-65875000D03*
%TD*%
%TO.C,C11*%
X196175000Y-66375000D03*
X196175000Y-61375000D03*
%TD*%
%TO.C,C10*%
X185500000Y-66375000D03*
X185500000Y-61375000D03*
%TD*%
%TO.C,C9*%
X126050000Y-65400000D03*
X126050000Y-60400000D03*
%TD*%
D15*
%TO.C,D2*%
X204800000Y-68300000D03*
D16*
X204800000Y-65760000D03*
%TD*%
D11*
%TO.C,J11*%
X207145000Y-98985000D03*
D12*
X209645000Y-98985000D03*
X211645000Y-98985000D03*
X214145000Y-98985000D03*
D13*
X217215000Y-101695000D03*
X204075000Y-101695000D03*
%TD*%
D12*
%TO.C,C16*%
X87450000Y-36125000D03*
X92450000Y-36125000D03*
%TD*%
D11*
%TO.C,J8*%
X178492855Y-27765000D03*
D12*
X175992855Y-27765000D03*
X173992855Y-27765000D03*
X171492855Y-27765000D03*
D13*
X181562855Y-25055000D03*
X168422855Y-25055000D03*
%TD*%
D12*
%TO.C,C6*%
X108500000Y-72525000D03*
X108500000Y-77525000D03*
%TD*%
D11*
%TO.C,J18*%
X80775000Y-98985000D03*
D12*
X83275000Y-98985000D03*
X85275000Y-98985000D03*
X87775000Y-98985000D03*
D13*
X77705000Y-101695000D03*
X90845000Y-101695000D03*
%TD*%
D12*
%TO.C,C1*%
X135975000Y-79625000D03*
X135975000Y-74625000D03*
%TD*%
%TO.C,J2*%
X222700000Y-76225000D03*
D22*
X213700000Y-76225000D03*
D23*
X219700000Y-76225000D03*
D24*
X220700000Y-80725000D03*
X220700000Y-71725000D03*
%TD*%
D12*
%TO.C,C12*%
X170825000Y-61500000D03*
X170825000Y-66500000D03*
%TD*%
%TO.C,C23*%
X214875000Y-36125000D03*
X219875000Y-36125000D03*
%TD*%
%TO.C,C20*%
X160264284Y-36125000D03*
X165264284Y-36125000D03*
%TD*%
D11*
%TO.C,J16*%
X116880714Y-98985000D03*
D12*
X119380714Y-98985000D03*
X121380714Y-98985000D03*
X123880714Y-98985000D03*
D13*
X113810714Y-101695000D03*
X126950714Y-101695000D03*
%TD*%
D12*
%TO.C,C5*%
X108225000Y-54400000D03*
X108225000Y-49400000D03*
%TD*%
D11*
%TO.C,J14*%
X152986428Y-98985000D03*
D12*
X155486428Y-98985000D03*
X157486428Y-98985000D03*
X159986428Y-98985000D03*
D13*
X163056428Y-101695000D03*
X149916428Y-101695000D03*
%TD*%
D11*
%TO.C,J6*%
X142085713Y-27765000D03*
D12*
X139585713Y-27765000D03*
X137585713Y-27765000D03*
X135085713Y-27765000D03*
D13*
X145155713Y-25055000D03*
X132015713Y-25055000D03*
%TD*%
D12*
%TO.C,C24*%
X207175000Y-90450000D03*
X202175000Y-90450000D03*
%TD*%
D25*
%TO.C,D1*%
X208100000Y-49395000D03*
D26*
X208100000Y-59555000D03*
%TD*%
D12*
%TO.C,C13*%
X160125000Y-61475000D03*
X160125000Y-66475000D03*
%TD*%
D11*
%TO.C,J4*%
X105678571Y-27765000D03*
D12*
X103178571Y-27765000D03*
X101178571Y-27765000D03*
X98678571Y-27765000D03*
D13*
X108748571Y-25055000D03*
X95608571Y-25055000D03*
%TD*%
D11*
%TO.C,J9*%
X196696426Y-27765000D03*
D12*
X194196426Y-27765000D03*
X192196426Y-27765000D03*
X189696426Y-27765000D03*
D13*
X199766426Y-25055000D03*
X186626426Y-25055000D03*
%TD*%
D12*
%TO.C,C29*%
X116825000Y-90550000D03*
X111825000Y-90550000D03*
%TD*%
%TO.C,C21*%
X178467855Y-36125000D03*
X183467855Y-36125000D03*
%TD*%
D11*
%TO.C,J5*%
X123882142Y-27765000D03*
D12*
X121382142Y-27765000D03*
X119382142Y-27765000D03*
X116882142Y-27765000D03*
D13*
X126952142Y-25055000D03*
X113812142Y-25055000D03*
%TD*%
D11*
%TO.C,J7*%
X160289284Y-27765000D03*
D12*
X157789284Y-27765000D03*
X155789284Y-27765000D03*
X153289284Y-27765000D03*
D13*
X163359284Y-25055000D03*
X150219284Y-25055000D03*
%TD*%
D17*
%TO.C,R2*%
X210075000Y-72470000D03*
D18*
X210075000Y-70570000D03*
%TD*%
D12*
%TO.C,C15*%
X90375000Y-61075000D03*
X90375000Y-66075000D03*
%TD*%
D11*
%TO.C,J15*%
X134933571Y-98985000D03*
D12*
X137433571Y-98985000D03*
X139433571Y-98985000D03*
X141933571Y-98985000D03*
D13*
X131863571Y-101695000D03*
X145003571Y-101695000D03*
%TD*%
D11*
%TO.C,J12*%
X189092142Y-98985000D03*
D12*
X191592142Y-98985000D03*
X193592142Y-98985000D03*
X196092142Y-98985000D03*
D13*
X199162142Y-101695000D03*
X186022142Y-101695000D03*
%TD*%
D12*
%TO.C,C30*%
X98775000Y-90550000D03*
X93775000Y-90550000D03*
%TD*%
D11*
%TO.C,J13*%
X171039285Y-98985000D03*
D12*
X173539285Y-98985000D03*
X175539285Y-98985000D03*
X178039285Y-98985000D03*
D13*
X181109285Y-101695000D03*
X167969285Y-101695000D03*
%TD*%
%TO.C,F1*%
X220675000Y-44425000D03*
X220675000Y-67025000D03*
%TD*%
D12*
%TO.C,C18*%
X123857142Y-36125000D03*
X128857142Y-36125000D03*
%TD*%
D14*
%TO.C,Y1*%
X142725000Y-62175000D03*
X137845000Y-62175000D03*
%TD*%
D27*
%TO.C,F4*%
X187725000Y-44575000D03*
X187725000Y-51525000D03*
%TD*%
D28*
%TO.C,F2*%
X136500000Y-68550000D03*
X143450000Y-68550000D03*
%TD*%
D27*
%TO.C,F3*%
X117575000Y-44250000D03*
X117575000Y-51200000D03*
%TD*%
D29*
%TO.C,F6*%
X98575000Y-82300000D03*
X98575000Y-75350000D03*
%TD*%
%TO.C,F5*%
X168675000Y-82950000D03*
X168675000Y-76000000D03*
%TD*%
D30*
%TO.C,U1*%
X137076600Y-58720000D03*
X137076600Y-57450000D03*
X137076600Y-56180000D03*
X137076600Y-54910000D03*
X137076600Y-53640000D03*
X137076600Y-52370000D03*
X137076600Y-51100000D03*
X137076600Y-49830000D03*
X143223400Y-49830000D03*
X143223400Y-51100000D03*
X143223400Y-52370000D03*
X143223400Y-53640000D03*
X143223400Y-54910000D03*
X143223400Y-56180000D03*
X143223400Y-57450000D03*
X143223400Y-58720000D03*
%TD*%
M02*
