%FSLAX45Y45*%
G04 Gerber Fmt 4.5, Leading zero omitted, Abs format (unit mm)*
G04 Created by KiCad (PCBNEW 6.0.2+dfsg-1) date 2023-03-05 20:32:54*
%MOMM*%
%LPD*%
G01*
G04 APERTURE LIST*
%TA.AperFunction,Profile*%
%ADD10C,0.100000*%
%TD*%
%ADD11C,0.200000*%
%ADD12C,0.040000*%
%ADD13C,0.060000*%
%ADD14C,0.080000*%
%ADD15C,0.092000*%
%ADD16C,0.100000*%
%ADD17C,0.110000*%
%ADD18C,0.150000*%
%ADD19C,0.230000*%
G04 APERTURE END LIST*
D10*
X7110000Y-1332500D02*
X22610000Y-1332500D01*
X22610000Y-1332500D02*
X22610000Y-11332500D01*
X22610000Y-11332500D02*
X7110000Y-11332500D01*
X7110000Y-11332500D02*
X7110000Y-1332500D01*
D11*
D12*
X9840000Y-7330000D02*
X9880000Y-7370000D01*
X9880000Y-7330000D02*
X9840000Y-7370000D01*
X9967500Y-6997500D02*
X10007500Y-7037500D01*
X10007500Y-6997500D02*
X9967500Y-7037500D01*
X10100000Y-6992500D02*
X10140000Y-7032500D01*
X10140000Y-6992500D02*
X10100000Y-7032500D01*
X11475000Y-5632500D02*
X11515000Y-5672500D01*
X11515000Y-5632500D02*
X11475000Y-5672500D01*
X11610000Y-5632500D02*
X11650000Y-5672500D01*
X11650000Y-5632500D02*
X11610000Y-5672500D01*
X11737500Y-5297500D02*
X11777500Y-5337500D01*
X11777500Y-5297500D02*
X11737500Y-5337500D01*
X13885000Y-5600000D02*
X13925000Y-5640000D01*
X13925000Y-5600000D02*
X13885000Y-5640000D01*
X13890000Y-5345000D02*
X13930000Y-5385000D01*
X13930000Y-5345000D02*
X13890000Y-5385000D01*
X13890000Y-5472500D02*
X13930000Y-5512500D01*
X13930000Y-5472500D02*
X13890000Y-5512500D01*
X13897500Y-5217500D02*
X13937500Y-5257500D01*
X13937500Y-5217500D02*
X13897500Y-5257500D01*
X16845000Y-7380000D02*
X16885000Y-7420000D01*
X16885000Y-7380000D02*
X16845000Y-7420000D01*
X18755000Y-5352500D02*
X18795000Y-5392500D01*
X18795000Y-5352500D02*
X18755000Y-5392500D01*
X20185000Y-8202500D02*
X20225000Y-8242500D01*
X20225000Y-8202500D02*
X20185000Y-8242500D01*
X21417500Y-9005000D02*
X21457500Y-9045000D01*
X21457500Y-9005000D02*
X21417500Y-9045000D01*
X21505000Y-8927500D02*
X21545000Y-8967500D01*
X21545000Y-8927500D02*
X21505000Y-8967500D01*
X21880000Y-8907500D02*
X21920000Y-8947500D01*
X21920000Y-8907500D02*
X21880000Y-8947500D01*
D13*
X21875000Y-8518500D02*
G75*
G03*
X21875000Y-8518500I-30000J0D01*
G01*
D11*
X21790000Y-8538500D02*
X21900000Y-8538500D01*
X21790000Y-8498500D02*
X21900000Y-8498500D01*
X21900000Y-8538500D02*
G75*
G03*
X21900000Y-8498500I0J20000D01*
G01*
X21790000Y-8498500D02*
G75*
G03*
X21790000Y-8538500I0J-20000D01*
G01*
D13*
X21875000Y-9382500D02*
G75*
G03*
X21875000Y-9382500I-30000J0D01*
G01*
D11*
X21790000Y-9402500D02*
X21900000Y-9402500D01*
X21790000Y-9362500D02*
X21900000Y-9362500D01*
X21900000Y-9402500D02*
G75*
G03*
X21900000Y-9362500I0J20000D01*
G01*
X21790000Y-9362500D02*
G75*
G03*
X21790000Y-9402500I0J-20000D01*
G01*
D13*
X22293000Y-8518500D02*
G75*
G03*
X22293000Y-8518500I-30000J0D01*
G01*
D11*
X22233000Y-8538500D02*
X22293000Y-8538500D01*
X22233000Y-8498500D02*
X22293000Y-8498500D01*
X22293000Y-8538500D02*
G75*
G03*
X22293000Y-8498500I0J20000D01*
G01*
X22233000Y-8498500D02*
G75*
G03*
X22233000Y-8538500I0J-20000D01*
G01*
D13*
X22293000Y-9382500D02*
G75*
G03*
X22293000Y-9382500I-30000J0D01*
G01*
D11*
X22233000Y-9402500D02*
X22293000Y-9402500D01*
X22233000Y-9362500D02*
X22293000Y-9362500D01*
X22293000Y-9402500D02*
G75*
G03*
X22293000Y-9362500I0J20000D01*
G01*
X22233000Y-9362500D02*
G75*
G03*
X22233000Y-9402500I0J-20000D01*
G01*
D14*
X7575000Y-9025000D02*
X7575000Y-9105000D01*
X7535000Y-9065000D02*
X7615000Y-9065000D01*
X8075000Y-9025000D02*
X8075000Y-9105000D01*
X8035000Y-9065000D02*
X8115000Y-9065000D01*
X8690000Y-7259500D02*
X8690000Y-7339500D01*
X8650000Y-7299500D02*
X8730000Y-7299500D01*
X8690000Y-7747500D02*
X8690000Y-7827500D01*
X8650000Y-7787500D02*
X8730000Y-7787500D01*
X8745000Y-3572500D02*
X8745000Y-3652500D01*
X8705000Y-3612500D02*
X8785000Y-3612500D01*
X9037500Y-6067500D02*
X9037500Y-6147500D01*
X8997500Y-6107500D02*
X9077500Y-6107500D01*
X9037500Y-6567500D02*
X9037500Y-6647500D01*
X8997500Y-6607500D02*
X9077500Y-6607500D01*
X9245000Y-3572500D02*
X9245000Y-3652500D01*
X9205000Y-3612500D02*
X9285000Y-3612500D01*
X9377500Y-9015000D02*
X9377500Y-9095000D01*
X9337500Y-9055000D02*
X9417500Y-9055000D01*
X9877500Y-9015000D02*
X9877500Y-9095000D01*
X9837500Y-9055000D02*
X9917500Y-9055000D01*
X10107500Y-6047500D02*
X10107500Y-6127500D01*
X10067500Y-6087500D02*
X10147500Y-6087500D01*
X10107500Y-6547500D02*
X10107500Y-6627500D01*
X10067500Y-6587500D02*
X10147500Y-6587500D01*
X10565357Y-3572500D02*
X10565357Y-3652500D01*
X10525357Y-3612500D02*
X10605357Y-3612500D01*
X10822500Y-4900000D02*
X10822500Y-4980000D01*
X10782500Y-4940000D02*
X10862500Y-4940000D01*
X10822500Y-5400000D02*
X10822500Y-5480000D01*
X10782500Y-5440000D02*
X10862500Y-5440000D01*
X10850000Y-7212500D02*
X10850000Y-7292500D01*
X10810000Y-7252500D02*
X10890000Y-7252500D01*
X10850000Y-7712500D02*
X10850000Y-7792500D01*
X10810000Y-7752500D02*
X10890000Y-7752500D01*
X11065357Y-3572500D02*
X11065357Y-3652500D01*
X11025357Y-3612500D02*
X11105357Y-3612500D01*
X11182500Y-9015000D02*
X11182500Y-9095000D01*
X11142500Y-9055000D02*
X11222500Y-9055000D01*
X11530000Y-5997500D02*
X11530000Y-6077500D01*
X11490000Y-6037500D02*
X11570000Y-6037500D01*
X11530000Y-6497500D02*
X11530000Y-6577500D01*
X11490000Y-6537500D02*
X11570000Y-6537500D01*
X11682500Y-9015000D02*
X11682500Y-9095000D01*
X11642500Y-9055000D02*
X11722500Y-9055000D01*
X12385714Y-3572500D02*
X12385714Y-3652500D01*
X12345714Y-3612500D02*
X12425714Y-3612500D01*
X12605000Y-6000000D02*
X12605000Y-6080000D01*
X12565000Y-6040000D02*
X12645000Y-6040000D01*
X12605000Y-6500000D02*
X12605000Y-6580000D01*
X12565000Y-6540000D02*
X12645000Y-6540000D01*
X12885714Y-3572500D02*
X12885714Y-3652500D01*
X12845714Y-3612500D02*
X12925714Y-3612500D01*
X12917500Y-4850000D02*
X12917500Y-4930000D01*
X12877500Y-4890000D02*
X12957500Y-4890000D01*
X12917500Y-5338000D02*
X12917500Y-5418000D01*
X12877500Y-5378000D02*
X12957500Y-5378000D01*
X12995000Y-9025000D02*
X12995000Y-9105000D01*
X12955000Y-9065000D02*
X13035000Y-9065000D01*
X13495000Y-9025000D02*
X13495000Y-9105000D01*
X13455000Y-9065000D02*
X13535000Y-9065000D01*
X13597500Y-7422500D02*
X13597500Y-7502500D01*
X13557500Y-7462500D02*
X13637500Y-7462500D01*
X13597500Y-7922500D02*
X13597500Y-8002500D01*
X13557500Y-7962500D02*
X13637500Y-7962500D01*
X13784500Y-6177500D02*
X13784500Y-6257500D01*
X13744500Y-6217500D02*
X13824500Y-6217500D01*
X14206071Y-3572500D02*
X14206071Y-3652500D01*
X14166071Y-3612500D02*
X14246071Y-3612500D01*
X14272500Y-6177500D02*
X14272500Y-6257500D01*
X14232500Y-6217500D02*
X14312500Y-6217500D01*
X14706071Y-3572500D02*
X14706071Y-3652500D01*
X14666071Y-3612500D02*
X14746071Y-3612500D01*
X14797500Y-9010000D02*
X14797500Y-9090000D01*
X14757500Y-9050000D02*
X14837500Y-9050000D01*
X15015000Y-5450000D02*
X15015000Y-5530000D01*
X14975000Y-5490000D02*
X15055000Y-5490000D01*
X15215000Y-4110000D02*
X15215000Y-4190000D01*
X15175000Y-4150000D02*
X15255000Y-4150000D01*
X15215000Y-4610000D02*
X15215000Y-4690000D01*
X15175000Y-4650000D02*
X15255000Y-4650000D01*
X15297500Y-9010000D02*
X15297500Y-9090000D01*
X15257500Y-9050000D02*
X15337500Y-9050000D01*
X15515000Y-5450000D02*
X15515000Y-5530000D01*
X15475000Y-5490000D02*
X15555000Y-5490000D01*
X15725000Y-7334500D02*
X15725000Y-7414500D01*
X15685000Y-7374500D02*
X15765000Y-7374500D01*
X15725000Y-7822500D02*
X15725000Y-7902500D01*
X15685000Y-7862500D02*
X15765000Y-7862500D01*
X16012500Y-6107500D02*
X16012500Y-6187500D01*
X15972500Y-6147500D02*
X16052500Y-6147500D01*
X16012500Y-6607500D02*
X16012500Y-6687500D01*
X15972500Y-6647500D02*
X16052500Y-6647500D01*
X16026428Y-3572500D02*
X16026428Y-3652500D01*
X15986428Y-3612500D02*
X16066428Y-3612500D01*
X16526428Y-3572500D02*
X16526428Y-3652500D01*
X16486428Y-3612500D02*
X16566428Y-3612500D01*
X16610000Y-9022500D02*
X16610000Y-9102500D01*
X16570000Y-9062500D02*
X16650000Y-9062500D01*
X17082500Y-6110000D02*
X17082500Y-6190000D01*
X17042500Y-6150000D02*
X17122500Y-6150000D01*
X17082500Y-6610000D02*
X17082500Y-6690000D01*
X17042500Y-6650000D02*
X17122500Y-6650000D01*
X17110000Y-9022500D02*
X17110000Y-9102500D01*
X17070000Y-9062500D02*
X17150000Y-9062500D01*
X17747500Y-7142500D02*
X17747500Y-7222500D01*
X17707500Y-7182500D02*
X17787500Y-7182500D01*
X17747500Y-7642500D02*
X17747500Y-7722500D01*
X17707500Y-7682500D02*
X17787500Y-7682500D01*
X17846786Y-3572500D02*
X17846786Y-3652500D01*
X17806786Y-3612500D02*
X17886786Y-3612500D01*
X17900000Y-4927500D02*
X17900000Y-5007500D01*
X17860000Y-4967500D02*
X17940000Y-4967500D01*
X17900000Y-5427500D02*
X17900000Y-5507500D01*
X17860000Y-5467500D02*
X17940000Y-5467500D01*
X18346786Y-3572500D02*
X18346786Y-3652500D01*
X18306786Y-3612500D02*
X18386786Y-3612500D01*
X18412500Y-9027500D02*
X18412500Y-9107500D01*
X18372500Y-9067500D02*
X18452500Y-9067500D01*
X18550000Y-6097500D02*
X18550000Y-6177500D01*
X18510000Y-6137500D02*
X18590000Y-6137500D01*
X18550000Y-6597500D02*
X18550000Y-6677500D01*
X18510000Y-6637500D02*
X18590000Y-6637500D01*
X18912500Y-9027500D02*
X18912500Y-9107500D01*
X18872500Y-9067500D02*
X18952500Y-9067500D01*
X19617500Y-6097500D02*
X19617500Y-6177500D01*
X19577500Y-6137500D02*
X19657500Y-6137500D01*
X19617500Y-6597500D02*
X19617500Y-6677500D01*
X19577500Y-6637500D02*
X19657500Y-6637500D01*
X19667143Y-3572500D02*
X19667143Y-3652500D01*
X19627143Y-3612500D02*
X19707143Y-3612500D01*
X19937500Y-4924500D02*
X19937500Y-5004500D01*
X19897500Y-4964500D02*
X19977500Y-4964500D01*
X19937500Y-5412500D02*
X19937500Y-5492500D01*
X19897500Y-5452500D02*
X19977500Y-5452500D01*
X20167143Y-3572500D02*
X20167143Y-3652500D01*
X20127143Y-3612500D02*
X20207143Y-3612500D01*
X20217500Y-9005000D02*
X20217500Y-9085000D01*
X20177500Y-9045000D02*
X20257500Y-9045000D01*
X20717500Y-9005000D02*
X20717500Y-9085000D01*
X20677500Y-9045000D02*
X20757500Y-9045000D01*
X21487500Y-3572500D02*
X21487500Y-3652500D01*
X21447500Y-3612500D02*
X21527500Y-3612500D01*
X21987500Y-3572500D02*
X21987500Y-3652500D01*
X21947500Y-3612500D02*
X22027500Y-3612500D01*
D15*
X8080027Y-2809027D02*
X8080027Y-2743973D01*
X8014973Y-2743973D01*
X8014973Y-2809027D01*
X8080027Y-2809027D01*
X8110027Y-9931027D02*
X8110027Y-9865973D01*
X8044973Y-9865973D01*
X8044973Y-9931027D01*
X8110027Y-9931027D01*
X8330027Y-2809027D02*
X8330027Y-2743973D01*
X8264973Y-2743973D01*
X8264973Y-2809027D01*
X8330027Y-2809027D01*
X8360027Y-9931027D02*
X8360027Y-9865973D01*
X8294973Y-9865973D01*
X8294973Y-9931027D01*
X8360027Y-9931027D01*
X8530027Y-2809027D02*
X8530027Y-2743973D01*
X8464973Y-2743973D01*
X8464973Y-2809027D01*
X8530027Y-2809027D01*
X8560027Y-9931027D02*
X8560027Y-9865973D01*
X8494973Y-9865973D01*
X8494973Y-9931027D01*
X8560027Y-9931027D01*
X8780027Y-2809027D02*
X8780027Y-2743973D01*
X8714973Y-2743973D01*
X8714973Y-2809027D01*
X8780027Y-2809027D01*
X8810027Y-9931027D02*
X8810027Y-9865973D01*
X8744973Y-9865973D01*
X8744973Y-9931027D01*
X8810027Y-9931027D01*
X9900384Y-2809027D02*
X9900384Y-2743973D01*
X9835330Y-2743973D01*
X9835330Y-2809027D01*
X9900384Y-2809027D01*
X9915313Y-9931027D02*
X9915313Y-9865973D01*
X9850259Y-9865973D01*
X9850259Y-9931027D01*
X9915313Y-9931027D01*
X10150384Y-2809027D02*
X10150384Y-2743973D01*
X10085330Y-2743973D01*
X10085330Y-2809027D01*
X10150384Y-2809027D01*
X10165313Y-9931027D02*
X10165313Y-9865973D01*
X10100259Y-9865973D01*
X10100259Y-9931027D01*
X10165313Y-9931027D01*
X10350384Y-2809027D02*
X10350384Y-2743973D01*
X10285330Y-2743973D01*
X10285330Y-2809027D01*
X10350384Y-2809027D01*
X10365313Y-9931027D02*
X10365313Y-9865973D01*
X10300259Y-9865973D01*
X10300259Y-9931027D01*
X10365313Y-9931027D01*
X10600384Y-2809027D02*
X10600384Y-2743973D01*
X10535330Y-2743973D01*
X10535330Y-2809027D01*
X10600384Y-2809027D01*
X10615313Y-9931027D02*
X10615313Y-9865973D01*
X10550259Y-9865973D01*
X10550259Y-9931027D01*
X10615313Y-9931027D01*
X11720599Y-9931027D02*
X11720599Y-9865973D01*
X11655544Y-9865973D01*
X11655544Y-9931027D01*
X11720599Y-9931027D01*
X11720741Y-2809027D02*
X11720741Y-2743973D01*
X11655687Y-2743973D01*
X11655687Y-2809027D01*
X11720741Y-2809027D01*
X11970599Y-9931027D02*
X11970599Y-9865973D01*
X11905544Y-9865973D01*
X11905544Y-9931027D01*
X11970599Y-9931027D01*
X11970741Y-2809027D02*
X11970741Y-2743973D01*
X11905687Y-2743973D01*
X11905687Y-2809027D01*
X11970741Y-2809027D01*
X12170599Y-9931027D02*
X12170599Y-9865973D01*
X12105544Y-9865973D01*
X12105544Y-9931027D01*
X12170599Y-9931027D01*
X12170741Y-2809027D02*
X12170741Y-2743973D01*
X12105687Y-2743973D01*
X12105687Y-2809027D01*
X12170741Y-2809027D01*
X12420599Y-9931027D02*
X12420599Y-9865973D01*
X12355544Y-9865973D01*
X12355544Y-9931027D01*
X12420599Y-9931027D01*
X12420741Y-2809027D02*
X12420741Y-2743973D01*
X12355687Y-2743973D01*
X12355687Y-2809027D01*
X12420741Y-2809027D01*
X13525884Y-9931027D02*
X13525884Y-9865973D01*
X13460830Y-9865973D01*
X13460830Y-9931027D01*
X13525884Y-9931027D01*
X13541098Y-2809027D02*
X13541098Y-2743973D01*
X13476044Y-2743973D01*
X13476044Y-2809027D01*
X13541098Y-2809027D01*
X13775884Y-9931027D02*
X13775884Y-9865973D01*
X13710830Y-9865973D01*
X13710830Y-9931027D01*
X13775884Y-9931027D01*
X13791098Y-2809027D02*
X13791098Y-2743973D01*
X13726044Y-2743973D01*
X13726044Y-2809027D01*
X13791098Y-2809027D01*
X13975884Y-9931027D02*
X13975884Y-9865973D01*
X13910830Y-9865973D01*
X13910830Y-9931027D01*
X13975884Y-9931027D01*
X13991098Y-2809027D02*
X13991098Y-2743973D01*
X13926044Y-2743973D01*
X13926044Y-2809027D01*
X13991098Y-2809027D01*
X14225884Y-9931027D02*
X14225884Y-9865973D01*
X14160830Y-9865973D01*
X14160830Y-9931027D01*
X14225884Y-9931027D01*
X14241098Y-2809027D02*
X14241098Y-2743973D01*
X14176044Y-2743973D01*
X14176044Y-2809027D01*
X14241098Y-2809027D01*
X15331170Y-9931027D02*
X15331170Y-9865973D01*
X15266116Y-9865973D01*
X15266116Y-9931027D01*
X15331170Y-9931027D01*
X15361456Y-2809027D02*
X15361456Y-2743973D01*
X15296401Y-2743973D01*
X15296401Y-2809027D01*
X15361456Y-2809027D01*
X15581170Y-9931027D02*
X15581170Y-9865973D01*
X15516116Y-9865973D01*
X15516116Y-9931027D01*
X15581170Y-9931027D01*
X15611456Y-2809027D02*
X15611456Y-2743973D01*
X15546401Y-2743973D01*
X15546401Y-2809027D01*
X15611456Y-2809027D01*
X15781170Y-9931027D02*
X15781170Y-9865973D01*
X15716116Y-9865973D01*
X15716116Y-9931027D01*
X15781170Y-9931027D01*
X15811456Y-2809027D02*
X15811456Y-2743973D01*
X15746401Y-2743973D01*
X15746401Y-2809027D01*
X15811456Y-2809027D01*
X16031170Y-9931027D02*
X16031170Y-9865973D01*
X15966116Y-9865973D01*
X15966116Y-9931027D01*
X16031170Y-9931027D01*
X16061456Y-2809027D02*
X16061456Y-2743973D01*
X15996401Y-2743973D01*
X15996401Y-2809027D01*
X16061456Y-2809027D01*
X17136456Y-9931027D02*
X17136456Y-9865973D01*
X17071401Y-9865973D01*
X17071401Y-9931027D01*
X17136456Y-9931027D01*
X17181813Y-2809027D02*
X17181813Y-2743973D01*
X17116758Y-2743973D01*
X17116758Y-2809027D01*
X17181813Y-2809027D01*
X17386456Y-9931027D02*
X17386456Y-9865973D01*
X17321401Y-9865973D01*
X17321401Y-9931027D01*
X17386456Y-9931027D01*
X17431813Y-2809027D02*
X17431813Y-2743973D01*
X17366758Y-2743973D01*
X17366758Y-2809027D01*
X17431813Y-2809027D01*
X17586456Y-9931027D02*
X17586456Y-9865973D01*
X17521401Y-9865973D01*
X17521401Y-9931027D01*
X17586456Y-9931027D01*
X17631813Y-2809027D02*
X17631813Y-2743973D01*
X17566758Y-2743973D01*
X17566758Y-2809027D01*
X17631813Y-2809027D01*
X17836456Y-9931027D02*
X17836456Y-9865973D01*
X17771401Y-9865973D01*
X17771401Y-9931027D01*
X17836456Y-9931027D01*
X17881813Y-2809027D02*
X17881813Y-2743973D01*
X17816758Y-2743973D01*
X17816758Y-2809027D01*
X17881813Y-2809027D01*
X18941741Y-9931027D02*
X18941741Y-9865973D01*
X18876687Y-9865973D01*
X18876687Y-9931027D01*
X18941741Y-9931027D01*
X19002170Y-2809027D02*
X19002170Y-2743973D01*
X18937115Y-2743973D01*
X18937115Y-2809027D01*
X19002170Y-2809027D01*
X19191741Y-9931027D02*
X19191741Y-9865973D01*
X19126687Y-9865973D01*
X19126687Y-9931027D01*
X19191741Y-9931027D01*
X19252170Y-2809027D02*
X19252170Y-2743973D01*
X19187115Y-2743973D01*
X19187115Y-2809027D01*
X19252170Y-2809027D01*
X19391741Y-9931027D02*
X19391741Y-9865973D01*
X19326687Y-9865973D01*
X19326687Y-9931027D01*
X19391741Y-9931027D01*
X19452170Y-2809027D02*
X19452170Y-2743973D01*
X19387115Y-2743973D01*
X19387115Y-2809027D01*
X19452170Y-2809027D01*
X19641741Y-9931027D02*
X19641741Y-9865973D01*
X19576687Y-9865973D01*
X19576687Y-9931027D01*
X19641741Y-9931027D01*
X19702170Y-2809027D02*
X19702170Y-2743973D01*
X19637115Y-2743973D01*
X19637115Y-2809027D01*
X19702170Y-2809027D01*
X20747027Y-9931027D02*
X20747027Y-9865973D01*
X20681973Y-9865973D01*
X20681973Y-9931027D01*
X20747027Y-9931027D01*
X20822527Y-2809027D02*
X20822527Y-2743973D01*
X20757473Y-2743973D01*
X20757473Y-2809027D01*
X20822527Y-2809027D01*
X20997027Y-9931027D02*
X20997027Y-9865973D01*
X20931973Y-9865973D01*
X20931973Y-9931027D01*
X20997027Y-9931027D01*
X21072527Y-2809027D02*
X21072527Y-2743973D01*
X21007473Y-2743973D01*
X21007473Y-2809027D01*
X21072527Y-2809027D01*
X21197027Y-9931027D02*
X21197027Y-9865973D01*
X21131973Y-9865973D01*
X21131973Y-9931027D01*
X21197027Y-9931027D01*
X21272527Y-2809027D02*
X21272527Y-2743973D01*
X21207473Y-2743973D01*
X21207473Y-2809027D01*
X21272527Y-2809027D01*
X21447027Y-9931027D02*
X21447027Y-9865973D01*
X21381973Y-9865973D01*
X21381973Y-9931027D01*
X21447027Y-9931027D01*
X21522527Y-2809027D02*
X21522527Y-2743973D01*
X21457473Y-2743973D01*
X21457473Y-2809027D01*
X21522527Y-2809027D01*
D16*
X21370000Y-7672500D02*
X21420000Y-7622500D01*
X21370000Y-7572500D01*
X21320000Y-7622500D01*
X21370000Y-7672500D01*
D11*
X21410000Y-7722500D02*
X21410000Y-7522500D01*
X21330000Y-7722500D02*
X21330000Y-7522500D01*
X21410000Y-7522500D02*
G75*
G03*
X21330000Y-7522500I-40000J0D01*
G01*
X21330000Y-7722500D02*
G75*
G03*
X21410000Y-7722500I40000J0D01*
G01*
D16*
X21970000Y-7672500D02*
X22020000Y-7622500D01*
X21970000Y-7572500D01*
X21920000Y-7622500D01*
X21970000Y-7672500D01*
D11*
X22010000Y-7687500D02*
X22010000Y-7557500D01*
X21930000Y-7687500D02*
X21930000Y-7557500D01*
X22010000Y-7557500D02*
G75*
G03*
X21930000Y-7557500I-40000J0D01*
G01*
X21930000Y-7687500D02*
G75*
G03*
X22010000Y-7687500I40000J0D01*
G01*
D16*
X22070000Y-7222500D02*
X22120000Y-7172500D01*
X22070000Y-7122500D01*
X22020000Y-7172500D01*
X22070000Y-7222500D01*
D11*
X21995000Y-7212500D02*
X22145000Y-7212500D01*
X21995000Y-7132500D02*
X22145000Y-7132500D01*
X22145000Y-7212500D02*
G75*
G03*
X22145000Y-7132500I0J40000D01*
G01*
X21995000Y-7132500D02*
G75*
G03*
X21995000Y-7212500I0J-40000D01*
G01*
D16*
X22070000Y-8122500D02*
X22120000Y-8072500D01*
X22070000Y-8022500D01*
X22020000Y-8072500D01*
X22070000Y-8122500D01*
D11*
X21995000Y-8112500D02*
X22145000Y-8112500D01*
X21995000Y-8032500D02*
X22145000Y-8032500D01*
X22145000Y-8112500D02*
G75*
G03*
X22145000Y-8032500I0J40000D01*
G01*
X21995000Y-8032500D02*
G75*
G03*
X21995000Y-8112500I0J-40000D01*
G01*
D17*
X22277500Y-9736500D02*
X22387500Y-9846500D01*
X22387500Y-9736500D02*
X22277500Y-9846500D01*
X22387500Y-9791500D02*
G75*
G03*
X22387500Y-9791500I-55000J0D01*
G01*
X22277500Y-10752500D02*
X22387500Y-10862500D01*
X22387500Y-10752500D02*
X22277500Y-10862500D01*
X22387500Y-10807500D02*
G75*
G03*
X22387500Y-10807500I-55000J0D01*
G01*
D18*
X21992500Y-4367500D02*
X22142500Y-4517500D01*
X22142500Y-4367500D02*
X21992500Y-4517500D01*
X22067500Y-4367500D02*
X22067500Y-4517500D01*
X21992500Y-4442500D02*
X22142500Y-4442500D01*
X21992500Y-6627500D02*
X22142500Y-6777500D01*
X22142500Y-6627500D02*
X21992500Y-6777500D01*
X22067500Y-6627500D02*
X22067500Y-6777500D01*
X21992500Y-6702500D02*
X22142500Y-6702500D01*
D19*
X7625500Y-2390500D02*
X7855500Y-2620500D01*
X7855500Y-2390500D02*
X7625500Y-2620500D01*
X7821818Y-2586818D02*
X7821818Y-2424182D01*
X7659182Y-2424182D01*
X7659182Y-2586818D01*
X7821818Y-2586818D01*
X7655500Y-10054500D02*
X7885500Y-10284500D01*
X7885500Y-10054500D02*
X7655500Y-10284500D01*
X7851818Y-10250818D02*
X7851818Y-10088182D01*
X7689182Y-10088182D01*
X7689182Y-10250818D01*
X7851818Y-10250818D01*
X8939500Y-2390500D02*
X9169500Y-2620500D01*
X9169500Y-2390500D02*
X8939500Y-2620500D01*
X9135818Y-2586818D02*
X9135818Y-2424182D01*
X8973182Y-2424182D01*
X8973182Y-2586818D01*
X9135818Y-2586818D01*
X8969500Y-10054500D02*
X9199500Y-10284500D01*
X9199500Y-10054500D02*
X8969500Y-10284500D01*
X9165818Y-10250818D02*
X9165818Y-10088182D01*
X9003182Y-10088182D01*
X9003182Y-10250818D01*
X9165818Y-10250818D01*
X9445857Y-2390500D02*
X9675857Y-2620500D01*
X9675857Y-2390500D02*
X9445857Y-2620500D01*
X9642175Y-2586818D02*
X9642175Y-2424182D01*
X9479539Y-2424182D01*
X9479539Y-2586818D01*
X9642175Y-2586818D01*
X9460786Y-10054500D02*
X9690786Y-10284500D01*
X9690786Y-10054500D02*
X9460786Y-10284500D01*
X9657104Y-10250818D02*
X9657104Y-10088182D01*
X9494468Y-10088182D01*
X9494468Y-10250818D01*
X9657104Y-10250818D01*
X10759857Y-2390500D02*
X10989857Y-2620500D01*
X10989857Y-2390500D02*
X10759857Y-2620500D01*
X10956175Y-2586818D02*
X10956175Y-2424182D01*
X10793539Y-2424182D01*
X10793539Y-2586818D01*
X10956175Y-2586818D01*
X10774786Y-10054500D02*
X11004786Y-10284500D01*
X11004786Y-10054500D02*
X10774786Y-10284500D01*
X10971104Y-10250818D02*
X10971104Y-10088182D01*
X10808468Y-10088182D01*
X10808468Y-10250818D01*
X10971104Y-10250818D01*
X11266071Y-10054500D02*
X11496071Y-10284500D01*
X11496071Y-10054500D02*
X11266071Y-10284500D01*
X11462389Y-10250818D02*
X11462389Y-10088182D01*
X11299753Y-10088182D01*
X11299753Y-10250818D01*
X11462389Y-10250818D01*
X11266214Y-2390500D02*
X11496214Y-2620500D01*
X11496214Y-2390500D02*
X11266214Y-2620500D01*
X11462532Y-2586818D02*
X11462532Y-2424182D01*
X11299896Y-2424182D01*
X11299896Y-2586818D01*
X11462532Y-2586818D01*
X12580071Y-10054500D02*
X12810071Y-10284500D01*
X12810071Y-10054500D02*
X12580071Y-10284500D01*
X12776389Y-10250818D02*
X12776389Y-10088182D01*
X12613753Y-10088182D01*
X12613753Y-10250818D01*
X12776389Y-10250818D01*
X12580214Y-2390500D02*
X12810214Y-2620500D01*
X12810214Y-2390500D02*
X12580214Y-2620500D01*
X12776532Y-2586818D02*
X12776532Y-2424182D01*
X12613896Y-2424182D01*
X12613896Y-2586818D01*
X12776532Y-2586818D01*
X13071357Y-10054500D02*
X13301357Y-10284500D01*
X13301357Y-10054500D02*
X13071357Y-10284500D01*
X13267675Y-10250818D02*
X13267675Y-10088182D01*
X13105039Y-10088182D01*
X13105039Y-10250818D01*
X13267675Y-10250818D01*
X13086571Y-2390500D02*
X13316571Y-2620500D01*
X13316571Y-2390500D02*
X13086571Y-2620500D01*
X13282889Y-2586818D02*
X13282889Y-2424182D01*
X13120253Y-2424182D01*
X13120253Y-2586818D01*
X13282889Y-2586818D01*
X14385357Y-10054500D02*
X14615357Y-10284500D01*
X14615357Y-10054500D02*
X14385357Y-10284500D01*
X14581675Y-10250818D02*
X14581675Y-10088182D01*
X14419039Y-10088182D01*
X14419039Y-10250818D01*
X14581675Y-10250818D01*
X14400571Y-2390500D02*
X14630571Y-2620500D01*
X14630571Y-2390500D02*
X14400571Y-2620500D01*
X14596889Y-2586818D02*
X14596889Y-2424182D01*
X14434253Y-2424182D01*
X14434253Y-2586818D01*
X14596889Y-2586818D01*
X14876643Y-10054500D02*
X15106643Y-10284500D01*
X15106643Y-10054500D02*
X14876643Y-10284500D01*
X15072961Y-10250818D02*
X15072961Y-10088182D01*
X14910325Y-10088182D01*
X14910325Y-10250818D01*
X15072961Y-10250818D01*
X14906928Y-2390500D02*
X15136928Y-2620500D01*
X15136928Y-2390500D02*
X14906928Y-2620500D01*
X15103246Y-2586818D02*
X15103246Y-2424182D01*
X14940610Y-2424182D01*
X14940610Y-2586818D01*
X15103246Y-2586818D01*
X16190643Y-10054500D02*
X16420643Y-10284500D01*
X16420643Y-10054500D02*
X16190643Y-10284500D01*
X16386961Y-10250818D02*
X16386961Y-10088182D01*
X16224325Y-10088182D01*
X16224325Y-10250818D01*
X16386961Y-10250818D01*
X16220928Y-2390500D02*
X16450928Y-2620500D01*
X16450928Y-2390500D02*
X16220928Y-2620500D01*
X16417246Y-2586818D02*
X16417246Y-2424182D01*
X16254610Y-2424182D01*
X16254610Y-2586818D01*
X16417246Y-2586818D01*
X16681928Y-10054500D02*
X16911929Y-10284500D01*
X16911929Y-10054500D02*
X16681928Y-10284500D01*
X16878247Y-10250818D02*
X16878247Y-10088182D01*
X16715610Y-10088182D01*
X16715610Y-10250818D01*
X16878247Y-10250818D01*
X16727285Y-2390500D02*
X16957286Y-2620500D01*
X16957286Y-2390500D02*
X16727285Y-2620500D01*
X16923604Y-2586818D02*
X16923604Y-2424182D01*
X16760967Y-2424182D01*
X16760967Y-2586818D01*
X16923604Y-2586818D01*
X17995929Y-10054500D02*
X18225929Y-10284500D01*
X18225929Y-10054500D02*
X17995929Y-10284500D01*
X18192247Y-10250818D02*
X18192247Y-10088182D01*
X18029610Y-10088182D01*
X18029610Y-10250818D01*
X18192247Y-10250818D01*
X18041286Y-2390500D02*
X18271286Y-2620500D01*
X18271286Y-2390500D02*
X18041286Y-2620500D01*
X18237604Y-2586818D02*
X18237604Y-2424182D01*
X18074967Y-2424182D01*
X18074967Y-2586818D01*
X18237604Y-2586818D01*
X18487214Y-10054500D02*
X18717214Y-10284500D01*
X18717214Y-10054500D02*
X18487214Y-10284500D01*
X18683532Y-10250818D02*
X18683532Y-10088182D01*
X18520896Y-10088182D01*
X18520896Y-10250818D01*
X18683532Y-10250818D01*
X18547643Y-2390500D02*
X18777643Y-2620500D01*
X18777643Y-2390500D02*
X18547643Y-2620500D01*
X18743961Y-2586818D02*
X18743961Y-2424182D01*
X18581325Y-2424182D01*
X18581325Y-2586818D01*
X18743961Y-2586818D01*
X19801214Y-10054500D02*
X20031214Y-10284500D01*
X20031214Y-10054500D02*
X19801214Y-10284500D01*
X19997532Y-10250818D02*
X19997532Y-10088182D01*
X19834896Y-10088182D01*
X19834896Y-10250818D01*
X19997532Y-10250818D01*
X19861643Y-2390500D02*
X20091643Y-2620500D01*
X20091643Y-2390500D02*
X19861643Y-2620500D01*
X20057961Y-2586818D02*
X20057961Y-2424182D01*
X19895325Y-2424182D01*
X19895325Y-2586818D01*
X20057961Y-2586818D01*
X20292500Y-10054500D02*
X20522500Y-10284500D01*
X20522500Y-10054500D02*
X20292500Y-10284500D01*
X20488818Y-10250818D02*
X20488818Y-10088182D01*
X20326182Y-10088182D01*
X20326182Y-10250818D01*
X20488818Y-10250818D01*
X20368000Y-2390500D02*
X20598000Y-2620500D01*
X20598000Y-2390500D02*
X20368000Y-2620500D01*
X20564318Y-2586818D02*
X20564318Y-2424182D01*
X20401682Y-2424182D01*
X20401682Y-2586818D01*
X20564318Y-2586818D01*
X21606500Y-10054500D02*
X21836500Y-10284500D01*
X21836500Y-10054500D02*
X21606500Y-10284500D01*
X21802818Y-10250818D02*
X21802818Y-10088182D01*
X21640182Y-10088182D01*
X21640182Y-10250818D01*
X21802818Y-10250818D01*
X21682000Y-2390500D02*
X21912000Y-2620500D01*
X21912000Y-2390500D02*
X21682000Y-2620500D01*
X21878318Y-2586818D02*
X21878318Y-2424182D01*
X21715682Y-2424182D01*
X21715682Y-2586818D01*
X21878318Y-2586818D01*
D11*
X7362619Y-11647976D02*
X7362619Y-11447976D01*
X7410238Y-11447976D01*
X7438809Y-11457500D01*
X7457857Y-11476548D01*
X7467381Y-11495595D01*
X7476905Y-11533690D01*
X7476905Y-11562262D01*
X7467381Y-11600357D01*
X7457857Y-11619405D01*
X7438809Y-11638452D01*
X7410238Y-11647976D01*
X7362619Y-11647976D01*
X7562619Y-11647976D02*
X7562619Y-11514643D01*
X7562619Y-11552738D02*
X7572143Y-11533690D01*
X7581667Y-11524167D01*
X7600714Y-11514643D01*
X7619762Y-11514643D01*
X7686428Y-11647976D02*
X7686428Y-11514643D01*
X7686428Y-11447976D02*
X7676905Y-11457500D01*
X7686428Y-11467024D01*
X7695952Y-11457500D01*
X7686428Y-11447976D01*
X7686428Y-11467024D01*
X7810238Y-11647976D02*
X7791190Y-11638452D01*
X7781667Y-11619405D01*
X7781667Y-11447976D01*
X7915000Y-11647976D02*
X7895952Y-11638452D01*
X7886428Y-11619405D01*
X7886428Y-11447976D01*
X8143571Y-11647976D02*
X8143571Y-11447976D01*
X8210238Y-11590833D01*
X8276905Y-11447976D01*
X8276905Y-11647976D01*
X8457857Y-11647976D02*
X8457857Y-11543214D01*
X8448333Y-11524167D01*
X8429286Y-11514643D01*
X8391190Y-11514643D01*
X8372143Y-11524167D01*
X8457857Y-11638452D02*
X8438810Y-11647976D01*
X8391190Y-11647976D01*
X8372143Y-11638452D01*
X8362619Y-11619405D01*
X8362619Y-11600357D01*
X8372143Y-11581309D01*
X8391190Y-11571786D01*
X8438810Y-11571786D01*
X8457857Y-11562262D01*
X8553095Y-11514643D02*
X8553095Y-11714643D01*
X8553095Y-11524167D02*
X8572143Y-11514643D01*
X8610238Y-11514643D01*
X8629286Y-11524167D01*
X8638810Y-11533690D01*
X8648333Y-11552738D01*
X8648333Y-11609881D01*
X8638810Y-11628928D01*
X8629286Y-11638452D01*
X8610238Y-11647976D01*
X8572143Y-11647976D01*
X8553095Y-11638452D01*
X8734048Y-11628928D02*
X8743571Y-11638452D01*
X8734048Y-11647976D01*
X8724524Y-11638452D01*
X8734048Y-11628928D01*
X8734048Y-11647976D01*
X8734048Y-11524167D02*
X8743571Y-11533690D01*
X8734048Y-11543214D01*
X8724524Y-11533690D01*
X8734048Y-11524167D01*
X8734048Y-11543214D01*
D12*
X7065000Y-11957500D02*
X7105000Y-11997500D01*
X7105000Y-11957500D02*
X7065000Y-11997500D01*
D11*
X7400714Y-11867976D02*
X7419762Y-11867976D01*
X7438809Y-11877500D01*
X7448333Y-11887024D01*
X7457857Y-11906071D01*
X7467381Y-11944167D01*
X7467381Y-11991786D01*
X7457857Y-12029881D01*
X7448333Y-12048928D01*
X7438809Y-12058452D01*
X7419762Y-12067976D01*
X7400714Y-12067976D01*
X7381667Y-12058452D01*
X7372143Y-12048928D01*
X7362619Y-12029881D01*
X7353095Y-11991786D01*
X7353095Y-11944167D01*
X7362619Y-11906071D01*
X7372143Y-11887024D01*
X7381667Y-11877500D01*
X7400714Y-11867976D01*
X7553095Y-12048928D02*
X7562619Y-12058452D01*
X7553095Y-12067976D01*
X7543571Y-12058452D01*
X7553095Y-12048928D01*
X7553095Y-12067976D01*
X7734048Y-11934643D02*
X7734048Y-12067976D01*
X7686428Y-11858452D02*
X7638809Y-12001309D01*
X7762619Y-12001309D01*
X7876905Y-11867976D02*
X7895952Y-11867976D01*
X7915000Y-11877500D01*
X7924524Y-11887024D01*
X7934048Y-11906071D01*
X7943571Y-11944167D01*
X7943571Y-11991786D01*
X7934048Y-12029881D01*
X7924524Y-12048928D01*
X7915000Y-12058452D01*
X7895952Y-12067976D01*
X7876905Y-12067976D01*
X7857857Y-12058452D01*
X7848333Y-12048928D01*
X7838809Y-12029881D01*
X7829286Y-11991786D01*
X7829286Y-11944167D01*
X7838809Y-11906071D01*
X7848333Y-11887024D01*
X7857857Y-11877500D01*
X7876905Y-11867976D01*
X8067381Y-11867976D02*
X8086428Y-11867976D01*
X8105476Y-11877500D01*
X8115000Y-11887024D01*
X8124524Y-11906071D01*
X8134048Y-11944167D01*
X8134048Y-11991786D01*
X8124524Y-12029881D01*
X8115000Y-12048928D01*
X8105476Y-12058452D01*
X8086428Y-12067976D01*
X8067381Y-12067976D01*
X8048333Y-12058452D01*
X8038809Y-12048928D01*
X8029286Y-12029881D01*
X8019762Y-11991786D01*
X8019762Y-11944167D01*
X8029286Y-11906071D01*
X8038809Y-11887024D01*
X8048333Y-11877500D01*
X8067381Y-11867976D01*
X8219762Y-12067976D02*
X8219762Y-11934643D01*
X8219762Y-11953690D02*
X8229286Y-11944167D01*
X8248333Y-11934643D01*
X8276905Y-11934643D01*
X8295952Y-11944167D01*
X8305476Y-11963214D01*
X8305476Y-12067976D01*
X8305476Y-11963214D02*
X8315000Y-11944167D01*
X8334048Y-11934643D01*
X8362619Y-11934643D01*
X8381667Y-11944167D01*
X8391190Y-11963214D01*
X8391190Y-12067976D01*
X8486429Y-12067976D02*
X8486429Y-11934643D01*
X8486429Y-11953690D02*
X8495952Y-11944167D01*
X8515000Y-11934643D01*
X8543571Y-11934643D01*
X8562619Y-11944167D01*
X8572143Y-11963214D01*
X8572143Y-12067976D01*
X8572143Y-11963214D02*
X8581667Y-11944167D01*
X8600714Y-11934643D01*
X8629286Y-11934643D01*
X8648333Y-11944167D01*
X8657857Y-11963214D01*
X8657857Y-12067976D01*
X9048333Y-11858452D02*
X8876905Y-12115595D01*
X9305476Y-11867976D02*
X9324524Y-11867976D01*
X9343571Y-11877500D01*
X9353095Y-11887024D01*
X9362619Y-11906071D01*
X9372143Y-11944167D01*
X9372143Y-11991786D01*
X9362619Y-12029881D01*
X9353095Y-12048928D01*
X9343571Y-12058452D01*
X9324524Y-12067976D01*
X9305476Y-12067976D01*
X9286429Y-12058452D01*
X9276905Y-12048928D01*
X9267381Y-12029881D01*
X9257857Y-11991786D01*
X9257857Y-11944167D01*
X9267381Y-11906071D01*
X9276905Y-11887024D01*
X9286429Y-11877500D01*
X9305476Y-11867976D01*
X9457857Y-12048928D02*
X9467381Y-12058452D01*
X9457857Y-12067976D01*
X9448333Y-12058452D01*
X9457857Y-12048928D01*
X9457857Y-12067976D01*
X9591190Y-11867976D02*
X9610238Y-11867976D01*
X9629286Y-11877500D01*
X9638810Y-11887024D01*
X9648333Y-11906071D01*
X9657857Y-11944167D01*
X9657857Y-11991786D01*
X9648333Y-12029881D01*
X9638810Y-12048928D01*
X9629286Y-12058452D01*
X9610238Y-12067976D01*
X9591190Y-12067976D01*
X9572143Y-12058452D01*
X9562619Y-12048928D01*
X9553095Y-12029881D01*
X9543571Y-11991786D01*
X9543571Y-11944167D01*
X9553095Y-11906071D01*
X9562619Y-11887024D01*
X9572143Y-11877500D01*
X9591190Y-11867976D01*
X9848333Y-12067976D02*
X9734048Y-12067976D01*
X9791190Y-12067976D02*
X9791190Y-11867976D01*
X9772143Y-11896548D01*
X9753095Y-11915595D01*
X9734048Y-11925119D01*
X10029286Y-11867976D02*
X9934048Y-11867976D01*
X9924524Y-11963214D01*
X9934048Y-11953690D01*
X9953095Y-11944167D01*
X10000714Y-11944167D01*
X10019762Y-11953690D01*
X10029286Y-11963214D01*
X10038810Y-11982262D01*
X10038810Y-12029881D01*
X10029286Y-12048928D01*
X10019762Y-12058452D01*
X10000714Y-12067976D01*
X9953095Y-12067976D01*
X9934048Y-12058452D01*
X9924524Y-12048928D01*
X10105476Y-11867976D02*
X10238810Y-11867976D01*
X10153095Y-12067976D01*
X10305476Y-11867976D02*
X10305476Y-11906071D01*
X10381667Y-11867976D02*
X10381667Y-11906071D01*
X10676905Y-12144167D02*
X10667381Y-12134643D01*
X10648333Y-12106071D01*
X10638810Y-12087024D01*
X10629286Y-12058452D01*
X10619762Y-12010833D01*
X10619762Y-11972738D01*
X10629286Y-11925119D01*
X10638810Y-11896548D01*
X10648333Y-11877500D01*
X10667381Y-11848928D01*
X10676905Y-11839405D01*
X10857857Y-12067976D02*
X10743571Y-12067976D01*
X10800714Y-12067976D02*
X10800714Y-11867976D01*
X10781667Y-11896548D01*
X10762619Y-11915595D01*
X10743571Y-11925119D01*
X11029286Y-11867976D02*
X10991190Y-11867976D01*
X10972143Y-11877500D01*
X10962619Y-11887024D01*
X10943571Y-11915595D01*
X10934048Y-11953690D01*
X10934048Y-12029881D01*
X10943571Y-12048928D01*
X10953095Y-12058452D01*
X10972143Y-12067976D01*
X11010238Y-12067976D01*
X11029286Y-12058452D01*
X11038810Y-12048928D01*
X11048333Y-12029881D01*
X11048333Y-11982262D01*
X11038810Y-11963214D01*
X11029286Y-11953690D01*
X11010238Y-11944167D01*
X10972143Y-11944167D01*
X10953095Y-11953690D01*
X10943571Y-11963214D01*
X10934048Y-11982262D01*
X11286428Y-12067976D02*
X11286428Y-11867976D01*
X11372143Y-12067976D02*
X11372143Y-11963214D01*
X11362619Y-11944167D01*
X11343571Y-11934643D01*
X11315000Y-11934643D01*
X11295952Y-11944167D01*
X11286428Y-11953690D01*
X11495952Y-12067976D02*
X11476905Y-12058452D01*
X11467381Y-12048928D01*
X11457857Y-12029881D01*
X11457857Y-11972738D01*
X11467381Y-11953690D01*
X11476905Y-11944167D01*
X11495952Y-11934643D01*
X11524524Y-11934643D01*
X11543571Y-11944167D01*
X11553095Y-11953690D01*
X11562619Y-11972738D01*
X11562619Y-12029881D01*
X11553095Y-12048928D01*
X11543571Y-12058452D01*
X11524524Y-12067976D01*
X11495952Y-12067976D01*
X11676905Y-12067976D02*
X11657857Y-12058452D01*
X11648333Y-12039405D01*
X11648333Y-11867976D01*
X11829286Y-12058452D02*
X11810238Y-12067976D01*
X11772143Y-12067976D01*
X11753095Y-12058452D01*
X11743571Y-12039405D01*
X11743571Y-11963214D01*
X11753095Y-11944167D01*
X11772143Y-11934643D01*
X11810238Y-11934643D01*
X11829286Y-11944167D01*
X11838809Y-11963214D01*
X11838809Y-11982262D01*
X11743571Y-12001309D01*
X11915000Y-12058452D02*
X11934048Y-12067976D01*
X11972143Y-12067976D01*
X11991190Y-12058452D01*
X12000714Y-12039405D01*
X12000714Y-12029881D01*
X11991190Y-12010833D01*
X11972143Y-12001309D01*
X11943571Y-12001309D01*
X11924524Y-11991786D01*
X11915000Y-11972738D01*
X11915000Y-11963214D01*
X11924524Y-11944167D01*
X11943571Y-11934643D01*
X11972143Y-11934643D01*
X11991190Y-11944167D01*
X12067381Y-12144167D02*
X12076905Y-12134643D01*
X12095952Y-12106071D01*
X12105476Y-12087024D01*
X12115000Y-12058452D01*
X12124524Y-12010833D01*
X12124524Y-11972738D01*
X12115000Y-11925119D01*
X12105476Y-11896548D01*
X12095952Y-11877500D01*
X12076905Y-11848928D01*
X12067381Y-11839405D01*
D13*
X7105000Y-12241500D02*
G75*
G03*
X7105000Y-12241500I-30000J0D01*
G01*
D11*
X7400714Y-12131976D02*
X7419762Y-12131976D01*
X7438809Y-12141500D01*
X7448333Y-12151024D01*
X7457857Y-12170071D01*
X7467381Y-12208167D01*
X7467381Y-12255786D01*
X7457857Y-12293881D01*
X7448333Y-12312928D01*
X7438809Y-12322452D01*
X7419762Y-12331976D01*
X7400714Y-12331976D01*
X7381667Y-12322452D01*
X7372143Y-12312928D01*
X7362619Y-12293881D01*
X7353095Y-12255786D01*
X7353095Y-12208167D01*
X7362619Y-12170071D01*
X7372143Y-12151024D01*
X7381667Y-12141500D01*
X7400714Y-12131976D01*
X7553095Y-12312928D02*
X7562619Y-12322452D01*
X7553095Y-12331976D01*
X7543571Y-12322452D01*
X7553095Y-12312928D01*
X7553095Y-12331976D01*
X7734048Y-12131976D02*
X7695952Y-12131976D01*
X7676905Y-12141500D01*
X7667381Y-12151024D01*
X7648333Y-12179595D01*
X7638809Y-12217690D01*
X7638809Y-12293881D01*
X7648333Y-12312928D01*
X7657857Y-12322452D01*
X7676905Y-12331976D01*
X7715000Y-12331976D01*
X7734048Y-12322452D01*
X7743571Y-12312928D01*
X7753095Y-12293881D01*
X7753095Y-12246262D01*
X7743571Y-12227214D01*
X7734048Y-12217690D01*
X7715000Y-12208167D01*
X7676905Y-12208167D01*
X7657857Y-12217690D01*
X7648333Y-12227214D01*
X7638809Y-12246262D01*
X7876905Y-12131976D02*
X7895952Y-12131976D01*
X7915000Y-12141500D01*
X7924524Y-12151024D01*
X7934048Y-12170071D01*
X7943571Y-12208167D01*
X7943571Y-12255786D01*
X7934048Y-12293881D01*
X7924524Y-12312928D01*
X7915000Y-12322452D01*
X7895952Y-12331976D01*
X7876905Y-12331976D01*
X7857857Y-12322452D01*
X7848333Y-12312928D01*
X7838809Y-12293881D01*
X7829286Y-12255786D01*
X7829286Y-12208167D01*
X7838809Y-12170071D01*
X7848333Y-12151024D01*
X7857857Y-12141500D01*
X7876905Y-12131976D01*
X8067381Y-12131976D02*
X8086428Y-12131976D01*
X8105476Y-12141500D01*
X8115000Y-12151024D01*
X8124524Y-12170071D01*
X8134048Y-12208167D01*
X8134048Y-12255786D01*
X8124524Y-12293881D01*
X8115000Y-12312928D01*
X8105476Y-12322452D01*
X8086428Y-12331976D01*
X8067381Y-12331976D01*
X8048333Y-12322452D01*
X8038809Y-12312928D01*
X8029286Y-12293881D01*
X8019762Y-12255786D01*
X8019762Y-12208167D01*
X8029286Y-12170071D01*
X8038809Y-12151024D01*
X8048333Y-12141500D01*
X8067381Y-12131976D01*
X8219762Y-12331976D02*
X8219762Y-12198643D01*
X8219762Y-12217690D02*
X8229286Y-12208167D01*
X8248333Y-12198643D01*
X8276905Y-12198643D01*
X8295952Y-12208167D01*
X8305476Y-12227214D01*
X8305476Y-12331976D01*
X8305476Y-12227214D02*
X8315000Y-12208167D01*
X8334048Y-12198643D01*
X8362619Y-12198643D01*
X8381667Y-12208167D01*
X8391190Y-12227214D01*
X8391190Y-12331976D01*
X8486429Y-12331976D02*
X8486429Y-12198643D01*
X8486429Y-12217690D02*
X8495952Y-12208167D01*
X8515000Y-12198643D01*
X8543571Y-12198643D01*
X8562619Y-12208167D01*
X8572143Y-12227214D01*
X8572143Y-12331976D01*
X8572143Y-12227214D02*
X8581667Y-12208167D01*
X8600714Y-12198643D01*
X8629286Y-12198643D01*
X8648333Y-12208167D01*
X8657857Y-12227214D01*
X8657857Y-12331976D01*
X9048333Y-12122452D02*
X8876905Y-12379595D01*
X9305476Y-12131976D02*
X9324524Y-12131976D01*
X9343571Y-12141500D01*
X9353095Y-12151024D01*
X9362619Y-12170071D01*
X9372143Y-12208167D01*
X9372143Y-12255786D01*
X9362619Y-12293881D01*
X9353095Y-12312928D01*
X9343571Y-12322452D01*
X9324524Y-12331976D01*
X9305476Y-12331976D01*
X9286429Y-12322452D01*
X9276905Y-12312928D01*
X9267381Y-12293881D01*
X9257857Y-12255786D01*
X9257857Y-12208167D01*
X9267381Y-12170071D01*
X9276905Y-12151024D01*
X9286429Y-12141500D01*
X9305476Y-12131976D01*
X9457857Y-12312928D02*
X9467381Y-12322452D01*
X9457857Y-12331976D01*
X9448333Y-12322452D01*
X9457857Y-12312928D01*
X9457857Y-12331976D01*
X9591190Y-12131976D02*
X9610238Y-12131976D01*
X9629286Y-12141500D01*
X9638810Y-12151024D01*
X9648333Y-12170071D01*
X9657857Y-12208167D01*
X9657857Y-12255786D01*
X9648333Y-12293881D01*
X9638810Y-12312928D01*
X9629286Y-12322452D01*
X9610238Y-12331976D01*
X9591190Y-12331976D01*
X9572143Y-12322452D01*
X9562619Y-12312928D01*
X9553095Y-12293881D01*
X9543571Y-12255786D01*
X9543571Y-12208167D01*
X9553095Y-12170071D01*
X9562619Y-12151024D01*
X9572143Y-12141500D01*
X9591190Y-12131976D01*
X9734048Y-12151024D02*
X9743571Y-12141500D01*
X9762619Y-12131976D01*
X9810238Y-12131976D01*
X9829286Y-12141500D01*
X9838810Y-12151024D01*
X9848333Y-12170071D01*
X9848333Y-12189119D01*
X9838810Y-12217690D01*
X9724524Y-12331976D01*
X9848333Y-12331976D01*
X9915000Y-12131976D02*
X10038810Y-12131976D01*
X9972143Y-12208167D01*
X10000714Y-12208167D01*
X10019762Y-12217690D01*
X10029286Y-12227214D01*
X10038810Y-12246262D01*
X10038810Y-12293881D01*
X10029286Y-12312928D01*
X10019762Y-12322452D01*
X10000714Y-12331976D01*
X9943571Y-12331976D01*
X9924524Y-12322452D01*
X9915000Y-12312928D01*
X10210238Y-12131976D02*
X10172143Y-12131976D01*
X10153095Y-12141500D01*
X10143571Y-12151024D01*
X10124524Y-12179595D01*
X10115000Y-12217690D01*
X10115000Y-12293881D01*
X10124524Y-12312928D01*
X10134048Y-12322452D01*
X10153095Y-12331976D01*
X10191190Y-12331976D01*
X10210238Y-12322452D01*
X10219762Y-12312928D01*
X10229286Y-12293881D01*
X10229286Y-12246262D01*
X10219762Y-12227214D01*
X10210238Y-12217690D01*
X10191190Y-12208167D01*
X10153095Y-12208167D01*
X10134048Y-12217690D01*
X10124524Y-12227214D01*
X10115000Y-12246262D01*
X10305476Y-12131976D02*
X10305476Y-12170071D01*
X10381667Y-12131976D02*
X10381667Y-12170071D01*
X10676905Y-12408167D02*
X10667381Y-12398643D01*
X10648333Y-12370071D01*
X10638810Y-12351024D01*
X10629286Y-12322452D01*
X10619762Y-12274833D01*
X10619762Y-12236738D01*
X10629286Y-12189119D01*
X10638810Y-12160548D01*
X10648333Y-12141500D01*
X10667381Y-12112928D01*
X10676905Y-12103405D01*
X10791190Y-12131976D02*
X10810238Y-12131976D01*
X10829286Y-12141500D01*
X10838810Y-12151024D01*
X10848333Y-12170071D01*
X10857857Y-12208167D01*
X10857857Y-12255786D01*
X10848333Y-12293881D01*
X10838810Y-12312928D01*
X10829286Y-12322452D01*
X10810238Y-12331976D01*
X10791190Y-12331976D01*
X10772143Y-12322452D01*
X10762619Y-12312928D01*
X10753095Y-12293881D01*
X10743571Y-12255786D01*
X10743571Y-12208167D01*
X10753095Y-12170071D01*
X10762619Y-12151024D01*
X10772143Y-12141500D01*
X10791190Y-12131976D01*
X11095952Y-12331976D02*
X11095952Y-12131976D01*
X11181667Y-12331976D02*
X11181667Y-12227214D01*
X11172143Y-12208167D01*
X11153095Y-12198643D01*
X11124524Y-12198643D01*
X11105476Y-12208167D01*
X11095952Y-12217690D01*
X11305476Y-12331976D02*
X11286428Y-12322452D01*
X11276905Y-12312928D01*
X11267381Y-12293881D01*
X11267381Y-12236738D01*
X11276905Y-12217690D01*
X11286428Y-12208167D01*
X11305476Y-12198643D01*
X11334048Y-12198643D01*
X11353095Y-12208167D01*
X11362619Y-12217690D01*
X11372143Y-12236738D01*
X11372143Y-12293881D01*
X11362619Y-12312928D01*
X11353095Y-12322452D01*
X11334048Y-12331976D01*
X11305476Y-12331976D01*
X11486428Y-12331976D02*
X11467381Y-12322452D01*
X11457857Y-12303405D01*
X11457857Y-12131976D01*
X11638809Y-12322452D02*
X11619762Y-12331976D01*
X11581667Y-12331976D01*
X11562619Y-12322452D01*
X11553095Y-12303405D01*
X11553095Y-12227214D01*
X11562619Y-12208167D01*
X11581667Y-12198643D01*
X11619762Y-12198643D01*
X11638809Y-12208167D01*
X11648333Y-12227214D01*
X11648333Y-12246262D01*
X11553095Y-12265309D01*
X11724524Y-12322452D02*
X11743571Y-12331976D01*
X11781667Y-12331976D01*
X11800714Y-12322452D01*
X11810238Y-12303405D01*
X11810238Y-12293881D01*
X11800714Y-12274833D01*
X11781667Y-12265309D01*
X11753095Y-12265309D01*
X11734048Y-12255786D01*
X11724524Y-12236738D01*
X11724524Y-12227214D01*
X11734048Y-12208167D01*
X11753095Y-12198643D01*
X11781667Y-12198643D01*
X11800714Y-12208167D01*
X12048333Y-12255786D02*
X12200714Y-12255786D01*
X12124524Y-12331976D02*
X12124524Y-12179595D01*
X12534048Y-12198643D02*
X12534048Y-12331976D01*
X12486428Y-12122452D02*
X12438809Y-12265309D01*
X12562619Y-12265309D01*
X12781667Y-12322452D02*
X12800714Y-12331976D01*
X12838809Y-12331976D01*
X12857857Y-12322452D01*
X12867381Y-12303405D01*
X12867381Y-12293881D01*
X12857857Y-12274833D01*
X12838809Y-12265309D01*
X12810238Y-12265309D01*
X12791190Y-12255786D01*
X12781667Y-12236738D01*
X12781667Y-12227214D01*
X12791190Y-12208167D01*
X12810238Y-12198643D01*
X12838809Y-12198643D01*
X12857857Y-12208167D01*
X12981667Y-12331976D02*
X12962619Y-12322452D01*
X12953095Y-12303405D01*
X12953095Y-12131976D01*
X13086428Y-12331976D02*
X13067381Y-12322452D01*
X13057857Y-12312928D01*
X13048333Y-12293881D01*
X13048333Y-12236738D01*
X13057857Y-12217690D01*
X13067381Y-12208167D01*
X13086428Y-12198643D01*
X13115000Y-12198643D01*
X13134048Y-12208167D01*
X13143571Y-12217690D01*
X13153095Y-12236738D01*
X13153095Y-12293881D01*
X13143571Y-12312928D01*
X13134048Y-12322452D01*
X13115000Y-12331976D01*
X13086428Y-12331976D01*
X13210238Y-12198643D02*
X13286428Y-12198643D01*
X13238809Y-12131976D02*
X13238809Y-12303405D01*
X13248333Y-12322452D01*
X13267381Y-12331976D01*
X13286428Y-12331976D01*
X13343571Y-12322452D02*
X13362619Y-12331976D01*
X13400714Y-12331976D01*
X13419762Y-12322452D01*
X13429286Y-12303405D01*
X13429286Y-12293881D01*
X13419762Y-12274833D01*
X13400714Y-12265309D01*
X13372143Y-12265309D01*
X13353095Y-12255786D01*
X13343571Y-12236738D01*
X13343571Y-12227214D01*
X13353095Y-12208167D01*
X13372143Y-12198643D01*
X13400714Y-12198643D01*
X13419762Y-12208167D01*
X13495952Y-12408167D02*
X13505476Y-12398643D01*
X13524524Y-12370071D01*
X13534048Y-12351024D01*
X13543571Y-12322452D01*
X13553095Y-12274833D01*
X13553095Y-12236738D01*
X13543571Y-12189119D01*
X13534048Y-12160548D01*
X13524524Y-12141500D01*
X13505476Y-12112928D01*
X13495952Y-12103405D01*
D14*
X7065000Y-12465500D02*
X7065000Y-12545500D01*
X7025000Y-12505500D02*
X7105000Y-12505500D01*
D11*
X7400714Y-12395976D02*
X7419762Y-12395976D01*
X7438809Y-12405500D01*
X7448333Y-12415024D01*
X7457857Y-12434071D01*
X7467381Y-12472167D01*
X7467381Y-12519786D01*
X7457857Y-12557881D01*
X7448333Y-12576928D01*
X7438809Y-12586452D01*
X7419762Y-12595976D01*
X7400714Y-12595976D01*
X7381667Y-12586452D01*
X7372143Y-12576928D01*
X7362619Y-12557881D01*
X7353095Y-12519786D01*
X7353095Y-12472167D01*
X7362619Y-12434071D01*
X7372143Y-12415024D01*
X7381667Y-12405500D01*
X7400714Y-12395976D01*
X7553095Y-12576928D02*
X7562619Y-12586452D01*
X7553095Y-12595976D01*
X7543571Y-12586452D01*
X7553095Y-12576928D01*
X7553095Y-12595976D01*
X7676905Y-12481690D02*
X7657857Y-12472167D01*
X7648333Y-12462643D01*
X7638809Y-12443595D01*
X7638809Y-12434071D01*
X7648333Y-12415024D01*
X7657857Y-12405500D01*
X7676905Y-12395976D01*
X7715000Y-12395976D01*
X7734048Y-12405500D01*
X7743571Y-12415024D01*
X7753095Y-12434071D01*
X7753095Y-12443595D01*
X7743571Y-12462643D01*
X7734048Y-12472167D01*
X7715000Y-12481690D01*
X7676905Y-12481690D01*
X7657857Y-12491214D01*
X7648333Y-12500738D01*
X7638809Y-12519786D01*
X7638809Y-12557881D01*
X7648333Y-12576928D01*
X7657857Y-12586452D01*
X7676905Y-12595976D01*
X7715000Y-12595976D01*
X7734048Y-12586452D01*
X7743571Y-12576928D01*
X7753095Y-12557881D01*
X7753095Y-12519786D01*
X7743571Y-12500738D01*
X7734048Y-12491214D01*
X7715000Y-12481690D01*
X7876905Y-12395976D02*
X7895952Y-12395976D01*
X7915000Y-12405500D01*
X7924524Y-12415024D01*
X7934048Y-12434071D01*
X7943571Y-12472167D01*
X7943571Y-12519786D01*
X7934048Y-12557881D01*
X7924524Y-12576928D01*
X7915000Y-12586452D01*
X7895952Y-12595976D01*
X7876905Y-12595976D01*
X7857857Y-12586452D01*
X7848333Y-12576928D01*
X7838809Y-12557881D01*
X7829286Y-12519786D01*
X7829286Y-12472167D01*
X7838809Y-12434071D01*
X7848333Y-12415024D01*
X7857857Y-12405500D01*
X7876905Y-12395976D01*
X8067381Y-12395976D02*
X8086428Y-12395976D01*
X8105476Y-12405500D01*
X8115000Y-12415024D01*
X8124524Y-12434071D01*
X8134048Y-12472167D01*
X8134048Y-12519786D01*
X8124524Y-12557881D01*
X8115000Y-12576928D01*
X8105476Y-12586452D01*
X8086428Y-12595976D01*
X8067381Y-12595976D01*
X8048333Y-12586452D01*
X8038809Y-12576928D01*
X8029286Y-12557881D01*
X8019762Y-12519786D01*
X8019762Y-12472167D01*
X8029286Y-12434071D01*
X8038809Y-12415024D01*
X8048333Y-12405500D01*
X8067381Y-12395976D01*
X8219762Y-12595976D02*
X8219762Y-12462643D01*
X8219762Y-12481690D02*
X8229286Y-12472167D01*
X8248333Y-12462643D01*
X8276905Y-12462643D01*
X8295952Y-12472167D01*
X8305476Y-12491214D01*
X8305476Y-12595976D01*
X8305476Y-12491214D02*
X8315000Y-12472167D01*
X8334048Y-12462643D01*
X8362619Y-12462643D01*
X8381667Y-12472167D01*
X8391190Y-12491214D01*
X8391190Y-12595976D01*
X8486429Y-12595976D02*
X8486429Y-12462643D01*
X8486429Y-12481690D02*
X8495952Y-12472167D01*
X8515000Y-12462643D01*
X8543571Y-12462643D01*
X8562619Y-12472167D01*
X8572143Y-12491214D01*
X8572143Y-12595976D01*
X8572143Y-12491214D02*
X8581667Y-12472167D01*
X8600714Y-12462643D01*
X8629286Y-12462643D01*
X8648333Y-12472167D01*
X8657857Y-12491214D01*
X8657857Y-12595976D01*
X9048333Y-12386452D02*
X8876905Y-12643595D01*
X9305476Y-12395976D02*
X9324524Y-12395976D01*
X9343571Y-12405500D01*
X9353095Y-12415024D01*
X9362619Y-12434071D01*
X9372143Y-12472167D01*
X9372143Y-12519786D01*
X9362619Y-12557881D01*
X9353095Y-12576928D01*
X9343571Y-12586452D01*
X9324524Y-12595976D01*
X9305476Y-12595976D01*
X9286429Y-12586452D01*
X9276905Y-12576928D01*
X9267381Y-12557881D01*
X9257857Y-12519786D01*
X9257857Y-12472167D01*
X9267381Y-12434071D01*
X9276905Y-12415024D01*
X9286429Y-12405500D01*
X9305476Y-12395976D01*
X9457857Y-12576928D02*
X9467381Y-12586452D01*
X9457857Y-12595976D01*
X9448333Y-12586452D01*
X9457857Y-12576928D01*
X9457857Y-12595976D01*
X9591190Y-12395976D02*
X9610238Y-12395976D01*
X9629286Y-12405500D01*
X9638810Y-12415024D01*
X9648333Y-12434071D01*
X9657857Y-12472167D01*
X9657857Y-12519786D01*
X9648333Y-12557881D01*
X9638810Y-12576928D01*
X9629286Y-12586452D01*
X9610238Y-12595976D01*
X9591190Y-12595976D01*
X9572143Y-12586452D01*
X9562619Y-12576928D01*
X9553095Y-12557881D01*
X9543571Y-12519786D01*
X9543571Y-12472167D01*
X9553095Y-12434071D01*
X9562619Y-12415024D01*
X9572143Y-12405500D01*
X9591190Y-12395976D01*
X9724524Y-12395976D02*
X9848333Y-12395976D01*
X9781667Y-12472167D01*
X9810238Y-12472167D01*
X9829286Y-12481690D01*
X9838810Y-12491214D01*
X9848333Y-12510262D01*
X9848333Y-12557881D01*
X9838810Y-12576928D01*
X9829286Y-12586452D01*
X9810238Y-12595976D01*
X9753095Y-12595976D01*
X9734048Y-12586452D01*
X9724524Y-12576928D01*
X10038810Y-12595976D02*
X9924524Y-12595976D01*
X9981667Y-12595976D02*
X9981667Y-12395976D01*
X9962619Y-12424548D01*
X9943571Y-12443595D01*
X9924524Y-12453119D01*
X10219762Y-12395976D02*
X10124524Y-12395976D01*
X10115000Y-12491214D01*
X10124524Y-12481690D01*
X10143571Y-12472167D01*
X10191190Y-12472167D01*
X10210238Y-12481690D01*
X10219762Y-12491214D01*
X10229286Y-12510262D01*
X10229286Y-12557881D01*
X10219762Y-12576928D01*
X10210238Y-12586452D01*
X10191190Y-12595976D01*
X10143571Y-12595976D01*
X10124524Y-12586452D01*
X10115000Y-12576928D01*
X10305476Y-12395976D02*
X10305476Y-12434071D01*
X10381667Y-12395976D02*
X10381667Y-12434071D01*
X10676905Y-12672167D02*
X10667381Y-12662643D01*
X10648333Y-12634071D01*
X10638810Y-12615024D01*
X10629286Y-12586452D01*
X10619762Y-12538833D01*
X10619762Y-12500738D01*
X10629286Y-12453119D01*
X10638810Y-12424548D01*
X10648333Y-12405500D01*
X10667381Y-12376928D01*
X10676905Y-12367405D01*
X10734048Y-12395976D02*
X10867381Y-12395976D01*
X10781667Y-12595976D01*
X10934048Y-12415024D02*
X10943571Y-12405500D01*
X10962619Y-12395976D01*
X11010238Y-12395976D01*
X11029286Y-12405500D01*
X11038810Y-12415024D01*
X11048333Y-12434071D01*
X11048333Y-12453119D01*
X11038810Y-12481690D01*
X10924524Y-12595976D01*
X11048333Y-12595976D01*
X11286428Y-12595976D02*
X11286428Y-12395976D01*
X11372143Y-12595976D02*
X11372143Y-12491214D01*
X11362619Y-12472167D01*
X11343571Y-12462643D01*
X11315000Y-12462643D01*
X11295952Y-12472167D01*
X11286428Y-12481690D01*
X11495952Y-12595976D02*
X11476905Y-12586452D01*
X11467381Y-12576928D01*
X11457857Y-12557881D01*
X11457857Y-12500738D01*
X11467381Y-12481690D01*
X11476905Y-12472167D01*
X11495952Y-12462643D01*
X11524524Y-12462643D01*
X11543571Y-12472167D01*
X11553095Y-12481690D01*
X11562619Y-12500738D01*
X11562619Y-12557881D01*
X11553095Y-12576928D01*
X11543571Y-12586452D01*
X11524524Y-12595976D01*
X11495952Y-12595976D01*
X11676905Y-12595976D02*
X11657857Y-12586452D01*
X11648333Y-12567405D01*
X11648333Y-12395976D01*
X11829286Y-12586452D02*
X11810238Y-12595976D01*
X11772143Y-12595976D01*
X11753095Y-12586452D01*
X11743571Y-12567405D01*
X11743571Y-12491214D01*
X11753095Y-12472167D01*
X11772143Y-12462643D01*
X11810238Y-12462643D01*
X11829286Y-12472167D01*
X11838809Y-12491214D01*
X11838809Y-12510262D01*
X11743571Y-12529309D01*
X11915000Y-12586452D02*
X11934048Y-12595976D01*
X11972143Y-12595976D01*
X11991190Y-12586452D01*
X12000714Y-12567405D01*
X12000714Y-12557881D01*
X11991190Y-12538833D01*
X11972143Y-12529309D01*
X11943571Y-12529309D01*
X11924524Y-12519786D01*
X11915000Y-12500738D01*
X11915000Y-12491214D01*
X11924524Y-12472167D01*
X11943571Y-12462643D01*
X11972143Y-12462643D01*
X11991190Y-12472167D01*
X12067381Y-12672167D02*
X12076905Y-12662643D01*
X12095952Y-12634071D01*
X12105476Y-12615024D01*
X12115000Y-12586452D01*
X12124524Y-12538833D01*
X12124524Y-12500738D01*
X12115000Y-12453119D01*
X12105476Y-12424548D01*
X12095952Y-12405500D01*
X12076905Y-12376928D01*
X12067381Y-12367405D01*
D15*
X7091527Y-12802027D02*
X7091527Y-12736973D01*
X7026473Y-12736973D01*
X7026473Y-12802027D01*
X7091527Y-12802027D01*
D11*
X7400714Y-12659976D02*
X7419762Y-12659976D01*
X7438809Y-12669500D01*
X7448333Y-12679024D01*
X7457857Y-12698071D01*
X7467381Y-12736167D01*
X7467381Y-12783786D01*
X7457857Y-12821881D01*
X7448333Y-12840928D01*
X7438809Y-12850452D01*
X7419762Y-12859976D01*
X7400714Y-12859976D01*
X7381667Y-12850452D01*
X7372143Y-12840928D01*
X7362619Y-12821881D01*
X7353095Y-12783786D01*
X7353095Y-12736167D01*
X7362619Y-12698071D01*
X7372143Y-12679024D01*
X7381667Y-12669500D01*
X7400714Y-12659976D01*
X7553095Y-12840928D02*
X7562619Y-12850452D01*
X7553095Y-12859976D01*
X7543571Y-12850452D01*
X7553095Y-12840928D01*
X7553095Y-12859976D01*
X7657857Y-12859976D02*
X7695952Y-12859976D01*
X7715000Y-12850452D01*
X7724524Y-12840928D01*
X7743571Y-12812357D01*
X7753095Y-12774262D01*
X7753095Y-12698071D01*
X7743571Y-12679024D01*
X7734048Y-12669500D01*
X7715000Y-12659976D01*
X7676905Y-12659976D01*
X7657857Y-12669500D01*
X7648333Y-12679024D01*
X7638809Y-12698071D01*
X7638809Y-12745690D01*
X7648333Y-12764738D01*
X7657857Y-12774262D01*
X7676905Y-12783786D01*
X7715000Y-12783786D01*
X7734048Y-12774262D01*
X7743571Y-12764738D01*
X7753095Y-12745690D01*
X7829286Y-12679024D02*
X7838809Y-12669500D01*
X7857857Y-12659976D01*
X7905476Y-12659976D01*
X7924524Y-12669500D01*
X7934048Y-12679024D01*
X7943571Y-12698071D01*
X7943571Y-12717119D01*
X7934048Y-12745690D01*
X7819762Y-12859976D01*
X7943571Y-12859976D01*
X8067381Y-12659976D02*
X8086428Y-12659976D01*
X8105476Y-12669500D01*
X8115000Y-12679024D01*
X8124524Y-12698071D01*
X8134048Y-12736167D01*
X8134048Y-12783786D01*
X8124524Y-12821881D01*
X8115000Y-12840928D01*
X8105476Y-12850452D01*
X8086428Y-12859976D01*
X8067381Y-12859976D01*
X8048333Y-12850452D01*
X8038809Y-12840928D01*
X8029286Y-12821881D01*
X8019762Y-12783786D01*
X8019762Y-12736167D01*
X8029286Y-12698071D01*
X8038809Y-12679024D01*
X8048333Y-12669500D01*
X8067381Y-12659976D01*
X8219762Y-12859976D02*
X8219762Y-12726643D01*
X8219762Y-12745690D02*
X8229286Y-12736167D01*
X8248333Y-12726643D01*
X8276905Y-12726643D01*
X8295952Y-12736167D01*
X8305476Y-12755214D01*
X8305476Y-12859976D01*
X8305476Y-12755214D02*
X8315000Y-12736167D01*
X8334048Y-12726643D01*
X8362619Y-12726643D01*
X8381667Y-12736167D01*
X8391190Y-12755214D01*
X8391190Y-12859976D01*
X8486429Y-12859976D02*
X8486429Y-12726643D01*
X8486429Y-12745690D02*
X8495952Y-12736167D01*
X8515000Y-12726643D01*
X8543571Y-12726643D01*
X8562619Y-12736167D01*
X8572143Y-12755214D01*
X8572143Y-12859976D01*
X8572143Y-12755214D02*
X8581667Y-12736167D01*
X8600714Y-12726643D01*
X8629286Y-12726643D01*
X8648333Y-12736167D01*
X8657857Y-12755214D01*
X8657857Y-12859976D01*
X9048333Y-12650452D02*
X8876905Y-12907595D01*
X9305476Y-12659976D02*
X9324524Y-12659976D01*
X9343571Y-12669500D01*
X9353095Y-12679024D01*
X9362619Y-12698071D01*
X9372143Y-12736167D01*
X9372143Y-12783786D01*
X9362619Y-12821881D01*
X9353095Y-12840928D01*
X9343571Y-12850452D01*
X9324524Y-12859976D01*
X9305476Y-12859976D01*
X9286429Y-12850452D01*
X9276905Y-12840928D01*
X9267381Y-12821881D01*
X9257857Y-12783786D01*
X9257857Y-12736167D01*
X9267381Y-12698071D01*
X9276905Y-12679024D01*
X9286429Y-12669500D01*
X9305476Y-12659976D01*
X9457857Y-12840928D02*
X9467381Y-12850452D01*
X9457857Y-12859976D01*
X9448333Y-12850452D01*
X9457857Y-12840928D01*
X9457857Y-12859976D01*
X9591190Y-12659976D02*
X9610238Y-12659976D01*
X9629286Y-12669500D01*
X9638810Y-12679024D01*
X9648333Y-12698071D01*
X9657857Y-12736167D01*
X9657857Y-12783786D01*
X9648333Y-12821881D01*
X9638810Y-12840928D01*
X9629286Y-12850452D01*
X9610238Y-12859976D01*
X9591190Y-12859976D01*
X9572143Y-12850452D01*
X9562619Y-12840928D01*
X9553095Y-12821881D01*
X9543571Y-12783786D01*
X9543571Y-12736167D01*
X9553095Y-12698071D01*
X9562619Y-12679024D01*
X9572143Y-12669500D01*
X9591190Y-12659976D01*
X9724524Y-12659976D02*
X9848333Y-12659976D01*
X9781667Y-12736167D01*
X9810238Y-12736167D01*
X9829286Y-12745690D01*
X9838810Y-12755214D01*
X9848333Y-12774262D01*
X9848333Y-12821881D01*
X9838810Y-12840928D01*
X9829286Y-12850452D01*
X9810238Y-12859976D01*
X9753095Y-12859976D01*
X9734048Y-12850452D01*
X9724524Y-12840928D01*
X10019762Y-12659976D02*
X9981667Y-12659976D01*
X9962619Y-12669500D01*
X9953095Y-12679024D01*
X9934048Y-12707595D01*
X9924524Y-12745690D01*
X9924524Y-12821881D01*
X9934048Y-12840928D01*
X9943571Y-12850452D01*
X9962619Y-12859976D01*
X10000714Y-12859976D01*
X10019762Y-12850452D01*
X10029286Y-12840928D01*
X10038810Y-12821881D01*
X10038810Y-12774262D01*
X10029286Y-12755214D01*
X10019762Y-12745690D01*
X10000714Y-12736167D01*
X9962619Y-12736167D01*
X9943571Y-12745690D01*
X9934048Y-12755214D01*
X9924524Y-12774262D01*
X10115000Y-12679024D02*
X10124524Y-12669500D01*
X10143571Y-12659976D01*
X10191190Y-12659976D01*
X10210238Y-12669500D01*
X10219762Y-12679024D01*
X10229286Y-12698071D01*
X10229286Y-12717119D01*
X10219762Y-12745690D01*
X10105476Y-12859976D01*
X10229286Y-12859976D01*
X10305476Y-12659976D02*
X10305476Y-12698071D01*
X10381667Y-12659976D02*
X10381667Y-12698071D01*
X10676905Y-12936167D02*
X10667381Y-12926643D01*
X10648333Y-12898071D01*
X10638810Y-12879024D01*
X10629286Y-12850452D01*
X10619762Y-12802833D01*
X10619762Y-12764738D01*
X10629286Y-12717119D01*
X10638810Y-12688548D01*
X10648333Y-12669500D01*
X10667381Y-12640928D01*
X10676905Y-12631405D01*
X10838810Y-12659976D02*
X10800714Y-12659976D01*
X10781667Y-12669500D01*
X10772143Y-12679024D01*
X10753095Y-12707595D01*
X10743571Y-12745690D01*
X10743571Y-12821881D01*
X10753095Y-12840928D01*
X10762619Y-12850452D01*
X10781667Y-12859976D01*
X10819762Y-12859976D01*
X10838810Y-12850452D01*
X10848333Y-12840928D01*
X10857857Y-12821881D01*
X10857857Y-12774262D01*
X10848333Y-12755214D01*
X10838810Y-12745690D01*
X10819762Y-12736167D01*
X10781667Y-12736167D01*
X10762619Y-12745690D01*
X10753095Y-12755214D01*
X10743571Y-12774262D01*
X11029286Y-12726643D02*
X11029286Y-12859976D01*
X10981667Y-12650452D02*
X10934048Y-12793309D01*
X11057857Y-12793309D01*
X11286428Y-12859976D02*
X11286428Y-12659976D01*
X11372143Y-12859976D02*
X11372143Y-12755214D01*
X11362619Y-12736167D01*
X11343571Y-12726643D01*
X11315000Y-12726643D01*
X11295952Y-12736167D01*
X11286428Y-12745690D01*
X11495952Y-12859976D02*
X11476905Y-12850452D01*
X11467381Y-12840928D01*
X11457857Y-12821881D01*
X11457857Y-12764738D01*
X11467381Y-12745690D01*
X11476905Y-12736167D01*
X11495952Y-12726643D01*
X11524524Y-12726643D01*
X11543571Y-12736167D01*
X11553095Y-12745690D01*
X11562619Y-12764738D01*
X11562619Y-12821881D01*
X11553095Y-12840928D01*
X11543571Y-12850452D01*
X11524524Y-12859976D01*
X11495952Y-12859976D01*
X11676905Y-12859976D02*
X11657857Y-12850452D01*
X11648333Y-12831405D01*
X11648333Y-12659976D01*
X11829286Y-12850452D02*
X11810238Y-12859976D01*
X11772143Y-12859976D01*
X11753095Y-12850452D01*
X11743571Y-12831405D01*
X11743571Y-12755214D01*
X11753095Y-12736167D01*
X11772143Y-12726643D01*
X11810238Y-12726643D01*
X11829286Y-12736167D01*
X11838809Y-12755214D01*
X11838809Y-12774262D01*
X11743571Y-12793309D01*
X11915000Y-12850452D02*
X11934048Y-12859976D01*
X11972143Y-12859976D01*
X11991190Y-12850452D01*
X12000714Y-12831405D01*
X12000714Y-12821881D01*
X11991190Y-12802833D01*
X11972143Y-12793309D01*
X11943571Y-12793309D01*
X11924524Y-12783786D01*
X11915000Y-12764738D01*
X11915000Y-12755214D01*
X11924524Y-12736167D01*
X11943571Y-12726643D01*
X11972143Y-12726643D01*
X11991190Y-12736167D01*
X12067381Y-12936167D02*
X12076905Y-12926643D01*
X12095952Y-12898071D01*
X12105476Y-12879024D01*
X12115000Y-12850452D01*
X12124524Y-12802833D01*
X12124524Y-12764738D01*
X12115000Y-12717119D01*
X12105476Y-12688548D01*
X12095952Y-12669500D01*
X12076905Y-12640928D01*
X12067381Y-12631405D01*
D16*
X7055000Y-13083500D02*
X7105000Y-13033500D01*
X7055000Y-12983500D01*
X7005000Y-13033500D01*
X7055000Y-13083500D01*
D11*
X7467381Y-13123976D02*
X7353095Y-13123976D01*
X7410238Y-13123976D02*
X7410238Y-12923976D01*
X7391190Y-12952548D01*
X7372143Y-12971595D01*
X7353095Y-12981119D01*
X7553095Y-13104928D02*
X7562619Y-13114452D01*
X7553095Y-13123976D01*
X7543571Y-13114452D01*
X7553095Y-13104928D01*
X7553095Y-13123976D01*
X7686428Y-12923976D02*
X7705476Y-12923976D01*
X7724524Y-12933500D01*
X7734048Y-12943024D01*
X7743571Y-12962071D01*
X7753095Y-13000167D01*
X7753095Y-13047786D01*
X7743571Y-13085881D01*
X7734048Y-13104928D01*
X7724524Y-13114452D01*
X7705476Y-13123976D01*
X7686428Y-13123976D01*
X7667381Y-13114452D01*
X7657857Y-13104928D01*
X7648333Y-13085881D01*
X7638809Y-13047786D01*
X7638809Y-13000167D01*
X7648333Y-12962071D01*
X7657857Y-12943024D01*
X7667381Y-12933500D01*
X7686428Y-12923976D01*
X7876905Y-12923976D02*
X7895952Y-12923976D01*
X7915000Y-12933500D01*
X7924524Y-12943024D01*
X7934048Y-12962071D01*
X7943571Y-13000167D01*
X7943571Y-13047786D01*
X7934048Y-13085881D01*
X7924524Y-13104928D01*
X7915000Y-13114452D01*
X7895952Y-13123976D01*
X7876905Y-13123976D01*
X7857857Y-13114452D01*
X7848333Y-13104928D01*
X7838809Y-13085881D01*
X7829286Y-13047786D01*
X7829286Y-13000167D01*
X7838809Y-12962071D01*
X7848333Y-12943024D01*
X7857857Y-12933500D01*
X7876905Y-12923976D01*
X8067381Y-12923976D02*
X8086428Y-12923976D01*
X8105476Y-12933500D01*
X8115000Y-12943024D01*
X8124524Y-12962071D01*
X8134048Y-13000167D01*
X8134048Y-13047786D01*
X8124524Y-13085881D01*
X8115000Y-13104928D01*
X8105476Y-13114452D01*
X8086428Y-13123976D01*
X8067381Y-13123976D01*
X8048333Y-13114452D01*
X8038809Y-13104928D01*
X8029286Y-13085881D01*
X8019762Y-13047786D01*
X8019762Y-13000167D01*
X8029286Y-12962071D01*
X8038809Y-12943024D01*
X8048333Y-12933500D01*
X8067381Y-12923976D01*
X8219762Y-13123976D02*
X8219762Y-12990643D01*
X8219762Y-13009690D02*
X8229286Y-13000167D01*
X8248333Y-12990643D01*
X8276905Y-12990643D01*
X8295952Y-13000167D01*
X8305476Y-13019214D01*
X8305476Y-13123976D01*
X8305476Y-13019214D02*
X8315000Y-13000167D01*
X8334048Y-12990643D01*
X8362619Y-12990643D01*
X8381667Y-13000167D01*
X8391190Y-13019214D01*
X8391190Y-13123976D01*
X8486429Y-13123976D02*
X8486429Y-12990643D01*
X8486429Y-13009690D02*
X8495952Y-13000167D01*
X8515000Y-12990643D01*
X8543571Y-12990643D01*
X8562619Y-13000167D01*
X8572143Y-13019214D01*
X8572143Y-13123976D01*
X8572143Y-13019214D02*
X8581667Y-13000167D01*
X8600714Y-12990643D01*
X8629286Y-12990643D01*
X8648333Y-13000167D01*
X8657857Y-13019214D01*
X8657857Y-13123976D01*
X9048333Y-12914452D02*
X8876905Y-13171595D01*
X9305476Y-12923976D02*
X9324524Y-12923976D01*
X9343571Y-12933500D01*
X9353095Y-12943024D01*
X9362619Y-12962071D01*
X9372143Y-13000167D01*
X9372143Y-13047786D01*
X9362619Y-13085881D01*
X9353095Y-13104928D01*
X9343571Y-13114452D01*
X9324524Y-13123976D01*
X9305476Y-13123976D01*
X9286429Y-13114452D01*
X9276905Y-13104928D01*
X9267381Y-13085881D01*
X9257857Y-13047786D01*
X9257857Y-13000167D01*
X9267381Y-12962071D01*
X9276905Y-12943024D01*
X9286429Y-12933500D01*
X9305476Y-12923976D01*
X9457857Y-13104928D02*
X9467381Y-13114452D01*
X9457857Y-13123976D01*
X9448333Y-13114452D01*
X9457857Y-13104928D01*
X9457857Y-13123976D01*
X9591190Y-12923976D02*
X9610238Y-12923976D01*
X9629286Y-12933500D01*
X9638810Y-12943024D01*
X9648333Y-12962071D01*
X9657857Y-13000167D01*
X9657857Y-13047786D01*
X9648333Y-13085881D01*
X9638810Y-13104928D01*
X9629286Y-13114452D01*
X9610238Y-13123976D01*
X9591190Y-13123976D01*
X9572143Y-13114452D01*
X9562619Y-13104928D01*
X9553095Y-13085881D01*
X9543571Y-13047786D01*
X9543571Y-13000167D01*
X9553095Y-12962071D01*
X9562619Y-12943024D01*
X9572143Y-12933500D01*
X9591190Y-12923976D01*
X9724524Y-12923976D02*
X9848333Y-12923976D01*
X9781667Y-13000167D01*
X9810238Y-13000167D01*
X9829286Y-13009690D01*
X9838810Y-13019214D01*
X9848333Y-13038262D01*
X9848333Y-13085881D01*
X9838810Y-13104928D01*
X9829286Y-13114452D01*
X9810238Y-13123976D01*
X9753095Y-13123976D01*
X9734048Y-13114452D01*
X9724524Y-13104928D01*
X9943571Y-13123976D02*
X9981667Y-13123976D01*
X10000714Y-13114452D01*
X10010238Y-13104928D01*
X10029286Y-13076357D01*
X10038810Y-13038262D01*
X10038810Y-12962071D01*
X10029286Y-12943024D01*
X10019762Y-12933500D01*
X10000714Y-12923976D01*
X9962619Y-12923976D01*
X9943571Y-12933500D01*
X9934048Y-12943024D01*
X9924524Y-12962071D01*
X9924524Y-13009690D01*
X9934048Y-13028738D01*
X9943571Y-13038262D01*
X9962619Y-13047786D01*
X10000714Y-13047786D01*
X10019762Y-13038262D01*
X10029286Y-13028738D01*
X10038810Y-13009690D01*
X10210238Y-12990643D02*
X10210238Y-13123976D01*
X10162619Y-12914452D02*
X10115000Y-13057309D01*
X10238810Y-13057309D01*
X10305476Y-12923976D02*
X10305476Y-12962071D01*
X10381667Y-12923976D02*
X10381667Y-12962071D01*
X10676905Y-13200167D02*
X10667381Y-13190643D01*
X10648333Y-13162071D01*
X10638810Y-13143024D01*
X10629286Y-13114452D01*
X10619762Y-13066833D01*
X10619762Y-13028738D01*
X10629286Y-12981119D01*
X10638810Y-12952548D01*
X10648333Y-12933500D01*
X10667381Y-12904928D01*
X10676905Y-12895405D01*
X10791190Y-12923976D02*
X10810238Y-12923976D01*
X10829286Y-12933500D01*
X10838810Y-12943024D01*
X10848333Y-12962071D01*
X10857857Y-13000167D01*
X10857857Y-13047786D01*
X10848333Y-13085881D01*
X10838810Y-13104928D01*
X10829286Y-13114452D01*
X10810238Y-13123976D01*
X10791190Y-13123976D01*
X10772143Y-13114452D01*
X10762619Y-13104928D01*
X10753095Y-13085881D01*
X10743571Y-13047786D01*
X10743571Y-13000167D01*
X10753095Y-12962071D01*
X10762619Y-12943024D01*
X10772143Y-12933500D01*
X10791190Y-12923976D01*
X11095952Y-13123976D02*
X11095952Y-12923976D01*
X11181667Y-13123976D02*
X11181667Y-13019214D01*
X11172143Y-13000167D01*
X11153095Y-12990643D01*
X11124524Y-12990643D01*
X11105476Y-13000167D01*
X11095952Y-13009690D01*
X11305476Y-13123976D02*
X11286428Y-13114452D01*
X11276905Y-13104928D01*
X11267381Y-13085881D01*
X11267381Y-13028738D01*
X11276905Y-13009690D01*
X11286428Y-13000167D01*
X11305476Y-12990643D01*
X11334048Y-12990643D01*
X11353095Y-13000167D01*
X11362619Y-13009690D01*
X11372143Y-13028738D01*
X11372143Y-13085881D01*
X11362619Y-13104928D01*
X11353095Y-13114452D01*
X11334048Y-13123976D01*
X11305476Y-13123976D01*
X11486428Y-13123976D02*
X11467381Y-13114452D01*
X11457857Y-13095405D01*
X11457857Y-12923976D01*
X11638809Y-13114452D02*
X11619762Y-13123976D01*
X11581667Y-13123976D01*
X11562619Y-13114452D01*
X11553095Y-13095405D01*
X11553095Y-13019214D01*
X11562619Y-13000167D01*
X11581667Y-12990643D01*
X11619762Y-12990643D01*
X11638809Y-13000167D01*
X11648333Y-13019214D01*
X11648333Y-13038262D01*
X11553095Y-13057309D01*
X11724524Y-13114452D02*
X11743571Y-13123976D01*
X11781667Y-13123976D01*
X11800714Y-13114452D01*
X11810238Y-13095405D01*
X11810238Y-13085881D01*
X11800714Y-13066833D01*
X11781667Y-13057309D01*
X11753095Y-13057309D01*
X11734048Y-13047786D01*
X11724524Y-13028738D01*
X11724524Y-13019214D01*
X11734048Y-13000167D01*
X11753095Y-12990643D01*
X11781667Y-12990643D01*
X11800714Y-13000167D01*
X12048333Y-13047786D02*
X12200714Y-13047786D01*
X12124524Y-13123976D02*
X12124524Y-12971595D01*
X12534048Y-12990643D02*
X12534048Y-13123976D01*
X12486428Y-12914452D02*
X12438809Y-13057309D01*
X12562619Y-13057309D01*
X12781667Y-13114452D02*
X12800714Y-13123976D01*
X12838809Y-13123976D01*
X12857857Y-13114452D01*
X12867381Y-13095405D01*
X12867381Y-13085881D01*
X12857857Y-13066833D01*
X12838809Y-13057309D01*
X12810238Y-13057309D01*
X12791190Y-13047786D01*
X12781667Y-13028738D01*
X12781667Y-13019214D01*
X12791190Y-13000167D01*
X12810238Y-12990643D01*
X12838809Y-12990643D01*
X12857857Y-13000167D01*
X12981667Y-13123976D02*
X12962619Y-13114452D01*
X12953095Y-13095405D01*
X12953095Y-12923976D01*
X13086428Y-13123976D02*
X13067381Y-13114452D01*
X13057857Y-13104928D01*
X13048333Y-13085881D01*
X13048333Y-13028738D01*
X13057857Y-13009690D01*
X13067381Y-13000167D01*
X13086428Y-12990643D01*
X13115000Y-12990643D01*
X13134048Y-13000167D01*
X13143571Y-13009690D01*
X13153095Y-13028738D01*
X13153095Y-13085881D01*
X13143571Y-13104928D01*
X13134048Y-13114452D01*
X13115000Y-13123976D01*
X13086428Y-13123976D01*
X13210238Y-12990643D02*
X13286428Y-12990643D01*
X13238809Y-12923976D02*
X13238809Y-13095405D01*
X13248333Y-13114452D01*
X13267381Y-13123976D01*
X13286428Y-13123976D01*
X13343571Y-13114452D02*
X13362619Y-13123976D01*
X13400714Y-13123976D01*
X13419762Y-13114452D01*
X13429286Y-13095405D01*
X13429286Y-13085881D01*
X13419762Y-13066833D01*
X13400714Y-13057309D01*
X13372143Y-13057309D01*
X13353095Y-13047786D01*
X13343571Y-13028738D01*
X13343571Y-13019214D01*
X13353095Y-13000167D01*
X13372143Y-12990643D01*
X13400714Y-12990643D01*
X13419762Y-13000167D01*
X13495952Y-13200167D02*
X13505476Y-13190643D01*
X13524524Y-13162071D01*
X13534048Y-13143024D01*
X13543571Y-13114452D01*
X13553095Y-13066833D01*
X13553095Y-13028738D01*
X13543571Y-12981119D01*
X13534048Y-12952548D01*
X13524524Y-12933500D01*
X13505476Y-12904928D01*
X13495952Y-12895405D01*
D17*
X6995000Y-13242500D02*
X7105000Y-13352500D01*
X7105000Y-13242500D02*
X6995000Y-13352500D01*
X7105000Y-13297500D02*
G75*
G03*
X7105000Y-13297500I-55000J0D01*
G01*
D11*
X7467381Y-13387976D02*
X7353095Y-13387976D01*
X7410238Y-13387976D02*
X7410238Y-13187976D01*
X7391190Y-13216548D01*
X7372143Y-13235595D01*
X7353095Y-13245119D01*
X7553095Y-13368928D02*
X7562619Y-13378452D01*
X7553095Y-13387976D01*
X7543571Y-13378452D01*
X7553095Y-13368928D01*
X7553095Y-13387976D01*
X7753095Y-13387976D02*
X7638809Y-13387976D01*
X7695952Y-13387976D02*
X7695952Y-13187976D01*
X7676905Y-13216548D01*
X7657857Y-13235595D01*
X7638809Y-13245119D01*
X7876905Y-13187976D02*
X7895952Y-13187976D01*
X7915000Y-13197500D01*
X7924524Y-13207024D01*
X7934048Y-13226071D01*
X7943571Y-13264167D01*
X7943571Y-13311786D01*
X7934048Y-13349881D01*
X7924524Y-13368928D01*
X7915000Y-13378452D01*
X7895952Y-13387976D01*
X7876905Y-13387976D01*
X7857857Y-13378452D01*
X7848333Y-13368928D01*
X7838809Y-13349881D01*
X7829286Y-13311786D01*
X7829286Y-13264167D01*
X7838809Y-13226071D01*
X7848333Y-13207024D01*
X7857857Y-13197500D01*
X7876905Y-13187976D01*
X8067381Y-13187976D02*
X8086428Y-13187976D01*
X8105476Y-13197500D01*
X8115000Y-13207024D01*
X8124524Y-13226071D01*
X8134048Y-13264167D01*
X8134048Y-13311786D01*
X8124524Y-13349881D01*
X8115000Y-13368928D01*
X8105476Y-13378452D01*
X8086428Y-13387976D01*
X8067381Y-13387976D01*
X8048333Y-13378452D01*
X8038809Y-13368928D01*
X8029286Y-13349881D01*
X8019762Y-13311786D01*
X8019762Y-13264167D01*
X8029286Y-13226071D01*
X8038809Y-13207024D01*
X8048333Y-13197500D01*
X8067381Y-13187976D01*
X8219762Y-13387976D02*
X8219762Y-13254643D01*
X8219762Y-13273690D02*
X8229286Y-13264167D01*
X8248333Y-13254643D01*
X8276905Y-13254643D01*
X8295952Y-13264167D01*
X8305476Y-13283214D01*
X8305476Y-13387976D01*
X8305476Y-13283214D02*
X8315000Y-13264167D01*
X8334048Y-13254643D01*
X8362619Y-13254643D01*
X8381667Y-13264167D01*
X8391190Y-13283214D01*
X8391190Y-13387976D01*
X8486429Y-13387976D02*
X8486429Y-13254643D01*
X8486429Y-13273690D02*
X8495952Y-13264167D01*
X8515000Y-13254643D01*
X8543571Y-13254643D01*
X8562619Y-13264167D01*
X8572143Y-13283214D01*
X8572143Y-13387976D01*
X8572143Y-13283214D02*
X8581667Y-13264167D01*
X8600714Y-13254643D01*
X8629286Y-13254643D01*
X8648333Y-13264167D01*
X8657857Y-13283214D01*
X8657857Y-13387976D01*
X9048333Y-13178452D02*
X8876905Y-13435595D01*
X9305476Y-13187976D02*
X9324524Y-13187976D01*
X9343571Y-13197500D01*
X9353095Y-13207024D01*
X9362619Y-13226071D01*
X9372143Y-13264167D01*
X9372143Y-13311786D01*
X9362619Y-13349881D01*
X9353095Y-13368928D01*
X9343571Y-13378452D01*
X9324524Y-13387976D01*
X9305476Y-13387976D01*
X9286429Y-13378452D01*
X9276905Y-13368928D01*
X9267381Y-13349881D01*
X9257857Y-13311786D01*
X9257857Y-13264167D01*
X9267381Y-13226071D01*
X9276905Y-13207024D01*
X9286429Y-13197500D01*
X9305476Y-13187976D01*
X9457857Y-13368928D02*
X9467381Y-13378452D01*
X9457857Y-13387976D01*
X9448333Y-13378452D01*
X9457857Y-13368928D01*
X9457857Y-13387976D01*
X9591190Y-13187976D02*
X9610238Y-13187976D01*
X9629286Y-13197500D01*
X9638810Y-13207024D01*
X9648333Y-13226071D01*
X9657857Y-13264167D01*
X9657857Y-13311786D01*
X9648333Y-13349881D01*
X9638810Y-13368928D01*
X9629286Y-13378452D01*
X9610238Y-13387976D01*
X9591190Y-13387976D01*
X9572143Y-13378452D01*
X9562619Y-13368928D01*
X9553095Y-13349881D01*
X9543571Y-13311786D01*
X9543571Y-13264167D01*
X9553095Y-13226071D01*
X9562619Y-13207024D01*
X9572143Y-13197500D01*
X9591190Y-13187976D01*
X9829286Y-13254643D02*
X9829286Y-13387976D01*
X9781667Y-13178452D02*
X9734048Y-13321309D01*
X9857857Y-13321309D01*
X9915000Y-13187976D02*
X10038810Y-13187976D01*
X9972143Y-13264167D01*
X10000714Y-13264167D01*
X10019762Y-13273690D01*
X10029286Y-13283214D01*
X10038810Y-13302262D01*
X10038810Y-13349881D01*
X10029286Y-13368928D01*
X10019762Y-13378452D01*
X10000714Y-13387976D01*
X9943571Y-13387976D01*
X9924524Y-13378452D01*
X9915000Y-13368928D01*
X10105476Y-13187976D02*
X10229286Y-13187976D01*
X10162619Y-13264167D01*
X10191190Y-13264167D01*
X10210238Y-13273690D01*
X10219762Y-13283214D01*
X10229286Y-13302262D01*
X10229286Y-13349881D01*
X10219762Y-13368928D01*
X10210238Y-13378452D01*
X10191190Y-13387976D01*
X10134048Y-13387976D01*
X10115000Y-13378452D01*
X10105476Y-13368928D01*
X10305476Y-13187976D02*
X10305476Y-13226071D01*
X10381667Y-13187976D02*
X10381667Y-13226071D01*
X10676905Y-13464167D02*
X10667381Y-13454643D01*
X10648333Y-13426071D01*
X10638810Y-13407024D01*
X10629286Y-13378452D01*
X10619762Y-13330833D01*
X10619762Y-13292738D01*
X10629286Y-13245119D01*
X10638810Y-13216548D01*
X10648333Y-13197500D01*
X10667381Y-13168928D01*
X10676905Y-13159405D01*
X10743571Y-13207024D02*
X10753095Y-13197500D01*
X10772143Y-13187976D01*
X10819762Y-13187976D01*
X10838810Y-13197500D01*
X10848333Y-13207024D01*
X10857857Y-13226071D01*
X10857857Y-13245119D01*
X10848333Y-13273690D01*
X10734048Y-13387976D01*
X10857857Y-13387976D01*
X11095952Y-13387976D02*
X11095952Y-13187976D01*
X11181667Y-13387976D02*
X11181667Y-13283214D01*
X11172143Y-13264167D01*
X11153095Y-13254643D01*
X11124524Y-13254643D01*
X11105476Y-13264167D01*
X11095952Y-13273690D01*
X11305476Y-13387976D02*
X11286428Y-13378452D01*
X11276905Y-13368928D01*
X11267381Y-13349881D01*
X11267381Y-13292738D01*
X11276905Y-13273690D01*
X11286428Y-13264167D01*
X11305476Y-13254643D01*
X11334048Y-13254643D01*
X11353095Y-13264167D01*
X11362619Y-13273690D01*
X11372143Y-13292738D01*
X11372143Y-13349881D01*
X11362619Y-13368928D01*
X11353095Y-13378452D01*
X11334048Y-13387976D01*
X11305476Y-13387976D01*
X11486428Y-13387976D02*
X11467381Y-13378452D01*
X11457857Y-13359405D01*
X11457857Y-13187976D01*
X11638809Y-13378452D02*
X11619762Y-13387976D01*
X11581667Y-13387976D01*
X11562619Y-13378452D01*
X11553095Y-13359405D01*
X11553095Y-13283214D01*
X11562619Y-13264167D01*
X11581667Y-13254643D01*
X11619762Y-13254643D01*
X11638809Y-13264167D01*
X11648333Y-13283214D01*
X11648333Y-13302262D01*
X11553095Y-13321309D01*
X11724524Y-13378452D02*
X11743571Y-13387976D01*
X11781667Y-13387976D01*
X11800714Y-13378452D01*
X11810238Y-13359405D01*
X11810238Y-13349881D01*
X11800714Y-13330833D01*
X11781667Y-13321309D01*
X11753095Y-13321309D01*
X11734048Y-13311786D01*
X11724524Y-13292738D01*
X11724524Y-13283214D01*
X11734048Y-13264167D01*
X11753095Y-13254643D01*
X11781667Y-13254643D01*
X11800714Y-13264167D01*
X11876905Y-13464167D02*
X11886428Y-13454643D01*
X11905476Y-13426071D01*
X11915000Y-13407024D01*
X11924524Y-13378452D01*
X11934048Y-13330833D01*
X11934048Y-13292738D01*
X11924524Y-13245119D01*
X11915000Y-13216548D01*
X11905476Y-13197500D01*
X11886428Y-13168928D01*
X11876905Y-13159405D01*
D18*
X6955000Y-13486500D02*
X7105000Y-13636500D01*
X7105000Y-13486500D02*
X6955000Y-13636500D01*
X7030000Y-13486500D02*
X7030000Y-13636500D01*
X6955000Y-13561500D02*
X7105000Y-13561500D01*
D11*
X7467381Y-13651976D02*
X7353095Y-13651976D01*
X7410238Y-13651976D02*
X7410238Y-13451976D01*
X7391190Y-13480548D01*
X7372143Y-13499595D01*
X7353095Y-13509119D01*
X7553095Y-13632928D02*
X7562619Y-13642452D01*
X7553095Y-13651976D01*
X7543571Y-13642452D01*
X7553095Y-13632928D01*
X7553095Y-13651976D01*
X7743571Y-13451976D02*
X7648333Y-13451976D01*
X7638809Y-13547214D01*
X7648333Y-13537690D01*
X7667381Y-13528167D01*
X7715000Y-13528167D01*
X7734048Y-13537690D01*
X7743571Y-13547214D01*
X7753095Y-13566262D01*
X7753095Y-13613881D01*
X7743571Y-13632928D01*
X7734048Y-13642452D01*
X7715000Y-13651976D01*
X7667381Y-13651976D01*
X7648333Y-13642452D01*
X7638809Y-13632928D01*
X7876905Y-13451976D02*
X7895952Y-13451976D01*
X7915000Y-13461500D01*
X7924524Y-13471024D01*
X7934048Y-13490071D01*
X7943571Y-13528167D01*
X7943571Y-13575786D01*
X7934048Y-13613881D01*
X7924524Y-13632928D01*
X7915000Y-13642452D01*
X7895952Y-13651976D01*
X7876905Y-13651976D01*
X7857857Y-13642452D01*
X7848333Y-13632928D01*
X7838809Y-13613881D01*
X7829286Y-13575786D01*
X7829286Y-13528167D01*
X7838809Y-13490071D01*
X7848333Y-13471024D01*
X7857857Y-13461500D01*
X7876905Y-13451976D01*
X8067381Y-13451976D02*
X8086428Y-13451976D01*
X8105476Y-13461500D01*
X8115000Y-13471024D01*
X8124524Y-13490071D01*
X8134048Y-13528167D01*
X8134048Y-13575786D01*
X8124524Y-13613881D01*
X8115000Y-13632928D01*
X8105476Y-13642452D01*
X8086428Y-13651976D01*
X8067381Y-13651976D01*
X8048333Y-13642452D01*
X8038809Y-13632928D01*
X8029286Y-13613881D01*
X8019762Y-13575786D01*
X8019762Y-13528167D01*
X8029286Y-13490071D01*
X8038809Y-13471024D01*
X8048333Y-13461500D01*
X8067381Y-13451976D01*
X8219762Y-13651976D02*
X8219762Y-13518643D01*
X8219762Y-13537690D02*
X8229286Y-13528167D01*
X8248333Y-13518643D01*
X8276905Y-13518643D01*
X8295952Y-13528167D01*
X8305476Y-13547214D01*
X8305476Y-13651976D01*
X8305476Y-13547214D02*
X8315000Y-13528167D01*
X8334048Y-13518643D01*
X8362619Y-13518643D01*
X8381667Y-13528167D01*
X8391190Y-13547214D01*
X8391190Y-13651976D01*
X8486429Y-13651976D02*
X8486429Y-13518643D01*
X8486429Y-13537690D02*
X8495952Y-13528167D01*
X8515000Y-13518643D01*
X8543571Y-13518643D01*
X8562619Y-13528167D01*
X8572143Y-13547214D01*
X8572143Y-13651976D01*
X8572143Y-13547214D02*
X8581667Y-13528167D01*
X8600714Y-13518643D01*
X8629286Y-13518643D01*
X8648333Y-13528167D01*
X8657857Y-13547214D01*
X8657857Y-13651976D01*
X9048333Y-13442452D02*
X8876905Y-13699595D01*
X9305476Y-13451976D02*
X9324524Y-13451976D01*
X9343571Y-13461500D01*
X9353095Y-13471024D01*
X9362619Y-13490071D01*
X9372143Y-13528167D01*
X9372143Y-13575786D01*
X9362619Y-13613881D01*
X9353095Y-13632928D01*
X9343571Y-13642452D01*
X9324524Y-13651976D01*
X9305476Y-13651976D01*
X9286429Y-13642452D01*
X9276905Y-13632928D01*
X9267381Y-13613881D01*
X9257857Y-13575786D01*
X9257857Y-13528167D01*
X9267381Y-13490071D01*
X9276905Y-13471024D01*
X9286429Y-13461500D01*
X9305476Y-13451976D01*
X9457857Y-13632928D02*
X9467381Y-13642452D01*
X9457857Y-13651976D01*
X9448333Y-13642452D01*
X9457857Y-13632928D01*
X9457857Y-13651976D01*
X9591190Y-13451976D02*
X9610238Y-13451976D01*
X9629286Y-13461500D01*
X9638810Y-13471024D01*
X9648333Y-13490071D01*
X9657857Y-13528167D01*
X9657857Y-13575786D01*
X9648333Y-13613881D01*
X9638810Y-13632928D01*
X9629286Y-13642452D01*
X9610238Y-13651976D01*
X9591190Y-13651976D01*
X9572143Y-13642452D01*
X9562619Y-13632928D01*
X9553095Y-13613881D01*
X9543571Y-13575786D01*
X9543571Y-13528167D01*
X9553095Y-13490071D01*
X9562619Y-13471024D01*
X9572143Y-13461500D01*
X9591190Y-13451976D01*
X9838810Y-13451976D02*
X9743571Y-13451976D01*
X9734048Y-13547214D01*
X9743571Y-13537690D01*
X9762619Y-13528167D01*
X9810238Y-13528167D01*
X9829286Y-13537690D01*
X9838810Y-13547214D01*
X9848333Y-13566262D01*
X9848333Y-13613881D01*
X9838810Y-13632928D01*
X9829286Y-13642452D01*
X9810238Y-13651976D01*
X9762619Y-13651976D01*
X9743571Y-13642452D01*
X9734048Y-13632928D01*
X9943571Y-13651976D02*
X9981667Y-13651976D01*
X10000714Y-13642452D01*
X10010238Y-13632928D01*
X10029286Y-13604357D01*
X10038810Y-13566262D01*
X10038810Y-13490071D01*
X10029286Y-13471024D01*
X10019762Y-13461500D01*
X10000714Y-13451976D01*
X9962619Y-13451976D01*
X9943571Y-13461500D01*
X9934048Y-13471024D01*
X9924524Y-13490071D01*
X9924524Y-13537690D01*
X9934048Y-13556738D01*
X9943571Y-13566262D01*
X9962619Y-13575786D01*
X10000714Y-13575786D01*
X10019762Y-13566262D01*
X10029286Y-13556738D01*
X10038810Y-13537690D01*
X10229286Y-13651976D02*
X10115000Y-13651976D01*
X10172143Y-13651976D02*
X10172143Y-13451976D01*
X10153095Y-13480548D01*
X10134048Y-13499595D01*
X10115000Y-13509119D01*
X10305476Y-13451976D02*
X10305476Y-13490071D01*
X10381667Y-13451976D02*
X10381667Y-13490071D01*
X10676905Y-13728167D02*
X10667381Y-13718643D01*
X10648333Y-13690071D01*
X10638810Y-13671024D01*
X10629286Y-13642452D01*
X10619762Y-13594833D01*
X10619762Y-13556738D01*
X10629286Y-13509119D01*
X10638810Y-13480548D01*
X10648333Y-13461500D01*
X10667381Y-13432928D01*
X10676905Y-13423405D01*
X10743571Y-13471024D02*
X10753095Y-13461500D01*
X10772143Y-13451976D01*
X10819762Y-13451976D01*
X10838810Y-13461500D01*
X10848333Y-13471024D01*
X10857857Y-13490071D01*
X10857857Y-13509119D01*
X10848333Y-13537690D01*
X10734048Y-13651976D01*
X10857857Y-13651976D01*
X11095952Y-13651976D02*
X11095952Y-13451976D01*
X11181667Y-13651976D02*
X11181667Y-13547214D01*
X11172143Y-13528167D01*
X11153095Y-13518643D01*
X11124524Y-13518643D01*
X11105476Y-13528167D01*
X11095952Y-13537690D01*
X11305476Y-13651976D02*
X11286428Y-13642452D01*
X11276905Y-13632928D01*
X11267381Y-13613881D01*
X11267381Y-13556738D01*
X11276905Y-13537690D01*
X11286428Y-13528167D01*
X11305476Y-13518643D01*
X11334048Y-13518643D01*
X11353095Y-13528167D01*
X11362619Y-13537690D01*
X11372143Y-13556738D01*
X11372143Y-13613881D01*
X11362619Y-13632928D01*
X11353095Y-13642452D01*
X11334048Y-13651976D01*
X11305476Y-13651976D01*
X11486428Y-13651976D02*
X11467381Y-13642452D01*
X11457857Y-13623405D01*
X11457857Y-13451976D01*
X11638809Y-13642452D02*
X11619762Y-13651976D01*
X11581667Y-13651976D01*
X11562619Y-13642452D01*
X11553095Y-13623405D01*
X11553095Y-13547214D01*
X11562619Y-13528167D01*
X11581667Y-13518643D01*
X11619762Y-13518643D01*
X11638809Y-13528167D01*
X11648333Y-13547214D01*
X11648333Y-13566262D01*
X11553095Y-13585309D01*
X11724524Y-13642452D02*
X11743571Y-13651976D01*
X11781667Y-13651976D01*
X11800714Y-13642452D01*
X11810238Y-13623405D01*
X11810238Y-13613881D01*
X11800714Y-13594833D01*
X11781667Y-13585309D01*
X11753095Y-13585309D01*
X11734048Y-13575786D01*
X11724524Y-13556738D01*
X11724524Y-13547214D01*
X11734048Y-13528167D01*
X11753095Y-13518643D01*
X11781667Y-13518643D01*
X11800714Y-13528167D01*
X11876905Y-13728167D02*
X11886428Y-13718643D01*
X11905476Y-13690071D01*
X11915000Y-13671024D01*
X11924524Y-13642452D01*
X11934048Y-13594833D01*
X11934048Y-13556738D01*
X11924524Y-13509119D01*
X11915000Y-13480548D01*
X11905476Y-13461500D01*
X11886428Y-13432928D01*
X11876905Y-13423405D01*
X6905000Y-13731500D02*
X7105000Y-13931500D01*
X7105000Y-13731500D02*
X6905000Y-13931500D01*
X7075711Y-13902211D02*
X7075711Y-13760789D01*
X6934289Y-13760789D01*
X6934289Y-13902211D01*
X7075711Y-13902211D01*
X7353095Y-13741024D02*
X7362619Y-13731500D01*
X7381667Y-13721976D01*
X7429286Y-13721976D01*
X7448333Y-13731500D01*
X7457857Y-13741024D01*
X7467381Y-13760071D01*
X7467381Y-13779119D01*
X7457857Y-13807690D01*
X7343571Y-13921976D01*
X7467381Y-13921976D01*
X7553095Y-13902928D02*
X7562619Y-13912452D01*
X7553095Y-13921976D01*
X7543571Y-13912452D01*
X7553095Y-13902928D01*
X7553095Y-13921976D01*
X7629286Y-13721976D02*
X7753095Y-13721976D01*
X7686428Y-13798167D01*
X7715000Y-13798167D01*
X7734048Y-13807690D01*
X7743571Y-13817214D01*
X7753095Y-13836262D01*
X7753095Y-13883881D01*
X7743571Y-13902928D01*
X7734048Y-13912452D01*
X7715000Y-13921976D01*
X7657857Y-13921976D01*
X7638809Y-13912452D01*
X7629286Y-13902928D01*
X7876905Y-13721976D02*
X7895952Y-13721976D01*
X7915000Y-13731500D01*
X7924524Y-13741024D01*
X7934048Y-13760071D01*
X7943571Y-13798167D01*
X7943571Y-13845786D01*
X7934048Y-13883881D01*
X7924524Y-13902928D01*
X7915000Y-13912452D01*
X7895952Y-13921976D01*
X7876905Y-13921976D01*
X7857857Y-13912452D01*
X7848333Y-13902928D01*
X7838809Y-13883881D01*
X7829286Y-13845786D01*
X7829286Y-13798167D01*
X7838809Y-13760071D01*
X7848333Y-13741024D01*
X7857857Y-13731500D01*
X7876905Y-13721976D01*
X8067381Y-13721976D02*
X8086428Y-13721976D01*
X8105476Y-13731500D01*
X8115000Y-13741024D01*
X8124524Y-13760071D01*
X8134048Y-13798167D01*
X8134048Y-13845786D01*
X8124524Y-13883881D01*
X8115000Y-13902928D01*
X8105476Y-13912452D01*
X8086428Y-13921976D01*
X8067381Y-13921976D01*
X8048333Y-13912452D01*
X8038809Y-13902928D01*
X8029286Y-13883881D01*
X8019762Y-13845786D01*
X8019762Y-13798167D01*
X8029286Y-13760071D01*
X8038809Y-13741024D01*
X8048333Y-13731500D01*
X8067381Y-13721976D01*
X8219762Y-13921976D02*
X8219762Y-13788643D01*
X8219762Y-13807690D02*
X8229286Y-13798167D01*
X8248333Y-13788643D01*
X8276905Y-13788643D01*
X8295952Y-13798167D01*
X8305476Y-13817214D01*
X8305476Y-13921976D01*
X8305476Y-13817214D02*
X8315000Y-13798167D01*
X8334048Y-13788643D01*
X8362619Y-13788643D01*
X8381667Y-13798167D01*
X8391190Y-13817214D01*
X8391190Y-13921976D01*
X8486429Y-13921976D02*
X8486429Y-13788643D01*
X8486429Y-13807690D02*
X8495952Y-13798167D01*
X8515000Y-13788643D01*
X8543571Y-13788643D01*
X8562619Y-13798167D01*
X8572143Y-13817214D01*
X8572143Y-13921976D01*
X8572143Y-13817214D02*
X8581667Y-13798167D01*
X8600714Y-13788643D01*
X8629286Y-13788643D01*
X8648333Y-13798167D01*
X8657857Y-13817214D01*
X8657857Y-13921976D01*
X9048333Y-13712452D02*
X8876905Y-13969595D01*
X9305476Y-13721976D02*
X9324524Y-13721976D01*
X9343571Y-13731500D01*
X9353095Y-13741024D01*
X9362619Y-13760071D01*
X9372143Y-13798167D01*
X9372143Y-13845786D01*
X9362619Y-13883881D01*
X9353095Y-13902928D01*
X9343571Y-13912452D01*
X9324524Y-13921976D01*
X9305476Y-13921976D01*
X9286429Y-13912452D01*
X9276905Y-13902928D01*
X9267381Y-13883881D01*
X9257857Y-13845786D01*
X9257857Y-13798167D01*
X9267381Y-13760071D01*
X9276905Y-13741024D01*
X9286429Y-13731500D01*
X9305476Y-13721976D01*
X9457857Y-13902928D02*
X9467381Y-13912452D01*
X9457857Y-13921976D01*
X9448333Y-13912452D01*
X9457857Y-13902928D01*
X9457857Y-13921976D01*
X9591190Y-13721976D02*
X9610238Y-13721976D01*
X9629286Y-13731500D01*
X9638810Y-13741024D01*
X9648333Y-13760071D01*
X9657857Y-13798167D01*
X9657857Y-13845786D01*
X9648333Y-13883881D01*
X9638810Y-13902928D01*
X9629286Y-13912452D01*
X9610238Y-13921976D01*
X9591190Y-13921976D01*
X9572143Y-13912452D01*
X9562619Y-13902928D01*
X9553095Y-13883881D01*
X9543571Y-13845786D01*
X9543571Y-13798167D01*
X9553095Y-13760071D01*
X9562619Y-13741024D01*
X9572143Y-13731500D01*
X9591190Y-13721976D01*
X9753095Y-13921976D02*
X9791190Y-13921976D01*
X9810238Y-13912452D01*
X9819762Y-13902928D01*
X9838810Y-13874357D01*
X9848333Y-13836262D01*
X9848333Y-13760071D01*
X9838810Y-13741024D01*
X9829286Y-13731500D01*
X9810238Y-13721976D01*
X9772143Y-13721976D01*
X9753095Y-13731500D01*
X9743571Y-13741024D01*
X9734048Y-13760071D01*
X9734048Y-13807690D01*
X9743571Y-13826738D01*
X9753095Y-13836262D01*
X9772143Y-13845786D01*
X9810238Y-13845786D01*
X9829286Y-13836262D01*
X9838810Y-13826738D01*
X9848333Y-13807690D01*
X9972143Y-13721976D02*
X9991190Y-13721976D01*
X10010238Y-13731500D01*
X10019762Y-13741024D01*
X10029286Y-13760071D01*
X10038810Y-13798167D01*
X10038810Y-13845786D01*
X10029286Y-13883881D01*
X10019762Y-13902928D01*
X10010238Y-13912452D01*
X9991190Y-13921976D01*
X9972143Y-13921976D01*
X9953095Y-13912452D01*
X9943571Y-13902928D01*
X9934048Y-13883881D01*
X9924524Y-13845786D01*
X9924524Y-13798167D01*
X9934048Y-13760071D01*
X9943571Y-13741024D01*
X9953095Y-13731500D01*
X9972143Y-13721976D01*
X10210238Y-13721976D02*
X10172143Y-13721976D01*
X10153095Y-13731500D01*
X10143571Y-13741024D01*
X10124524Y-13769595D01*
X10115000Y-13807690D01*
X10115000Y-13883881D01*
X10124524Y-13902928D01*
X10134048Y-13912452D01*
X10153095Y-13921976D01*
X10191190Y-13921976D01*
X10210238Y-13912452D01*
X10219762Y-13902928D01*
X10229286Y-13883881D01*
X10229286Y-13836262D01*
X10219762Y-13817214D01*
X10210238Y-13807690D01*
X10191190Y-13798167D01*
X10153095Y-13798167D01*
X10134048Y-13807690D01*
X10124524Y-13817214D01*
X10115000Y-13836262D01*
X10305476Y-13721976D02*
X10305476Y-13760071D01*
X10381667Y-13721976D02*
X10381667Y-13760071D01*
X10676905Y-13998167D02*
X10667381Y-13988643D01*
X10648333Y-13960071D01*
X10638810Y-13941024D01*
X10629286Y-13912452D01*
X10619762Y-13864833D01*
X10619762Y-13826738D01*
X10629286Y-13779119D01*
X10638810Y-13750548D01*
X10648333Y-13731500D01*
X10667381Y-13702928D01*
X10676905Y-13693405D01*
X10734048Y-13721976D02*
X10857857Y-13721976D01*
X10791190Y-13798167D01*
X10819762Y-13798167D01*
X10838810Y-13807690D01*
X10848333Y-13817214D01*
X10857857Y-13836262D01*
X10857857Y-13883881D01*
X10848333Y-13902928D01*
X10838810Y-13912452D01*
X10819762Y-13921976D01*
X10762619Y-13921976D01*
X10743571Y-13912452D01*
X10734048Y-13902928D01*
X10934048Y-13741024D02*
X10943571Y-13731500D01*
X10962619Y-13721976D01*
X11010238Y-13721976D01*
X11029286Y-13731500D01*
X11038810Y-13741024D01*
X11048333Y-13760071D01*
X11048333Y-13779119D01*
X11038810Y-13807690D01*
X10924524Y-13921976D01*
X11048333Y-13921976D01*
X11286428Y-13921976D02*
X11286428Y-13721976D01*
X11372143Y-13921976D02*
X11372143Y-13817214D01*
X11362619Y-13798167D01*
X11343571Y-13788643D01*
X11315000Y-13788643D01*
X11295952Y-13798167D01*
X11286428Y-13807690D01*
X11495952Y-13921976D02*
X11476905Y-13912452D01*
X11467381Y-13902928D01*
X11457857Y-13883881D01*
X11457857Y-13826738D01*
X11467381Y-13807690D01*
X11476905Y-13798167D01*
X11495952Y-13788643D01*
X11524524Y-13788643D01*
X11543571Y-13798167D01*
X11553095Y-13807690D01*
X11562619Y-13826738D01*
X11562619Y-13883881D01*
X11553095Y-13902928D01*
X11543571Y-13912452D01*
X11524524Y-13921976D01*
X11495952Y-13921976D01*
X11676905Y-13921976D02*
X11657857Y-13912452D01*
X11648333Y-13893405D01*
X11648333Y-13721976D01*
X11829286Y-13912452D02*
X11810238Y-13921976D01*
X11772143Y-13921976D01*
X11753095Y-13912452D01*
X11743571Y-13893405D01*
X11743571Y-13817214D01*
X11753095Y-13798167D01*
X11772143Y-13788643D01*
X11810238Y-13788643D01*
X11829286Y-13798167D01*
X11838809Y-13817214D01*
X11838809Y-13836262D01*
X11743571Y-13855309D01*
X11915000Y-13912452D02*
X11934048Y-13921976D01*
X11972143Y-13921976D01*
X11991190Y-13912452D01*
X12000714Y-13893405D01*
X12000714Y-13883881D01*
X11991190Y-13864833D01*
X11972143Y-13855309D01*
X11943571Y-13855309D01*
X11924524Y-13845786D01*
X11915000Y-13826738D01*
X11915000Y-13817214D01*
X11924524Y-13798167D01*
X11943571Y-13788643D01*
X11972143Y-13788643D01*
X11991190Y-13798167D01*
X12067381Y-13998167D02*
X12076905Y-13988643D01*
X12095952Y-13960071D01*
X12105476Y-13941024D01*
X12115000Y-13912452D01*
X12124524Y-13864833D01*
X12124524Y-13826738D01*
X12115000Y-13779119D01*
X12105476Y-13750548D01*
X12095952Y-13731500D01*
X12076905Y-13702928D01*
X12067381Y-13693405D01*
M02*
