%FSLAX45Y45*%
G04 Gerber Fmt 4.5, Leading zero omitted, Abs format (unit mm)*
G04 Created by KiCad (PCBNEW 6.0.2+dfsg-1) date 2023-04-29 01:16:47*
%MOMM*%
%LPD*%
G01*
G04 APERTURE LIST*
%TA.AperFunction,Profile*%
%ADD10C,0.100000*%
%TD*%
%ADD11C,0.200000*%
%ADD12C,0.065000*%
%ADD13C,0.160000*%
G04 APERTURE END LIST*
D10*
X7117000Y-1540000D02*
X22586000Y-1540000D01*
X22586000Y-1540000D02*
X22586000Y-11137000D01*
X22586000Y-11137000D02*
X7117000Y-11137000D01*
X7117000Y-11137000D02*
X7117000Y-1540000D01*
X22459569Y-1832500D02*
G75*
G03*
X22459569Y-1832500I-152069J0D01*
G01*
X22464897Y-10842500D02*
G75*
G03*
X22464897Y-10842500I-152397J0D01*
G01*
X7567684Y-10835000D02*
G75*
G03*
X7567684Y-10835000I-152684J0D01*
G01*
X7562069Y-1827500D02*
G75*
G03*
X7562069Y-1827500I-152069J0D01*
G01*
D11*
D12*
X21865500Y-8629000D02*
X21930500Y-8694000D01*
X21930500Y-8629000D02*
X21865500Y-8694000D01*
X21865500Y-9207000D02*
X21930500Y-9272000D01*
X21930500Y-9207000D02*
X21865500Y-9272000D01*
D13*
X22350000Y-7622500D02*
G75*
G03*
X22350000Y-7622500I-80000J0D01*
G01*
D11*
X7369619Y-11452476D02*
X7369619Y-11252476D01*
X7417238Y-11252476D01*
X7445809Y-11262000D01*
X7464857Y-11281048D01*
X7474381Y-11300095D01*
X7483905Y-11338190D01*
X7483905Y-11366762D01*
X7474381Y-11404857D01*
X7464857Y-11423905D01*
X7445809Y-11442952D01*
X7417238Y-11452476D01*
X7369619Y-11452476D01*
X7569619Y-11452476D02*
X7569619Y-11319143D01*
X7569619Y-11357238D02*
X7579143Y-11338190D01*
X7588667Y-11328667D01*
X7607714Y-11319143D01*
X7626762Y-11319143D01*
X7693428Y-11452476D02*
X7693428Y-11319143D01*
X7693428Y-11252476D02*
X7683905Y-11262000D01*
X7693428Y-11271524D01*
X7702952Y-11262000D01*
X7693428Y-11252476D01*
X7693428Y-11271524D01*
X7817238Y-11452476D02*
X7798190Y-11442952D01*
X7788667Y-11423905D01*
X7788667Y-11252476D01*
X7922000Y-11452476D02*
X7902952Y-11442952D01*
X7893428Y-11423905D01*
X7893428Y-11252476D01*
X8150571Y-11452476D02*
X8150571Y-11252476D01*
X8217238Y-11395333D01*
X8283905Y-11252476D01*
X8283905Y-11452476D01*
X8464857Y-11452476D02*
X8464857Y-11347714D01*
X8455333Y-11328667D01*
X8436286Y-11319143D01*
X8398190Y-11319143D01*
X8379143Y-11328667D01*
X8464857Y-11442952D02*
X8445810Y-11452476D01*
X8398190Y-11452476D01*
X8379143Y-11442952D01*
X8369619Y-11423905D01*
X8369619Y-11404857D01*
X8379143Y-11385809D01*
X8398190Y-11376286D01*
X8445810Y-11376286D01*
X8464857Y-11366762D01*
X8560095Y-11319143D02*
X8560095Y-11519143D01*
X8560095Y-11328667D02*
X8579143Y-11319143D01*
X8617238Y-11319143D01*
X8636286Y-11328667D01*
X8645810Y-11338190D01*
X8655333Y-11357238D01*
X8655333Y-11414381D01*
X8645810Y-11433428D01*
X8636286Y-11442952D01*
X8617238Y-11452476D01*
X8579143Y-11452476D01*
X8560095Y-11442952D01*
X8741048Y-11433428D02*
X8750571Y-11442952D01*
X8741048Y-11452476D01*
X8731524Y-11442952D01*
X8741048Y-11433428D01*
X8741048Y-11452476D01*
X8741048Y-11328667D02*
X8750571Y-11338190D01*
X8741048Y-11347714D01*
X8731524Y-11338190D01*
X8741048Y-11328667D01*
X8741048Y-11347714D01*
D12*
X7047000Y-11749500D02*
X7112000Y-11814500D01*
X7112000Y-11749500D02*
X7047000Y-11814500D01*
D11*
X7407714Y-11672476D02*
X7426762Y-11672476D01*
X7445809Y-11682000D01*
X7455333Y-11691524D01*
X7464857Y-11710571D01*
X7474381Y-11748667D01*
X7474381Y-11796286D01*
X7464857Y-11834381D01*
X7455333Y-11853428D01*
X7445809Y-11862952D01*
X7426762Y-11872476D01*
X7407714Y-11872476D01*
X7388667Y-11862952D01*
X7379143Y-11853428D01*
X7369619Y-11834381D01*
X7360095Y-11796286D01*
X7360095Y-11748667D01*
X7369619Y-11710571D01*
X7379143Y-11691524D01*
X7388667Y-11682000D01*
X7407714Y-11672476D01*
X7560095Y-11853428D02*
X7569619Y-11862952D01*
X7560095Y-11872476D01*
X7550571Y-11862952D01*
X7560095Y-11853428D01*
X7560095Y-11872476D01*
X7741048Y-11672476D02*
X7702952Y-11672476D01*
X7683905Y-11682000D01*
X7674381Y-11691524D01*
X7655333Y-11720095D01*
X7645809Y-11758190D01*
X7645809Y-11834381D01*
X7655333Y-11853428D01*
X7664857Y-11862952D01*
X7683905Y-11872476D01*
X7722000Y-11872476D01*
X7741048Y-11862952D01*
X7750571Y-11853428D01*
X7760095Y-11834381D01*
X7760095Y-11786762D01*
X7750571Y-11767714D01*
X7741048Y-11758190D01*
X7722000Y-11748667D01*
X7683905Y-11748667D01*
X7664857Y-11758190D01*
X7655333Y-11767714D01*
X7645809Y-11786762D01*
X7941048Y-11672476D02*
X7845809Y-11672476D01*
X7836286Y-11767714D01*
X7845809Y-11758190D01*
X7864857Y-11748667D01*
X7912476Y-11748667D01*
X7931524Y-11758190D01*
X7941048Y-11767714D01*
X7950571Y-11786762D01*
X7950571Y-11834381D01*
X7941048Y-11853428D01*
X7931524Y-11862952D01*
X7912476Y-11872476D01*
X7864857Y-11872476D01*
X7845809Y-11862952D01*
X7836286Y-11853428D01*
X8074381Y-11672476D02*
X8093428Y-11672476D01*
X8112476Y-11682000D01*
X8122000Y-11691524D01*
X8131524Y-11710571D01*
X8141048Y-11748667D01*
X8141048Y-11796286D01*
X8131524Y-11834381D01*
X8122000Y-11853428D01*
X8112476Y-11862952D01*
X8093428Y-11872476D01*
X8074381Y-11872476D01*
X8055333Y-11862952D01*
X8045809Y-11853428D01*
X8036286Y-11834381D01*
X8026762Y-11796286D01*
X8026762Y-11748667D01*
X8036286Y-11710571D01*
X8045809Y-11691524D01*
X8055333Y-11682000D01*
X8074381Y-11672476D01*
X8226762Y-11872476D02*
X8226762Y-11739143D01*
X8226762Y-11758190D02*
X8236286Y-11748667D01*
X8255333Y-11739143D01*
X8283905Y-11739143D01*
X8302952Y-11748667D01*
X8312476Y-11767714D01*
X8312476Y-11872476D01*
X8312476Y-11767714D02*
X8322000Y-11748667D01*
X8341048Y-11739143D01*
X8369619Y-11739143D01*
X8388667Y-11748667D01*
X8398190Y-11767714D01*
X8398190Y-11872476D01*
X8493429Y-11872476D02*
X8493429Y-11739143D01*
X8493429Y-11758190D02*
X8502952Y-11748667D01*
X8522000Y-11739143D01*
X8550571Y-11739143D01*
X8569619Y-11748667D01*
X8579143Y-11767714D01*
X8579143Y-11872476D01*
X8579143Y-11767714D02*
X8588667Y-11748667D01*
X8607714Y-11739143D01*
X8636286Y-11739143D01*
X8655333Y-11748667D01*
X8664857Y-11767714D01*
X8664857Y-11872476D01*
X9055333Y-11662952D02*
X8883905Y-11920095D01*
X9312476Y-11672476D02*
X9331524Y-11672476D01*
X9350571Y-11682000D01*
X9360095Y-11691524D01*
X9369619Y-11710571D01*
X9379143Y-11748667D01*
X9379143Y-11796286D01*
X9369619Y-11834381D01*
X9360095Y-11853428D01*
X9350571Y-11862952D01*
X9331524Y-11872476D01*
X9312476Y-11872476D01*
X9293429Y-11862952D01*
X9283905Y-11853428D01*
X9274381Y-11834381D01*
X9264857Y-11796286D01*
X9264857Y-11748667D01*
X9274381Y-11710571D01*
X9283905Y-11691524D01*
X9293429Y-11682000D01*
X9312476Y-11672476D01*
X9464857Y-11853428D02*
X9474381Y-11862952D01*
X9464857Y-11872476D01*
X9455333Y-11862952D01*
X9464857Y-11853428D01*
X9464857Y-11872476D01*
X9598190Y-11672476D02*
X9617238Y-11672476D01*
X9636286Y-11682000D01*
X9645810Y-11691524D01*
X9655333Y-11710571D01*
X9664857Y-11748667D01*
X9664857Y-11796286D01*
X9655333Y-11834381D01*
X9645810Y-11853428D01*
X9636286Y-11862952D01*
X9617238Y-11872476D01*
X9598190Y-11872476D01*
X9579143Y-11862952D01*
X9569619Y-11853428D01*
X9560095Y-11834381D01*
X9550571Y-11796286D01*
X9550571Y-11748667D01*
X9560095Y-11710571D01*
X9569619Y-11691524D01*
X9579143Y-11682000D01*
X9598190Y-11672476D01*
X9741048Y-11691524D02*
X9750571Y-11682000D01*
X9769619Y-11672476D01*
X9817238Y-11672476D01*
X9836286Y-11682000D01*
X9845810Y-11691524D01*
X9855333Y-11710571D01*
X9855333Y-11729619D01*
X9845810Y-11758190D01*
X9731524Y-11872476D01*
X9855333Y-11872476D01*
X10036286Y-11672476D02*
X9941048Y-11672476D01*
X9931524Y-11767714D01*
X9941048Y-11758190D01*
X9960095Y-11748667D01*
X10007714Y-11748667D01*
X10026762Y-11758190D01*
X10036286Y-11767714D01*
X10045810Y-11786762D01*
X10045810Y-11834381D01*
X10036286Y-11853428D01*
X10026762Y-11862952D01*
X10007714Y-11872476D01*
X9960095Y-11872476D01*
X9941048Y-11862952D01*
X9931524Y-11853428D01*
X10217238Y-11672476D02*
X10179143Y-11672476D01*
X10160095Y-11682000D01*
X10150571Y-11691524D01*
X10131524Y-11720095D01*
X10122000Y-11758190D01*
X10122000Y-11834381D01*
X10131524Y-11853428D01*
X10141048Y-11862952D01*
X10160095Y-11872476D01*
X10198190Y-11872476D01*
X10217238Y-11862952D01*
X10226762Y-11853428D01*
X10236286Y-11834381D01*
X10236286Y-11786762D01*
X10226762Y-11767714D01*
X10217238Y-11758190D01*
X10198190Y-11748667D01*
X10160095Y-11748667D01*
X10141048Y-11758190D01*
X10131524Y-11767714D01*
X10122000Y-11786762D01*
X10312476Y-11672476D02*
X10312476Y-11710571D01*
X10388667Y-11672476D02*
X10388667Y-11710571D01*
X10683905Y-11948667D02*
X10674381Y-11939143D01*
X10655333Y-11910571D01*
X10645810Y-11891524D01*
X10636286Y-11862952D01*
X10626762Y-11815333D01*
X10626762Y-11777238D01*
X10636286Y-11729619D01*
X10645810Y-11701048D01*
X10655333Y-11682000D01*
X10674381Y-11653428D01*
X10683905Y-11643905D01*
X10750571Y-11691524D02*
X10760095Y-11682000D01*
X10779143Y-11672476D01*
X10826762Y-11672476D01*
X10845810Y-11682000D01*
X10855333Y-11691524D01*
X10864857Y-11710571D01*
X10864857Y-11729619D01*
X10855333Y-11758190D01*
X10741048Y-11872476D01*
X10864857Y-11872476D01*
X11102952Y-11872476D02*
X11102952Y-11672476D01*
X11188667Y-11872476D02*
X11188667Y-11767714D01*
X11179143Y-11748667D01*
X11160095Y-11739143D01*
X11131524Y-11739143D01*
X11112476Y-11748667D01*
X11102952Y-11758190D01*
X11312476Y-11872476D02*
X11293428Y-11862952D01*
X11283905Y-11853428D01*
X11274381Y-11834381D01*
X11274381Y-11777238D01*
X11283905Y-11758190D01*
X11293428Y-11748667D01*
X11312476Y-11739143D01*
X11341048Y-11739143D01*
X11360095Y-11748667D01*
X11369619Y-11758190D01*
X11379143Y-11777238D01*
X11379143Y-11834381D01*
X11369619Y-11853428D01*
X11360095Y-11862952D01*
X11341048Y-11872476D01*
X11312476Y-11872476D01*
X11493428Y-11872476D02*
X11474381Y-11862952D01*
X11464857Y-11843905D01*
X11464857Y-11672476D01*
X11645809Y-11862952D02*
X11626762Y-11872476D01*
X11588667Y-11872476D01*
X11569619Y-11862952D01*
X11560095Y-11843905D01*
X11560095Y-11767714D01*
X11569619Y-11748667D01*
X11588667Y-11739143D01*
X11626762Y-11739143D01*
X11645809Y-11748667D01*
X11655333Y-11767714D01*
X11655333Y-11786762D01*
X11560095Y-11805809D01*
X11731524Y-11862952D02*
X11750571Y-11872476D01*
X11788667Y-11872476D01*
X11807714Y-11862952D01*
X11817238Y-11843905D01*
X11817238Y-11834381D01*
X11807714Y-11815333D01*
X11788667Y-11805809D01*
X11760095Y-11805809D01*
X11741048Y-11796286D01*
X11731524Y-11777238D01*
X11731524Y-11767714D01*
X11741048Y-11748667D01*
X11760095Y-11739143D01*
X11788667Y-11739143D01*
X11807714Y-11748667D01*
X11883905Y-11948667D02*
X11893428Y-11939143D01*
X11912476Y-11910571D01*
X11922000Y-11891524D01*
X11931524Y-11862952D01*
X11941048Y-11815333D01*
X11941048Y-11777238D01*
X11931524Y-11729619D01*
X11922000Y-11701048D01*
X11912476Y-11682000D01*
X11893428Y-11653428D01*
X11883905Y-11643905D01*
X12245809Y-11948667D02*
X12236286Y-11939143D01*
X12217238Y-11910571D01*
X12207714Y-11891524D01*
X12198190Y-11862952D01*
X12188667Y-11815333D01*
X12188667Y-11777238D01*
X12198190Y-11729619D01*
X12207714Y-11701048D01*
X12217238Y-11682000D01*
X12236286Y-11653428D01*
X12245809Y-11643905D01*
X12322000Y-11739143D02*
X12322000Y-11872476D01*
X12322000Y-11758190D02*
X12331524Y-11748667D01*
X12350571Y-11739143D01*
X12379143Y-11739143D01*
X12398190Y-11748667D01*
X12407714Y-11767714D01*
X12407714Y-11872476D01*
X12531524Y-11872476D02*
X12512476Y-11862952D01*
X12502952Y-11853428D01*
X12493428Y-11834381D01*
X12493428Y-11777238D01*
X12502952Y-11758190D01*
X12512476Y-11748667D01*
X12531524Y-11739143D01*
X12560095Y-11739143D01*
X12579143Y-11748667D01*
X12588667Y-11758190D01*
X12598190Y-11777238D01*
X12598190Y-11834381D01*
X12588667Y-11853428D01*
X12579143Y-11862952D01*
X12560095Y-11872476D01*
X12531524Y-11872476D01*
X12655333Y-11739143D02*
X12731524Y-11739143D01*
X12683905Y-11672476D02*
X12683905Y-11843905D01*
X12693428Y-11862952D01*
X12712476Y-11872476D01*
X12731524Y-11872476D01*
X12950571Y-11739143D02*
X12950571Y-11939143D01*
X12950571Y-11748667D02*
X12969619Y-11739143D01*
X13007714Y-11739143D01*
X13026762Y-11748667D01*
X13036286Y-11758190D01*
X13045809Y-11777238D01*
X13045809Y-11834381D01*
X13036286Y-11853428D01*
X13026762Y-11862952D01*
X13007714Y-11872476D01*
X12969619Y-11872476D01*
X12950571Y-11862952D01*
X13160095Y-11872476D02*
X13141048Y-11862952D01*
X13131524Y-11843905D01*
X13131524Y-11672476D01*
X13322000Y-11872476D02*
X13322000Y-11767714D01*
X13312476Y-11748667D01*
X13293428Y-11739143D01*
X13255333Y-11739143D01*
X13236286Y-11748667D01*
X13322000Y-11862952D02*
X13302952Y-11872476D01*
X13255333Y-11872476D01*
X13236286Y-11862952D01*
X13226762Y-11843905D01*
X13226762Y-11824857D01*
X13236286Y-11805809D01*
X13255333Y-11796286D01*
X13302952Y-11796286D01*
X13322000Y-11786762D01*
X13388667Y-11739143D02*
X13464857Y-11739143D01*
X13417238Y-11672476D02*
X13417238Y-11843905D01*
X13426762Y-11862952D01*
X13445809Y-11872476D01*
X13464857Y-11872476D01*
X13607714Y-11862952D02*
X13588667Y-11872476D01*
X13550571Y-11872476D01*
X13531524Y-11862952D01*
X13522000Y-11843905D01*
X13522000Y-11767714D01*
X13531524Y-11748667D01*
X13550571Y-11739143D01*
X13588667Y-11739143D01*
X13607714Y-11748667D01*
X13617238Y-11767714D01*
X13617238Y-11786762D01*
X13522000Y-11805809D01*
X13788667Y-11872476D02*
X13788667Y-11672476D01*
X13788667Y-11862952D02*
X13769619Y-11872476D01*
X13731524Y-11872476D01*
X13712476Y-11862952D01*
X13702952Y-11853428D01*
X13693428Y-11834381D01*
X13693428Y-11777238D01*
X13702952Y-11758190D01*
X13712476Y-11748667D01*
X13731524Y-11739143D01*
X13769619Y-11739143D01*
X13788667Y-11748667D01*
X13864857Y-11948667D02*
X13874381Y-11939143D01*
X13893428Y-11910571D01*
X13902952Y-11891524D01*
X13912476Y-11862952D01*
X13922000Y-11815333D01*
X13922000Y-11777238D01*
X13912476Y-11729619D01*
X13902952Y-11701048D01*
X13893428Y-11682000D01*
X13874381Y-11653428D01*
X13864857Y-11643905D01*
D13*
X7112000Y-12046000D02*
G75*
G03*
X7112000Y-12046000I-80000J0D01*
G01*
D11*
X7474381Y-12136476D02*
X7360095Y-12136476D01*
X7417238Y-12136476D02*
X7417238Y-11936476D01*
X7398190Y-11965048D01*
X7379143Y-11984095D01*
X7360095Y-11993619D01*
X7560095Y-12117428D02*
X7569619Y-12126952D01*
X7560095Y-12136476D01*
X7550571Y-12126952D01*
X7560095Y-12117428D01*
X7560095Y-12136476D01*
X7741048Y-11936476D02*
X7702952Y-11936476D01*
X7683905Y-11946000D01*
X7674381Y-11955524D01*
X7655333Y-11984095D01*
X7645809Y-12022190D01*
X7645809Y-12098381D01*
X7655333Y-12117428D01*
X7664857Y-12126952D01*
X7683905Y-12136476D01*
X7722000Y-12136476D01*
X7741048Y-12126952D01*
X7750571Y-12117428D01*
X7760095Y-12098381D01*
X7760095Y-12050762D01*
X7750571Y-12031714D01*
X7741048Y-12022190D01*
X7722000Y-12012667D01*
X7683905Y-12012667D01*
X7664857Y-12022190D01*
X7655333Y-12031714D01*
X7645809Y-12050762D01*
X7883905Y-11936476D02*
X7902952Y-11936476D01*
X7922000Y-11946000D01*
X7931524Y-11955524D01*
X7941048Y-11974571D01*
X7950571Y-12012667D01*
X7950571Y-12060286D01*
X7941048Y-12098381D01*
X7931524Y-12117428D01*
X7922000Y-12126952D01*
X7902952Y-12136476D01*
X7883905Y-12136476D01*
X7864857Y-12126952D01*
X7855333Y-12117428D01*
X7845809Y-12098381D01*
X7836286Y-12060286D01*
X7836286Y-12012667D01*
X7845809Y-11974571D01*
X7855333Y-11955524D01*
X7864857Y-11946000D01*
X7883905Y-11936476D01*
X8074381Y-11936476D02*
X8093428Y-11936476D01*
X8112476Y-11946000D01*
X8122000Y-11955524D01*
X8131524Y-11974571D01*
X8141048Y-12012667D01*
X8141048Y-12060286D01*
X8131524Y-12098381D01*
X8122000Y-12117428D01*
X8112476Y-12126952D01*
X8093428Y-12136476D01*
X8074381Y-12136476D01*
X8055333Y-12126952D01*
X8045809Y-12117428D01*
X8036286Y-12098381D01*
X8026762Y-12060286D01*
X8026762Y-12012667D01*
X8036286Y-11974571D01*
X8045809Y-11955524D01*
X8055333Y-11946000D01*
X8074381Y-11936476D01*
X8226762Y-12136476D02*
X8226762Y-12003143D01*
X8226762Y-12022190D02*
X8236286Y-12012667D01*
X8255333Y-12003143D01*
X8283905Y-12003143D01*
X8302952Y-12012667D01*
X8312476Y-12031714D01*
X8312476Y-12136476D01*
X8312476Y-12031714D02*
X8322000Y-12012667D01*
X8341048Y-12003143D01*
X8369619Y-12003143D01*
X8388667Y-12012667D01*
X8398190Y-12031714D01*
X8398190Y-12136476D01*
X8493429Y-12136476D02*
X8493429Y-12003143D01*
X8493429Y-12022190D02*
X8502952Y-12012667D01*
X8522000Y-12003143D01*
X8550571Y-12003143D01*
X8569619Y-12012667D01*
X8579143Y-12031714D01*
X8579143Y-12136476D01*
X8579143Y-12031714D02*
X8588667Y-12012667D01*
X8607714Y-12003143D01*
X8636286Y-12003143D01*
X8655333Y-12012667D01*
X8664857Y-12031714D01*
X8664857Y-12136476D01*
X9055333Y-11926952D02*
X8883905Y-12184095D01*
X9312476Y-11936476D02*
X9331524Y-11936476D01*
X9350571Y-11946000D01*
X9360095Y-11955524D01*
X9369619Y-11974571D01*
X9379143Y-12012667D01*
X9379143Y-12060286D01*
X9369619Y-12098381D01*
X9360095Y-12117428D01*
X9350571Y-12126952D01*
X9331524Y-12136476D01*
X9312476Y-12136476D01*
X9293429Y-12126952D01*
X9283905Y-12117428D01*
X9274381Y-12098381D01*
X9264857Y-12060286D01*
X9264857Y-12012667D01*
X9274381Y-11974571D01*
X9283905Y-11955524D01*
X9293429Y-11946000D01*
X9312476Y-11936476D01*
X9464857Y-12117428D02*
X9474381Y-12126952D01*
X9464857Y-12136476D01*
X9455333Y-12126952D01*
X9464857Y-12117428D01*
X9464857Y-12136476D01*
X9598190Y-11936476D02*
X9617238Y-11936476D01*
X9636286Y-11946000D01*
X9645810Y-11955524D01*
X9655333Y-11974571D01*
X9664857Y-12012667D01*
X9664857Y-12060286D01*
X9655333Y-12098381D01*
X9645810Y-12117428D01*
X9636286Y-12126952D01*
X9617238Y-12136476D01*
X9598190Y-12136476D01*
X9579143Y-12126952D01*
X9569619Y-12117428D01*
X9560095Y-12098381D01*
X9550571Y-12060286D01*
X9550571Y-12012667D01*
X9560095Y-11974571D01*
X9569619Y-11955524D01*
X9579143Y-11946000D01*
X9598190Y-11936476D01*
X9836286Y-11936476D02*
X9798190Y-11936476D01*
X9779143Y-11946000D01*
X9769619Y-11955524D01*
X9750571Y-11984095D01*
X9741048Y-12022190D01*
X9741048Y-12098381D01*
X9750571Y-12117428D01*
X9760095Y-12126952D01*
X9779143Y-12136476D01*
X9817238Y-12136476D01*
X9836286Y-12126952D01*
X9845810Y-12117428D01*
X9855333Y-12098381D01*
X9855333Y-12050762D01*
X9845810Y-12031714D01*
X9836286Y-12022190D01*
X9817238Y-12012667D01*
X9779143Y-12012667D01*
X9760095Y-12022190D01*
X9750571Y-12031714D01*
X9741048Y-12050762D01*
X9922000Y-11936476D02*
X10045810Y-11936476D01*
X9979143Y-12012667D01*
X10007714Y-12012667D01*
X10026762Y-12022190D01*
X10036286Y-12031714D01*
X10045810Y-12050762D01*
X10045810Y-12098381D01*
X10036286Y-12117428D01*
X10026762Y-12126952D01*
X10007714Y-12136476D01*
X9950571Y-12136476D01*
X9931524Y-12126952D01*
X9922000Y-12117428D01*
X10169619Y-11936476D02*
X10188667Y-11936476D01*
X10207714Y-11946000D01*
X10217238Y-11955524D01*
X10226762Y-11974571D01*
X10236286Y-12012667D01*
X10236286Y-12060286D01*
X10226762Y-12098381D01*
X10217238Y-12117428D01*
X10207714Y-12126952D01*
X10188667Y-12136476D01*
X10169619Y-12136476D01*
X10150571Y-12126952D01*
X10141048Y-12117428D01*
X10131524Y-12098381D01*
X10122000Y-12060286D01*
X10122000Y-12012667D01*
X10131524Y-11974571D01*
X10141048Y-11955524D01*
X10150571Y-11946000D01*
X10169619Y-11936476D01*
X10312476Y-11936476D02*
X10312476Y-11974571D01*
X10388667Y-11936476D02*
X10388667Y-11974571D01*
X10683905Y-12212667D02*
X10674381Y-12203143D01*
X10655333Y-12174571D01*
X10645810Y-12155524D01*
X10636286Y-12126952D01*
X10626762Y-12079333D01*
X10626762Y-12041238D01*
X10636286Y-11993619D01*
X10645810Y-11965048D01*
X10655333Y-11946000D01*
X10674381Y-11917428D01*
X10683905Y-11907905D01*
X10864857Y-12136476D02*
X10750571Y-12136476D01*
X10807714Y-12136476D02*
X10807714Y-11936476D01*
X10788667Y-11965048D01*
X10769619Y-11984095D01*
X10750571Y-11993619D01*
X11102952Y-12136476D02*
X11102952Y-11936476D01*
X11188667Y-12136476D02*
X11188667Y-12031714D01*
X11179143Y-12012667D01*
X11160095Y-12003143D01*
X11131524Y-12003143D01*
X11112476Y-12012667D01*
X11102952Y-12022190D01*
X11312476Y-12136476D02*
X11293428Y-12126952D01*
X11283905Y-12117428D01*
X11274381Y-12098381D01*
X11274381Y-12041238D01*
X11283905Y-12022190D01*
X11293428Y-12012667D01*
X11312476Y-12003143D01*
X11341048Y-12003143D01*
X11360095Y-12012667D01*
X11369619Y-12022190D01*
X11379143Y-12041238D01*
X11379143Y-12098381D01*
X11369619Y-12117428D01*
X11360095Y-12126952D01*
X11341048Y-12136476D01*
X11312476Y-12136476D01*
X11493428Y-12136476D02*
X11474381Y-12126952D01*
X11464857Y-12107905D01*
X11464857Y-11936476D01*
X11645809Y-12126952D02*
X11626762Y-12136476D01*
X11588667Y-12136476D01*
X11569619Y-12126952D01*
X11560095Y-12107905D01*
X11560095Y-12031714D01*
X11569619Y-12012667D01*
X11588667Y-12003143D01*
X11626762Y-12003143D01*
X11645809Y-12012667D01*
X11655333Y-12031714D01*
X11655333Y-12050762D01*
X11560095Y-12069809D01*
X11722000Y-12212667D02*
X11731524Y-12203143D01*
X11750571Y-12174571D01*
X11760095Y-12155524D01*
X11769619Y-12126952D01*
X11779143Y-12079333D01*
X11779143Y-12041238D01*
X11769619Y-11993619D01*
X11760095Y-11965048D01*
X11750571Y-11946000D01*
X11731524Y-11917428D01*
X11722000Y-11907905D01*
X12083905Y-12212667D02*
X12074381Y-12203143D01*
X12055333Y-12174571D01*
X12045809Y-12155524D01*
X12036286Y-12126952D01*
X12026762Y-12079333D01*
X12026762Y-12041238D01*
X12036286Y-11993619D01*
X12045809Y-11965048D01*
X12055333Y-11946000D01*
X12074381Y-11917428D01*
X12083905Y-11907905D01*
X12160095Y-12003143D02*
X12160095Y-12136476D01*
X12160095Y-12022190D02*
X12169619Y-12012667D01*
X12188667Y-12003143D01*
X12217238Y-12003143D01*
X12236286Y-12012667D01*
X12245809Y-12031714D01*
X12245809Y-12136476D01*
X12369619Y-12136476D02*
X12350571Y-12126952D01*
X12341048Y-12117428D01*
X12331524Y-12098381D01*
X12331524Y-12041238D01*
X12341048Y-12022190D01*
X12350571Y-12012667D01*
X12369619Y-12003143D01*
X12398190Y-12003143D01*
X12417238Y-12012667D01*
X12426762Y-12022190D01*
X12436286Y-12041238D01*
X12436286Y-12098381D01*
X12426762Y-12117428D01*
X12417238Y-12126952D01*
X12398190Y-12136476D01*
X12369619Y-12136476D01*
X12493428Y-12003143D02*
X12569619Y-12003143D01*
X12522000Y-11936476D02*
X12522000Y-12107905D01*
X12531524Y-12126952D01*
X12550571Y-12136476D01*
X12569619Y-12136476D01*
X12788667Y-12003143D02*
X12788667Y-12203143D01*
X12788667Y-12012667D02*
X12807714Y-12003143D01*
X12845809Y-12003143D01*
X12864857Y-12012667D01*
X12874381Y-12022190D01*
X12883905Y-12041238D01*
X12883905Y-12098381D01*
X12874381Y-12117428D01*
X12864857Y-12126952D01*
X12845809Y-12136476D01*
X12807714Y-12136476D01*
X12788667Y-12126952D01*
X12998190Y-12136476D02*
X12979143Y-12126952D01*
X12969619Y-12107905D01*
X12969619Y-11936476D01*
X13160095Y-12136476D02*
X13160095Y-12031714D01*
X13150571Y-12012667D01*
X13131524Y-12003143D01*
X13093428Y-12003143D01*
X13074381Y-12012667D01*
X13160095Y-12126952D02*
X13141048Y-12136476D01*
X13093428Y-12136476D01*
X13074381Y-12126952D01*
X13064857Y-12107905D01*
X13064857Y-12088857D01*
X13074381Y-12069809D01*
X13093428Y-12060286D01*
X13141048Y-12060286D01*
X13160095Y-12050762D01*
X13226762Y-12003143D02*
X13302952Y-12003143D01*
X13255333Y-11936476D02*
X13255333Y-12107905D01*
X13264857Y-12126952D01*
X13283905Y-12136476D01*
X13302952Y-12136476D01*
X13445809Y-12126952D02*
X13426762Y-12136476D01*
X13388667Y-12136476D01*
X13369619Y-12126952D01*
X13360095Y-12107905D01*
X13360095Y-12031714D01*
X13369619Y-12012667D01*
X13388667Y-12003143D01*
X13426762Y-12003143D01*
X13445809Y-12012667D01*
X13455333Y-12031714D01*
X13455333Y-12050762D01*
X13360095Y-12069809D01*
X13626762Y-12136476D02*
X13626762Y-11936476D01*
X13626762Y-12126952D02*
X13607714Y-12136476D01*
X13569619Y-12136476D01*
X13550571Y-12126952D01*
X13541048Y-12117428D01*
X13531524Y-12098381D01*
X13531524Y-12041238D01*
X13541048Y-12022190D01*
X13550571Y-12012667D01*
X13569619Y-12003143D01*
X13607714Y-12003143D01*
X13626762Y-12012667D01*
X13702952Y-12212667D02*
X13712476Y-12203143D01*
X13731524Y-12174571D01*
X13741048Y-12155524D01*
X13750571Y-12126952D01*
X13760095Y-12079333D01*
X13760095Y-12041238D01*
X13750571Y-11993619D01*
X13741048Y-11965048D01*
X13731524Y-11946000D01*
X13712476Y-11917428D01*
X13702952Y-11907905D01*
M02*
