%TF.GenerationSoftware,KiCad,Pcbnew,6.0.2+dfsg-1*%
%TF.CreationDate,2023-04-29T01:12:18-04:00*%
%TF.ProjectId,BFUSB_HUB,42465553-425f-4485-9542-2e6b69636164,rev?*%
%TF.SameCoordinates,Original*%
%TF.FileFunction,AssemblyDrawing,Top*%
%FSLAX46Y46*%
G04 Gerber Fmt 4.6, Leading zero omitted, Abs format (unit mm)*
G04 Created by KiCad (PCBNEW 6.0.2+dfsg-1) date 2023-04-29 01:12:18*
%MOMM*%
%LPD*%
G01*
G04 APERTURE LIST*
%TA.AperFunction,Profile*%
%ADD10C,0.100000*%
%TD*%
%ADD11C,0.150000*%
%ADD12C,0.100000*%
%ADD13C,0.010000*%
G04 APERTURE END LIST*
D10*
X71170000Y-15400000D02*
X225860000Y-15400000D01*
X225860000Y-15400000D02*
X225860000Y-111370000D01*
X225860000Y-111370000D02*
X71170000Y-111370000D01*
X71170000Y-111370000D02*
X71170000Y-15400000D01*
X224595691Y-18325000D02*
G75*
G03*
X224595691Y-18325000I-1520691J0D01*
G01*
X224648975Y-108425000D02*
G75*
G03*
X224648975Y-108425000I-1523975J0D01*
G01*
X75676843Y-108350000D02*
G75*
G03*
X75676843Y-108350000I-1526843J0D01*
G01*
X75620691Y-18275000D02*
G75*
G03*
X75620691Y-18275000I-1520691J0D01*
G01*
D11*
%TO.C,J17*%
X100256428Y-112927380D02*
X100256428Y-113736904D01*
X100304047Y-113832142D01*
X100351666Y-113879761D01*
X100446904Y-113927380D01*
X100637380Y-113927380D01*
X100732618Y-113879761D01*
X100780237Y-113832142D01*
X100827857Y-113736904D01*
X100827857Y-112927380D01*
X101256428Y-113879761D02*
X101399285Y-113927380D01*
X101637380Y-113927380D01*
X101732618Y-113879761D01*
X101780237Y-113832142D01*
X101827857Y-113736904D01*
X101827857Y-113641666D01*
X101780237Y-113546428D01*
X101732618Y-113498809D01*
X101637380Y-113451190D01*
X101446904Y-113403571D01*
X101351666Y-113355952D01*
X101304047Y-113308333D01*
X101256428Y-113213095D01*
X101256428Y-113117857D01*
X101304047Y-113022619D01*
X101351666Y-112975000D01*
X101446904Y-112927380D01*
X101684999Y-112927380D01*
X101827857Y-112975000D01*
X102589761Y-113403571D02*
X102732618Y-113451190D01*
X102780237Y-113498809D01*
X102827857Y-113594047D01*
X102827857Y-113736904D01*
X102780237Y-113832142D01*
X102732618Y-113879761D01*
X102637380Y-113927380D01*
X102256428Y-113927380D01*
X102256428Y-112927380D01*
X102589761Y-112927380D01*
X102684999Y-112975000D01*
X102732618Y-113022619D01*
X102780237Y-113117857D01*
X102780237Y-113213095D01*
X102732618Y-113308333D01*
X102684999Y-113355952D01*
X102589761Y-113403571D01*
X102256428Y-113403571D01*
X103018333Y-114022619D02*
X103780237Y-114022619D01*
X103970714Y-113641666D02*
X104446904Y-113641666D01*
X103875476Y-113927380D02*
X104208809Y-112927380D01*
X104542142Y-113927380D01*
X101518333Y-104427380D02*
X101518333Y-105141666D01*
X101470714Y-105284523D01*
X101375476Y-105379761D01*
X101232618Y-105427380D01*
X101137380Y-105427380D01*
X102518333Y-105427380D02*
X101946904Y-105427380D01*
X102232618Y-105427380D02*
X102232618Y-104427380D01*
X102137380Y-104570238D01*
X102042142Y-104665476D01*
X101946904Y-104713095D01*
X102851666Y-104427380D02*
X103518333Y-104427380D01*
X103089761Y-105427380D01*
%TO.C,C3*%
X146257142Y-43690476D02*
X146304761Y-43738095D01*
X146352380Y-43880952D01*
X146352380Y-43976190D01*
X146304761Y-44119047D01*
X146209523Y-44214285D01*
X146114285Y-44261904D01*
X145923809Y-44309523D01*
X145780952Y-44309523D01*
X145590476Y-44261904D01*
X145495238Y-44214285D01*
X145400000Y-44119047D01*
X145352380Y-43976190D01*
X145352380Y-43880952D01*
X145400000Y-43738095D01*
X145447619Y-43690476D01*
X152507142Y-44166666D02*
X152554761Y-44214285D01*
X152602380Y-44357142D01*
X152602380Y-44452380D01*
X152554761Y-44595238D01*
X152459523Y-44690476D01*
X152364285Y-44738095D01*
X152173809Y-44785714D01*
X152030952Y-44785714D01*
X151840476Y-44738095D01*
X151745238Y-44690476D01*
X151650000Y-44595238D01*
X151602380Y-44452380D01*
X151602380Y-44357142D01*
X151650000Y-44214285D01*
X151697619Y-44166666D01*
X151602380Y-43833333D02*
X151602380Y-43214285D01*
X151983333Y-43547619D01*
X151983333Y-43404761D01*
X152030952Y-43309523D01*
X152078571Y-43261904D01*
X152173809Y-43214285D01*
X152411904Y-43214285D01*
X152507142Y-43261904D01*
X152554761Y-43309523D01*
X152602380Y-43404761D01*
X152602380Y-43690476D01*
X152554761Y-43785714D01*
X152507142Y-43833333D01*
%TO.C,C2*%
X152959523Y-49007142D02*
X152911904Y-49054761D01*
X152769047Y-49102380D01*
X152673809Y-49102380D01*
X152530952Y-49054761D01*
X152435714Y-48959523D01*
X152388095Y-48864285D01*
X152340476Y-48673809D01*
X152340476Y-48530952D01*
X152388095Y-48340476D01*
X152435714Y-48245238D01*
X152530952Y-48150000D01*
X152673809Y-48102380D01*
X152769047Y-48102380D01*
X152911904Y-48150000D01*
X152959523Y-48197619D01*
X152483333Y-55257142D02*
X152435714Y-55304761D01*
X152292857Y-55352380D01*
X152197619Y-55352380D01*
X152054761Y-55304761D01*
X151959523Y-55209523D01*
X151911904Y-55114285D01*
X151864285Y-54923809D01*
X151864285Y-54780952D01*
X151911904Y-54590476D01*
X151959523Y-54495238D01*
X152054761Y-54400000D01*
X152197619Y-54352380D01*
X152292857Y-54352380D01*
X152435714Y-54400000D01*
X152483333Y-54447619D01*
X152864285Y-54447619D02*
X152911904Y-54400000D01*
X153007142Y-54352380D01*
X153245238Y-54352380D01*
X153340476Y-54400000D01*
X153388095Y-54447619D01*
X153435714Y-54542857D01*
X153435714Y-54638095D01*
X153388095Y-54780952D01*
X152816666Y-55352380D01*
X153435714Y-55352380D01*
%TO.C,C31*%
X78559523Y-84757142D02*
X78511904Y-84804761D01*
X78369047Y-84852380D01*
X78273809Y-84852380D01*
X78130952Y-84804761D01*
X78035714Y-84709523D01*
X77988095Y-84614285D01*
X77940476Y-84423809D01*
X77940476Y-84280952D01*
X77988095Y-84090476D01*
X78035714Y-83995238D01*
X78130952Y-83900000D01*
X78273809Y-83852380D01*
X78369047Y-83852380D01*
X78511904Y-83900000D01*
X78559523Y-83947619D01*
X77607142Y-91007142D02*
X77559523Y-91054761D01*
X77416666Y-91102380D01*
X77321428Y-91102380D01*
X77178571Y-91054761D01*
X77083333Y-90959523D01*
X77035714Y-90864285D01*
X76988095Y-90673809D01*
X76988095Y-90530952D01*
X77035714Y-90340476D01*
X77083333Y-90245238D01*
X77178571Y-90150000D01*
X77321428Y-90102380D01*
X77416666Y-90102380D01*
X77559523Y-90150000D01*
X77607142Y-90197619D01*
X77940476Y-90102380D02*
X78559523Y-90102380D01*
X78226190Y-90483333D01*
X78369047Y-90483333D01*
X78464285Y-90530952D01*
X78511904Y-90578571D01*
X78559523Y-90673809D01*
X78559523Y-90911904D01*
X78511904Y-91007142D01*
X78464285Y-91054761D01*
X78369047Y-91102380D01*
X78083333Y-91102380D01*
X77988095Y-91054761D01*
X77940476Y-91007142D01*
X79511904Y-91102380D02*
X78940476Y-91102380D01*
X79226190Y-91102380D02*
X79226190Y-90102380D01*
X79130952Y-90245238D01*
X79035714Y-90340476D01*
X78940476Y-90388095D01*
%TO.C,Y5*%
X90782142Y-77220714D02*
X90829761Y-77268333D01*
X90877380Y-77411190D01*
X90877380Y-77506428D01*
X90829761Y-77649285D01*
X90734523Y-77744523D01*
X90639285Y-77792142D01*
X90448809Y-77839761D01*
X90305952Y-77839761D01*
X90115476Y-77792142D01*
X90020238Y-77744523D01*
X89925000Y-77649285D01*
X89877380Y-77506428D01*
X89877380Y-77411190D01*
X89925000Y-77268333D01*
X89972619Y-77220714D01*
X90877380Y-76792142D02*
X90210714Y-76792142D01*
X90401190Y-76792142D02*
X90305952Y-76744523D01*
X90258333Y-76696904D01*
X90210714Y-76601666D01*
X90210714Y-76506428D01*
X90210714Y-76268333D02*
X90877380Y-76030238D01*
X90210714Y-75792142D02*
X90877380Y-76030238D01*
X91115476Y-76125476D01*
X91163095Y-76173095D01*
X91210714Y-76268333D01*
X90829761Y-75458809D02*
X90877380Y-75363571D01*
X90877380Y-75173095D01*
X90829761Y-75077857D01*
X90734523Y-75030238D01*
X90686904Y-75030238D01*
X90591666Y-75077857D01*
X90544047Y-75173095D01*
X90544047Y-75315952D01*
X90496428Y-75411190D01*
X90401190Y-75458809D01*
X90353571Y-75458809D01*
X90258333Y-75411190D01*
X90210714Y-75315952D01*
X90210714Y-75173095D01*
X90258333Y-75077857D01*
X90210714Y-74744523D02*
X90210714Y-74363571D01*
X89877380Y-74601666D02*
X90734523Y-74601666D01*
X90829761Y-74554047D01*
X90877380Y-74458809D01*
X90877380Y-74363571D01*
X90877380Y-73601666D02*
X90353571Y-73601666D01*
X90258333Y-73649285D01*
X90210714Y-73744523D01*
X90210714Y-73935000D01*
X90258333Y-74030238D01*
X90829761Y-73601666D02*
X90877380Y-73696904D01*
X90877380Y-73935000D01*
X90829761Y-74030238D01*
X90734523Y-74077857D01*
X90639285Y-74077857D01*
X90544047Y-74030238D01*
X90496428Y-73935000D01*
X90496428Y-73696904D01*
X90448809Y-73601666D01*
X90877380Y-72982619D02*
X90829761Y-73077857D01*
X90734523Y-73125476D01*
X89877380Y-73125476D01*
X86876190Y-75911190D02*
X87352380Y-75911190D01*
X86352380Y-76244523D02*
X86876190Y-75911190D01*
X86352380Y-75577857D01*
X86352380Y-74768333D02*
X86352380Y-75244523D01*
X86828571Y-75292142D01*
X86780952Y-75244523D01*
X86733333Y-75149285D01*
X86733333Y-74911190D01*
X86780952Y-74815952D01*
X86828571Y-74768333D01*
X86923809Y-74720714D01*
X87161904Y-74720714D01*
X87257142Y-74768333D01*
X87304761Y-74815952D01*
X87352380Y-74911190D01*
X87352380Y-75149285D01*
X87304761Y-75244523D01*
X87257142Y-75292142D01*
%TO.C,C28*%
X132759523Y-84757142D02*
X132711904Y-84804761D01*
X132569047Y-84852380D01*
X132473809Y-84852380D01*
X132330952Y-84804761D01*
X132235714Y-84709523D01*
X132188095Y-84614285D01*
X132140476Y-84423809D01*
X132140476Y-84280952D01*
X132188095Y-84090476D01*
X132235714Y-83995238D01*
X132330952Y-83900000D01*
X132473809Y-83852380D01*
X132569047Y-83852380D01*
X132711904Y-83900000D01*
X132759523Y-83947619D01*
X131807142Y-91007142D02*
X131759523Y-91054761D01*
X131616666Y-91102380D01*
X131521428Y-91102380D01*
X131378571Y-91054761D01*
X131283333Y-90959523D01*
X131235714Y-90864285D01*
X131188095Y-90673809D01*
X131188095Y-90530952D01*
X131235714Y-90340476D01*
X131283333Y-90245238D01*
X131378571Y-90150000D01*
X131521428Y-90102380D01*
X131616666Y-90102380D01*
X131759523Y-90150000D01*
X131807142Y-90197619D01*
X132188095Y-90197619D02*
X132235714Y-90150000D01*
X132330952Y-90102380D01*
X132569047Y-90102380D01*
X132664285Y-90150000D01*
X132711904Y-90197619D01*
X132759523Y-90292857D01*
X132759523Y-90388095D01*
X132711904Y-90530952D01*
X132140476Y-91102380D01*
X132759523Y-91102380D01*
X133330952Y-90530952D02*
X133235714Y-90483333D01*
X133188095Y-90435714D01*
X133140476Y-90340476D01*
X133140476Y-90292857D01*
X133188095Y-90197619D01*
X133235714Y-90150000D01*
X133330952Y-90102380D01*
X133521428Y-90102380D01*
X133616666Y-90150000D01*
X133664285Y-90197619D01*
X133711904Y-90292857D01*
X133711904Y-90340476D01*
X133664285Y-90435714D01*
X133616666Y-90483333D01*
X133521428Y-90530952D01*
X133330952Y-90530952D01*
X133235714Y-90578571D01*
X133188095Y-90626190D01*
X133140476Y-90721428D01*
X133140476Y-90911904D01*
X133188095Y-91007142D01*
X133235714Y-91054761D01*
X133330952Y-91102380D01*
X133521428Y-91102380D01*
X133616666Y-91054761D01*
X133664285Y-91007142D01*
X133711904Y-90911904D01*
X133711904Y-90721428D01*
X133664285Y-90626190D01*
X133616666Y-90578571D01*
X133521428Y-90530952D01*
%TO.C,D3*%
X214712380Y-67697857D02*
X214712380Y-68174047D01*
X213712380Y-68174047D01*
X214188571Y-67364523D02*
X214188571Y-67031190D01*
X214712380Y-66888333D02*
X214712380Y-67364523D01*
X213712380Y-67364523D01*
X213712380Y-66888333D01*
X214712380Y-66459761D02*
X213712380Y-66459761D01*
X213712380Y-66221666D01*
X213760000Y-66078809D01*
X213855238Y-65983571D01*
X213950476Y-65935952D01*
X214140952Y-65888333D01*
X214283809Y-65888333D01*
X214474285Y-65935952D01*
X214569523Y-65983571D01*
X214664761Y-66078809D01*
X214712380Y-66221666D01*
X214712380Y-66459761D01*
%TO.C,J10*%
X209328571Y-12727380D02*
X209328571Y-13536904D01*
X209376190Y-13632142D01*
X209423809Y-13679761D01*
X209519047Y-13727380D01*
X209709523Y-13727380D01*
X209804761Y-13679761D01*
X209852380Y-13632142D01*
X209900000Y-13536904D01*
X209900000Y-12727380D01*
X210328571Y-13679761D02*
X210471428Y-13727380D01*
X210709523Y-13727380D01*
X210804761Y-13679761D01*
X210852380Y-13632142D01*
X210900000Y-13536904D01*
X210900000Y-13441666D01*
X210852380Y-13346428D01*
X210804761Y-13298809D01*
X210709523Y-13251190D01*
X210519047Y-13203571D01*
X210423809Y-13155952D01*
X210376190Y-13108333D01*
X210328571Y-13013095D01*
X210328571Y-12917857D01*
X210376190Y-12822619D01*
X210423809Y-12775000D01*
X210519047Y-12727380D01*
X210757142Y-12727380D01*
X210900000Y-12775000D01*
X211661904Y-13203571D02*
X211804761Y-13251190D01*
X211852380Y-13298809D01*
X211900000Y-13394047D01*
X211900000Y-13536904D01*
X211852380Y-13632142D01*
X211804761Y-13679761D01*
X211709523Y-13727380D01*
X211328571Y-13727380D01*
X211328571Y-12727380D01*
X211661904Y-12727380D01*
X211757142Y-12775000D01*
X211804761Y-12822619D01*
X211852380Y-12917857D01*
X211852380Y-13013095D01*
X211804761Y-13108333D01*
X211757142Y-13155952D01*
X211661904Y-13203571D01*
X211328571Y-13203571D01*
X212090476Y-13822619D02*
X212852380Y-13822619D01*
X213042857Y-13441666D02*
X213519047Y-13441666D01*
X212947619Y-13727380D02*
X213280952Y-12727380D01*
X213614285Y-13727380D01*
X210590476Y-21227380D02*
X210590476Y-21941666D01*
X210542857Y-22084523D01*
X210447619Y-22179761D01*
X210304761Y-22227380D01*
X210209523Y-22227380D01*
X211590476Y-22227380D02*
X211019047Y-22227380D01*
X211304761Y-22227380D02*
X211304761Y-21227380D01*
X211209523Y-21370238D01*
X211114285Y-21465476D01*
X211019047Y-21513095D01*
X212209523Y-21227380D02*
X212304761Y-21227380D01*
X212400000Y-21275000D01*
X212447619Y-21322619D01*
X212495238Y-21417857D01*
X212542857Y-21608333D01*
X212542857Y-21846428D01*
X212495238Y-22036904D01*
X212447619Y-22132142D01*
X212400000Y-22179761D01*
X212304761Y-22227380D01*
X212209523Y-22227380D01*
X212114285Y-22179761D01*
X212066666Y-22132142D01*
X212019047Y-22036904D01*
X211971428Y-21846428D01*
X211971428Y-21608333D01*
X212019047Y-21417857D01*
X212066666Y-21322619D01*
X212114285Y-21275000D01*
X212209523Y-21227380D01*
%TO.C,C17*%
X108463094Y-42732142D02*
X108415475Y-42779761D01*
X108272618Y-42827380D01*
X108177380Y-42827380D01*
X108034523Y-42779761D01*
X107939285Y-42684523D01*
X107891666Y-42589285D01*
X107844047Y-42398809D01*
X107844047Y-42255952D01*
X107891666Y-42065476D01*
X107939285Y-41970238D01*
X108034523Y-41875000D01*
X108177380Y-41827380D01*
X108272618Y-41827380D01*
X108415475Y-41875000D01*
X108463094Y-41922619D01*
X107510713Y-36482142D02*
X107463094Y-36529761D01*
X107320237Y-36577380D01*
X107224999Y-36577380D01*
X107082142Y-36529761D01*
X106986904Y-36434523D01*
X106939285Y-36339285D01*
X106891666Y-36148809D01*
X106891666Y-36005952D01*
X106939285Y-35815476D01*
X106986904Y-35720238D01*
X107082142Y-35625000D01*
X107224999Y-35577380D01*
X107320237Y-35577380D01*
X107463094Y-35625000D01*
X107510713Y-35672619D01*
X108463094Y-36577380D02*
X107891666Y-36577380D01*
X108177380Y-36577380D02*
X108177380Y-35577380D01*
X108082142Y-35720238D01*
X107986904Y-35815476D01*
X107891666Y-35863095D01*
X108796428Y-35577380D02*
X109463094Y-35577380D01*
X109034523Y-36577380D01*
%TO.C,U3*%
X188864476Y-52729761D02*
X189007333Y-52777380D01*
X189245428Y-52777380D01*
X189340666Y-52729761D01*
X189388285Y-52682142D01*
X189435904Y-52586904D01*
X189435904Y-52491666D01*
X189388285Y-52396428D01*
X189340666Y-52348809D01*
X189245428Y-52301190D01*
X189054952Y-52253571D01*
X188959714Y-52205952D01*
X188912095Y-52158333D01*
X188864476Y-52063095D01*
X188864476Y-51967857D01*
X188912095Y-51872619D01*
X188959714Y-51825000D01*
X189054952Y-51777380D01*
X189293047Y-51777380D01*
X189435904Y-51825000D01*
X190340666Y-52777380D02*
X189864476Y-52777380D01*
X189864476Y-51777380D01*
X190626380Y-51872619D02*
X190674000Y-51825000D01*
X190769238Y-51777380D01*
X191007333Y-51777380D01*
X191102571Y-51825000D01*
X191150190Y-51872619D01*
X191197809Y-51967857D01*
X191197809Y-52063095D01*
X191150190Y-52205952D01*
X190578761Y-52777380D01*
X191197809Y-52777380D01*
X191626380Y-52682142D02*
X191674000Y-52729761D01*
X191626380Y-52777380D01*
X191578761Y-52729761D01*
X191626380Y-52682142D01*
X191626380Y-52777380D01*
X192626380Y-52777380D02*
X192054952Y-52777380D01*
X192340666Y-52777380D02*
X192340666Y-51777380D01*
X192245428Y-51920238D01*
X192150190Y-52015476D01*
X192054952Y-52063095D01*
X193007333Y-52491666D02*
X193483523Y-52491666D01*
X192912095Y-52777380D02*
X193245428Y-51777380D01*
X193578761Y-52777380D01*
%TO.C,Y2*%
X126007142Y-53125714D02*
X126054761Y-53173333D01*
X126102380Y-53316190D01*
X126102380Y-53411428D01*
X126054761Y-53554285D01*
X125959523Y-53649523D01*
X125864285Y-53697142D01*
X125673809Y-53744761D01*
X125530952Y-53744761D01*
X125340476Y-53697142D01*
X125245238Y-53649523D01*
X125150000Y-53554285D01*
X125102380Y-53411428D01*
X125102380Y-53316190D01*
X125150000Y-53173333D01*
X125197619Y-53125714D01*
X126102380Y-52697142D02*
X125435714Y-52697142D01*
X125626190Y-52697142D02*
X125530952Y-52649523D01*
X125483333Y-52601904D01*
X125435714Y-52506666D01*
X125435714Y-52411428D01*
X125435714Y-52173333D02*
X126102380Y-51935238D01*
X125435714Y-51697142D02*
X126102380Y-51935238D01*
X126340476Y-52030476D01*
X126388095Y-52078095D01*
X126435714Y-52173333D01*
X126054761Y-51363809D02*
X126102380Y-51268571D01*
X126102380Y-51078095D01*
X126054761Y-50982857D01*
X125959523Y-50935238D01*
X125911904Y-50935238D01*
X125816666Y-50982857D01*
X125769047Y-51078095D01*
X125769047Y-51220952D01*
X125721428Y-51316190D01*
X125626190Y-51363809D01*
X125578571Y-51363809D01*
X125483333Y-51316190D01*
X125435714Y-51220952D01*
X125435714Y-51078095D01*
X125483333Y-50982857D01*
X125435714Y-50649523D02*
X125435714Y-50268571D01*
X125102380Y-50506666D02*
X125959523Y-50506666D01*
X126054761Y-50459047D01*
X126102380Y-50363809D01*
X126102380Y-50268571D01*
X126102380Y-49506666D02*
X125578571Y-49506666D01*
X125483333Y-49554285D01*
X125435714Y-49649523D01*
X125435714Y-49840000D01*
X125483333Y-49935238D01*
X126054761Y-49506666D02*
X126102380Y-49601904D01*
X126102380Y-49840000D01*
X126054761Y-49935238D01*
X125959523Y-49982857D01*
X125864285Y-49982857D01*
X125769047Y-49935238D01*
X125721428Y-49840000D01*
X125721428Y-49601904D01*
X125673809Y-49506666D01*
X126102380Y-48887619D02*
X126054761Y-48982857D01*
X125959523Y-49030476D01*
X125102380Y-49030476D01*
X129151190Y-51816190D02*
X129627380Y-51816190D01*
X128627380Y-52149523D02*
X129151190Y-51816190D01*
X128627380Y-51482857D01*
X128722619Y-51197142D02*
X128675000Y-51149523D01*
X128627380Y-51054285D01*
X128627380Y-50816190D01*
X128675000Y-50720952D01*
X128722619Y-50673333D01*
X128817857Y-50625714D01*
X128913095Y-50625714D01*
X129055952Y-50673333D01*
X129627380Y-51244761D01*
X129627380Y-50625714D01*
%TO.C,U5*%
X92866476Y-75354761D02*
X93009333Y-75402380D01*
X93247428Y-75402380D01*
X93342666Y-75354761D01*
X93390285Y-75307142D01*
X93437904Y-75211904D01*
X93437904Y-75116666D01*
X93390285Y-75021428D01*
X93342666Y-74973809D01*
X93247428Y-74926190D01*
X93056952Y-74878571D01*
X92961714Y-74830952D01*
X92914095Y-74783333D01*
X92866476Y-74688095D01*
X92866476Y-74592857D01*
X92914095Y-74497619D01*
X92961714Y-74450000D01*
X93056952Y-74402380D01*
X93295047Y-74402380D01*
X93437904Y-74450000D01*
X94342666Y-75402380D02*
X93866476Y-75402380D01*
X93866476Y-74402380D01*
X94628380Y-74497619D02*
X94676000Y-74450000D01*
X94771238Y-74402380D01*
X95009333Y-74402380D01*
X95104571Y-74450000D01*
X95152190Y-74497619D01*
X95199809Y-74592857D01*
X95199809Y-74688095D01*
X95152190Y-74830952D01*
X94580761Y-75402380D01*
X95199809Y-75402380D01*
X95628380Y-75307142D02*
X95676000Y-75354761D01*
X95628380Y-75402380D01*
X95580761Y-75354761D01*
X95628380Y-75307142D01*
X95628380Y-75402380D01*
X96628380Y-75402380D02*
X96056952Y-75402380D01*
X96342666Y-75402380D02*
X96342666Y-74402380D01*
X96247428Y-74545238D01*
X96152190Y-74640476D01*
X96056952Y-74688095D01*
X97009333Y-75116666D02*
X97485523Y-75116666D01*
X96914095Y-75402380D02*
X97247428Y-74402380D01*
X97580761Y-75402380D01*
%TO.C,R1*%
X208397380Y-71165476D02*
X207921190Y-71498809D01*
X208397380Y-71736904D02*
X207397380Y-71736904D01*
X207397380Y-71355952D01*
X207445000Y-71260714D01*
X207492619Y-71213095D01*
X207587857Y-71165476D01*
X207730714Y-71165476D01*
X207825952Y-71213095D01*
X207873571Y-71260714D01*
X207921190Y-71355952D01*
X207921190Y-71736904D01*
X204557380Y-71641666D02*
X204081190Y-71975000D01*
X204557380Y-72213095D02*
X203557380Y-72213095D01*
X203557380Y-71832142D01*
X203605000Y-71736904D01*
X203652619Y-71689285D01*
X203747857Y-71641666D01*
X203890714Y-71641666D01*
X203985952Y-71689285D01*
X204033571Y-71736904D01*
X204081190Y-71832142D01*
X204081190Y-72213095D01*
X204557380Y-70689285D02*
X204557380Y-71260714D01*
X204557380Y-70975000D02*
X203557380Y-70975000D01*
X203700238Y-71070238D01*
X203795476Y-71165476D01*
X203843095Y-71260714D01*
%TO.C,U2*%
X118664476Y-52179761D02*
X118807333Y-52227380D01*
X119045428Y-52227380D01*
X119140666Y-52179761D01*
X119188285Y-52132142D01*
X119235904Y-52036904D01*
X119235904Y-51941666D01*
X119188285Y-51846428D01*
X119140666Y-51798809D01*
X119045428Y-51751190D01*
X118854952Y-51703571D01*
X118759714Y-51655952D01*
X118712095Y-51608333D01*
X118664476Y-51513095D01*
X118664476Y-51417857D01*
X118712095Y-51322619D01*
X118759714Y-51275000D01*
X118854952Y-51227380D01*
X119093047Y-51227380D01*
X119235904Y-51275000D01*
X120140666Y-52227380D02*
X119664476Y-52227380D01*
X119664476Y-51227380D01*
X120426380Y-51322619D02*
X120474000Y-51275000D01*
X120569238Y-51227380D01*
X120807333Y-51227380D01*
X120902571Y-51275000D01*
X120950190Y-51322619D01*
X120997809Y-51417857D01*
X120997809Y-51513095D01*
X120950190Y-51655952D01*
X120378761Y-52227380D01*
X120997809Y-52227380D01*
X121426380Y-52132142D02*
X121474000Y-52179761D01*
X121426380Y-52227380D01*
X121378761Y-52179761D01*
X121426380Y-52132142D01*
X121426380Y-52227380D01*
X122426380Y-52227380D02*
X121854952Y-52227380D01*
X122140666Y-52227380D02*
X122140666Y-51227380D01*
X122045428Y-51370238D01*
X121950190Y-51465476D01*
X121854952Y-51513095D01*
X122807333Y-51941666D02*
X123283523Y-51941666D01*
X122712095Y-52227380D02*
X123045428Y-51227380D01*
X123378761Y-52227380D01*
%TO.C,C7*%
X171582142Y-74015476D02*
X171629761Y-74063095D01*
X171677380Y-74205952D01*
X171677380Y-74301190D01*
X171629761Y-74444047D01*
X171534523Y-74539285D01*
X171439285Y-74586904D01*
X171248809Y-74634523D01*
X171105952Y-74634523D01*
X170915476Y-74586904D01*
X170820238Y-74539285D01*
X170725000Y-74444047D01*
X170677380Y-74301190D01*
X170677380Y-74205952D01*
X170725000Y-74063095D01*
X170772619Y-74015476D01*
X177832142Y-74491666D02*
X177879761Y-74539285D01*
X177927380Y-74682142D01*
X177927380Y-74777380D01*
X177879761Y-74920238D01*
X177784523Y-75015476D01*
X177689285Y-75063095D01*
X177498809Y-75110714D01*
X177355952Y-75110714D01*
X177165476Y-75063095D01*
X177070238Y-75015476D01*
X176975000Y-74920238D01*
X176927380Y-74777380D01*
X176927380Y-74682142D01*
X176975000Y-74539285D01*
X177022619Y-74491666D01*
X176927380Y-74158333D02*
X176927380Y-73491666D01*
X177927380Y-73920238D01*
%TO.C,C19*%
X144870236Y-42732142D02*
X144822617Y-42779761D01*
X144679760Y-42827380D01*
X144584522Y-42827380D01*
X144441665Y-42779761D01*
X144346427Y-42684523D01*
X144298808Y-42589285D01*
X144251189Y-42398809D01*
X144251189Y-42255952D01*
X144298808Y-42065476D01*
X144346427Y-41970238D01*
X144441665Y-41875000D01*
X144584522Y-41827380D01*
X144679760Y-41827380D01*
X144822617Y-41875000D01*
X144870236Y-41922619D01*
X143917855Y-36482142D02*
X143870236Y-36529761D01*
X143727379Y-36577380D01*
X143632141Y-36577380D01*
X143489284Y-36529761D01*
X143394046Y-36434523D01*
X143346427Y-36339285D01*
X143298808Y-36148809D01*
X143298808Y-36005952D01*
X143346427Y-35815476D01*
X143394046Y-35720238D01*
X143489284Y-35625000D01*
X143632141Y-35577380D01*
X143727379Y-35577380D01*
X143870236Y-35625000D01*
X143917855Y-35672619D01*
X144870236Y-36577380D02*
X144298808Y-36577380D01*
X144584522Y-36577380D02*
X144584522Y-35577380D01*
X144489284Y-35720238D01*
X144394046Y-35815476D01*
X144298808Y-35863095D01*
X145346427Y-36577380D02*
X145536903Y-36577380D01*
X145632141Y-36529761D01*
X145679760Y-36482142D01*
X145774998Y-36339285D01*
X145822617Y-36148809D01*
X145822617Y-35767857D01*
X145774998Y-35672619D01*
X145727379Y-35625000D01*
X145632141Y-35577380D01*
X145441665Y-35577380D01*
X145346427Y-35625000D01*
X145298808Y-35672619D01*
X145251189Y-35767857D01*
X145251189Y-36005952D01*
X145298808Y-36101190D01*
X145346427Y-36148809D01*
X145441665Y-36196428D01*
X145632141Y-36196428D01*
X145727379Y-36148809D01*
X145774998Y-36101190D01*
X145822617Y-36005952D01*
%TO.C,J1*%
X226132380Y-99195476D02*
X226941904Y-99195476D01*
X227037142Y-99147857D01*
X227084761Y-99100238D01*
X227132380Y-99005000D01*
X227132380Y-98814523D01*
X227084761Y-98719285D01*
X227037142Y-98671666D01*
X226941904Y-98624047D01*
X226132380Y-98624047D01*
X227084761Y-98195476D02*
X227132380Y-98052619D01*
X227132380Y-97814523D01*
X227084761Y-97719285D01*
X227037142Y-97671666D01*
X226941904Y-97624047D01*
X226846666Y-97624047D01*
X226751428Y-97671666D01*
X226703809Y-97719285D01*
X226656190Y-97814523D01*
X226608571Y-98005000D01*
X226560952Y-98100238D01*
X226513333Y-98147857D01*
X226418095Y-98195476D01*
X226322857Y-98195476D01*
X226227619Y-98147857D01*
X226180000Y-98100238D01*
X226132380Y-98005000D01*
X226132380Y-97766904D01*
X226180000Y-97624047D01*
X226608571Y-96862142D02*
X226656190Y-96719285D01*
X226703809Y-96671666D01*
X226799047Y-96624047D01*
X226941904Y-96624047D01*
X227037142Y-96671666D01*
X227084761Y-96719285D01*
X227132380Y-96814523D01*
X227132380Y-97195476D01*
X226132380Y-97195476D01*
X226132380Y-96862142D01*
X226180000Y-96766904D01*
X226227619Y-96719285D01*
X226322857Y-96671666D01*
X226418095Y-96671666D01*
X226513333Y-96719285D01*
X226560952Y-96766904D01*
X226608571Y-96862142D01*
X226608571Y-97195476D01*
X227227619Y-96433571D02*
X227227619Y-95671666D01*
X227037142Y-94862142D02*
X227084761Y-94909761D01*
X227132380Y-95052619D01*
X227132380Y-95147857D01*
X227084761Y-95290714D01*
X226989523Y-95385952D01*
X226894285Y-95433571D01*
X226703809Y-95481190D01*
X226560952Y-95481190D01*
X226370476Y-95433571D01*
X226275238Y-95385952D01*
X226180000Y-95290714D01*
X226132380Y-95147857D01*
X226132380Y-95052619D01*
X226180000Y-94909761D01*
X226227619Y-94862142D01*
X227227619Y-94671666D02*
X227227619Y-93909761D01*
X227132380Y-93100238D02*
X226656190Y-93433571D01*
X227132380Y-93671666D02*
X226132380Y-93671666D01*
X226132380Y-93290714D01*
X226180000Y-93195476D01*
X226227619Y-93147857D01*
X226322857Y-93100238D01*
X226465714Y-93100238D01*
X226560952Y-93147857D01*
X226608571Y-93195476D01*
X226656190Y-93290714D01*
X226656190Y-93671666D01*
X227084761Y-92290714D02*
X227132380Y-92385952D01*
X227132380Y-92576428D01*
X227084761Y-92671666D01*
X226989523Y-92719285D01*
X226608571Y-92719285D01*
X226513333Y-92671666D01*
X226465714Y-92576428D01*
X226465714Y-92385952D01*
X226513333Y-92290714D01*
X226608571Y-92243095D01*
X226703809Y-92243095D01*
X226799047Y-92719285D01*
X227084761Y-91385952D02*
X227132380Y-91481190D01*
X227132380Y-91671666D01*
X227084761Y-91766904D01*
X227037142Y-91814523D01*
X226941904Y-91862142D01*
X226656190Y-91862142D01*
X226560952Y-91814523D01*
X226513333Y-91766904D01*
X226465714Y-91671666D01*
X226465714Y-91481190D01*
X226513333Y-91385952D01*
X227084761Y-90576428D02*
X227132380Y-90671666D01*
X227132380Y-90862142D01*
X227084761Y-90957380D01*
X226989523Y-91005000D01*
X226608571Y-91005000D01*
X226513333Y-90957380D01*
X226465714Y-90862142D01*
X226465714Y-90671666D01*
X226513333Y-90576428D01*
X226608571Y-90528809D01*
X226703809Y-90528809D01*
X226799047Y-91005000D01*
X226465714Y-90100238D02*
X227465714Y-90100238D01*
X226513333Y-90100238D02*
X226465714Y-90005000D01*
X226465714Y-89814523D01*
X226513333Y-89719285D01*
X226560952Y-89671666D01*
X226656190Y-89624047D01*
X226941904Y-89624047D01*
X227037142Y-89671666D01*
X227084761Y-89719285D01*
X227132380Y-89814523D01*
X227132380Y-90005000D01*
X227084761Y-90100238D01*
X226465714Y-89338333D02*
X226465714Y-88957380D01*
X226132380Y-89195476D02*
X226989523Y-89195476D01*
X227084761Y-89147857D01*
X227132380Y-89052619D01*
X227132380Y-88957380D01*
X227132380Y-88195476D02*
X226608571Y-88195476D01*
X226513333Y-88243095D01*
X226465714Y-88338333D01*
X226465714Y-88528809D01*
X226513333Y-88624047D01*
X227084761Y-88195476D02*
X227132380Y-88290714D01*
X227132380Y-88528809D01*
X227084761Y-88624047D01*
X226989523Y-88671666D01*
X226894285Y-88671666D01*
X226799047Y-88624047D01*
X226751428Y-88528809D01*
X226751428Y-88290714D01*
X226703809Y-88195476D01*
X227084761Y-87290714D02*
X227132380Y-87385952D01*
X227132380Y-87576428D01*
X227084761Y-87671666D01*
X227037142Y-87719285D01*
X226941904Y-87766904D01*
X226656190Y-87766904D01*
X226560952Y-87719285D01*
X226513333Y-87671666D01*
X226465714Y-87576428D01*
X226465714Y-87385952D01*
X226513333Y-87290714D01*
X227132380Y-86719285D02*
X227084761Y-86814523D01*
X226989523Y-86862142D01*
X226132380Y-86862142D01*
X227084761Y-85957380D02*
X227132380Y-86052619D01*
X227132380Y-86243095D01*
X227084761Y-86338333D01*
X226989523Y-86385952D01*
X226608571Y-86385952D01*
X226513333Y-86338333D01*
X226465714Y-86243095D01*
X226465714Y-86052619D01*
X226513333Y-85957380D01*
X226608571Y-85909761D01*
X226703809Y-85909761D01*
X226799047Y-86385952D01*
X227227619Y-85719285D02*
X227227619Y-84957380D01*
X226132380Y-84719285D02*
X226941904Y-84719285D01*
X227037142Y-84671666D01*
X227084761Y-84624047D01*
X227132380Y-84528809D01*
X227132380Y-84338333D01*
X227084761Y-84243095D01*
X227037142Y-84195476D01*
X226941904Y-84147857D01*
X226132380Y-84147857D01*
X227084761Y-83719285D02*
X227132380Y-83576428D01*
X227132380Y-83338333D01*
X227084761Y-83243095D01*
X227037142Y-83195476D01*
X226941904Y-83147857D01*
X226846666Y-83147857D01*
X226751428Y-83195476D01*
X226703809Y-83243095D01*
X226656190Y-83338333D01*
X226608571Y-83528809D01*
X226560952Y-83624047D01*
X226513333Y-83671666D01*
X226418095Y-83719285D01*
X226322857Y-83719285D01*
X226227619Y-83671666D01*
X226180000Y-83624047D01*
X226132380Y-83528809D01*
X226132380Y-83290714D01*
X226180000Y-83147857D01*
X226608571Y-82385952D02*
X226656190Y-82243095D01*
X226703809Y-82195476D01*
X226799047Y-82147857D01*
X226941904Y-82147857D01*
X227037142Y-82195476D01*
X227084761Y-82243095D01*
X227132380Y-82338333D01*
X227132380Y-82719285D01*
X226132380Y-82719285D01*
X226132380Y-82385952D01*
X226180000Y-82290714D01*
X226227619Y-82243095D01*
X226322857Y-82195476D01*
X226418095Y-82195476D01*
X226513333Y-82243095D01*
X226560952Y-82290714D01*
X226608571Y-82385952D01*
X226608571Y-82719285D01*
X226227619Y-81766904D02*
X226180000Y-81719285D01*
X226132380Y-81624047D01*
X226132380Y-81385952D01*
X226180000Y-81290714D01*
X226227619Y-81243095D01*
X226322857Y-81195476D01*
X226418095Y-81195476D01*
X226560952Y-81243095D01*
X227132380Y-81814523D01*
X227132380Y-81195476D01*
X227037142Y-80766904D02*
X227084761Y-80719285D01*
X227132380Y-80766904D01*
X227084761Y-80814523D01*
X227037142Y-80766904D01*
X227132380Y-80766904D01*
X226132380Y-80100238D02*
X226132380Y-80005000D01*
X226180000Y-79909761D01*
X226227619Y-79862142D01*
X226322857Y-79814523D01*
X226513333Y-79766904D01*
X226751428Y-79766904D01*
X226941904Y-79814523D01*
X227037142Y-79862142D01*
X227084761Y-79909761D01*
X227132380Y-80005000D01*
X227132380Y-80100238D01*
X227084761Y-80195476D01*
X227037142Y-80243095D01*
X226941904Y-80290714D01*
X226751428Y-80338333D01*
X226513333Y-80338333D01*
X226322857Y-80290714D01*
X226227619Y-80243095D01*
X226180000Y-80195476D01*
X226132380Y-80100238D01*
X221032380Y-89838333D02*
X221746666Y-89838333D01*
X221889523Y-89885952D01*
X221984761Y-89981190D01*
X222032380Y-90124047D01*
X222032380Y-90219285D01*
X222032380Y-88838333D02*
X222032380Y-89409761D01*
X222032380Y-89124047D02*
X221032380Y-89124047D01*
X221175238Y-89219285D01*
X221270476Y-89314523D01*
X221318095Y-89409761D01*
%TO.C,C25*%
X186934523Y-84782142D02*
X186886904Y-84829761D01*
X186744047Y-84877380D01*
X186648809Y-84877380D01*
X186505952Y-84829761D01*
X186410714Y-84734523D01*
X186363095Y-84639285D01*
X186315476Y-84448809D01*
X186315476Y-84305952D01*
X186363095Y-84115476D01*
X186410714Y-84020238D01*
X186505952Y-83925000D01*
X186648809Y-83877380D01*
X186744047Y-83877380D01*
X186886904Y-83925000D01*
X186934523Y-83972619D01*
X185982142Y-91032142D02*
X185934523Y-91079761D01*
X185791666Y-91127380D01*
X185696428Y-91127380D01*
X185553571Y-91079761D01*
X185458333Y-90984523D01*
X185410714Y-90889285D01*
X185363095Y-90698809D01*
X185363095Y-90555952D01*
X185410714Y-90365476D01*
X185458333Y-90270238D01*
X185553571Y-90175000D01*
X185696428Y-90127380D01*
X185791666Y-90127380D01*
X185934523Y-90175000D01*
X185982142Y-90222619D01*
X186363095Y-90222619D02*
X186410714Y-90175000D01*
X186505952Y-90127380D01*
X186744047Y-90127380D01*
X186839285Y-90175000D01*
X186886904Y-90222619D01*
X186934523Y-90317857D01*
X186934523Y-90413095D01*
X186886904Y-90555952D01*
X186315476Y-91127380D01*
X186934523Y-91127380D01*
X187839285Y-90127380D02*
X187363095Y-90127380D01*
X187315476Y-90603571D01*
X187363095Y-90555952D01*
X187458333Y-90508333D01*
X187696428Y-90508333D01*
X187791666Y-90555952D01*
X187839285Y-90603571D01*
X187886904Y-90698809D01*
X187886904Y-90936904D01*
X187839285Y-91032142D01*
X187791666Y-91079761D01*
X187696428Y-91127380D01*
X187458333Y-91127380D01*
X187363095Y-91079761D01*
X187315476Y-91032142D01*
%TO.C,Y3*%
X196207142Y-53870714D02*
X196254761Y-53918333D01*
X196302380Y-54061190D01*
X196302380Y-54156428D01*
X196254761Y-54299285D01*
X196159523Y-54394523D01*
X196064285Y-54442142D01*
X195873809Y-54489761D01*
X195730952Y-54489761D01*
X195540476Y-54442142D01*
X195445238Y-54394523D01*
X195350000Y-54299285D01*
X195302380Y-54156428D01*
X195302380Y-54061190D01*
X195350000Y-53918333D01*
X195397619Y-53870714D01*
X196302380Y-53442142D02*
X195635714Y-53442142D01*
X195826190Y-53442142D02*
X195730952Y-53394523D01*
X195683333Y-53346904D01*
X195635714Y-53251666D01*
X195635714Y-53156428D01*
X195635714Y-52918333D02*
X196302380Y-52680238D01*
X195635714Y-52442142D02*
X196302380Y-52680238D01*
X196540476Y-52775476D01*
X196588095Y-52823095D01*
X196635714Y-52918333D01*
X196254761Y-52108809D02*
X196302380Y-52013571D01*
X196302380Y-51823095D01*
X196254761Y-51727857D01*
X196159523Y-51680238D01*
X196111904Y-51680238D01*
X196016666Y-51727857D01*
X195969047Y-51823095D01*
X195969047Y-51965952D01*
X195921428Y-52061190D01*
X195826190Y-52108809D01*
X195778571Y-52108809D01*
X195683333Y-52061190D01*
X195635714Y-51965952D01*
X195635714Y-51823095D01*
X195683333Y-51727857D01*
X195635714Y-51394523D02*
X195635714Y-51013571D01*
X195302380Y-51251666D02*
X196159523Y-51251666D01*
X196254761Y-51204047D01*
X196302380Y-51108809D01*
X196302380Y-51013571D01*
X196302380Y-50251666D02*
X195778571Y-50251666D01*
X195683333Y-50299285D01*
X195635714Y-50394523D01*
X195635714Y-50585000D01*
X195683333Y-50680238D01*
X196254761Y-50251666D02*
X196302380Y-50346904D01*
X196302380Y-50585000D01*
X196254761Y-50680238D01*
X196159523Y-50727857D01*
X196064285Y-50727857D01*
X195969047Y-50680238D01*
X195921428Y-50585000D01*
X195921428Y-50346904D01*
X195873809Y-50251666D01*
X196302380Y-49632619D02*
X196254761Y-49727857D01*
X196159523Y-49775476D01*
X195302380Y-49775476D01*
X199351190Y-52561190D02*
X199827380Y-52561190D01*
X198827380Y-52894523D02*
X199351190Y-52561190D01*
X198827380Y-52227857D01*
X198827380Y-51989761D02*
X198827380Y-51370714D01*
X199208333Y-51704047D01*
X199208333Y-51561190D01*
X199255952Y-51465952D01*
X199303571Y-51418333D01*
X199398809Y-51370714D01*
X199636904Y-51370714D01*
X199732142Y-51418333D01*
X199779761Y-51465952D01*
X199827380Y-51561190D01*
X199827380Y-51846904D01*
X199779761Y-51942142D01*
X199732142Y-51989761D01*
%TO.C,U4*%
X162984276Y-75213761D02*
X163127133Y-75261380D01*
X163365228Y-75261380D01*
X163460466Y-75213761D01*
X163508085Y-75166142D01*
X163555704Y-75070904D01*
X163555704Y-74975666D01*
X163508085Y-74880428D01*
X163460466Y-74832809D01*
X163365228Y-74785190D01*
X163174752Y-74737571D01*
X163079514Y-74689952D01*
X163031895Y-74642333D01*
X162984276Y-74547095D01*
X162984276Y-74451857D01*
X163031895Y-74356619D01*
X163079514Y-74309000D01*
X163174752Y-74261380D01*
X163412847Y-74261380D01*
X163555704Y-74309000D01*
X164460466Y-75261380D02*
X163984276Y-75261380D01*
X163984276Y-74261380D01*
X164746180Y-74356619D02*
X164793800Y-74309000D01*
X164889038Y-74261380D01*
X165127133Y-74261380D01*
X165222371Y-74309000D01*
X165269990Y-74356619D01*
X165317609Y-74451857D01*
X165317609Y-74547095D01*
X165269990Y-74689952D01*
X164698561Y-75261380D01*
X165317609Y-75261380D01*
X165746180Y-75166142D02*
X165793800Y-75213761D01*
X165746180Y-75261380D01*
X165698561Y-75213761D01*
X165746180Y-75166142D01*
X165746180Y-75261380D01*
X166746180Y-75261380D02*
X166174752Y-75261380D01*
X166460466Y-75261380D02*
X166460466Y-74261380D01*
X166365228Y-74404238D01*
X166269990Y-74499476D01*
X166174752Y-74547095D01*
X167127133Y-74975666D02*
X167603323Y-74975666D01*
X167031895Y-75261380D02*
X167365228Y-74261380D01*
X167698561Y-75261380D01*
%TO.C,J3*%
X81903571Y-12727380D02*
X81903571Y-13536904D01*
X81951190Y-13632142D01*
X81998809Y-13679761D01*
X82094047Y-13727380D01*
X82284523Y-13727380D01*
X82379761Y-13679761D01*
X82427380Y-13632142D01*
X82475000Y-13536904D01*
X82475000Y-12727380D01*
X82903571Y-13679761D02*
X83046428Y-13727380D01*
X83284523Y-13727380D01*
X83379761Y-13679761D01*
X83427380Y-13632142D01*
X83475000Y-13536904D01*
X83475000Y-13441666D01*
X83427380Y-13346428D01*
X83379761Y-13298809D01*
X83284523Y-13251190D01*
X83094047Y-13203571D01*
X82998809Y-13155952D01*
X82951190Y-13108333D01*
X82903571Y-13013095D01*
X82903571Y-12917857D01*
X82951190Y-12822619D01*
X82998809Y-12775000D01*
X83094047Y-12727380D01*
X83332142Y-12727380D01*
X83475000Y-12775000D01*
X84236904Y-13203571D02*
X84379761Y-13251190D01*
X84427380Y-13298809D01*
X84475000Y-13394047D01*
X84475000Y-13536904D01*
X84427380Y-13632142D01*
X84379761Y-13679761D01*
X84284523Y-13727380D01*
X83903571Y-13727380D01*
X83903571Y-12727380D01*
X84236904Y-12727380D01*
X84332142Y-12775000D01*
X84379761Y-12822619D01*
X84427380Y-12917857D01*
X84427380Y-13013095D01*
X84379761Y-13108333D01*
X84332142Y-13155952D01*
X84236904Y-13203571D01*
X83903571Y-13203571D01*
X84665476Y-13822619D02*
X85427380Y-13822619D01*
X85617857Y-13441666D02*
X86094047Y-13441666D01*
X85522619Y-13727380D02*
X85855952Y-12727380D01*
X86189285Y-13727380D01*
X83641666Y-21227380D02*
X83641666Y-21941666D01*
X83594047Y-22084523D01*
X83498809Y-22179761D01*
X83355952Y-22227380D01*
X83260714Y-22227380D01*
X84022619Y-21227380D02*
X84641666Y-21227380D01*
X84308333Y-21608333D01*
X84451190Y-21608333D01*
X84546428Y-21655952D01*
X84594047Y-21703571D01*
X84641666Y-21798809D01*
X84641666Y-22036904D01*
X84594047Y-22132142D01*
X84546428Y-22179761D01*
X84451190Y-22227380D01*
X84165476Y-22227380D01*
X84070238Y-22179761D01*
X84022619Y-22132142D01*
%TO.C,Y4*%
X161132142Y-77970714D02*
X161179761Y-78018333D01*
X161227380Y-78161190D01*
X161227380Y-78256428D01*
X161179761Y-78399285D01*
X161084523Y-78494523D01*
X160989285Y-78542142D01*
X160798809Y-78589761D01*
X160655952Y-78589761D01*
X160465476Y-78542142D01*
X160370238Y-78494523D01*
X160275000Y-78399285D01*
X160227380Y-78256428D01*
X160227380Y-78161190D01*
X160275000Y-78018333D01*
X160322619Y-77970714D01*
X161227380Y-77542142D02*
X160560714Y-77542142D01*
X160751190Y-77542142D02*
X160655952Y-77494523D01*
X160608333Y-77446904D01*
X160560714Y-77351666D01*
X160560714Y-77256428D01*
X160560714Y-77018333D02*
X161227380Y-76780238D01*
X160560714Y-76542142D02*
X161227380Y-76780238D01*
X161465476Y-76875476D01*
X161513095Y-76923095D01*
X161560714Y-77018333D01*
X161179761Y-76208809D02*
X161227380Y-76113571D01*
X161227380Y-75923095D01*
X161179761Y-75827857D01*
X161084523Y-75780238D01*
X161036904Y-75780238D01*
X160941666Y-75827857D01*
X160894047Y-75923095D01*
X160894047Y-76065952D01*
X160846428Y-76161190D01*
X160751190Y-76208809D01*
X160703571Y-76208809D01*
X160608333Y-76161190D01*
X160560714Y-76065952D01*
X160560714Y-75923095D01*
X160608333Y-75827857D01*
X160560714Y-75494523D02*
X160560714Y-75113571D01*
X160227380Y-75351666D02*
X161084523Y-75351666D01*
X161179761Y-75304047D01*
X161227380Y-75208809D01*
X161227380Y-75113571D01*
X161227380Y-74351666D02*
X160703571Y-74351666D01*
X160608333Y-74399285D01*
X160560714Y-74494523D01*
X160560714Y-74685000D01*
X160608333Y-74780238D01*
X161179761Y-74351666D02*
X161227380Y-74446904D01*
X161227380Y-74685000D01*
X161179761Y-74780238D01*
X161084523Y-74827857D01*
X160989285Y-74827857D01*
X160894047Y-74780238D01*
X160846428Y-74685000D01*
X160846428Y-74446904D01*
X160798809Y-74351666D01*
X161227380Y-73732619D02*
X161179761Y-73827857D01*
X161084523Y-73875476D01*
X160227380Y-73875476D01*
X157226190Y-76661190D02*
X157702380Y-76661190D01*
X156702380Y-76994523D02*
X157226190Y-76661190D01*
X156702380Y-76327857D01*
X157035714Y-75565952D02*
X157702380Y-75565952D01*
X156654761Y-75804047D02*
X157369047Y-76042142D01*
X157369047Y-75423095D01*
%TO.C,C22*%
X199480949Y-42732142D02*
X199433330Y-42779761D01*
X199290473Y-42827380D01*
X199195235Y-42827380D01*
X199052378Y-42779761D01*
X198957140Y-42684523D01*
X198909521Y-42589285D01*
X198861902Y-42398809D01*
X198861902Y-42255952D01*
X198909521Y-42065476D01*
X198957140Y-41970238D01*
X199052378Y-41875000D01*
X199195235Y-41827380D01*
X199290473Y-41827380D01*
X199433330Y-41875000D01*
X199480949Y-41922619D01*
X198528568Y-36482142D02*
X198480949Y-36529761D01*
X198338092Y-36577380D01*
X198242854Y-36577380D01*
X198099997Y-36529761D01*
X198004759Y-36434523D01*
X197957140Y-36339285D01*
X197909521Y-36148809D01*
X197909521Y-36005952D01*
X197957140Y-35815476D01*
X198004759Y-35720238D01*
X198099997Y-35625000D01*
X198242854Y-35577380D01*
X198338092Y-35577380D01*
X198480949Y-35625000D01*
X198528568Y-35672619D01*
X198909521Y-35672619D02*
X198957140Y-35625000D01*
X199052378Y-35577380D01*
X199290473Y-35577380D01*
X199385711Y-35625000D01*
X199433330Y-35672619D01*
X199480949Y-35767857D01*
X199480949Y-35863095D01*
X199433330Y-36005952D01*
X198861902Y-36577380D01*
X199480949Y-36577380D01*
X199861902Y-35672619D02*
X199909521Y-35625000D01*
X200004759Y-35577380D01*
X200242854Y-35577380D01*
X200338092Y-35625000D01*
X200385711Y-35672619D01*
X200433330Y-35767857D01*
X200433330Y-35863095D01*
X200385711Y-36005952D01*
X199814283Y-36577380D01*
X200433330Y-36577380D01*
%TO.C,C27*%
X150784523Y-84607142D02*
X150736904Y-84654761D01*
X150594047Y-84702380D01*
X150498809Y-84702380D01*
X150355952Y-84654761D01*
X150260714Y-84559523D01*
X150213095Y-84464285D01*
X150165476Y-84273809D01*
X150165476Y-84130952D01*
X150213095Y-83940476D01*
X150260714Y-83845238D01*
X150355952Y-83750000D01*
X150498809Y-83702380D01*
X150594047Y-83702380D01*
X150736904Y-83750000D01*
X150784523Y-83797619D01*
X149832142Y-90857142D02*
X149784523Y-90904761D01*
X149641666Y-90952380D01*
X149546428Y-90952380D01*
X149403571Y-90904761D01*
X149308333Y-90809523D01*
X149260714Y-90714285D01*
X149213095Y-90523809D01*
X149213095Y-90380952D01*
X149260714Y-90190476D01*
X149308333Y-90095238D01*
X149403571Y-90000000D01*
X149546428Y-89952380D01*
X149641666Y-89952380D01*
X149784523Y-90000000D01*
X149832142Y-90047619D01*
X150213095Y-90047619D02*
X150260714Y-90000000D01*
X150355952Y-89952380D01*
X150594047Y-89952380D01*
X150689285Y-90000000D01*
X150736904Y-90047619D01*
X150784523Y-90142857D01*
X150784523Y-90238095D01*
X150736904Y-90380952D01*
X150165476Y-90952380D01*
X150784523Y-90952380D01*
X151117857Y-89952380D02*
X151784523Y-89952380D01*
X151355952Y-90952380D01*
%TO.C,C4*%
X185607142Y-51865476D02*
X185654761Y-51913095D01*
X185702380Y-52055952D01*
X185702380Y-52151190D01*
X185654761Y-52294047D01*
X185559523Y-52389285D01*
X185464285Y-52436904D01*
X185273809Y-52484523D01*
X185130952Y-52484523D01*
X184940476Y-52436904D01*
X184845238Y-52389285D01*
X184750000Y-52294047D01*
X184702380Y-52151190D01*
X184702380Y-52055952D01*
X184750000Y-51913095D01*
X184797619Y-51865476D01*
X179357142Y-52341666D02*
X179404761Y-52389285D01*
X179452380Y-52532142D01*
X179452380Y-52627380D01*
X179404761Y-52770238D01*
X179309523Y-52865476D01*
X179214285Y-52913095D01*
X179023809Y-52960714D01*
X178880952Y-52960714D01*
X178690476Y-52913095D01*
X178595238Y-52865476D01*
X178500000Y-52770238D01*
X178452380Y-52627380D01*
X178452380Y-52532142D01*
X178500000Y-52389285D01*
X178547619Y-52341666D01*
X178785714Y-51484523D02*
X179452380Y-51484523D01*
X178404761Y-51722619D02*
X179119047Y-51960714D01*
X179119047Y-51341666D01*
%TO.C,C8*%
X121882142Y-62540476D02*
X121929761Y-62588095D01*
X121977380Y-62730952D01*
X121977380Y-62826190D01*
X121929761Y-62969047D01*
X121834523Y-63064285D01*
X121739285Y-63111904D01*
X121548809Y-63159523D01*
X121405952Y-63159523D01*
X121215476Y-63111904D01*
X121120238Y-63064285D01*
X121025000Y-62969047D01*
X120977380Y-62826190D01*
X120977380Y-62730952D01*
X121025000Y-62588095D01*
X121072619Y-62540476D01*
X115632142Y-62540476D02*
X115679761Y-62588095D01*
X115727380Y-62730952D01*
X115727380Y-62826190D01*
X115679761Y-62969048D01*
X115584523Y-63064286D01*
X115489285Y-63111905D01*
X115298809Y-63159524D01*
X115155952Y-63159524D01*
X114965476Y-63111905D01*
X114870238Y-63064286D01*
X114775000Y-62969048D01*
X114727380Y-62826190D01*
X114727380Y-62730952D01*
X114775000Y-62588095D01*
X114822619Y-62540476D01*
X115155952Y-61969048D02*
X115108333Y-62064286D01*
X115060714Y-62111905D01*
X114965476Y-62159524D01*
X114917857Y-62159524D01*
X114822619Y-62111905D01*
X114775000Y-62064286D01*
X114727380Y-61969048D01*
X114727380Y-61778571D01*
X114775000Y-61683333D01*
X114822619Y-61635714D01*
X114917857Y-61588095D01*
X114965476Y-61588095D01*
X115060714Y-61635714D01*
X115108333Y-61683333D01*
X115155952Y-61778571D01*
X115155952Y-61969048D01*
X115203571Y-62064286D01*
X115251190Y-62111905D01*
X115346428Y-62159524D01*
X115536904Y-62159524D01*
X115632142Y-62111905D01*
X115679761Y-62064286D01*
X115727380Y-61969048D01*
X115727380Y-61778571D01*
X115679761Y-61683333D01*
X115632142Y-61635714D01*
X115536904Y-61588095D01*
X115346428Y-61588095D01*
X115251190Y-61635714D01*
X115203571Y-61683333D01*
X115155952Y-61778571D01*
%TO.C,C26*%
X168909523Y-84732142D02*
X168861904Y-84779761D01*
X168719047Y-84827380D01*
X168623809Y-84827380D01*
X168480952Y-84779761D01*
X168385714Y-84684523D01*
X168338095Y-84589285D01*
X168290476Y-84398809D01*
X168290476Y-84255952D01*
X168338095Y-84065476D01*
X168385714Y-83970238D01*
X168480952Y-83875000D01*
X168623809Y-83827380D01*
X168719047Y-83827380D01*
X168861904Y-83875000D01*
X168909523Y-83922619D01*
X167957142Y-90982142D02*
X167909523Y-91029761D01*
X167766666Y-91077380D01*
X167671428Y-91077380D01*
X167528571Y-91029761D01*
X167433333Y-90934523D01*
X167385714Y-90839285D01*
X167338095Y-90648809D01*
X167338095Y-90505952D01*
X167385714Y-90315476D01*
X167433333Y-90220238D01*
X167528571Y-90125000D01*
X167671428Y-90077380D01*
X167766666Y-90077380D01*
X167909523Y-90125000D01*
X167957142Y-90172619D01*
X168338095Y-90172619D02*
X168385714Y-90125000D01*
X168480952Y-90077380D01*
X168719047Y-90077380D01*
X168814285Y-90125000D01*
X168861904Y-90172619D01*
X168909523Y-90267857D01*
X168909523Y-90363095D01*
X168861904Y-90505952D01*
X168290476Y-91077380D01*
X168909523Y-91077380D01*
X169766666Y-90077380D02*
X169576190Y-90077380D01*
X169480952Y-90125000D01*
X169433333Y-90172619D01*
X169338095Y-90315476D01*
X169290476Y-90505952D01*
X169290476Y-90886904D01*
X169338095Y-90982142D01*
X169385714Y-91029761D01*
X169480952Y-91077380D01*
X169671428Y-91077380D01*
X169766666Y-91029761D01*
X169814285Y-90982142D01*
X169861904Y-90886904D01*
X169861904Y-90648809D01*
X169814285Y-90553571D01*
X169766666Y-90505952D01*
X169671428Y-90458333D01*
X169480952Y-90458333D01*
X169385714Y-90505952D01*
X169338095Y-90553571D01*
X169290476Y-90648809D01*
%TO.C,C14*%
X95182142Y-63065476D02*
X95229761Y-63113095D01*
X95277380Y-63255952D01*
X95277380Y-63351190D01*
X95229761Y-63494047D01*
X95134523Y-63589285D01*
X95039285Y-63636904D01*
X94848809Y-63684523D01*
X94705952Y-63684523D01*
X94515476Y-63636904D01*
X94420238Y-63589285D01*
X94325000Y-63494047D01*
X94277380Y-63351190D01*
X94277380Y-63255952D01*
X94325000Y-63113095D01*
X94372619Y-63065476D01*
X101432142Y-64017857D02*
X101479761Y-64065476D01*
X101527380Y-64208333D01*
X101527380Y-64303571D01*
X101479761Y-64446428D01*
X101384523Y-64541666D01*
X101289285Y-64589285D01*
X101098809Y-64636904D01*
X100955952Y-64636904D01*
X100765476Y-64589285D01*
X100670238Y-64541666D01*
X100575000Y-64446428D01*
X100527380Y-64303571D01*
X100527380Y-64208333D01*
X100575000Y-64065476D01*
X100622619Y-64017857D01*
X101527380Y-63065476D02*
X101527380Y-63636904D01*
X101527380Y-63351190D02*
X100527380Y-63351190D01*
X100670238Y-63446428D01*
X100765476Y-63541666D01*
X100813095Y-63636904D01*
X100860714Y-62208333D02*
X101527380Y-62208333D01*
X100479761Y-62446428D02*
X101194047Y-62684523D01*
X101194047Y-62065476D01*
%TO.C,C11*%
X202782142Y-63565476D02*
X202829761Y-63613095D01*
X202877380Y-63755952D01*
X202877380Y-63851190D01*
X202829761Y-63994047D01*
X202734523Y-64089285D01*
X202639285Y-64136904D01*
X202448809Y-64184523D01*
X202305952Y-64184523D01*
X202115476Y-64136904D01*
X202020238Y-64089285D01*
X201925000Y-63994047D01*
X201877380Y-63851190D01*
X201877380Y-63755952D01*
X201925000Y-63613095D01*
X201972619Y-63565476D01*
X196532142Y-64517857D02*
X196579761Y-64565476D01*
X196627380Y-64708333D01*
X196627380Y-64803571D01*
X196579761Y-64946428D01*
X196484523Y-65041666D01*
X196389285Y-65089285D01*
X196198809Y-65136904D01*
X196055952Y-65136904D01*
X195865476Y-65089285D01*
X195770238Y-65041666D01*
X195675000Y-64946428D01*
X195627380Y-64803571D01*
X195627380Y-64708333D01*
X195675000Y-64565476D01*
X195722619Y-64517857D01*
X196627380Y-63565476D02*
X196627380Y-64136904D01*
X196627380Y-63851190D02*
X195627380Y-63851190D01*
X195770238Y-63946428D01*
X195865476Y-64041666D01*
X195913095Y-64136904D01*
X196627380Y-62613095D02*
X196627380Y-63184523D01*
X196627380Y-62898809D02*
X195627380Y-62898809D01*
X195770238Y-62994047D01*
X195865476Y-63089285D01*
X195913095Y-63184523D01*
%TO.C,C10*%
X192107142Y-63565476D02*
X192154761Y-63613095D01*
X192202380Y-63755952D01*
X192202380Y-63851190D01*
X192154761Y-63994047D01*
X192059523Y-64089285D01*
X191964285Y-64136904D01*
X191773809Y-64184523D01*
X191630952Y-64184523D01*
X191440476Y-64136904D01*
X191345238Y-64089285D01*
X191250000Y-63994047D01*
X191202380Y-63851190D01*
X191202380Y-63755952D01*
X191250000Y-63613095D01*
X191297619Y-63565476D01*
X185857142Y-64517857D02*
X185904761Y-64565476D01*
X185952380Y-64708333D01*
X185952380Y-64803571D01*
X185904761Y-64946428D01*
X185809523Y-65041666D01*
X185714285Y-65089285D01*
X185523809Y-65136904D01*
X185380952Y-65136904D01*
X185190476Y-65089285D01*
X185095238Y-65041666D01*
X185000000Y-64946428D01*
X184952380Y-64803571D01*
X184952380Y-64708333D01*
X185000000Y-64565476D01*
X185047619Y-64517857D01*
X185952380Y-63565476D02*
X185952380Y-64136904D01*
X185952380Y-63851190D02*
X184952380Y-63851190D01*
X185095238Y-63946428D01*
X185190476Y-64041666D01*
X185238095Y-64136904D01*
X184952380Y-62946428D02*
X184952380Y-62851190D01*
X185000000Y-62755952D01*
X185047619Y-62708333D01*
X185142857Y-62660714D01*
X185333333Y-62613095D01*
X185571428Y-62613095D01*
X185761904Y-62660714D01*
X185857142Y-62708333D01*
X185904761Y-62755952D01*
X185952380Y-62851190D01*
X185952380Y-62946428D01*
X185904761Y-63041666D01*
X185857142Y-63089285D01*
X185761904Y-63136904D01*
X185571428Y-63184523D01*
X185333333Y-63184523D01*
X185142857Y-63136904D01*
X185047619Y-63089285D01*
X185000000Y-63041666D01*
X184952380Y-62946428D01*
%TO.C,C9*%
X132657142Y-62590476D02*
X132704761Y-62638095D01*
X132752380Y-62780952D01*
X132752380Y-62876190D01*
X132704761Y-63019047D01*
X132609523Y-63114285D01*
X132514285Y-63161904D01*
X132323809Y-63209523D01*
X132180952Y-63209523D01*
X131990476Y-63161904D01*
X131895238Y-63114285D01*
X131800000Y-63019047D01*
X131752380Y-62876190D01*
X131752380Y-62780952D01*
X131800000Y-62638095D01*
X131847619Y-62590476D01*
X126407142Y-62565476D02*
X126454761Y-62613095D01*
X126502380Y-62755952D01*
X126502380Y-62851190D01*
X126454761Y-62994048D01*
X126359523Y-63089286D01*
X126264285Y-63136905D01*
X126073809Y-63184524D01*
X125930952Y-63184524D01*
X125740476Y-63136905D01*
X125645238Y-63089286D01*
X125550000Y-62994048D01*
X125502380Y-62851190D01*
X125502380Y-62755952D01*
X125550000Y-62613095D01*
X125597619Y-62565476D01*
X126502380Y-62089286D02*
X126502380Y-61898810D01*
X126454761Y-61803571D01*
X126407142Y-61755952D01*
X126264285Y-61660714D01*
X126073809Y-61613095D01*
X125692857Y-61613095D01*
X125597619Y-61660714D01*
X125550000Y-61708333D01*
X125502380Y-61803571D01*
X125502380Y-61994048D01*
X125550000Y-62089286D01*
X125597619Y-62136905D01*
X125692857Y-62184524D01*
X125930952Y-62184524D01*
X126026190Y-62136905D01*
X126073809Y-62089286D01*
X126121428Y-61994048D01*
X126121428Y-61803571D01*
X126073809Y-61708333D01*
X126026190Y-61660714D01*
X125930952Y-61613095D01*
%TO.C,D2*%
X208212380Y-67672857D02*
X208212380Y-68149047D01*
X207212380Y-68149047D01*
X207688571Y-67339523D02*
X207688571Y-67006190D01*
X208212380Y-66863333D02*
X208212380Y-67339523D01*
X207212380Y-67339523D01*
X207212380Y-66863333D01*
X208212380Y-66434761D02*
X207212380Y-66434761D01*
X207212380Y-66196666D01*
X207260000Y-66053809D01*
X207355238Y-65958571D01*
X207450476Y-65910952D01*
X207640952Y-65863333D01*
X207783809Y-65863333D01*
X207974285Y-65910952D01*
X208069523Y-65958571D01*
X208164761Y-66053809D01*
X208212380Y-66196666D01*
X208212380Y-66434761D01*
%TO.C,J11*%
X208573571Y-112927380D02*
X208573571Y-113736904D01*
X208621190Y-113832142D01*
X208668809Y-113879761D01*
X208764047Y-113927380D01*
X208954523Y-113927380D01*
X209049761Y-113879761D01*
X209097380Y-113832142D01*
X209145000Y-113736904D01*
X209145000Y-112927380D01*
X209573571Y-113879761D02*
X209716428Y-113927380D01*
X209954523Y-113927380D01*
X210049761Y-113879761D01*
X210097380Y-113832142D01*
X210145000Y-113736904D01*
X210145000Y-113641666D01*
X210097380Y-113546428D01*
X210049761Y-113498809D01*
X209954523Y-113451190D01*
X209764047Y-113403571D01*
X209668809Y-113355952D01*
X209621190Y-113308333D01*
X209573571Y-113213095D01*
X209573571Y-113117857D01*
X209621190Y-113022619D01*
X209668809Y-112975000D01*
X209764047Y-112927380D01*
X210002142Y-112927380D01*
X210145000Y-112975000D01*
X210906904Y-113403571D02*
X211049761Y-113451190D01*
X211097380Y-113498809D01*
X211145000Y-113594047D01*
X211145000Y-113736904D01*
X211097380Y-113832142D01*
X211049761Y-113879761D01*
X210954523Y-113927380D01*
X210573571Y-113927380D01*
X210573571Y-112927380D01*
X210906904Y-112927380D01*
X211002142Y-112975000D01*
X211049761Y-113022619D01*
X211097380Y-113117857D01*
X211097380Y-113213095D01*
X211049761Y-113308333D01*
X211002142Y-113355952D01*
X210906904Y-113403571D01*
X210573571Y-113403571D01*
X211335476Y-114022619D02*
X212097380Y-114022619D01*
X212287857Y-113641666D02*
X212764047Y-113641666D01*
X212192619Y-113927380D02*
X212525952Y-112927380D01*
X212859285Y-113927380D01*
X209835476Y-104427380D02*
X209835476Y-105141666D01*
X209787857Y-105284523D01*
X209692619Y-105379761D01*
X209549761Y-105427380D01*
X209454523Y-105427380D01*
X210835476Y-105427380D02*
X210264047Y-105427380D01*
X210549761Y-105427380D02*
X210549761Y-104427380D01*
X210454523Y-104570238D01*
X210359285Y-104665476D01*
X210264047Y-104713095D01*
X211787857Y-105427380D02*
X211216428Y-105427380D01*
X211502142Y-105427380D02*
X211502142Y-104427380D01*
X211406904Y-104570238D01*
X211311666Y-104665476D01*
X211216428Y-104713095D01*
%TO.C,C16*%
X90259523Y-42732142D02*
X90211904Y-42779761D01*
X90069047Y-42827380D01*
X89973809Y-42827380D01*
X89830952Y-42779761D01*
X89735714Y-42684523D01*
X89688095Y-42589285D01*
X89640476Y-42398809D01*
X89640476Y-42255952D01*
X89688095Y-42065476D01*
X89735714Y-41970238D01*
X89830952Y-41875000D01*
X89973809Y-41827380D01*
X90069047Y-41827380D01*
X90211904Y-41875000D01*
X90259523Y-41922619D01*
X89307142Y-36482142D02*
X89259523Y-36529761D01*
X89116666Y-36577380D01*
X89021428Y-36577380D01*
X88878571Y-36529761D01*
X88783333Y-36434523D01*
X88735714Y-36339285D01*
X88688095Y-36148809D01*
X88688095Y-36005952D01*
X88735714Y-35815476D01*
X88783333Y-35720238D01*
X88878571Y-35625000D01*
X89021428Y-35577380D01*
X89116666Y-35577380D01*
X89259523Y-35625000D01*
X89307142Y-35672619D01*
X90259523Y-36577380D02*
X89688095Y-36577380D01*
X89973809Y-36577380D02*
X89973809Y-35577380D01*
X89878571Y-35720238D01*
X89783333Y-35815476D01*
X89688095Y-35863095D01*
X91116666Y-35577380D02*
X90926190Y-35577380D01*
X90830952Y-35625000D01*
X90783333Y-35672619D01*
X90688095Y-35815476D01*
X90640476Y-36005952D01*
X90640476Y-36386904D01*
X90688095Y-36482142D01*
X90735714Y-36529761D01*
X90830952Y-36577380D01*
X91021428Y-36577380D01*
X91116666Y-36529761D01*
X91164285Y-36482142D01*
X91211904Y-36386904D01*
X91211904Y-36148809D01*
X91164285Y-36053571D01*
X91116666Y-36005952D01*
X91021428Y-35958333D01*
X90830952Y-35958333D01*
X90735714Y-36005952D01*
X90688095Y-36053571D01*
X90640476Y-36148809D01*
%TO.C,J8*%
X172921426Y-12727380D02*
X172921426Y-13536904D01*
X172969045Y-13632142D01*
X173016664Y-13679761D01*
X173111902Y-13727380D01*
X173302378Y-13727380D01*
X173397616Y-13679761D01*
X173445235Y-13632142D01*
X173492855Y-13536904D01*
X173492855Y-12727380D01*
X173921426Y-13679761D02*
X174064283Y-13727380D01*
X174302378Y-13727380D01*
X174397616Y-13679761D01*
X174445235Y-13632142D01*
X174492855Y-13536904D01*
X174492855Y-13441666D01*
X174445235Y-13346428D01*
X174397616Y-13298809D01*
X174302378Y-13251190D01*
X174111902Y-13203571D01*
X174016664Y-13155952D01*
X173969045Y-13108333D01*
X173921426Y-13013095D01*
X173921426Y-12917857D01*
X173969045Y-12822619D01*
X174016664Y-12775000D01*
X174111902Y-12727380D01*
X174349997Y-12727380D01*
X174492855Y-12775000D01*
X175254759Y-13203571D02*
X175397616Y-13251190D01*
X175445235Y-13298809D01*
X175492855Y-13394047D01*
X175492855Y-13536904D01*
X175445235Y-13632142D01*
X175397616Y-13679761D01*
X175302378Y-13727380D01*
X174921426Y-13727380D01*
X174921426Y-12727380D01*
X175254759Y-12727380D01*
X175349997Y-12775000D01*
X175397616Y-12822619D01*
X175445235Y-12917857D01*
X175445235Y-13013095D01*
X175397616Y-13108333D01*
X175349997Y-13155952D01*
X175254759Y-13203571D01*
X174921426Y-13203571D01*
X175683331Y-13822619D02*
X176445235Y-13822619D01*
X176635712Y-13441666D02*
X177111902Y-13441666D01*
X176540474Y-13727380D02*
X176873807Y-12727380D01*
X177207140Y-13727380D01*
X174659521Y-21227380D02*
X174659521Y-21941666D01*
X174611902Y-22084523D01*
X174516664Y-22179761D01*
X174373807Y-22227380D01*
X174278569Y-22227380D01*
X175278569Y-21655952D02*
X175183331Y-21608333D01*
X175135712Y-21560714D01*
X175088093Y-21465476D01*
X175088093Y-21417857D01*
X175135712Y-21322619D01*
X175183331Y-21275000D01*
X175278569Y-21227380D01*
X175469045Y-21227380D01*
X175564283Y-21275000D01*
X175611902Y-21322619D01*
X175659521Y-21417857D01*
X175659521Y-21465476D01*
X175611902Y-21560714D01*
X175564283Y-21608333D01*
X175469045Y-21655952D01*
X175278569Y-21655952D01*
X175183331Y-21703571D01*
X175135712Y-21751190D01*
X175088093Y-21846428D01*
X175088093Y-22036904D01*
X175135712Y-22132142D01*
X175183331Y-22179761D01*
X175278569Y-22227380D01*
X175469045Y-22227380D01*
X175564283Y-22179761D01*
X175611902Y-22132142D01*
X175659521Y-22036904D01*
X175659521Y-21846428D01*
X175611902Y-21751190D01*
X175564283Y-21703571D01*
X175469045Y-21655952D01*
%TO.C,C6*%
X102607142Y-74715476D02*
X102654761Y-74763095D01*
X102702380Y-74905952D01*
X102702380Y-75001190D01*
X102654761Y-75144047D01*
X102559523Y-75239285D01*
X102464285Y-75286904D01*
X102273809Y-75334523D01*
X102130952Y-75334523D01*
X101940476Y-75286904D01*
X101845238Y-75239285D01*
X101750000Y-75144047D01*
X101702380Y-75001190D01*
X101702380Y-74905952D01*
X101750000Y-74763095D01*
X101797619Y-74715476D01*
X108857142Y-75191666D02*
X108904761Y-75239285D01*
X108952380Y-75382142D01*
X108952380Y-75477380D01*
X108904761Y-75620238D01*
X108809523Y-75715476D01*
X108714285Y-75763095D01*
X108523809Y-75810714D01*
X108380952Y-75810714D01*
X108190476Y-75763095D01*
X108095238Y-75715476D01*
X108000000Y-75620238D01*
X107952380Y-75477380D01*
X107952380Y-75382142D01*
X108000000Y-75239285D01*
X108047619Y-75191666D01*
X107952380Y-74334523D02*
X107952380Y-74525000D01*
X108000000Y-74620238D01*
X108047619Y-74667857D01*
X108190476Y-74763095D01*
X108380952Y-74810714D01*
X108761904Y-74810714D01*
X108857142Y-74763095D01*
X108904761Y-74715476D01*
X108952380Y-74620238D01*
X108952380Y-74429761D01*
X108904761Y-74334523D01*
X108857142Y-74286904D01*
X108761904Y-74239285D01*
X108523809Y-74239285D01*
X108428571Y-74286904D01*
X108380952Y-74334523D01*
X108333333Y-74429761D01*
X108333333Y-74620238D01*
X108380952Y-74715476D01*
X108428571Y-74763095D01*
X108523809Y-74810714D01*
%TO.C,J18*%
X82203571Y-112927380D02*
X82203571Y-113736904D01*
X82251190Y-113832142D01*
X82298809Y-113879761D01*
X82394047Y-113927380D01*
X82584523Y-113927380D01*
X82679761Y-113879761D01*
X82727380Y-113832142D01*
X82775000Y-113736904D01*
X82775000Y-112927380D01*
X83203571Y-113879761D02*
X83346428Y-113927380D01*
X83584523Y-113927380D01*
X83679761Y-113879761D01*
X83727380Y-113832142D01*
X83775000Y-113736904D01*
X83775000Y-113641666D01*
X83727380Y-113546428D01*
X83679761Y-113498809D01*
X83584523Y-113451190D01*
X83394047Y-113403571D01*
X83298809Y-113355952D01*
X83251190Y-113308333D01*
X83203571Y-113213095D01*
X83203571Y-113117857D01*
X83251190Y-113022619D01*
X83298809Y-112975000D01*
X83394047Y-112927380D01*
X83632142Y-112927380D01*
X83775000Y-112975000D01*
X84536904Y-113403571D02*
X84679761Y-113451190D01*
X84727380Y-113498809D01*
X84775000Y-113594047D01*
X84775000Y-113736904D01*
X84727380Y-113832142D01*
X84679761Y-113879761D01*
X84584523Y-113927380D01*
X84203571Y-113927380D01*
X84203571Y-112927380D01*
X84536904Y-112927380D01*
X84632142Y-112975000D01*
X84679761Y-113022619D01*
X84727380Y-113117857D01*
X84727380Y-113213095D01*
X84679761Y-113308333D01*
X84632142Y-113355952D01*
X84536904Y-113403571D01*
X84203571Y-113403571D01*
X84965476Y-114022619D02*
X85727380Y-114022619D01*
X85917857Y-113641666D02*
X86394047Y-113641666D01*
X85822619Y-113927380D02*
X86155952Y-112927380D01*
X86489285Y-113927380D01*
X83465476Y-104427380D02*
X83465476Y-105141666D01*
X83417857Y-105284523D01*
X83322619Y-105379761D01*
X83179761Y-105427380D01*
X83084523Y-105427380D01*
X84465476Y-105427380D02*
X83894047Y-105427380D01*
X84179761Y-105427380D02*
X84179761Y-104427380D01*
X84084523Y-104570238D01*
X83989285Y-104665476D01*
X83894047Y-104713095D01*
X85036904Y-104855952D02*
X84941666Y-104808333D01*
X84894047Y-104760714D01*
X84846428Y-104665476D01*
X84846428Y-104617857D01*
X84894047Y-104522619D01*
X84941666Y-104475000D01*
X85036904Y-104427380D01*
X85227380Y-104427380D01*
X85322619Y-104475000D01*
X85370238Y-104522619D01*
X85417857Y-104617857D01*
X85417857Y-104665476D01*
X85370238Y-104760714D01*
X85322619Y-104808333D01*
X85227380Y-104855952D01*
X85036904Y-104855952D01*
X84941666Y-104903571D01*
X84894047Y-104951190D01*
X84846428Y-105046428D01*
X84846428Y-105236904D01*
X84894047Y-105332142D01*
X84941666Y-105379761D01*
X85036904Y-105427380D01*
X85227380Y-105427380D01*
X85322619Y-105379761D01*
X85370238Y-105332142D01*
X85417857Y-105236904D01*
X85417857Y-105046428D01*
X85370238Y-104951190D01*
X85322619Y-104903571D01*
X85227380Y-104855952D01*
%TO.C,C1*%
X142582142Y-76815476D02*
X142629761Y-76863095D01*
X142677380Y-77005952D01*
X142677380Y-77101190D01*
X142629761Y-77244047D01*
X142534523Y-77339285D01*
X142439285Y-77386904D01*
X142248809Y-77434523D01*
X142105952Y-77434523D01*
X141915476Y-77386904D01*
X141820238Y-77339285D01*
X141725000Y-77244047D01*
X141677380Y-77101190D01*
X141677380Y-77005952D01*
X141725000Y-76863095D01*
X141772619Y-76815476D01*
X136332142Y-77291666D02*
X136379761Y-77339285D01*
X136427380Y-77482142D01*
X136427380Y-77577380D01*
X136379761Y-77720238D01*
X136284523Y-77815476D01*
X136189285Y-77863095D01*
X135998809Y-77910714D01*
X135855952Y-77910714D01*
X135665476Y-77863095D01*
X135570238Y-77815476D01*
X135475000Y-77720238D01*
X135427380Y-77577380D01*
X135427380Y-77482142D01*
X135475000Y-77339285D01*
X135522619Y-77291666D01*
X136427380Y-76339285D02*
X136427380Y-76910714D01*
X136427380Y-76625000D02*
X135427380Y-76625000D01*
X135570238Y-76720238D01*
X135665476Y-76815476D01*
X135713095Y-76910714D01*
%TO.C,J2*%
X226628571Y-79963095D02*
X226676190Y-79820238D01*
X226723809Y-79772619D01*
X226819047Y-79725000D01*
X226961904Y-79725000D01*
X227057142Y-79772619D01*
X227104761Y-79820238D01*
X227152380Y-79915476D01*
X227152380Y-80296428D01*
X226152380Y-80296428D01*
X226152380Y-79963095D01*
X226200000Y-79867857D01*
X226247619Y-79820238D01*
X226342857Y-79772619D01*
X226438095Y-79772619D01*
X226533333Y-79820238D01*
X226580952Y-79867857D01*
X226628571Y-79963095D01*
X226628571Y-80296428D01*
X227152380Y-78867857D02*
X226628571Y-78867857D01*
X226533333Y-78915476D01*
X226485714Y-79010714D01*
X226485714Y-79201190D01*
X226533333Y-79296428D01*
X227104761Y-78867857D02*
X227152380Y-78963095D01*
X227152380Y-79201190D01*
X227104761Y-79296428D01*
X227009523Y-79344047D01*
X226914285Y-79344047D01*
X226819047Y-79296428D01*
X226771428Y-79201190D01*
X226771428Y-78963095D01*
X226723809Y-78867857D01*
X227152380Y-78391666D02*
X226485714Y-78391666D01*
X226676190Y-78391666D02*
X226580952Y-78344047D01*
X226533333Y-78296428D01*
X226485714Y-78201190D01*
X226485714Y-78105952D01*
X227152380Y-77772619D02*
X226485714Y-77772619D01*
X226676190Y-77772619D02*
X226580952Y-77725000D01*
X226533333Y-77677380D01*
X226485714Y-77582142D01*
X226485714Y-77486904D01*
X227104761Y-76772619D02*
X227152380Y-76867857D01*
X227152380Y-77058333D01*
X227104761Y-77153571D01*
X227009523Y-77201190D01*
X226628571Y-77201190D01*
X226533333Y-77153571D01*
X226485714Y-77058333D01*
X226485714Y-76867857D01*
X226533333Y-76772619D01*
X226628571Y-76725000D01*
X226723809Y-76725000D01*
X226819047Y-77201190D01*
X227152380Y-76153571D02*
X227104761Y-76248809D01*
X227009523Y-76296428D01*
X226152380Y-76296428D01*
X227247619Y-76010714D02*
X227247619Y-75248809D01*
X226152380Y-74725000D02*
X226866666Y-74725000D01*
X227009523Y-74772619D01*
X227104761Y-74867857D01*
X227152380Y-75010714D01*
X227152380Y-75105952D01*
X227152380Y-73820238D02*
X226628571Y-73820238D01*
X226533333Y-73867857D01*
X226485714Y-73963095D01*
X226485714Y-74153571D01*
X226533333Y-74248809D01*
X227104761Y-73820238D02*
X227152380Y-73915476D01*
X227152380Y-74153571D01*
X227104761Y-74248809D01*
X227009523Y-74296428D01*
X226914285Y-74296428D01*
X226819047Y-74248809D01*
X226771428Y-74153571D01*
X226771428Y-73915476D01*
X226723809Y-73820238D01*
X227104761Y-72915476D02*
X227152380Y-73010714D01*
X227152380Y-73201190D01*
X227104761Y-73296428D01*
X227057142Y-73344047D01*
X226961904Y-73391666D01*
X226676190Y-73391666D01*
X226580952Y-73344047D01*
X226533333Y-73296428D01*
X226485714Y-73201190D01*
X226485714Y-73010714D01*
X226533333Y-72915476D01*
X227152380Y-72486904D02*
X226152380Y-72486904D01*
X226771428Y-72391666D02*
X227152380Y-72105952D01*
X226485714Y-72105952D02*
X226866666Y-72486904D01*
X218652380Y-76558333D02*
X219366666Y-76558333D01*
X219509523Y-76605952D01*
X219604761Y-76701190D01*
X219652380Y-76844047D01*
X219652380Y-76939285D01*
X218747619Y-76129761D02*
X218700000Y-76082142D01*
X218652380Y-75986904D01*
X218652380Y-75748809D01*
X218700000Y-75653571D01*
X218747619Y-75605952D01*
X218842857Y-75558333D01*
X218938095Y-75558333D01*
X219080952Y-75605952D01*
X219652380Y-76177380D01*
X219652380Y-75558333D01*
%TO.C,C12*%
X164932142Y-63690476D02*
X164979761Y-63738095D01*
X165027380Y-63880952D01*
X165027380Y-63976190D01*
X164979761Y-64119047D01*
X164884523Y-64214285D01*
X164789285Y-64261904D01*
X164598809Y-64309523D01*
X164455952Y-64309523D01*
X164265476Y-64261904D01*
X164170238Y-64214285D01*
X164075000Y-64119047D01*
X164027380Y-63976190D01*
X164027380Y-63880952D01*
X164075000Y-63738095D01*
X164122619Y-63690476D01*
X171182142Y-64642857D02*
X171229761Y-64690476D01*
X171277380Y-64833333D01*
X171277380Y-64928571D01*
X171229761Y-65071428D01*
X171134523Y-65166666D01*
X171039285Y-65214285D01*
X170848809Y-65261904D01*
X170705952Y-65261904D01*
X170515476Y-65214285D01*
X170420238Y-65166666D01*
X170325000Y-65071428D01*
X170277380Y-64928571D01*
X170277380Y-64833333D01*
X170325000Y-64690476D01*
X170372619Y-64642857D01*
X171277380Y-63690476D02*
X171277380Y-64261904D01*
X171277380Y-63976190D02*
X170277380Y-63976190D01*
X170420238Y-64071428D01*
X170515476Y-64166666D01*
X170563095Y-64261904D01*
X170372619Y-63309523D02*
X170325000Y-63261904D01*
X170277380Y-63166666D01*
X170277380Y-62928571D01*
X170325000Y-62833333D01*
X170372619Y-62785714D01*
X170467857Y-62738095D01*
X170563095Y-62738095D01*
X170705952Y-62785714D01*
X171277380Y-63357142D01*
X171277380Y-62738095D01*
%TO.C,C23*%
X217684523Y-42732142D02*
X217636904Y-42779761D01*
X217494047Y-42827380D01*
X217398809Y-42827380D01*
X217255952Y-42779761D01*
X217160714Y-42684523D01*
X217113095Y-42589285D01*
X217065476Y-42398809D01*
X217065476Y-42255952D01*
X217113095Y-42065476D01*
X217160714Y-41970238D01*
X217255952Y-41875000D01*
X217398809Y-41827380D01*
X217494047Y-41827380D01*
X217636904Y-41875000D01*
X217684523Y-41922619D01*
X216732142Y-36482142D02*
X216684523Y-36529761D01*
X216541666Y-36577380D01*
X216446428Y-36577380D01*
X216303571Y-36529761D01*
X216208333Y-36434523D01*
X216160714Y-36339285D01*
X216113095Y-36148809D01*
X216113095Y-36005952D01*
X216160714Y-35815476D01*
X216208333Y-35720238D01*
X216303571Y-35625000D01*
X216446428Y-35577380D01*
X216541666Y-35577380D01*
X216684523Y-35625000D01*
X216732142Y-35672619D01*
X217113095Y-35672619D02*
X217160714Y-35625000D01*
X217255952Y-35577380D01*
X217494047Y-35577380D01*
X217589285Y-35625000D01*
X217636904Y-35672619D01*
X217684523Y-35767857D01*
X217684523Y-35863095D01*
X217636904Y-36005952D01*
X217065476Y-36577380D01*
X217684523Y-36577380D01*
X218017857Y-35577380D02*
X218636904Y-35577380D01*
X218303571Y-35958333D01*
X218446428Y-35958333D01*
X218541666Y-36005952D01*
X218589285Y-36053571D01*
X218636904Y-36148809D01*
X218636904Y-36386904D01*
X218589285Y-36482142D01*
X218541666Y-36529761D01*
X218446428Y-36577380D01*
X218160714Y-36577380D01*
X218065476Y-36529761D01*
X218017857Y-36482142D01*
%TO.C,C20*%
X163073807Y-42732142D02*
X163026188Y-42779761D01*
X162883331Y-42827380D01*
X162788093Y-42827380D01*
X162645236Y-42779761D01*
X162549998Y-42684523D01*
X162502379Y-42589285D01*
X162454760Y-42398809D01*
X162454760Y-42255952D01*
X162502379Y-42065476D01*
X162549998Y-41970238D01*
X162645236Y-41875000D01*
X162788093Y-41827380D01*
X162883331Y-41827380D01*
X163026188Y-41875000D01*
X163073807Y-41922619D01*
X162121426Y-36482142D02*
X162073807Y-36529761D01*
X161930950Y-36577380D01*
X161835712Y-36577380D01*
X161692855Y-36529761D01*
X161597617Y-36434523D01*
X161549998Y-36339285D01*
X161502379Y-36148809D01*
X161502379Y-36005952D01*
X161549998Y-35815476D01*
X161597617Y-35720238D01*
X161692855Y-35625000D01*
X161835712Y-35577380D01*
X161930950Y-35577380D01*
X162073807Y-35625000D01*
X162121426Y-35672619D01*
X162502379Y-35672619D02*
X162549998Y-35625000D01*
X162645236Y-35577380D01*
X162883331Y-35577380D01*
X162978569Y-35625000D01*
X163026188Y-35672619D01*
X163073807Y-35767857D01*
X163073807Y-35863095D01*
X163026188Y-36005952D01*
X162454760Y-36577380D01*
X163073807Y-36577380D01*
X163692855Y-35577380D02*
X163788093Y-35577380D01*
X163883331Y-35625000D01*
X163930950Y-35672619D01*
X163978569Y-35767857D01*
X164026188Y-35958333D01*
X164026188Y-36196428D01*
X163978569Y-36386904D01*
X163930950Y-36482142D01*
X163883331Y-36529761D01*
X163788093Y-36577380D01*
X163692855Y-36577380D01*
X163597617Y-36529761D01*
X163549998Y-36482142D01*
X163502379Y-36386904D01*
X163454760Y-36196428D01*
X163454760Y-35958333D01*
X163502379Y-35767857D01*
X163549998Y-35672619D01*
X163597617Y-35625000D01*
X163692855Y-35577380D01*
%TO.C,J16*%
X118309285Y-112927380D02*
X118309285Y-113736904D01*
X118356904Y-113832142D01*
X118404523Y-113879761D01*
X118499761Y-113927380D01*
X118690237Y-113927380D01*
X118785475Y-113879761D01*
X118833094Y-113832142D01*
X118880714Y-113736904D01*
X118880714Y-112927380D01*
X119309285Y-113879761D02*
X119452142Y-113927380D01*
X119690237Y-113927380D01*
X119785475Y-113879761D01*
X119833094Y-113832142D01*
X119880714Y-113736904D01*
X119880714Y-113641666D01*
X119833094Y-113546428D01*
X119785475Y-113498809D01*
X119690237Y-113451190D01*
X119499761Y-113403571D01*
X119404523Y-113355952D01*
X119356904Y-113308333D01*
X119309285Y-113213095D01*
X119309285Y-113117857D01*
X119356904Y-113022619D01*
X119404523Y-112975000D01*
X119499761Y-112927380D01*
X119737856Y-112927380D01*
X119880714Y-112975000D01*
X120642618Y-113403571D02*
X120785475Y-113451190D01*
X120833094Y-113498809D01*
X120880714Y-113594047D01*
X120880714Y-113736904D01*
X120833094Y-113832142D01*
X120785475Y-113879761D01*
X120690237Y-113927380D01*
X120309285Y-113927380D01*
X120309285Y-112927380D01*
X120642618Y-112927380D01*
X120737856Y-112975000D01*
X120785475Y-113022619D01*
X120833094Y-113117857D01*
X120833094Y-113213095D01*
X120785475Y-113308333D01*
X120737856Y-113355952D01*
X120642618Y-113403571D01*
X120309285Y-113403571D01*
X121071190Y-114022619D02*
X121833094Y-114022619D01*
X122023571Y-113641666D02*
X122499761Y-113641666D01*
X121928333Y-113927380D02*
X122261666Y-112927380D01*
X122594999Y-113927380D01*
X119571190Y-104427380D02*
X119571190Y-105141666D01*
X119523571Y-105284523D01*
X119428333Y-105379761D01*
X119285475Y-105427380D01*
X119190237Y-105427380D01*
X120571190Y-105427380D02*
X119999761Y-105427380D01*
X120285475Y-105427380D02*
X120285475Y-104427380D01*
X120190237Y-104570238D01*
X120094999Y-104665476D01*
X119999761Y-104713095D01*
X121428333Y-104427380D02*
X121237856Y-104427380D01*
X121142618Y-104475000D01*
X121094999Y-104522619D01*
X120999761Y-104665476D01*
X120952142Y-104855952D01*
X120952142Y-105236904D01*
X120999761Y-105332142D01*
X121047380Y-105379761D01*
X121142618Y-105427380D01*
X121333094Y-105427380D01*
X121428333Y-105379761D01*
X121475952Y-105332142D01*
X121523571Y-105236904D01*
X121523571Y-104998809D01*
X121475952Y-104903571D01*
X121428333Y-104855952D01*
X121333094Y-104808333D01*
X121142618Y-104808333D01*
X121047380Y-104855952D01*
X120999761Y-104903571D01*
X120952142Y-104998809D01*
%TO.C,C5*%
X114832142Y-51590476D02*
X114879761Y-51638095D01*
X114927380Y-51780952D01*
X114927380Y-51876190D01*
X114879761Y-52019047D01*
X114784523Y-52114285D01*
X114689285Y-52161904D01*
X114498809Y-52209523D01*
X114355952Y-52209523D01*
X114165476Y-52161904D01*
X114070238Y-52114285D01*
X113975000Y-52019047D01*
X113927380Y-51876190D01*
X113927380Y-51780952D01*
X113975000Y-51638095D01*
X114022619Y-51590476D01*
X108582142Y-52066666D02*
X108629761Y-52114285D01*
X108677380Y-52257142D01*
X108677380Y-52352380D01*
X108629761Y-52495238D01*
X108534523Y-52590476D01*
X108439285Y-52638095D01*
X108248809Y-52685714D01*
X108105952Y-52685714D01*
X107915476Y-52638095D01*
X107820238Y-52590476D01*
X107725000Y-52495238D01*
X107677380Y-52352380D01*
X107677380Y-52257142D01*
X107725000Y-52114285D01*
X107772619Y-52066666D01*
X107677380Y-51161904D02*
X107677380Y-51638095D01*
X108153571Y-51685714D01*
X108105952Y-51638095D01*
X108058333Y-51542857D01*
X108058333Y-51304761D01*
X108105952Y-51209523D01*
X108153571Y-51161904D01*
X108248809Y-51114285D01*
X108486904Y-51114285D01*
X108582142Y-51161904D01*
X108629761Y-51209523D01*
X108677380Y-51304761D01*
X108677380Y-51542857D01*
X108629761Y-51638095D01*
X108582142Y-51685714D01*
%TO.C,J14*%
X154414999Y-112927380D02*
X154414999Y-113736904D01*
X154462618Y-113832142D01*
X154510237Y-113879761D01*
X154605475Y-113927380D01*
X154795951Y-113927380D01*
X154891189Y-113879761D01*
X154938808Y-113832142D01*
X154986428Y-113736904D01*
X154986428Y-112927380D01*
X155414999Y-113879761D02*
X155557856Y-113927380D01*
X155795951Y-113927380D01*
X155891189Y-113879761D01*
X155938808Y-113832142D01*
X155986428Y-113736904D01*
X155986428Y-113641666D01*
X155938808Y-113546428D01*
X155891189Y-113498809D01*
X155795951Y-113451190D01*
X155605475Y-113403571D01*
X155510237Y-113355952D01*
X155462618Y-113308333D01*
X155414999Y-113213095D01*
X155414999Y-113117857D01*
X155462618Y-113022619D01*
X155510237Y-112975000D01*
X155605475Y-112927380D01*
X155843570Y-112927380D01*
X155986428Y-112975000D01*
X156748332Y-113403571D02*
X156891189Y-113451190D01*
X156938808Y-113498809D01*
X156986428Y-113594047D01*
X156986428Y-113736904D01*
X156938808Y-113832142D01*
X156891189Y-113879761D01*
X156795951Y-113927380D01*
X156414999Y-113927380D01*
X156414999Y-112927380D01*
X156748332Y-112927380D01*
X156843570Y-112975000D01*
X156891189Y-113022619D01*
X156938808Y-113117857D01*
X156938808Y-113213095D01*
X156891189Y-113308333D01*
X156843570Y-113355952D01*
X156748332Y-113403571D01*
X156414999Y-113403571D01*
X157176904Y-114022619D02*
X157938808Y-114022619D01*
X158129285Y-113641666D02*
X158605475Y-113641666D01*
X158034047Y-113927380D02*
X158367380Y-112927380D01*
X158700713Y-113927380D01*
X155676904Y-104427380D02*
X155676904Y-105141666D01*
X155629285Y-105284523D01*
X155534047Y-105379761D01*
X155391189Y-105427380D01*
X155295951Y-105427380D01*
X156676904Y-105427380D02*
X156105475Y-105427380D01*
X156391189Y-105427380D02*
X156391189Y-104427380D01*
X156295951Y-104570238D01*
X156200713Y-104665476D01*
X156105475Y-104713095D01*
X157534047Y-104760714D02*
X157534047Y-105427380D01*
X157295951Y-104379761D02*
X157057856Y-105094047D01*
X157676904Y-105094047D01*
%TO.C,J6*%
X136514284Y-12727380D02*
X136514284Y-13536904D01*
X136561903Y-13632142D01*
X136609522Y-13679761D01*
X136704760Y-13727380D01*
X136895236Y-13727380D01*
X136990474Y-13679761D01*
X137038093Y-13632142D01*
X137085713Y-13536904D01*
X137085713Y-12727380D01*
X137514284Y-13679761D02*
X137657141Y-13727380D01*
X137895236Y-13727380D01*
X137990474Y-13679761D01*
X138038093Y-13632142D01*
X138085713Y-13536904D01*
X138085713Y-13441666D01*
X138038093Y-13346428D01*
X137990474Y-13298809D01*
X137895236Y-13251190D01*
X137704760Y-13203571D01*
X137609522Y-13155952D01*
X137561903Y-13108333D01*
X137514284Y-13013095D01*
X137514284Y-12917857D01*
X137561903Y-12822619D01*
X137609522Y-12775000D01*
X137704760Y-12727380D01*
X137942855Y-12727380D01*
X138085713Y-12775000D01*
X138847617Y-13203571D02*
X138990474Y-13251190D01*
X139038093Y-13298809D01*
X139085713Y-13394047D01*
X139085713Y-13536904D01*
X139038093Y-13632142D01*
X138990474Y-13679761D01*
X138895236Y-13727380D01*
X138514284Y-13727380D01*
X138514284Y-12727380D01*
X138847617Y-12727380D01*
X138942855Y-12775000D01*
X138990474Y-12822619D01*
X139038093Y-12917857D01*
X139038093Y-13013095D01*
X138990474Y-13108333D01*
X138942855Y-13155952D01*
X138847617Y-13203571D01*
X138514284Y-13203571D01*
X139276189Y-13822619D02*
X140038093Y-13822619D01*
X140228570Y-13441666D02*
X140704760Y-13441666D01*
X140133332Y-13727380D02*
X140466665Y-12727380D01*
X140799998Y-13727380D01*
X138252379Y-21227380D02*
X138252379Y-21941666D01*
X138204760Y-22084523D01*
X138109522Y-22179761D01*
X137966665Y-22227380D01*
X137871427Y-22227380D01*
X139157141Y-21227380D02*
X138966665Y-21227380D01*
X138871427Y-21275000D01*
X138823808Y-21322619D01*
X138728570Y-21465476D01*
X138680951Y-21655952D01*
X138680951Y-22036904D01*
X138728570Y-22132142D01*
X138776189Y-22179761D01*
X138871427Y-22227380D01*
X139061903Y-22227380D01*
X139157141Y-22179761D01*
X139204760Y-22132142D01*
X139252379Y-22036904D01*
X139252379Y-21798809D01*
X139204760Y-21703571D01*
X139157141Y-21655952D01*
X139061903Y-21608333D01*
X138871427Y-21608333D01*
X138776189Y-21655952D01*
X138728570Y-21703571D01*
X138680951Y-21798809D01*
%TO.C,C24*%
X204984523Y-84557142D02*
X204936904Y-84604761D01*
X204794047Y-84652380D01*
X204698809Y-84652380D01*
X204555952Y-84604761D01*
X204460714Y-84509523D01*
X204413095Y-84414285D01*
X204365476Y-84223809D01*
X204365476Y-84080952D01*
X204413095Y-83890476D01*
X204460714Y-83795238D01*
X204555952Y-83700000D01*
X204698809Y-83652380D01*
X204794047Y-83652380D01*
X204936904Y-83700000D01*
X204984523Y-83747619D01*
X204032142Y-90807142D02*
X203984523Y-90854761D01*
X203841666Y-90902380D01*
X203746428Y-90902380D01*
X203603571Y-90854761D01*
X203508333Y-90759523D01*
X203460714Y-90664285D01*
X203413095Y-90473809D01*
X203413095Y-90330952D01*
X203460714Y-90140476D01*
X203508333Y-90045238D01*
X203603571Y-89950000D01*
X203746428Y-89902380D01*
X203841666Y-89902380D01*
X203984523Y-89950000D01*
X204032142Y-89997619D01*
X204413095Y-89997619D02*
X204460714Y-89950000D01*
X204555952Y-89902380D01*
X204794047Y-89902380D01*
X204889285Y-89950000D01*
X204936904Y-89997619D01*
X204984523Y-90092857D01*
X204984523Y-90188095D01*
X204936904Y-90330952D01*
X204365476Y-90902380D01*
X204984523Y-90902380D01*
X205841666Y-90235714D02*
X205841666Y-90902380D01*
X205603571Y-89854761D02*
X205365476Y-90569047D01*
X205984523Y-90569047D01*
%TO.C,D1*%
X206082380Y-54736904D02*
X205082380Y-54736904D01*
X205082380Y-54498809D01*
X205130000Y-54355952D01*
X205225238Y-54260714D01*
X205320476Y-54213095D01*
X205510952Y-54165476D01*
X205653809Y-54165476D01*
X205844285Y-54213095D01*
X205939523Y-54260714D01*
X206034761Y-54355952D01*
X206082380Y-54498809D01*
X206082380Y-54736904D01*
X208552380Y-55603095D02*
X207552380Y-55603095D01*
X207552380Y-55365000D01*
X207600000Y-55222142D01*
X207695238Y-55126904D01*
X207790476Y-55079285D01*
X207980952Y-55031666D01*
X208123809Y-55031666D01*
X208314285Y-55079285D01*
X208409523Y-55126904D01*
X208504761Y-55222142D01*
X208552380Y-55365000D01*
X208552380Y-55603095D01*
X208552380Y-54079285D02*
X208552380Y-54650714D01*
X208552380Y-54365000D02*
X207552380Y-54365000D01*
X207695238Y-54460238D01*
X207790476Y-54555476D01*
X207838095Y-54650714D01*
X210652380Y-49656904D02*
X209652380Y-49656904D01*
X210652380Y-49085476D02*
X210080952Y-49514047D01*
X209652380Y-49085476D02*
X210223809Y-49656904D01*
%TO.C,C13*%
X154232142Y-63665476D02*
X154279761Y-63713095D01*
X154327380Y-63855952D01*
X154327380Y-63951190D01*
X154279761Y-64094047D01*
X154184523Y-64189285D01*
X154089285Y-64236904D01*
X153898809Y-64284523D01*
X153755952Y-64284523D01*
X153565476Y-64236904D01*
X153470238Y-64189285D01*
X153375000Y-64094047D01*
X153327380Y-63951190D01*
X153327380Y-63855952D01*
X153375000Y-63713095D01*
X153422619Y-63665476D01*
X160482142Y-64617857D02*
X160529761Y-64665476D01*
X160577380Y-64808333D01*
X160577380Y-64903571D01*
X160529761Y-65046428D01*
X160434523Y-65141666D01*
X160339285Y-65189285D01*
X160148809Y-65236904D01*
X160005952Y-65236904D01*
X159815476Y-65189285D01*
X159720238Y-65141666D01*
X159625000Y-65046428D01*
X159577380Y-64903571D01*
X159577380Y-64808333D01*
X159625000Y-64665476D01*
X159672619Y-64617857D01*
X160577380Y-63665476D02*
X160577380Y-64236904D01*
X160577380Y-63951190D02*
X159577380Y-63951190D01*
X159720238Y-64046428D01*
X159815476Y-64141666D01*
X159863095Y-64236904D01*
X159577380Y-63332142D02*
X159577380Y-62713095D01*
X159958333Y-63046428D01*
X159958333Y-62903571D01*
X160005952Y-62808333D01*
X160053571Y-62760714D01*
X160148809Y-62713095D01*
X160386904Y-62713095D01*
X160482142Y-62760714D01*
X160529761Y-62808333D01*
X160577380Y-62903571D01*
X160577380Y-63189285D01*
X160529761Y-63284523D01*
X160482142Y-63332142D01*
%TO.C,J4*%
X100107142Y-12727380D02*
X100107142Y-13536904D01*
X100154761Y-13632142D01*
X100202380Y-13679761D01*
X100297618Y-13727380D01*
X100488094Y-13727380D01*
X100583332Y-13679761D01*
X100630951Y-13632142D01*
X100678571Y-13536904D01*
X100678571Y-12727380D01*
X101107142Y-13679761D02*
X101249999Y-13727380D01*
X101488094Y-13727380D01*
X101583332Y-13679761D01*
X101630951Y-13632142D01*
X101678571Y-13536904D01*
X101678571Y-13441666D01*
X101630951Y-13346428D01*
X101583332Y-13298809D01*
X101488094Y-13251190D01*
X101297618Y-13203571D01*
X101202380Y-13155952D01*
X101154761Y-13108333D01*
X101107142Y-13013095D01*
X101107142Y-12917857D01*
X101154761Y-12822619D01*
X101202380Y-12775000D01*
X101297618Y-12727380D01*
X101535713Y-12727380D01*
X101678571Y-12775000D01*
X102440475Y-13203571D02*
X102583332Y-13251190D01*
X102630951Y-13298809D01*
X102678571Y-13394047D01*
X102678571Y-13536904D01*
X102630951Y-13632142D01*
X102583332Y-13679761D01*
X102488094Y-13727380D01*
X102107142Y-13727380D01*
X102107142Y-12727380D01*
X102440475Y-12727380D01*
X102535713Y-12775000D01*
X102583332Y-12822619D01*
X102630951Y-12917857D01*
X102630951Y-13013095D01*
X102583332Y-13108333D01*
X102535713Y-13155952D01*
X102440475Y-13203571D01*
X102107142Y-13203571D01*
X102869047Y-13822619D02*
X103630951Y-13822619D01*
X103821428Y-13441666D02*
X104297618Y-13441666D01*
X103726190Y-13727380D02*
X104059523Y-12727380D01*
X104392856Y-13727380D01*
X101845237Y-21227380D02*
X101845237Y-21941666D01*
X101797618Y-22084523D01*
X101702380Y-22179761D01*
X101559523Y-22227380D01*
X101464285Y-22227380D01*
X102749999Y-21560714D02*
X102749999Y-22227380D01*
X102511904Y-21179761D02*
X102273809Y-21894047D01*
X102892856Y-21894047D01*
%TO.C,J9*%
X191124997Y-12727380D02*
X191124997Y-13536904D01*
X191172616Y-13632142D01*
X191220235Y-13679761D01*
X191315473Y-13727380D01*
X191505949Y-13727380D01*
X191601187Y-13679761D01*
X191648806Y-13632142D01*
X191696426Y-13536904D01*
X191696426Y-12727380D01*
X192124997Y-13679761D02*
X192267854Y-13727380D01*
X192505949Y-13727380D01*
X192601187Y-13679761D01*
X192648806Y-13632142D01*
X192696426Y-13536904D01*
X192696426Y-13441666D01*
X192648806Y-13346428D01*
X192601187Y-13298809D01*
X192505949Y-13251190D01*
X192315473Y-13203571D01*
X192220235Y-13155952D01*
X192172616Y-13108333D01*
X192124997Y-13013095D01*
X192124997Y-12917857D01*
X192172616Y-12822619D01*
X192220235Y-12775000D01*
X192315473Y-12727380D01*
X192553568Y-12727380D01*
X192696426Y-12775000D01*
X193458330Y-13203571D02*
X193601187Y-13251190D01*
X193648806Y-13298809D01*
X193696426Y-13394047D01*
X193696426Y-13536904D01*
X193648806Y-13632142D01*
X193601187Y-13679761D01*
X193505949Y-13727380D01*
X193124997Y-13727380D01*
X193124997Y-12727380D01*
X193458330Y-12727380D01*
X193553568Y-12775000D01*
X193601187Y-12822619D01*
X193648806Y-12917857D01*
X193648806Y-13013095D01*
X193601187Y-13108333D01*
X193553568Y-13155952D01*
X193458330Y-13203571D01*
X193124997Y-13203571D01*
X193886902Y-13822619D02*
X194648806Y-13822619D01*
X194839283Y-13441666D02*
X195315473Y-13441666D01*
X194744045Y-13727380D02*
X195077378Y-12727380D01*
X195410711Y-13727380D01*
X192863092Y-21227380D02*
X192863092Y-21941666D01*
X192815473Y-22084523D01*
X192720235Y-22179761D01*
X192577378Y-22227380D01*
X192482140Y-22227380D01*
X193386902Y-22227380D02*
X193577378Y-22227380D01*
X193672616Y-22179761D01*
X193720235Y-22132142D01*
X193815473Y-21989285D01*
X193863092Y-21798809D01*
X193863092Y-21417857D01*
X193815473Y-21322619D01*
X193767854Y-21275000D01*
X193672616Y-21227380D01*
X193482140Y-21227380D01*
X193386902Y-21275000D01*
X193339283Y-21322619D01*
X193291664Y-21417857D01*
X193291664Y-21655952D01*
X193339283Y-21751190D01*
X193386902Y-21798809D01*
X193482140Y-21846428D01*
X193672616Y-21846428D01*
X193767854Y-21798809D01*
X193815473Y-21751190D01*
X193863092Y-21655952D01*
%TO.C,C29*%
X114634523Y-84657142D02*
X114586904Y-84704761D01*
X114444047Y-84752380D01*
X114348809Y-84752380D01*
X114205952Y-84704761D01*
X114110714Y-84609523D01*
X114063095Y-84514285D01*
X114015476Y-84323809D01*
X114015476Y-84180952D01*
X114063095Y-83990476D01*
X114110714Y-83895238D01*
X114205952Y-83800000D01*
X114348809Y-83752380D01*
X114444047Y-83752380D01*
X114586904Y-83800000D01*
X114634523Y-83847619D01*
X113682142Y-90907142D02*
X113634523Y-90954761D01*
X113491666Y-91002380D01*
X113396428Y-91002380D01*
X113253571Y-90954761D01*
X113158333Y-90859523D01*
X113110714Y-90764285D01*
X113063095Y-90573809D01*
X113063095Y-90430952D01*
X113110714Y-90240476D01*
X113158333Y-90145238D01*
X113253571Y-90050000D01*
X113396428Y-90002380D01*
X113491666Y-90002380D01*
X113634523Y-90050000D01*
X113682142Y-90097619D01*
X114063095Y-90097619D02*
X114110714Y-90050000D01*
X114205952Y-90002380D01*
X114444047Y-90002380D01*
X114539285Y-90050000D01*
X114586904Y-90097619D01*
X114634523Y-90192857D01*
X114634523Y-90288095D01*
X114586904Y-90430952D01*
X114015476Y-91002380D01*
X114634523Y-91002380D01*
X115110714Y-91002380D02*
X115301190Y-91002380D01*
X115396428Y-90954761D01*
X115444047Y-90907142D01*
X115539285Y-90764285D01*
X115586904Y-90573809D01*
X115586904Y-90192857D01*
X115539285Y-90097619D01*
X115491666Y-90050000D01*
X115396428Y-90002380D01*
X115205952Y-90002380D01*
X115110714Y-90050000D01*
X115063095Y-90097619D01*
X115015476Y-90192857D01*
X115015476Y-90430952D01*
X115063095Y-90526190D01*
X115110714Y-90573809D01*
X115205952Y-90621428D01*
X115396428Y-90621428D01*
X115491666Y-90573809D01*
X115539285Y-90526190D01*
X115586904Y-90430952D01*
%TO.C,C21*%
X181277378Y-42732142D02*
X181229759Y-42779761D01*
X181086902Y-42827380D01*
X180991664Y-42827380D01*
X180848807Y-42779761D01*
X180753569Y-42684523D01*
X180705950Y-42589285D01*
X180658331Y-42398809D01*
X180658331Y-42255952D01*
X180705950Y-42065476D01*
X180753569Y-41970238D01*
X180848807Y-41875000D01*
X180991664Y-41827380D01*
X181086902Y-41827380D01*
X181229759Y-41875000D01*
X181277378Y-41922619D01*
X180324997Y-36482142D02*
X180277378Y-36529761D01*
X180134521Y-36577380D01*
X180039283Y-36577380D01*
X179896426Y-36529761D01*
X179801188Y-36434523D01*
X179753569Y-36339285D01*
X179705950Y-36148809D01*
X179705950Y-36005952D01*
X179753569Y-35815476D01*
X179801188Y-35720238D01*
X179896426Y-35625000D01*
X180039283Y-35577380D01*
X180134521Y-35577380D01*
X180277378Y-35625000D01*
X180324997Y-35672619D01*
X180705950Y-35672619D02*
X180753569Y-35625000D01*
X180848807Y-35577380D01*
X181086902Y-35577380D01*
X181182140Y-35625000D01*
X181229759Y-35672619D01*
X181277378Y-35767857D01*
X181277378Y-35863095D01*
X181229759Y-36005952D01*
X180658331Y-36577380D01*
X181277378Y-36577380D01*
X182229759Y-36577380D02*
X181658331Y-36577380D01*
X181944045Y-36577380D02*
X181944045Y-35577380D01*
X181848807Y-35720238D01*
X181753569Y-35815476D01*
X181658331Y-35863095D01*
%TO.C,J5*%
X118310713Y-12727380D02*
X118310713Y-13536904D01*
X118358332Y-13632142D01*
X118405951Y-13679761D01*
X118501189Y-13727380D01*
X118691665Y-13727380D01*
X118786903Y-13679761D01*
X118834522Y-13632142D01*
X118882142Y-13536904D01*
X118882142Y-12727380D01*
X119310713Y-13679761D02*
X119453570Y-13727380D01*
X119691665Y-13727380D01*
X119786903Y-13679761D01*
X119834522Y-13632142D01*
X119882142Y-13536904D01*
X119882142Y-13441666D01*
X119834522Y-13346428D01*
X119786903Y-13298809D01*
X119691665Y-13251190D01*
X119501189Y-13203571D01*
X119405951Y-13155952D01*
X119358332Y-13108333D01*
X119310713Y-13013095D01*
X119310713Y-12917857D01*
X119358332Y-12822619D01*
X119405951Y-12775000D01*
X119501189Y-12727380D01*
X119739284Y-12727380D01*
X119882142Y-12775000D01*
X120644046Y-13203571D02*
X120786903Y-13251190D01*
X120834522Y-13298809D01*
X120882142Y-13394047D01*
X120882142Y-13536904D01*
X120834522Y-13632142D01*
X120786903Y-13679761D01*
X120691665Y-13727380D01*
X120310713Y-13727380D01*
X120310713Y-12727380D01*
X120644046Y-12727380D01*
X120739284Y-12775000D01*
X120786903Y-12822619D01*
X120834522Y-12917857D01*
X120834522Y-13013095D01*
X120786903Y-13108333D01*
X120739284Y-13155952D01*
X120644046Y-13203571D01*
X120310713Y-13203571D01*
X121072618Y-13822619D02*
X121834522Y-13822619D01*
X122024999Y-13441666D02*
X122501189Y-13441666D01*
X121929761Y-13727380D02*
X122263094Y-12727380D01*
X122596427Y-13727380D01*
X120048808Y-21227380D02*
X120048808Y-21941666D01*
X120001189Y-22084523D01*
X119905951Y-22179761D01*
X119763094Y-22227380D01*
X119667856Y-22227380D01*
X121001189Y-21227380D02*
X120524999Y-21227380D01*
X120477380Y-21703571D01*
X120524999Y-21655952D01*
X120620237Y-21608333D01*
X120858332Y-21608333D01*
X120953570Y-21655952D01*
X121001189Y-21703571D01*
X121048808Y-21798809D01*
X121048808Y-22036904D01*
X121001189Y-22132142D01*
X120953570Y-22179761D01*
X120858332Y-22227380D01*
X120620237Y-22227380D01*
X120524999Y-22179761D01*
X120477380Y-22132142D01*
%TO.C,J7*%
X154717855Y-12727380D02*
X154717855Y-13536904D01*
X154765474Y-13632142D01*
X154813093Y-13679761D01*
X154908331Y-13727380D01*
X155098807Y-13727380D01*
X155194045Y-13679761D01*
X155241664Y-13632142D01*
X155289284Y-13536904D01*
X155289284Y-12727380D01*
X155717855Y-13679761D02*
X155860712Y-13727380D01*
X156098807Y-13727380D01*
X156194045Y-13679761D01*
X156241664Y-13632142D01*
X156289284Y-13536904D01*
X156289284Y-13441666D01*
X156241664Y-13346428D01*
X156194045Y-13298809D01*
X156098807Y-13251190D01*
X155908331Y-13203571D01*
X155813093Y-13155952D01*
X155765474Y-13108333D01*
X155717855Y-13013095D01*
X155717855Y-12917857D01*
X155765474Y-12822619D01*
X155813093Y-12775000D01*
X155908331Y-12727380D01*
X156146426Y-12727380D01*
X156289284Y-12775000D01*
X157051188Y-13203571D02*
X157194045Y-13251190D01*
X157241664Y-13298809D01*
X157289284Y-13394047D01*
X157289284Y-13536904D01*
X157241664Y-13632142D01*
X157194045Y-13679761D01*
X157098807Y-13727380D01*
X156717855Y-13727380D01*
X156717855Y-12727380D01*
X157051188Y-12727380D01*
X157146426Y-12775000D01*
X157194045Y-12822619D01*
X157241664Y-12917857D01*
X157241664Y-13013095D01*
X157194045Y-13108333D01*
X157146426Y-13155952D01*
X157051188Y-13203571D01*
X156717855Y-13203571D01*
X157479760Y-13822619D02*
X158241664Y-13822619D01*
X158432141Y-13441666D02*
X158908331Y-13441666D01*
X158336903Y-13727380D02*
X158670236Y-12727380D01*
X159003569Y-13727380D01*
X156455950Y-21227380D02*
X156455950Y-21941666D01*
X156408331Y-22084523D01*
X156313093Y-22179761D01*
X156170236Y-22227380D01*
X156074998Y-22227380D01*
X156836903Y-21227380D02*
X157503569Y-21227380D01*
X157074998Y-22227380D01*
%TO.C,R2*%
X212447380Y-71210476D02*
X211971190Y-71543809D01*
X212447380Y-71781904D02*
X211447380Y-71781904D01*
X211447380Y-71400952D01*
X211495000Y-71305714D01*
X211542619Y-71258095D01*
X211637857Y-71210476D01*
X211780714Y-71210476D01*
X211875952Y-71258095D01*
X211923571Y-71305714D01*
X211971190Y-71400952D01*
X211971190Y-71781904D01*
X208607380Y-71686666D02*
X208131190Y-72020000D01*
X208607380Y-72258095D02*
X207607380Y-72258095D01*
X207607380Y-71877142D01*
X207655000Y-71781904D01*
X207702619Y-71734285D01*
X207797857Y-71686666D01*
X207940714Y-71686666D01*
X208035952Y-71734285D01*
X208083571Y-71781904D01*
X208131190Y-71877142D01*
X208131190Y-72258095D01*
X207702619Y-71305714D02*
X207655000Y-71258095D01*
X207607380Y-71162857D01*
X207607380Y-70924761D01*
X207655000Y-70829523D01*
X207702619Y-70781904D01*
X207797857Y-70734285D01*
X207893095Y-70734285D01*
X208035952Y-70781904D01*
X208607380Y-71353333D01*
X208607380Y-70734285D01*
%TO.C,C15*%
X84482142Y-63265476D02*
X84529761Y-63313095D01*
X84577380Y-63455952D01*
X84577380Y-63551190D01*
X84529761Y-63694047D01*
X84434523Y-63789285D01*
X84339285Y-63836904D01*
X84148809Y-63884523D01*
X84005952Y-63884523D01*
X83815476Y-63836904D01*
X83720238Y-63789285D01*
X83625000Y-63694047D01*
X83577380Y-63551190D01*
X83577380Y-63455952D01*
X83625000Y-63313095D01*
X83672619Y-63265476D01*
X90732142Y-64217857D02*
X90779761Y-64265476D01*
X90827380Y-64408333D01*
X90827380Y-64503571D01*
X90779761Y-64646428D01*
X90684523Y-64741666D01*
X90589285Y-64789285D01*
X90398809Y-64836904D01*
X90255952Y-64836904D01*
X90065476Y-64789285D01*
X89970238Y-64741666D01*
X89875000Y-64646428D01*
X89827380Y-64503571D01*
X89827380Y-64408333D01*
X89875000Y-64265476D01*
X89922619Y-64217857D01*
X90827380Y-63265476D02*
X90827380Y-63836904D01*
X90827380Y-63551190D02*
X89827380Y-63551190D01*
X89970238Y-63646428D01*
X90065476Y-63741666D01*
X90113095Y-63836904D01*
X89827380Y-62360714D02*
X89827380Y-62836904D01*
X90303571Y-62884523D01*
X90255952Y-62836904D01*
X90208333Y-62741666D01*
X90208333Y-62503571D01*
X90255952Y-62408333D01*
X90303571Y-62360714D01*
X90398809Y-62313095D01*
X90636904Y-62313095D01*
X90732142Y-62360714D01*
X90779761Y-62408333D01*
X90827380Y-62503571D01*
X90827380Y-62741666D01*
X90779761Y-62836904D01*
X90732142Y-62884523D01*
%TO.C,J15*%
X136362142Y-112927380D02*
X136362142Y-113736904D01*
X136409761Y-113832142D01*
X136457380Y-113879761D01*
X136552618Y-113927380D01*
X136743094Y-113927380D01*
X136838332Y-113879761D01*
X136885951Y-113832142D01*
X136933571Y-113736904D01*
X136933571Y-112927380D01*
X137362142Y-113879761D02*
X137504999Y-113927380D01*
X137743094Y-113927380D01*
X137838332Y-113879761D01*
X137885951Y-113832142D01*
X137933571Y-113736904D01*
X137933571Y-113641666D01*
X137885951Y-113546428D01*
X137838332Y-113498809D01*
X137743094Y-113451190D01*
X137552618Y-113403571D01*
X137457380Y-113355952D01*
X137409761Y-113308333D01*
X137362142Y-113213095D01*
X137362142Y-113117857D01*
X137409761Y-113022619D01*
X137457380Y-112975000D01*
X137552618Y-112927380D01*
X137790713Y-112927380D01*
X137933571Y-112975000D01*
X138695475Y-113403571D02*
X138838332Y-113451190D01*
X138885951Y-113498809D01*
X138933571Y-113594047D01*
X138933571Y-113736904D01*
X138885951Y-113832142D01*
X138838332Y-113879761D01*
X138743094Y-113927380D01*
X138362142Y-113927380D01*
X138362142Y-112927380D01*
X138695475Y-112927380D01*
X138790713Y-112975000D01*
X138838332Y-113022619D01*
X138885951Y-113117857D01*
X138885951Y-113213095D01*
X138838332Y-113308333D01*
X138790713Y-113355952D01*
X138695475Y-113403571D01*
X138362142Y-113403571D01*
X139124047Y-114022619D02*
X139885951Y-114022619D01*
X140076428Y-113641666D02*
X140552618Y-113641666D01*
X139981190Y-113927380D02*
X140314523Y-112927380D01*
X140647856Y-113927380D01*
X137624047Y-104427380D02*
X137624047Y-105141666D01*
X137576428Y-105284523D01*
X137481190Y-105379761D01*
X137338332Y-105427380D01*
X137243094Y-105427380D01*
X138624047Y-105427380D02*
X138052618Y-105427380D01*
X138338332Y-105427380D02*
X138338332Y-104427380D01*
X138243094Y-104570238D01*
X138147856Y-104665476D01*
X138052618Y-104713095D01*
X139528809Y-104427380D02*
X139052618Y-104427380D01*
X139004999Y-104903571D01*
X139052618Y-104855952D01*
X139147856Y-104808333D01*
X139385951Y-104808333D01*
X139481190Y-104855952D01*
X139528809Y-104903571D01*
X139576428Y-104998809D01*
X139576428Y-105236904D01*
X139528809Y-105332142D01*
X139481190Y-105379761D01*
X139385951Y-105427380D01*
X139147856Y-105427380D01*
X139052618Y-105379761D01*
X139004999Y-105332142D01*
%TO.C,J12*%
X190520713Y-112927380D02*
X190520713Y-113736904D01*
X190568332Y-113832142D01*
X190615951Y-113879761D01*
X190711189Y-113927380D01*
X190901665Y-113927380D01*
X190996903Y-113879761D01*
X191044522Y-113832142D01*
X191092142Y-113736904D01*
X191092142Y-112927380D01*
X191520713Y-113879761D02*
X191663570Y-113927380D01*
X191901665Y-113927380D01*
X191996903Y-113879761D01*
X192044522Y-113832142D01*
X192092142Y-113736904D01*
X192092142Y-113641666D01*
X192044522Y-113546428D01*
X191996903Y-113498809D01*
X191901665Y-113451190D01*
X191711189Y-113403571D01*
X191615951Y-113355952D01*
X191568332Y-113308333D01*
X191520713Y-113213095D01*
X191520713Y-113117857D01*
X191568332Y-113022619D01*
X191615951Y-112975000D01*
X191711189Y-112927380D01*
X191949284Y-112927380D01*
X192092142Y-112975000D01*
X192854046Y-113403571D02*
X192996903Y-113451190D01*
X193044522Y-113498809D01*
X193092142Y-113594047D01*
X193092142Y-113736904D01*
X193044522Y-113832142D01*
X192996903Y-113879761D01*
X192901665Y-113927380D01*
X192520713Y-113927380D01*
X192520713Y-112927380D01*
X192854046Y-112927380D01*
X192949284Y-112975000D01*
X192996903Y-113022619D01*
X193044522Y-113117857D01*
X193044522Y-113213095D01*
X192996903Y-113308333D01*
X192949284Y-113355952D01*
X192854046Y-113403571D01*
X192520713Y-113403571D01*
X193282618Y-114022619D02*
X194044522Y-114022619D01*
X194234999Y-113641666D02*
X194711189Y-113641666D01*
X194139761Y-113927380D02*
X194473094Y-112927380D01*
X194806427Y-113927380D01*
X191782618Y-104427380D02*
X191782618Y-105141666D01*
X191734999Y-105284523D01*
X191639761Y-105379761D01*
X191496903Y-105427380D01*
X191401665Y-105427380D01*
X192782618Y-105427380D02*
X192211189Y-105427380D01*
X192496903Y-105427380D02*
X192496903Y-104427380D01*
X192401665Y-104570238D01*
X192306427Y-104665476D01*
X192211189Y-104713095D01*
X193163570Y-104522619D02*
X193211189Y-104475000D01*
X193306427Y-104427380D01*
X193544522Y-104427380D01*
X193639761Y-104475000D01*
X193687380Y-104522619D01*
X193734999Y-104617857D01*
X193734999Y-104713095D01*
X193687380Y-104855952D01*
X193115951Y-105427380D01*
X193734999Y-105427380D01*
%TO.C,C30*%
X96584523Y-84657142D02*
X96536904Y-84704761D01*
X96394047Y-84752380D01*
X96298809Y-84752380D01*
X96155952Y-84704761D01*
X96060714Y-84609523D01*
X96013095Y-84514285D01*
X95965476Y-84323809D01*
X95965476Y-84180952D01*
X96013095Y-83990476D01*
X96060714Y-83895238D01*
X96155952Y-83800000D01*
X96298809Y-83752380D01*
X96394047Y-83752380D01*
X96536904Y-83800000D01*
X96584523Y-83847619D01*
X95632142Y-90907142D02*
X95584523Y-90954761D01*
X95441666Y-91002380D01*
X95346428Y-91002380D01*
X95203571Y-90954761D01*
X95108333Y-90859523D01*
X95060714Y-90764285D01*
X95013095Y-90573809D01*
X95013095Y-90430952D01*
X95060714Y-90240476D01*
X95108333Y-90145238D01*
X95203571Y-90050000D01*
X95346428Y-90002380D01*
X95441666Y-90002380D01*
X95584523Y-90050000D01*
X95632142Y-90097619D01*
X95965476Y-90002380D02*
X96584523Y-90002380D01*
X96251190Y-90383333D01*
X96394047Y-90383333D01*
X96489285Y-90430952D01*
X96536904Y-90478571D01*
X96584523Y-90573809D01*
X96584523Y-90811904D01*
X96536904Y-90907142D01*
X96489285Y-90954761D01*
X96394047Y-91002380D01*
X96108333Y-91002380D01*
X96013095Y-90954761D01*
X95965476Y-90907142D01*
X97203571Y-90002380D02*
X97298809Y-90002380D01*
X97394047Y-90050000D01*
X97441666Y-90097619D01*
X97489285Y-90192857D01*
X97536904Y-90383333D01*
X97536904Y-90621428D01*
X97489285Y-90811904D01*
X97441666Y-90907142D01*
X97394047Y-90954761D01*
X97298809Y-91002380D01*
X97203571Y-91002380D01*
X97108333Y-90954761D01*
X97060714Y-90907142D01*
X97013095Y-90811904D01*
X96965476Y-90621428D01*
X96965476Y-90383333D01*
X97013095Y-90192857D01*
X97060714Y-90097619D01*
X97108333Y-90050000D01*
X97203571Y-90002380D01*
%TO.C,J13*%
X172467856Y-112927380D02*
X172467856Y-113736904D01*
X172515475Y-113832142D01*
X172563094Y-113879761D01*
X172658332Y-113927380D01*
X172848808Y-113927380D01*
X172944046Y-113879761D01*
X172991665Y-113832142D01*
X173039285Y-113736904D01*
X173039285Y-112927380D01*
X173467856Y-113879761D02*
X173610713Y-113927380D01*
X173848808Y-113927380D01*
X173944046Y-113879761D01*
X173991665Y-113832142D01*
X174039285Y-113736904D01*
X174039285Y-113641666D01*
X173991665Y-113546428D01*
X173944046Y-113498809D01*
X173848808Y-113451190D01*
X173658332Y-113403571D01*
X173563094Y-113355952D01*
X173515475Y-113308333D01*
X173467856Y-113213095D01*
X173467856Y-113117857D01*
X173515475Y-113022619D01*
X173563094Y-112975000D01*
X173658332Y-112927380D01*
X173896427Y-112927380D01*
X174039285Y-112975000D01*
X174801189Y-113403571D02*
X174944046Y-113451190D01*
X174991665Y-113498809D01*
X175039285Y-113594047D01*
X175039285Y-113736904D01*
X174991665Y-113832142D01*
X174944046Y-113879761D01*
X174848808Y-113927380D01*
X174467856Y-113927380D01*
X174467856Y-112927380D01*
X174801189Y-112927380D01*
X174896427Y-112975000D01*
X174944046Y-113022619D01*
X174991665Y-113117857D01*
X174991665Y-113213095D01*
X174944046Y-113308333D01*
X174896427Y-113355952D01*
X174801189Y-113403571D01*
X174467856Y-113403571D01*
X175229761Y-114022619D02*
X175991665Y-114022619D01*
X176182142Y-113641666D02*
X176658332Y-113641666D01*
X176086904Y-113927380D02*
X176420237Y-112927380D01*
X176753570Y-113927380D01*
X173729761Y-104427380D02*
X173729761Y-105141666D01*
X173682142Y-105284523D01*
X173586904Y-105379761D01*
X173444046Y-105427380D01*
X173348808Y-105427380D01*
X174729761Y-105427380D02*
X174158332Y-105427380D01*
X174444046Y-105427380D02*
X174444046Y-104427380D01*
X174348808Y-104570238D01*
X174253570Y-104665476D01*
X174158332Y-104713095D01*
X175063094Y-104427380D02*
X175682142Y-104427380D01*
X175348808Y-104808333D01*
X175491665Y-104808333D01*
X175586904Y-104855952D01*
X175634523Y-104903571D01*
X175682142Y-104998809D01*
X175682142Y-105236904D01*
X175634523Y-105332142D01*
X175586904Y-105379761D01*
X175491665Y-105427380D01*
X175205951Y-105427380D01*
X175110713Y-105379761D01*
X175063094Y-105332142D01*
%TO.C,F1*%
X214603571Y-58567857D02*
X214603571Y-58901190D01*
X215127380Y-58901190D02*
X214127380Y-58901190D01*
X214127380Y-58425000D01*
X214460714Y-57615476D02*
X215127380Y-57615476D01*
X214460714Y-58044047D02*
X214984523Y-58044047D01*
X215079761Y-57996428D01*
X215127380Y-57901190D01*
X215127380Y-57758333D01*
X215079761Y-57663095D01*
X215032142Y-57615476D01*
X215079761Y-57186904D02*
X215127380Y-57091666D01*
X215127380Y-56901190D01*
X215079761Y-56805952D01*
X214984523Y-56758333D01*
X214936904Y-56758333D01*
X214841666Y-56805952D01*
X214794047Y-56901190D01*
X214794047Y-57044047D01*
X214746428Y-57139285D01*
X214651190Y-57186904D01*
X214603571Y-57186904D01*
X214508333Y-57139285D01*
X214460714Y-57044047D01*
X214460714Y-56901190D01*
X214508333Y-56805952D01*
X215079761Y-55948809D02*
X215127380Y-56044047D01*
X215127380Y-56234523D01*
X215079761Y-56329761D01*
X214984523Y-56377380D01*
X214603571Y-56377380D01*
X214508333Y-56329761D01*
X214460714Y-56234523D01*
X214460714Y-56044047D01*
X214508333Y-55948809D01*
X214603571Y-55901190D01*
X214698809Y-55901190D01*
X214794047Y-56377380D01*
X216603571Y-56008333D02*
X216603571Y-56341666D01*
X217127380Y-56341666D02*
X216127380Y-56341666D01*
X216127380Y-55865476D01*
X217127380Y-54960714D02*
X217127380Y-55532142D01*
X217127380Y-55246428D02*
X216127380Y-55246428D01*
X216270238Y-55341666D01*
X216365476Y-55436904D01*
X216413095Y-55532142D01*
%TO.C,C18*%
X126666665Y-42732142D02*
X126619046Y-42779761D01*
X126476189Y-42827380D01*
X126380951Y-42827380D01*
X126238094Y-42779761D01*
X126142856Y-42684523D01*
X126095237Y-42589285D01*
X126047618Y-42398809D01*
X126047618Y-42255952D01*
X126095237Y-42065476D01*
X126142856Y-41970238D01*
X126238094Y-41875000D01*
X126380951Y-41827380D01*
X126476189Y-41827380D01*
X126619046Y-41875000D01*
X126666665Y-41922619D01*
X125714284Y-36482142D02*
X125666665Y-36529761D01*
X125523808Y-36577380D01*
X125428570Y-36577380D01*
X125285713Y-36529761D01*
X125190475Y-36434523D01*
X125142856Y-36339285D01*
X125095237Y-36148809D01*
X125095237Y-36005952D01*
X125142856Y-35815476D01*
X125190475Y-35720238D01*
X125285713Y-35625000D01*
X125428570Y-35577380D01*
X125523808Y-35577380D01*
X125666665Y-35625000D01*
X125714284Y-35672619D01*
X126666665Y-36577380D02*
X126095237Y-36577380D01*
X126380951Y-36577380D02*
X126380951Y-35577380D01*
X126285713Y-35720238D01*
X126190475Y-35815476D01*
X126095237Y-35863095D01*
X127238094Y-36005952D02*
X127142856Y-35958333D01*
X127095237Y-35910714D01*
X127047618Y-35815476D01*
X127047618Y-35767857D01*
X127095237Y-35672619D01*
X127142856Y-35625000D01*
X127238094Y-35577380D01*
X127428570Y-35577380D01*
X127523808Y-35625000D01*
X127571427Y-35672619D01*
X127619046Y-35767857D01*
X127619046Y-35815476D01*
X127571427Y-35910714D01*
X127523808Y-35958333D01*
X127428570Y-36005952D01*
X127238094Y-36005952D01*
X127142856Y-36053571D01*
X127095237Y-36101190D01*
X127047618Y-36196428D01*
X127047618Y-36386904D01*
X127095237Y-36482142D01*
X127142856Y-36529761D01*
X127238094Y-36577380D01*
X127428570Y-36577380D01*
X127523808Y-36529761D01*
X127571427Y-36482142D01*
X127619046Y-36386904D01*
X127619046Y-36196428D01*
X127571427Y-36101190D01*
X127523808Y-36053571D01*
X127428570Y-36005952D01*
%TO.C,Y1*%
X138499285Y-59007142D02*
X138451666Y-59054761D01*
X138308809Y-59102380D01*
X138213571Y-59102380D01*
X138070714Y-59054761D01*
X137975476Y-58959523D01*
X137927857Y-58864285D01*
X137880238Y-58673809D01*
X137880238Y-58530952D01*
X137927857Y-58340476D01*
X137975476Y-58245238D01*
X138070714Y-58150000D01*
X138213571Y-58102380D01*
X138308809Y-58102380D01*
X138451666Y-58150000D01*
X138499285Y-58197619D01*
X138927857Y-59102380D02*
X138927857Y-58435714D01*
X138927857Y-58626190D02*
X138975476Y-58530952D01*
X139023095Y-58483333D01*
X139118333Y-58435714D01*
X139213571Y-58435714D01*
X139451666Y-58435714D02*
X139689761Y-59102380D01*
X139927857Y-58435714D02*
X139689761Y-59102380D01*
X139594523Y-59340476D01*
X139546904Y-59388095D01*
X139451666Y-59435714D01*
X140261190Y-59054761D02*
X140356428Y-59102380D01*
X140546904Y-59102380D01*
X140642142Y-59054761D01*
X140689761Y-58959523D01*
X140689761Y-58911904D01*
X140642142Y-58816666D01*
X140546904Y-58769047D01*
X140404047Y-58769047D01*
X140308809Y-58721428D01*
X140261190Y-58626190D01*
X140261190Y-58578571D01*
X140308809Y-58483333D01*
X140404047Y-58435714D01*
X140546904Y-58435714D01*
X140642142Y-58483333D01*
X140975476Y-58435714D02*
X141356428Y-58435714D01*
X141118333Y-58102380D02*
X141118333Y-58959523D01*
X141165952Y-59054761D01*
X141261190Y-59102380D01*
X141356428Y-59102380D01*
X142118333Y-59102380D02*
X142118333Y-58578571D01*
X142070714Y-58483333D01*
X141975476Y-58435714D01*
X141785000Y-58435714D01*
X141689761Y-58483333D01*
X142118333Y-59054761D02*
X142023095Y-59102380D01*
X141785000Y-59102380D01*
X141689761Y-59054761D01*
X141642142Y-58959523D01*
X141642142Y-58864285D01*
X141689761Y-58769047D01*
X141785000Y-58721428D01*
X142023095Y-58721428D01*
X142118333Y-58673809D01*
X142737380Y-59102380D02*
X142642142Y-59054761D01*
X142594523Y-58959523D01*
X142594523Y-58102380D01*
X139808809Y-62151190D02*
X139808809Y-62627380D01*
X139475476Y-61627380D02*
X139808809Y-62151190D01*
X140142142Y-61627380D01*
X140999285Y-62627380D02*
X140427857Y-62627380D01*
X140713571Y-62627380D02*
X140713571Y-61627380D01*
X140618333Y-61770238D01*
X140523095Y-61865476D01*
X140427857Y-61913095D01*
D12*
%TO.C,J17*%
X109577857Y-111475000D02*
X109577857Y-111975000D01*
X108577857Y-111475000D02*
X109577857Y-111475000D01*
X108577857Y-111475000D02*
X108577857Y-97975000D01*
X95077857Y-111975000D02*
X95077857Y-111475000D01*
X98827857Y-98225000D02*
X99077857Y-97975000D01*
X95077857Y-111475000D02*
X96077857Y-111475000D01*
X98577857Y-97975000D02*
X98827857Y-98225000D01*
X95077857Y-111975000D02*
X109577857Y-111975000D01*
X96077857Y-111475000D02*
X96077857Y-97975000D01*
X96077857Y-97975000D02*
X108577857Y-97975000D01*
%TO.C,C3*%
X157150000Y-44000000D02*
G75*
G03*
X157150000Y-44000000I-5000000J0D01*
G01*
%TO.C,C2*%
X157650000Y-54900000D02*
G75*
G03*
X157650000Y-54900000I-5000000J0D01*
G01*
%TO.C,C31*%
X83250000Y-90650000D02*
G75*
G03*
X83250000Y-90650000I-5000000J0D01*
G01*
%TO.C,Y5*%
X84900000Y-78435000D02*
X84900000Y-72435000D01*
X89225000Y-78560000D02*
X89225000Y-72310000D01*
X84575000Y-78560000D02*
X84575000Y-72310000D01*
X88900000Y-78435000D02*
X88900000Y-72435000D01*
X88900000Y-72435000D02*
G75*
G03*
X84900000Y-72435000I-2000000J0D01*
G01*
X89225000Y-72310000D02*
G75*
G03*
X84575000Y-72310000I-2325000J0D01*
G01*
X84575000Y-78560000D02*
G75*
G03*
X89225000Y-78560000I2325000J0D01*
G01*
X84900000Y-78435000D02*
G75*
G03*
X88900000Y-78435000I2000000J0D01*
G01*
%TO.C,C28*%
X137450000Y-90650000D02*
G75*
G03*
X137450000Y-90650000I-5000000J0D01*
G01*
%TO.C,D3*%
X210133810Y-68555000D02*
X212466190Y-68555000D01*
X212465476Y-68555555D02*
G75*
G03*
X210133810Y-68555000I-1165476J1500555D01*
G01*
X212800000Y-67055000D02*
G75*
G03*
X212800000Y-67055000I-1500000J0D01*
G01*
%TO.C,J10*%
X218650000Y-15275000D02*
X217650000Y-15275000D01*
X205150000Y-15275000D02*
X204150000Y-15275000D01*
X217650000Y-28775000D02*
X205150000Y-28775000D01*
X218650000Y-14775000D02*
X218650000Y-15275000D01*
X218650000Y-14775000D02*
X204150000Y-14775000D01*
X205150000Y-15275000D02*
X205150000Y-28775000D01*
X214900000Y-28525000D02*
X214650000Y-28775000D01*
X204150000Y-15275000D02*
X204150000Y-14775000D01*
X215150000Y-28775000D02*
X214900000Y-28525000D01*
X217650000Y-15275000D02*
X217650000Y-28775000D01*
%TO.C,C17*%
X113153571Y-36125000D02*
G75*
G03*
X113153571Y-36125000I-5000000J0D01*
G01*
D13*
%TO.C,U3*%
X191809000Y-50394600D02*
X191301000Y-50394600D01*
X191301000Y-50394600D02*
X191301000Y-49251600D01*
X191301000Y-49251600D02*
X191809000Y-49251600D01*
X191809000Y-49251600D02*
X191809000Y-50394600D01*
G36*
X191809000Y-50394600D02*
G01*
X191301000Y-50394600D01*
X191301000Y-49251600D01*
X191809000Y-49251600D01*
X191809000Y-50394600D01*
G37*
X191809000Y-50394600D02*
X191301000Y-50394600D01*
X191301000Y-49251600D01*
X191809000Y-49251600D01*
X191809000Y-50394600D01*
X190539000Y-50369200D02*
X190031000Y-50369200D01*
X190031000Y-50369200D02*
X190031000Y-49226200D01*
X190031000Y-49226200D02*
X190539000Y-49226200D01*
X190539000Y-49226200D02*
X190539000Y-50369200D01*
G36*
X190539000Y-50369200D02*
G01*
X190031000Y-50369200D01*
X190031000Y-49226200D01*
X190539000Y-49226200D01*
X190539000Y-50369200D01*
G37*
X190539000Y-50369200D02*
X190031000Y-50369200D01*
X190031000Y-49226200D01*
X190539000Y-49226200D01*
X190539000Y-50369200D01*
X193079000Y-50369200D02*
X192571000Y-50369200D01*
X192571000Y-50369200D02*
X192571000Y-49226200D01*
X192571000Y-49226200D02*
X193079000Y-49226200D01*
X193079000Y-49226200D02*
X193079000Y-50369200D01*
G36*
X193079000Y-50369200D02*
G01*
X192571000Y-50369200D01*
X192571000Y-49226200D01*
X193079000Y-49226200D01*
X193079000Y-50369200D01*
G37*
X193079000Y-50369200D02*
X192571000Y-50369200D01*
X192571000Y-49226200D01*
X193079000Y-49226200D01*
X193079000Y-50369200D01*
X193079000Y-55423800D02*
X192571000Y-55423800D01*
X192571000Y-55423800D02*
X192571000Y-54280800D01*
X192571000Y-54280800D02*
X193079000Y-54280800D01*
X193079000Y-54280800D02*
X193079000Y-55423800D01*
G36*
X193079000Y-55423800D02*
G01*
X192571000Y-55423800D01*
X192571000Y-54280800D01*
X193079000Y-54280800D01*
X193079000Y-55423800D01*
G37*
X193079000Y-55423800D02*
X192571000Y-55423800D01*
X192571000Y-54280800D01*
X193079000Y-54280800D01*
X193079000Y-55423800D01*
X189269000Y-55423800D02*
X188761000Y-55423800D01*
X188761000Y-55423800D02*
X188761000Y-54280800D01*
X188761000Y-54280800D02*
X189269000Y-54280800D01*
X189269000Y-54280800D02*
X189269000Y-55423800D01*
G36*
X189269000Y-55423800D02*
G01*
X188761000Y-55423800D01*
X188761000Y-54280800D01*
X189269000Y-54280800D01*
X189269000Y-55423800D01*
G37*
X189269000Y-55423800D02*
X188761000Y-55423800D01*
X188761000Y-54280800D01*
X189269000Y-54280800D01*
X189269000Y-55423800D01*
X191809000Y-55423800D02*
X191301000Y-55423800D01*
X191301000Y-55423800D02*
X191301000Y-54280800D01*
X191301000Y-54280800D02*
X191809000Y-54280800D01*
X191809000Y-54280800D02*
X191809000Y-55423800D01*
G36*
X191809000Y-55423800D02*
G01*
X191301000Y-55423800D01*
X191301000Y-54280800D01*
X191809000Y-54280800D01*
X191809000Y-55423800D01*
G37*
X191809000Y-55423800D02*
X191301000Y-55423800D01*
X191301000Y-54280800D01*
X191809000Y-54280800D01*
X191809000Y-55423800D01*
X187999000Y-55423800D02*
X187491000Y-55423800D01*
X187491000Y-55423800D02*
X187491000Y-54280800D01*
X187491000Y-54280800D02*
X187999000Y-54280800D01*
X187999000Y-54280800D02*
X187999000Y-55423800D01*
G36*
X187999000Y-55423800D02*
G01*
X187491000Y-55423800D01*
X187491000Y-54280800D01*
X187999000Y-54280800D01*
X187999000Y-55423800D01*
G37*
X187999000Y-55423800D02*
X187491000Y-55423800D01*
X187491000Y-54280800D01*
X187999000Y-54280800D01*
X187999000Y-55423800D01*
X186729000Y-50369200D02*
X186221000Y-50369200D01*
X186221000Y-50369200D02*
X186221000Y-49226200D01*
X186221000Y-49226200D02*
X186729000Y-49226200D01*
X186729000Y-49226200D02*
X186729000Y-50369200D01*
G36*
X186729000Y-50369200D02*
G01*
X186221000Y-50369200D01*
X186221000Y-49226200D01*
X186729000Y-49226200D01*
X186729000Y-50369200D01*
G37*
X186729000Y-50369200D02*
X186221000Y-50369200D01*
X186221000Y-49226200D01*
X186729000Y-49226200D01*
X186729000Y-50369200D01*
X189269000Y-50369200D02*
X188761000Y-50369200D01*
X188761000Y-50369200D02*
X188761000Y-49226200D01*
X188761000Y-49226200D02*
X189269000Y-49226200D01*
X189269000Y-49226200D02*
X189269000Y-50369200D01*
G36*
X189269000Y-50369200D02*
G01*
X188761000Y-50369200D01*
X188761000Y-49226200D01*
X189269000Y-49226200D01*
X189269000Y-50369200D01*
G37*
X189269000Y-50369200D02*
X188761000Y-50369200D01*
X188761000Y-49226200D01*
X189269000Y-49226200D01*
X189269000Y-50369200D01*
X185459000Y-55423800D02*
X184951000Y-55423800D01*
X184951000Y-55423800D02*
X184951000Y-54280800D01*
X184951000Y-54280800D02*
X185459000Y-54280800D01*
X185459000Y-54280800D02*
X185459000Y-55423800D01*
G36*
X185459000Y-55423800D02*
G01*
X184951000Y-55423800D01*
X184951000Y-54280800D01*
X185459000Y-54280800D01*
X185459000Y-55423800D01*
G37*
X185459000Y-55423800D02*
X184951000Y-55423800D01*
X184951000Y-54280800D01*
X185459000Y-54280800D01*
X185459000Y-55423800D01*
X194349000Y-50369200D02*
X193841000Y-50369200D01*
X193841000Y-50369200D02*
X193841000Y-49226200D01*
X193841000Y-49226200D02*
X194349000Y-49226200D01*
X194349000Y-49226200D02*
X194349000Y-50369200D01*
G36*
X194349000Y-50369200D02*
G01*
X193841000Y-50369200D01*
X193841000Y-49226200D01*
X194349000Y-49226200D01*
X194349000Y-50369200D01*
G37*
X194349000Y-50369200D02*
X193841000Y-50369200D01*
X193841000Y-49226200D01*
X194349000Y-49226200D01*
X194349000Y-50369200D01*
X186729000Y-55423800D02*
X186221000Y-55423800D01*
X186221000Y-55423800D02*
X186221000Y-54280800D01*
X186221000Y-54280800D02*
X186729000Y-54280800D01*
X186729000Y-54280800D02*
X186729000Y-55423800D01*
G36*
X186729000Y-55423800D02*
G01*
X186221000Y-55423800D01*
X186221000Y-54280800D01*
X186729000Y-54280800D01*
X186729000Y-55423800D01*
G37*
X186729000Y-55423800D02*
X186221000Y-55423800D01*
X186221000Y-54280800D01*
X186729000Y-54280800D01*
X186729000Y-55423800D01*
X185459000Y-50369200D02*
X184951000Y-50369200D01*
X184951000Y-50369200D02*
X184951000Y-49226200D01*
X184951000Y-49226200D02*
X185459000Y-49226200D01*
X185459000Y-49226200D02*
X185459000Y-50369200D01*
G36*
X185459000Y-50369200D02*
G01*
X184951000Y-50369200D01*
X184951000Y-49226200D01*
X185459000Y-49226200D01*
X185459000Y-50369200D01*
G37*
X185459000Y-50369200D02*
X184951000Y-50369200D01*
X184951000Y-49226200D01*
X185459000Y-49226200D01*
X185459000Y-50369200D01*
X190539000Y-55423800D02*
X190031000Y-55423800D01*
X190031000Y-55423800D02*
X190031000Y-54280800D01*
X190031000Y-54280800D02*
X190539000Y-54280800D01*
X190539000Y-54280800D02*
X190539000Y-55423800D01*
G36*
X190539000Y-55423800D02*
G01*
X190031000Y-55423800D01*
X190031000Y-54280800D01*
X190539000Y-54280800D01*
X190539000Y-55423800D01*
G37*
X190539000Y-55423800D02*
X190031000Y-55423800D01*
X190031000Y-54280800D01*
X190539000Y-54280800D01*
X190539000Y-55423800D01*
X187999000Y-50369200D02*
X187491000Y-50369200D01*
X187491000Y-50369200D02*
X187491000Y-49226200D01*
X187491000Y-49226200D02*
X187999000Y-49226200D01*
X187999000Y-49226200D02*
X187999000Y-50369200D01*
G36*
X187999000Y-50369200D02*
G01*
X187491000Y-50369200D01*
X187491000Y-49226200D01*
X187999000Y-49226200D01*
X187999000Y-50369200D01*
G37*
X187999000Y-50369200D02*
X187491000Y-50369200D01*
X187491000Y-49226200D01*
X187999000Y-49226200D01*
X187999000Y-50369200D01*
X194349000Y-55423800D02*
X193841000Y-55423800D01*
X193841000Y-55423800D02*
X193841000Y-54280800D01*
X193841000Y-54280800D02*
X194349000Y-54280800D01*
X194349000Y-54280800D02*
X194349000Y-55423800D01*
G36*
X194349000Y-55423800D02*
G01*
X193841000Y-55423800D01*
X193841000Y-54280800D01*
X194349000Y-54280800D01*
X194349000Y-55423800D01*
G37*
X194349000Y-55423800D02*
X193841000Y-55423800D01*
X193841000Y-54280800D01*
X194349000Y-54280800D01*
X194349000Y-55423800D01*
D12*
%TO.C,Y2*%
X126850000Y-48215000D02*
X126850000Y-54465000D01*
X131500000Y-48215000D02*
X131500000Y-54465000D01*
X127175000Y-48340000D02*
X127175000Y-54340000D01*
X131175000Y-48340000D02*
X131175000Y-54340000D01*
X126850000Y-54465000D02*
G75*
G03*
X131500000Y-54465000I2325000J0D01*
G01*
X131175000Y-48340000D02*
G75*
G03*
X127175000Y-48340000I-2000000J0D01*
G01*
X127175000Y-54340000D02*
G75*
G03*
X131175000Y-54340000I2000000J0D01*
G01*
X131500000Y-48215000D02*
G75*
G03*
X126850000Y-48215000I-2325000J0D01*
G01*
D13*
%TO.C,U5*%
X98351000Y-71851200D02*
X98859000Y-71851200D01*
X98859000Y-71851200D02*
X98859000Y-72994200D01*
X98859000Y-72994200D02*
X98351000Y-72994200D01*
X98351000Y-72994200D02*
X98351000Y-71851200D01*
G36*
X98859000Y-72994200D02*
G01*
X98351000Y-72994200D01*
X98351000Y-71851200D01*
X98859000Y-71851200D01*
X98859000Y-72994200D01*
G37*
X98859000Y-72994200D02*
X98351000Y-72994200D01*
X98351000Y-71851200D01*
X98859000Y-71851200D01*
X98859000Y-72994200D01*
X93271000Y-71851200D02*
X93779000Y-71851200D01*
X93779000Y-71851200D02*
X93779000Y-72994200D01*
X93779000Y-72994200D02*
X93271000Y-72994200D01*
X93271000Y-72994200D02*
X93271000Y-71851200D01*
G36*
X93779000Y-72994200D02*
G01*
X93271000Y-72994200D01*
X93271000Y-71851200D01*
X93779000Y-71851200D01*
X93779000Y-72994200D01*
G37*
X93779000Y-72994200D02*
X93271000Y-72994200D01*
X93271000Y-71851200D01*
X93779000Y-71851200D01*
X93779000Y-72994200D01*
X100891000Y-71851200D02*
X101399000Y-71851200D01*
X101399000Y-71851200D02*
X101399000Y-72994200D01*
X101399000Y-72994200D02*
X100891000Y-72994200D01*
X100891000Y-72994200D02*
X100891000Y-71851200D01*
G36*
X101399000Y-72994200D02*
G01*
X100891000Y-72994200D01*
X100891000Y-71851200D01*
X101399000Y-71851200D01*
X101399000Y-72994200D01*
G37*
X101399000Y-72994200D02*
X100891000Y-72994200D01*
X100891000Y-71851200D01*
X101399000Y-71851200D01*
X101399000Y-72994200D01*
X92001000Y-71851200D02*
X92509000Y-71851200D01*
X92509000Y-71851200D02*
X92509000Y-72994200D01*
X92509000Y-72994200D02*
X92001000Y-72994200D01*
X92001000Y-72994200D02*
X92001000Y-71851200D01*
G36*
X92509000Y-72994200D02*
G01*
X92001000Y-72994200D01*
X92001000Y-71851200D01*
X92509000Y-71851200D01*
X92509000Y-72994200D01*
G37*
X92509000Y-72994200D02*
X92001000Y-72994200D01*
X92001000Y-71851200D01*
X92509000Y-71851200D01*
X92509000Y-72994200D01*
X93271000Y-76905800D02*
X93779000Y-76905800D01*
X93779000Y-76905800D02*
X93779000Y-78048800D01*
X93779000Y-78048800D02*
X93271000Y-78048800D01*
X93271000Y-78048800D02*
X93271000Y-76905800D01*
G36*
X93779000Y-78048800D02*
G01*
X93271000Y-78048800D01*
X93271000Y-76905800D01*
X93779000Y-76905800D01*
X93779000Y-78048800D01*
G37*
X93779000Y-78048800D02*
X93271000Y-78048800D01*
X93271000Y-76905800D01*
X93779000Y-76905800D01*
X93779000Y-78048800D01*
X94541000Y-76880400D02*
X95049000Y-76880400D01*
X95049000Y-76880400D02*
X95049000Y-78023400D01*
X95049000Y-78023400D02*
X94541000Y-78023400D01*
X94541000Y-78023400D02*
X94541000Y-76880400D01*
G36*
X95049000Y-78023400D02*
G01*
X94541000Y-78023400D01*
X94541000Y-76880400D01*
X95049000Y-76880400D01*
X95049000Y-78023400D01*
G37*
X95049000Y-78023400D02*
X94541000Y-78023400D01*
X94541000Y-76880400D01*
X95049000Y-76880400D01*
X95049000Y-78023400D01*
X99621000Y-76905800D02*
X100129000Y-76905800D01*
X100129000Y-76905800D02*
X100129000Y-78048800D01*
X100129000Y-78048800D02*
X99621000Y-78048800D01*
X99621000Y-78048800D02*
X99621000Y-76905800D01*
G36*
X100129000Y-78048800D02*
G01*
X99621000Y-78048800D01*
X99621000Y-76905800D01*
X100129000Y-76905800D01*
X100129000Y-78048800D01*
G37*
X100129000Y-78048800D02*
X99621000Y-78048800D01*
X99621000Y-76905800D01*
X100129000Y-76905800D01*
X100129000Y-78048800D01*
X95811000Y-71851200D02*
X96319000Y-71851200D01*
X96319000Y-71851200D02*
X96319000Y-72994200D01*
X96319000Y-72994200D02*
X95811000Y-72994200D01*
X95811000Y-72994200D02*
X95811000Y-71851200D01*
G36*
X96319000Y-72994200D02*
G01*
X95811000Y-72994200D01*
X95811000Y-71851200D01*
X96319000Y-71851200D01*
X96319000Y-72994200D01*
G37*
X96319000Y-72994200D02*
X95811000Y-72994200D01*
X95811000Y-71851200D01*
X96319000Y-71851200D01*
X96319000Y-72994200D01*
X95811000Y-76905800D02*
X96319000Y-76905800D01*
X96319000Y-76905800D02*
X96319000Y-78048800D01*
X96319000Y-78048800D02*
X95811000Y-78048800D01*
X95811000Y-78048800D02*
X95811000Y-76905800D01*
G36*
X96319000Y-78048800D02*
G01*
X95811000Y-78048800D01*
X95811000Y-76905800D01*
X96319000Y-76905800D01*
X96319000Y-78048800D01*
G37*
X96319000Y-78048800D02*
X95811000Y-78048800D01*
X95811000Y-76905800D01*
X96319000Y-76905800D01*
X96319000Y-78048800D01*
X98351000Y-76905800D02*
X98859000Y-76905800D01*
X98859000Y-76905800D02*
X98859000Y-78048800D01*
X98859000Y-78048800D02*
X98351000Y-78048800D01*
X98351000Y-78048800D02*
X98351000Y-76905800D01*
G36*
X98859000Y-78048800D02*
G01*
X98351000Y-78048800D01*
X98351000Y-76905800D01*
X98859000Y-76905800D01*
X98859000Y-78048800D01*
G37*
X98859000Y-78048800D02*
X98351000Y-78048800D01*
X98351000Y-76905800D01*
X98859000Y-76905800D01*
X98859000Y-78048800D01*
X100891000Y-76905800D02*
X101399000Y-76905800D01*
X101399000Y-76905800D02*
X101399000Y-78048800D01*
X101399000Y-78048800D02*
X100891000Y-78048800D01*
X100891000Y-78048800D02*
X100891000Y-76905800D01*
G36*
X101399000Y-78048800D02*
G01*
X100891000Y-78048800D01*
X100891000Y-76905800D01*
X101399000Y-76905800D01*
X101399000Y-78048800D01*
G37*
X101399000Y-78048800D02*
X100891000Y-78048800D01*
X100891000Y-76905800D01*
X101399000Y-76905800D01*
X101399000Y-78048800D01*
X94541000Y-71851200D02*
X95049000Y-71851200D01*
X95049000Y-71851200D02*
X95049000Y-72994200D01*
X95049000Y-72994200D02*
X94541000Y-72994200D01*
X94541000Y-72994200D02*
X94541000Y-71851200D01*
G36*
X95049000Y-72994200D02*
G01*
X94541000Y-72994200D01*
X94541000Y-71851200D01*
X95049000Y-71851200D01*
X95049000Y-72994200D01*
G37*
X95049000Y-72994200D02*
X94541000Y-72994200D01*
X94541000Y-71851200D01*
X95049000Y-71851200D01*
X95049000Y-72994200D01*
X97081000Y-71851200D02*
X97589000Y-71851200D01*
X97589000Y-71851200D02*
X97589000Y-72994200D01*
X97589000Y-72994200D02*
X97081000Y-72994200D01*
X97081000Y-72994200D02*
X97081000Y-71851200D01*
G36*
X97589000Y-72994200D02*
G01*
X97081000Y-72994200D01*
X97081000Y-71851200D01*
X97589000Y-71851200D01*
X97589000Y-72994200D01*
G37*
X97589000Y-72994200D02*
X97081000Y-72994200D01*
X97081000Y-71851200D01*
X97589000Y-71851200D01*
X97589000Y-72994200D01*
X92001000Y-76905800D02*
X92509000Y-76905800D01*
X92509000Y-76905800D02*
X92509000Y-78048800D01*
X92509000Y-78048800D02*
X92001000Y-78048800D01*
X92001000Y-78048800D02*
X92001000Y-76905800D01*
G36*
X92509000Y-78048800D02*
G01*
X92001000Y-78048800D01*
X92001000Y-76905800D01*
X92509000Y-76905800D01*
X92509000Y-78048800D01*
G37*
X92509000Y-78048800D02*
X92001000Y-78048800D01*
X92001000Y-76905800D01*
X92509000Y-76905800D01*
X92509000Y-78048800D01*
X99621000Y-71851200D02*
X100129000Y-71851200D01*
X100129000Y-71851200D02*
X100129000Y-72994200D01*
X100129000Y-72994200D02*
X99621000Y-72994200D01*
X99621000Y-72994200D02*
X99621000Y-71851200D01*
G36*
X100129000Y-72994200D02*
G01*
X99621000Y-72994200D01*
X99621000Y-71851200D01*
X100129000Y-71851200D01*
X100129000Y-72994200D01*
G37*
X100129000Y-72994200D02*
X99621000Y-72994200D01*
X99621000Y-71851200D01*
X100129000Y-71851200D01*
X100129000Y-72994200D01*
X97081000Y-76905800D02*
X97589000Y-76905800D01*
X97589000Y-76905800D02*
X97589000Y-78048800D01*
X97589000Y-78048800D02*
X97081000Y-78048800D01*
X97081000Y-78048800D02*
X97081000Y-76905800D01*
G36*
X97589000Y-78048800D02*
G01*
X97081000Y-78048800D01*
X97081000Y-76905800D01*
X97589000Y-76905800D01*
X97589000Y-78048800D01*
G37*
X97589000Y-78048800D02*
X97081000Y-78048800D01*
X97081000Y-76905800D01*
X97589000Y-76905800D01*
X97589000Y-78048800D01*
D12*
%TO.C,R1*%
X206025000Y-72425000D02*
X206025000Y-70525000D01*
X206825000Y-72425000D02*
G75*
G03*
X206825000Y-72425000I-800000J0D01*
G01*
D13*
%TO.C,U2*%
X119069000Y-49819200D02*
X118561000Y-49819200D01*
X118561000Y-49819200D02*
X118561000Y-48676200D01*
X118561000Y-48676200D02*
X119069000Y-48676200D01*
X119069000Y-48676200D02*
X119069000Y-49819200D01*
G36*
X119069000Y-49819200D02*
G01*
X118561000Y-49819200D01*
X118561000Y-48676200D01*
X119069000Y-48676200D01*
X119069000Y-49819200D01*
G37*
X119069000Y-49819200D02*
X118561000Y-49819200D01*
X118561000Y-48676200D01*
X119069000Y-48676200D01*
X119069000Y-49819200D01*
X120339000Y-49819200D02*
X119831000Y-49819200D01*
X119831000Y-49819200D02*
X119831000Y-48676200D01*
X119831000Y-48676200D02*
X120339000Y-48676200D01*
X120339000Y-48676200D02*
X120339000Y-49819200D01*
G36*
X120339000Y-49819200D02*
G01*
X119831000Y-49819200D01*
X119831000Y-48676200D01*
X120339000Y-48676200D01*
X120339000Y-49819200D01*
G37*
X120339000Y-49819200D02*
X119831000Y-49819200D01*
X119831000Y-48676200D01*
X120339000Y-48676200D01*
X120339000Y-49819200D01*
X115259000Y-54873800D02*
X114751000Y-54873800D01*
X114751000Y-54873800D02*
X114751000Y-53730800D01*
X114751000Y-53730800D02*
X115259000Y-53730800D01*
X115259000Y-53730800D02*
X115259000Y-54873800D01*
G36*
X115259000Y-54873800D02*
G01*
X114751000Y-54873800D01*
X114751000Y-53730800D01*
X115259000Y-53730800D01*
X115259000Y-54873800D01*
G37*
X115259000Y-54873800D02*
X114751000Y-54873800D01*
X114751000Y-53730800D01*
X115259000Y-53730800D01*
X115259000Y-54873800D01*
X119069000Y-54873800D02*
X118561000Y-54873800D01*
X118561000Y-54873800D02*
X118561000Y-53730800D01*
X118561000Y-53730800D02*
X119069000Y-53730800D01*
X119069000Y-53730800D02*
X119069000Y-54873800D01*
G36*
X119069000Y-54873800D02*
G01*
X118561000Y-54873800D01*
X118561000Y-53730800D01*
X119069000Y-53730800D01*
X119069000Y-54873800D01*
G37*
X119069000Y-54873800D02*
X118561000Y-54873800D01*
X118561000Y-53730800D01*
X119069000Y-53730800D01*
X119069000Y-54873800D01*
X116529000Y-54873800D02*
X116021000Y-54873800D01*
X116021000Y-54873800D02*
X116021000Y-53730800D01*
X116021000Y-53730800D02*
X116529000Y-53730800D01*
X116529000Y-53730800D02*
X116529000Y-54873800D01*
G36*
X116529000Y-54873800D02*
G01*
X116021000Y-54873800D01*
X116021000Y-53730800D01*
X116529000Y-53730800D01*
X116529000Y-54873800D01*
G37*
X116529000Y-54873800D02*
X116021000Y-54873800D01*
X116021000Y-53730800D01*
X116529000Y-53730800D01*
X116529000Y-54873800D01*
X117799000Y-49819200D02*
X117291000Y-49819200D01*
X117291000Y-49819200D02*
X117291000Y-48676200D01*
X117291000Y-48676200D02*
X117799000Y-48676200D01*
X117799000Y-48676200D02*
X117799000Y-49819200D01*
G36*
X117799000Y-49819200D02*
G01*
X117291000Y-49819200D01*
X117291000Y-48676200D01*
X117799000Y-48676200D01*
X117799000Y-49819200D01*
G37*
X117799000Y-49819200D02*
X117291000Y-49819200D01*
X117291000Y-48676200D01*
X117799000Y-48676200D01*
X117799000Y-49819200D01*
X124149000Y-49819200D02*
X123641000Y-49819200D01*
X123641000Y-49819200D02*
X123641000Y-48676200D01*
X123641000Y-48676200D02*
X124149000Y-48676200D01*
X124149000Y-48676200D02*
X124149000Y-49819200D01*
G36*
X124149000Y-49819200D02*
G01*
X123641000Y-49819200D01*
X123641000Y-48676200D01*
X124149000Y-48676200D01*
X124149000Y-49819200D01*
G37*
X124149000Y-49819200D02*
X123641000Y-49819200D01*
X123641000Y-48676200D01*
X124149000Y-48676200D01*
X124149000Y-49819200D01*
X122879000Y-49819200D02*
X122371000Y-49819200D01*
X122371000Y-49819200D02*
X122371000Y-48676200D01*
X122371000Y-48676200D02*
X122879000Y-48676200D01*
X122879000Y-48676200D02*
X122879000Y-49819200D01*
G36*
X122879000Y-49819200D02*
G01*
X122371000Y-49819200D01*
X122371000Y-48676200D01*
X122879000Y-48676200D01*
X122879000Y-49819200D01*
G37*
X122879000Y-49819200D02*
X122371000Y-49819200D01*
X122371000Y-48676200D01*
X122879000Y-48676200D01*
X122879000Y-49819200D01*
X121609000Y-54873800D02*
X121101000Y-54873800D01*
X121101000Y-54873800D02*
X121101000Y-53730800D01*
X121101000Y-53730800D02*
X121609000Y-53730800D01*
X121609000Y-53730800D02*
X121609000Y-54873800D01*
G36*
X121609000Y-54873800D02*
G01*
X121101000Y-54873800D01*
X121101000Y-53730800D01*
X121609000Y-53730800D01*
X121609000Y-54873800D01*
G37*
X121609000Y-54873800D02*
X121101000Y-54873800D01*
X121101000Y-53730800D01*
X121609000Y-53730800D01*
X121609000Y-54873800D01*
X115259000Y-49819200D02*
X114751000Y-49819200D01*
X114751000Y-49819200D02*
X114751000Y-48676200D01*
X114751000Y-48676200D02*
X115259000Y-48676200D01*
X115259000Y-48676200D02*
X115259000Y-49819200D01*
G36*
X115259000Y-49819200D02*
G01*
X114751000Y-49819200D01*
X114751000Y-48676200D01*
X115259000Y-48676200D01*
X115259000Y-49819200D01*
G37*
X115259000Y-49819200D02*
X114751000Y-49819200D01*
X114751000Y-48676200D01*
X115259000Y-48676200D01*
X115259000Y-49819200D01*
X121609000Y-49844600D02*
X121101000Y-49844600D01*
X121101000Y-49844600D02*
X121101000Y-48701600D01*
X121101000Y-48701600D02*
X121609000Y-48701600D01*
X121609000Y-48701600D02*
X121609000Y-49844600D01*
G36*
X121609000Y-49844600D02*
G01*
X121101000Y-49844600D01*
X121101000Y-48701600D01*
X121609000Y-48701600D01*
X121609000Y-49844600D01*
G37*
X121609000Y-49844600D02*
X121101000Y-49844600D01*
X121101000Y-48701600D01*
X121609000Y-48701600D01*
X121609000Y-49844600D01*
X116529000Y-49819200D02*
X116021000Y-49819200D01*
X116021000Y-49819200D02*
X116021000Y-48676200D01*
X116021000Y-48676200D02*
X116529000Y-48676200D01*
X116529000Y-48676200D02*
X116529000Y-49819200D01*
G36*
X116529000Y-49819200D02*
G01*
X116021000Y-49819200D01*
X116021000Y-48676200D01*
X116529000Y-48676200D01*
X116529000Y-49819200D01*
G37*
X116529000Y-49819200D02*
X116021000Y-49819200D01*
X116021000Y-48676200D01*
X116529000Y-48676200D01*
X116529000Y-49819200D01*
X120339000Y-54873800D02*
X119831000Y-54873800D01*
X119831000Y-54873800D02*
X119831000Y-53730800D01*
X119831000Y-53730800D02*
X120339000Y-53730800D01*
X120339000Y-53730800D02*
X120339000Y-54873800D01*
G36*
X120339000Y-54873800D02*
G01*
X119831000Y-54873800D01*
X119831000Y-53730800D01*
X120339000Y-53730800D01*
X120339000Y-54873800D01*
G37*
X120339000Y-54873800D02*
X119831000Y-54873800D01*
X119831000Y-53730800D01*
X120339000Y-53730800D01*
X120339000Y-54873800D01*
X122879000Y-54873800D02*
X122371000Y-54873800D01*
X122371000Y-54873800D02*
X122371000Y-53730800D01*
X122371000Y-53730800D02*
X122879000Y-53730800D01*
X122879000Y-53730800D02*
X122879000Y-54873800D01*
G36*
X122879000Y-54873800D02*
G01*
X122371000Y-54873800D01*
X122371000Y-53730800D01*
X122879000Y-53730800D01*
X122879000Y-54873800D01*
G37*
X122879000Y-54873800D02*
X122371000Y-54873800D01*
X122371000Y-53730800D01*
X122879000Y-53730800D01*
X122879000Y-54873800D01*
X117799000Y-54873800D02*
X117291000Y-54873800D01*
X117291000Y-54873800D02*
X117291000Y-53730800D01*
X117291000Y-53730800D02*
X117799000Y-53730800D01*
X117799000Y-53730800D02*
X117799000Y-54873800D01*
G36*
X117799000Y-54873800D02*
G01*
X117291000Y-54873800D01*
X117291000Y-53730800D01*
X117799000Y-53730800D01*
X117799000Y-54873800D01*
G37*
X117799000Y-54873800D02*
X117291000Y-54873800D01*
X117291000Y-53730800D01*
X117799000Y-53730800D01*
X117799000Y-54873800D01*
X124149000Y-54873800D02*
X123641000Y-54873800D01*
X123641000Y-54873800D02*
X123641000Y-53730800D01*
X123641000Y-53730800D02*
X124149000Y-53730800D01*
X124149000Y-53730800D02*
X124149000Y-54873800D01*
G36*
X124149000Y-54873800D02*
G01*
X123641000Y-54873800D01*
X123641000Y-53730800D01*
X124149000Y-53730800D01*
X124149000Y-54873800D01*
G37*
X124149000Y-54873800D02*
X123641000Y-54873800D01*
X123641000Y-53730800D01*
X124149000Y-53730800D01*
X124149000Y-54873800D01*
D12*
%TO.C,C7*%
X182475000Y-74325000D02*
G75*
G03*
X182475000Y-74325000I-5000000J0D01*
G01*
%TO.C,C19*%
X149560713Y-36125000D02*
G75*
G03*
X149560713Y-36125000I-5000000J0D01*
G01*
%TO.C,J1*%
X217930000Y-93975000D02*
X225230000Y-93975000D01*
X225230000Y-93975000D02*
X225230000Y-85035000D01*
X217930000Y-93975000D02*
X217930000Y-85035000D01*
X217930000Y-85035000D02*
X225230000Y-85035000D01*
%TO.C,C25*%
X191625000Y-90675000D02*
G75*
G03*
X191625000Y-90675000I-5000000J0D01*
G01*
%TO.C,Y3*%
X201700000Y-48960000D02*
X201700000Y-55210000D01*
X197050000Y-48960000D02*
X197050000Y-55210000D01*
X197375000Y-49085000D02*
X197375000Y-55085000D01*
X201375000Y-49085000D02*
X201375000Y-55085000D01*
X197050000Y-55210000D02*
G75*
G03*
X201700000Y-55210000I2325000J0D01*
G01*
X201700000Y-48960000D02*
G75*
G03*
X197050000Y-48960000I-2325000J0D01*
G01*
X197375000Y-55085000D02*
G75*
G03*
X201375000Y-55085000I2000000J0D01*
G01*
X201375000Y-49085000D02*
G75*
G03*
X197375000Y-49085000I-2000000J0D01*
G01*
D13*
%TO.C,U4*%
X163296000Y-77404200D02*
X163804000Y-77404200D01*
X163804000Y-77404200D02*
X163804000Y-78547200D01*
X163804000Y-78547200D02*
X163296000Y-78547200D01*
X163296000Y-78547200D02*
X163296000Y-77404200D01*
G36*
X163804000Y-78547200D02*
G01*
X163296000Y-78547200D01*
X163296000Y-77404200D01*
X163804000Y-77404200D01*
X163804000Y-78547200D01*
G37*
X163804000Y-78547200D02*
X163296000Y-78547200D01*
X163296000Y-77404200D01*
X163804000Y-77404200D01*
X163804000Y-78547200D01*
X170916000Y-72349600D02*
X171424000Y-72349600D01*
X171424000Y-72349600D02*
X171424000Y-73492600D01*
X171424000Y-73492600D02*
X170916000Y-73492600D01*
X170916000Y-73492600D02*
X170916000Y-72349600D01*
G36*
X171424000Y-73492600D02*
G01*
X170916000Y-73492600D01*
X170916000Y-72349600D01*
X171424000Y-72349600D01*
X171424000Y-73492600D01*
G37*
X171424000Y-73492600D02*
X170916000Y-73492600D01*
X170916000Y-72349600D01*
X171424000Y-72349600D01*
X171424000Y-73492600D01*
X164566000Y-77378800D02*
X165074000Y-77378800D01*
X165074000Y-77378800D02*
X165074000Y-78521800D01*
X165074000Y-78521800D02*
X164566000Y-78521800D01*
X164566000Y-78521800D02*
X164566000Y-77378800D01*
G36*
X165074000Y-78521800D02*
G01*
X164566000Y-78521800D01*
X164566000Y-77378800D01*
X165074000Y-77378800D01*
X165074000Y-78521800D01*
G37*
X165074000Y-78521800D02*
X164566000Y-78521800D01*
X164566000Y-77378800D01*
X165074000Y-77378800D01*
X165074000Y-78521800D01*
X163296000Y-72349600D02*
X163804000Y-72349600D01*
X163804000Y-72349600D02*
X163804000Y-73492600D01*
X163804000Y-73492600D02*
X163296000Y-73492600D01*
X163296000Y-73492600D02*
X163296000Y-72349600D01*
G36*
X163804000Y-73492600D02*
G01*
X163296000Y-73492600D01*
X163296000Y-72349600D01*
X163804000Y-72349600D01*
X163804000Y-73492600D01*
G37*
X163804000Y-73492600D02*
X163296000Y-73492600D01*
X163296000Y-72349600D01*
X163804000Y-72349600D01*
X163804000Y-73492600D01*
X168376000Y-77404200D02*
X168884000Y-77404200D01*
X168884000Y-77404200D02*
X168884000Y-78547200D01*
X168884000Y-78547200D02*
X168376000Y-78547200D01*
X168376000Y-78547200D02*
X168376000Y-77404200D01*
G36*
X168884000Y-78547200D02*
G01*
X168376000Y-78547200D01*
X168376000Y-77404200D01*
X168884000Y-77404200D01*
X168884000Y-78547200D01*
G37*
X168884000Y-78547200D02*
X168376000Y-78547200D01*
X168376000Y-77404200D01*
X168884000Y-77404200D01*
X168884000Y-78547200D01*
X165836000Y-72349600D02*
X166344000Y-72349600D01*
X166344000Y-72349600D02*
X166344000Y-73492600D01*
X166344000Y-73492600D02*
X165836000Y-73492600D01*
X165836000Y-73492600D02*
X165836000Y-72349600D01*
G36*
X166344000Y-73492600D02*
G01*
X165836000Y-73492600D01*
X165836000Y-72349600D01*
X166344000Y-72349600D01*
X166344000Y-73492600D01*
G37*
X166344000Y-73492600D02*
X165836000Y-73492600D01*
X165836000Y-72349600D01*
X166344000Y-72349600D01*
X166344000Y-73492600D01*
X167106000Y-72349600D02*
X167614000Y-72349600D01*
X167614000Y-72349600D02*
X167614000Y-73492600D01*
X167614000Y-73492600D02*
X167106000Y-73492600D01*
X167106000Y-73492600D02*
X167106000Y-72349600D01*
G36*
X167614000Y-73492600D02*
G01*
X167106000Y-73492600D01*
X167106000Y-72349600D01*
X167614000Y-72349600D01*
X167614000Y-73492600D01*
G37*
X167614000Y-73492600D02*
X167106000Y-73492600D01*
X167106000Y-72349600D01*
X167614000Y-72349600D01*
X167614000Y-73492600D01*
X170916000Y-77404200D02*
X171424000Y-77404200D01*
X171424000Y-77404200D02*
X171424000Y-78547200D01*
X171424000Y-78547200D02*
X170916000Y-78547200D01*
X170916000Y-78547200D02*
X170916000Y-77404200D01*
G36*
X171424000Y-78547200D02*
G01*
X170916000Y-78547200D01*
X170916000Y-77404200D01*
X171424000Y-77404200D01*
X171424000Y-78547200D01*
G37*
X171424000Y-78547200D02*
X170916000Y-78547200D01*
X170916000Y-77404200D01*
X171424000Y-77404200D01*
X171424000Y-78547200D01*
X168376000Y-72349600D02*
X168884000Y-72349600D01*
X168884000Y-72349600D02*
X168884000Y-73492600D01*
X168884000Y-73492600D02*
X168376000Y-73492600D01*
X168376000Y-73492600D02*
X168376000Y-72349600D01*
G36*
X168884000Y-73492600D02*
G01*
X168376000Y-73492600D01*
X168376000Y-72349600D01*
X168884000Y-72349600D01*
X168884000Y-73492600D01*
G37*
X168884000Y-73492600D02*
X168376000Y-73492600D01*
X168376000Y-72349600D01*
X168884000Y-72349600D01*
X168884000Y-73492600D01*
X169646000Y-72349600D02*
X170154000Y-72349600D01*
X170154000Y-72349600D02*
X170154000Y-73492600D01*
X170154000Y-73492600D02*
X169646000Y-73492600D01*
X169646000Y-73492600D02*
X169646000Y-72349600D01*
G36*
X170154000Y-73492600D02*
G01*
X169646000Y-73492600D01*
X169646000Y-72349600D01*
X170154000Y-72349600D01*
X170154000Y-73492600D01*
G37*
X170154000Y-73492600D02*
X169646000Y-73492600D01*
X169646000Y-72349600D01*
X170154000Y-72349600D01*
X170154000Y-73492600D01*
X162026000Y-77404200D02*
X162534000Y-77404200D01*
X162534000Y-77404200D02*
X162534000Y-78547200D01*
X162534000Y-78547200D02*
X162026000Y-78547200D01*
X162026000Y-78547200D02*
X162026000Y-77404200D01*
G36*
X162534000Y-78547200D02*
G01*
X162026000Y-78547200D01*
X162026000Y-77404200D01*
X162534000Y-77404200D01*
X162534000Y-78547200D01*
G37*
X162534000Y-78547200D02*
X162026000Y-78547200D01*
X162026000Y-77404200D01*
X162534000Y-77404200D01*
X162534000Y-78547200D01*
X165836000Y-77404200D02*
X166344000Y-77404200D01*
X166344000Y-77404200D02*
X166344000Y-78547200D01*
X166344000Y-78547200D02*
X165836000Y-78547200D01*
X165836000Y-78547200D02*
X165836000Y-77404200D01*
G36*
X166344000Y-78547200D02*
G01*
X165836000Y-78547200D01*
X165836000Y-77404200D01*
X166344000Y-77404200D01*
X166344000Y-78547200D01*
G37*
X166344000Y-78547200D02*
X165836000Y-78547200D01*
X165836000Y-77404200D01*
X166344000Y-77404200D01*
X166344000Y-78547200D01*
X162026000Y-72349600D02*
X162534000Y-72349600D01*
X162534000Y-72349600D02*
X162534000Y-73492600D01*
X162534000Y-73492600D02*
X162026000Y-73492600D01*
X162026000Y-73492600D02*
X162026000Y-72349600D01*
G36*
X162534000Y-73492600D02*
G01*
X162026000Y-73492600D01*
X162026000Y-72349600D01*
X162534000Y-72349600D01*
X162534000Y-73492600D01*
G37*
X162534000Y-73492600D02*
X162026000Y-73492600D01*
X162026000Y-72349600D01*
X162534000Y-72349600D01*
X162534000Y-73492600D01*
X169646000Y-77404200D02*
X170154000Y-77404200D01*
X170154000Y-77404200D02*
X170154000Y-78547200D01*
X170154000Y-78547200D02*
X169646000Y-78547200D01*
X169646000Y-78547200D02*
X169646000Y-77404200D01*
G36*
X170154000Y-78547200D02*
G01*
X169646000Y-78547200D01*
X169646000Y-77404200D01*
X170154000Y-77404200D01*
X170154000Y-78547200D01*
G37*
X170154000Y-78547200D02*
X169646000Y-78547200D01*
X169646000Y-77404200D01*
X170154000Y-77404200D01*
X170154000Y-78547200D01*
X167106000Y-77404200D02*
X167614000Y-77404200D01*
X167614000Y-77404200D02*
X167614000Y-78547200D01*
X167614000Y-78547200D02*
X167106000Y-78547200D01*
X167106000Y-78547200D02*
X167106000Y-77404200D01*
G36*
X167614000Y-78547200D02*
G01*
X167106000Y-78547200D01*
X167106000Y-77404200D01*
X167614000Y-77404200D01*
X167614000Y-78547200D01*
G37*
X167614000Y-78547200D02*
X167106000Y-78547200D01*
X167106000Y-77404200D01*
X167614000Y-77404200D01*
X167614000Y-78547200D01*
X164566000Y-72349600D02*
X165074000Y-72349600D01*
X165074000Y-72349600D02*
X165074000Y-73492600D01*
X165074000Y-73492600D02*
X164566000Y-73492600D01*
X164566000Y-73492600D02*
X164566000Y-72349600D01*
G36*
X165074000Y-73492600D02*
G01*
X164566000Y-73492600D01*
X164566000Y-72349600D01*
X165074000Y-72349600D01*
X165074000Y-73492600D01*
G37*
X165074000Y-73492600D02*
X164566000Y-73492600D01*
X164566000Y-72349600D01*
X165074000Y-72349600D01*
X165074000Y-73492600D01*
D12*
%TO.C,J3*%
X77725000Y-15275000D02*
X77725000Y-28775000D01*
X90225000Y-28775000D02*
X77725000Y-28775000D01*
X87475000Y-28525000D02*
X87225000Y-28775000D01*
X91225000Y-15275000D02*
X90225000Y-15275000D01*
X91225000Y-14775000D02*
X91225000Y-15275000D01*
X91225000Y-14775000D02*
X76725000Y-14775000D01*
X76725000Y-15275000D02*
X76725000Y-14775000D01*
X90225000Y-15275000D02*
X90225000Y-28775000D01*
X77725000Y-15275000D02*
X76725000Y-15275000D01*
X87725000Y-28775000D02*
X87475000Y-28525000D01*
%TO.C,Y4*%
X159250000Y-79185000D02*
X159250000Y-73185000D01*
X159575000Y-79310000D02*
X159575000Y-73060000D01*
X154925000Y-79310000D02*
X154925000Y-73060000D01*
X155250000Y-79185000D02*
X155250000Y-73185000D01*
X154925000Y-79310000D02*
G75*
G03*
X159575000Y-79310000I2325000J0D01*
G01*
X159250000Y-73185000D02*
G75*
G03*
X155250000Y-73185000I-2000000J0D01*
G01*
X155250000Y-79185000D02*
G75*
G03*
X159250000Y-79185000I2000000J0D01*
G01*
X159575000Y-73060000D02*
G75*
G03*
X154925000Y-73060000I-2325000J0D01*
G01*
%TO.C,C22*%
X204171426Y-36125000D02*
G75*
G03*
X204171426Y-36125000I-5000000J0D01*
G01*
%TO.C,C27*%
X155475000Y-90500000D02*
G75*
G03*
X155475000Y-90500000I-5000000J0D01*
G01*
%TO.C,C4*%
X184000000Y-52175000D02*
G75*
G03*
X184000000Y-52175000I-5000000J0D01*
G01*
%TO.C,C8*%
X120275000Y-62850000D02*
G75*
G03*
X120275000Y-62850000I-5000000J0D01*
G01*
%TO.C,C26*%
X173600000Y-90625000D02*
G75*
G03*
X173600000Y-90625000I-5000000J0D01*
G01*
%TO.C,C14*%
X106075000Y-63375000D02*
G75*
G03*
X106075000Y-63375000I-5000000J0D01*
G01*
%TO.C,C11*%
X201175000Y-63875000D02*
G75*
G03*
X201175000Y-63875000I-5000000J0D01*
G01*
%TO.C,C10*%
X190500000Y-63875000D02*
G75*
G03*
X190500000Y-63875000I-5000000J0D01*
G01*
%TO.C,C9*%
X131050000Y-62900000D02*
G75*
G03*
X131050000Y-62900000I-5000000J0D01*
G01*
%TO.C,D2*%
X203633810Y-68530000D02*
X205966190Y-68530000D01*
X205965476Y-68530555D02*
G75*
G03*
X203633810Y-68530000I-1165476J1500555D01*
G01*
X206300000Y-67030000D02*
G75*
G03*
X206300000Y-67030000I-1500000J0D01*
G01*
%TO.C,J11*%
X204395000Y-97975000D02*
X216895000Y-97975000D01*
X217895000Y-111475000D02*
X217895000Y-111975000D01*
X206895000Y-97975000D02*
X207145000Y-98225000D01*
X216895000Y-111475000D02*
X217895000Y-111475000D01*
X216895000Y-111475000D02*
X216895000Y-97975000D01*
X203395000Y-111475000D02*
X204395000Y-111475000D01*
X203395000Y-111975000D02*
X203395000Y-111475000D01*
X204395000Y-111475000D02*
X204395000Y-97975000D01*
X207145000Y-98225000D02*
X207395000Y-97975000D01*
X203395000Y-111975000D02*
X217895000Y-111975000D01*
%TO.C,C16*%
X94950000Y-36125000D02*
G75*
G03*
X94950000Y-36125000I-5000000J0D01*
G01*
%TO.C,J8*%
X178742855Y-28775000D02*
X178492855Y-28525000D01*
X182242855Y-14775000D02*
X167742855Y-14775000D01*
X182242855Y-14775000D02*
X182242855Y-15275000D01*
X181242855Y-28775000D02*
X168742855Y-28775000D01*
X182242855Y-15275000D02*
X181242855Y-15275000D01*
X168742855Y-15275000D02*
X168742855Y-28775000D01*
X167742855Y-15275000D02*
X167742855Y-14775000D01*
X181242855Y-15275000D02*
X181242855Y-28775000D01*
X178492855Y-28525000D02*
X178242855Y-28775000D01*
X168742855Y-15275000D02*
X167742855Y-15275000D01*
%TO.C,C6*%
X113500000Y-75025000D02*
G75*
G03*
X113500000Y-75025000I-5000000J0D01*
G01*
%TO.C,J18*%
X90525000Y-111475000D02*
X91525000Y-111475000D01*
X77025000Y-111475000D02*
X78025000Y-111475000D01*
X77025000Y-111975000D02*
X77025000Y-111475000D01*
X80775000Y-98225000D02*
X81025000Y-97975000D01*
X78025000Y-111475000D02*
X78025000Y-97975000D01*
X80525000Y-97975000D02*
X80775000Y-98225000D01*
X91525000Y-111475000D02*
X91525000Y-111975000D01*
X78025000Y-97975000D02*
X90525000Y-97975000D01*
X90525000Y-111475000D02*
X90525000Y-97975000D01*
X77025000Y-111975000D02*
X91525000Y-111975000D01*
%TO.C,C1*%
X140975000Y-77125000D02*
G75*
G03*
X140975000Y-77125000I-5000000J0D01*
G01*
%TO.C,J2*%
X212700000Y-71225000D02*
X225700000Y-71225000D01*
X212700000Y-77225000D02*
X213700000Y-76225000D01*
X225700000Y-71225000D02*
X225700000Y-81225000D01*
X212700000Y-75225000D02*
X212700000Y-71225000D01*
X212700000Y-81225000D02*
X212700000Y-77225000D01*
X225700000Y-81225000D02*
X212700000Y-81225000D01*
X213700000Y-76225000D02*
X212700000Y-75225000D01*
%TO.C,C12*%
X175825000Y-64000000D02*
G75*
G03*
X175825000Y-64000000I-5000000J0D01*
G01*
%TO.C,C23*%
X222375000Y-36125000D02*
G75*
G03*
X222375000Y-36125000I-5000000J0D01*
G01*
%TO.C,C20*%
X167764284Y-36125000D02*
G75*
G03*
X167764284Y-36125000I-5000000J0D01*
G01*
%TO.C,J16*%
X113130714Y-111975000D02*
X127630714Y-111975000D01*
X114130714Y-111475000D02*
X114130714Y-97975000D01*
X126630714Y-111475000D02*
X127630714Y-111475000D01*
X127630714Y-111475000D02*
X127630714Y-111975000D01*
X126630714Y-111475000D02*
X126630714Y-97975000D01*
X113130714Y-111475000D02*
X114130714Y-111475000D01*
X113130714Y-111975000D02*
X113130714Y-111475000D01*
X116630714Y-97975000D02*
X116880714Y-98225000D01*
X114130714Y-97975000D02*
X126630714Y-97975000D01*
X116880714Y-98225000D02*
X117130714Y-97975000D01*
%TO.C,C5*%
X113225000Y-51900000D02*
G75*
G03*
X113225000Y-51900000I-5000000J0D01*
G01*
%TO.C,J14*%
X149236428Y-111975000D02*
X163736428Y-111975000D01*
X162736428Y-111475000D02*
X163736428Y-111475000D01*
X150236428Y-97975000D02*
X162736428Y-97975000D01*
X162736428Y-111475000D02*
X162736428Y-97975000D01*
X163736428Y-111475000D02*
X163736428Y-111975000D01*
X152736428Y-97975000D02*
X152986428Y-98225000D01*
X149236428Y-111975000D02*
X149236428Y-111475000D01*
X149236428Y-111475000D02*
X150236428Y-111475000D01*
X150236428Y-111475000D02*
X150236428Y-97975000D01*
X152986428Y-98225000D02*
X153236428Y-97975000D01*
%TO.C,J6*%
X144835713Y-28775000D02*
X132335713Y-28775000D01*
X142085713Y-28525000D02*
X141835713Y-28775000D01*
X144835713Y-15275000D02*
X144835713Y-28775000D01*
X132335713Y-15275000D02*
X132335713Y-28775000D01*
X142335713Y-28775000D02*
X142085713Y-28525000D01*
X145835713Y-14775000D02*
X145835713Y-15275000D01*
X131335713Y-15275000D02*
X131335713Y-14775000D01*
X145835713Y-14775000D02*
X131335713Y-14775000D01*
X145835713Y-15275000D02*
X144835713Y-15275000D01*
X132335713Y-15275000D02*
X131335713Y-15275000D01*
%TO.C,C24*%
X209675000Y-90450000D02*
G75*
G03*
X209675000Y-90450000I-5000000J0D01*
G01*
%TO.C,D1*%
X209450000Y-52555000D02*
X206750000Y-52555000D01*
X206750000Y-51875000D02*
X206750000Y-57075000D01*
X206750000Y-57075000D02*
X209450000Y-57075000D01*
X208100000Y-49395000D02*
X208100000Y-51875000D01*
X208100000Y-59555000D02*
X208100000Y-57075000D01*
X209450000Y-52655000D02*
X206750000Y-52655000D01*
X209450000Y-52755000D02*
X206750000Y-52755000D01*
X209450000Y-57075000D02*
X209450000Y-51875000D01*
X209450000Y-51875000D02*
X206750000Y-51875000D01*
%TO.C,C13*%
X165125000Y-63975000D02*
G75*
G03*
X165125000Y-63975000I-5000000J0D01*
G01*
%TO.C,J4*%
X94928571Y-15275000D02*
X94928571Y-14775000D01*
X95928571Y-15275000D02*
X95928571Y-28775000D01*
X108428571Y-28775000D02*
X95928571Y-28775000D01*
X109428571Y-15275000D02*
X108428571Y-15275000D01*
X105928571Y-28775000D02*
X105678571Y-28525000D01*
X109428571Y-14775000D02*
X109428571Y-15275000D01*
X95928571Y-15275000D02*
X94928571Y-15275000D01*
X109428571Y-14775000D02*
X94928571Y-14775000D01*
X108428571Y-15275000D02*
X108428571Y-28775000D01*
X105678571Y-28525000D02*
X105428571Y-28775000D01*
%TO.C,J9*%
X200446426Y-14775000D02*
X185946426Y-14775000D01*
X199446426Y-28775000D02*
X186946426Y-28775000D01*
X196696426Y-28525000D02*
X196446426Y-28775000D01*
X199446426Y-15275000D02*
X199446426Y-28775000D01*
X185946426Y-15275000D02*
X185946426Y-14775000D01*
X186946426Y-15275000D02*
X186946426Y-28775000D01*
X186946426Y-15275000D02*
X185946426Y-15275000D01*
X196946426Y-28775000D02*
X196696426Y-28525000D01*
X200446426Y-15275000D02*
X199446426Y-15275000D01*
X200446426Y-14775000D02*
X200446426Y-15275000D01*
%TO.C,C29*%
X119325000Y-90550000D02*
G75*
G03*
X119325000Y-90550000I-5000000J0D01*
G01*
%TO.C,C21*%
X185967855Y-36125000D02*
G75*
G03*
X185967855Y-36125000I-5000000J0D01*
G01*
%TO.C,J5*%
X127632142Y-15275000D02*
X126632142Y-15275000D01*
X126632142Y-28775000D02*
X114132142Y-28775000D01*
X127632142Y-14775000D02*
X127632142Y-15275000D01*
X113132142Y-15275000D02*
X113132142Y-14775000D01*
X124132142Y-28775000D02*
X123882142Y-28525000D01*
X127632142Y-14775000D02*
X113132142Y-14775000D01*
X114132142Y-15275000D02*
X113132142Y-15275000D01*
X123882142Y-28525000D02*
X123632142Y-28775000D01*
X114132142Y-15275000D02*
X114132142Y-28775000D01*
X126632142Y-15275000D02*
X126632142Y-28775000D01*
%TO.C,J7*%
X160289284Y-28525000D02*
X160039284Y-28775000D01*
X160539284Y-28775000D02*
X160289284Y-28525000D01*
X149539284Y-15275000D02*
X149539284Y-14775000D01*
X164039284Y-14775000D02*
X149539284Y-14775000D01*
X150539284Y-15275000D02*
X150539284Y-28775000D01*
X164039284Y-15275000D02*
X163039284Y-15275000D01*
X163039284Y-28775000D02*
X150539284Y-28775000D01*
X164039284Y-14775000D02*
X164039284Y-15275000D01*
X163039284Y-15275000D02*
X163039284Y-28775000D01*
X150539284Y-15275000D02*
X149539284Y-15275000D01*
%TO.C,R2*%
X210075000Y-72470000D02*
X210075000Y-70570000D01*
X210875000Y-72470000D02*
G75*
G03*
X210875000Y-72470000I-800000J0D01*
G01*
%TO.C,C15*%
X95375000Y-63575000D02*
G75*
G03*
X95375000Y-63575000I-5000000J0D01*
G01*
%TO.C,J15*%
X131183571Y-111975000D02*
X131183571Y-111475000D01*
X144683571Y-111475000D02*
X144683571Y-97975000D01*
X131183571Y-111975000D02*
X145683571Y-111975000D01*
X132183571Y-97975000D02*
X144683571Y-97975000D01*
X144683571Y-111475000D02*
X145683571Y-111475000D01*
X132183571Y-111475000D02*
X132183571Y-97975000D01*
X145683571Y-111475000D02*
X145683571Y-111975000D01*
X134933571Y-98225000D02*
X135183571Y-97975000D01*
X134683571Y-97975000D02*
X134933571Y-98225000D01*
X131183571Y-111475000D02*
X132183571Y-111475000D01*
%TO.C,J12*%
X185342142Y-111975000D02*
X185342142Y-111475000D01*
X198842142Y-111475000D02*
X199842142Y-111475000D01*
X198842142Y-111475000D02*
X198842142Y-97975000D01*
X186342142Y-97975000D02*
X198842142Y-97975000D01*
X185342142Y-111475000D02*
X186342142Y-111475000D01*
X199842142Y-111475000D02*
X199842142Y-111975000D01*
X185342142Y-111975000D02*
X199842142Y-111975000D01*
X186342142Y-111475000D02*
X186342142Y-97975000D01*
X188842142Y-97975000D02*
X189092142Y-98225000D01*
X189092142Y-98225000D02*
X189342142Y-97975000D01*
%TO.C,C30*%
X101275000Y-90550000D02*
G75*
G03*
X101275000Y-90550000I-5000000J0D01*
G01*
%TO.C,J13*%
X167289285Y-111975000D02*
X181789285Y-111975000D01*
X168289285Y-111475000D02*
X168289285Y-97975000D01*
X170789285Y-97975000D02*
X171039285Y-98225000D01*
X167289285Y-111475000D02*
X168289285Y-111475000D01*
X180789285Y-111475000D02*
X180789285Y-97975000D01*
X180789285Y-111475000D02*
X181789285Y-111475000D01*
X181789285Y-111475000D02*
X181789285Y-111975000D01*
X167289285Y-111975000D02*
X167289285Y-111475000D01*
X168289285Y-97975000D02*
X180789285Y-97975000D01*
X171039285Y-98225000D02*
X171289285Y-97975000D01*
%TO.C,F1*%
X225375000Y-44525000D02*
X215975000Y-44525000D01*
X215975000Y-66925000D02*
X225375000Y-66925000D01*
X225375000Y-66925000D02*
X225375000Y-44525000D01*
X215975000Y-44525000D02*
X215975000Y-66925000D01*
%TO.C,C18*%
X131357142Y-36125000D02*
G75*
G03*
X131357142Y-36125000I-5000000J0D01*
G01*
%TO.C,Y1*%
X143410000Y-64500000D02*
X137160000Y-64500000D01*
X143285000Y-64175000D02*
X137285000Y-64175000D01*
X143285000Y-60175000D02*
X137285000Y-60175000D01*
X143410000Y-59850000D02*
X137160000Y-59850000D01*
X137285000Y-60175000D02*
G75*
G03*
X137285000Y-64175000I0J-2000000D01*
G01*
X143410000Y-64500000D02*
G75*
G03*
X143410000Y-59850000I0J2325000D01*
G01*
X143285000Y-64175000D02*
G75*
G03*
X143285000Y-60175000I0J2000000D01*
G01*
X137160000Y-59850000D02*
G75*
G03*
X137160000Y-64500000I0J-2325000D01*
G01*
%TD*%
M02*
