%TF.GenerationSoftware,KiCad,Pcbnew,6.0.2+dfsg-1*%
%TF.CreationDate,2023-04-29T01:12:17-04:00*%
%TF.ProjectId,BFUSB_HUB,42465553-425f-4485-9542-2e6b69636164,rev?*%
%TF.SameCoordinates,Original*%
%TF.FileFunction,Paste,Bot*%
%TF.FilePolarity,Positive*%
%FSLAX46Y46*%
G04 Gerber Fmt 4.6, Leading zero omitted, Abs format (unit mm)*
G04 Created by KiCad (PCBNEW 6.0.2+dfsg-1) date 2023-04-29 01:12:17*
%MOMM*%
%LPD*%
G01*
G04 APERTURE LIST*
G04 Aperture macros list*
%AMRoundRect*
0 Rectangle with rounded corners*
0 $1 Rounding radius*
0 $2 $3 $4 $5 $6 $7 $8 $9 X,Y pos of 4 corners*
0 Add a 4 corners polygon primitive as box body*
4,1,4,$2,$3,$4,$5,$6,$7,$8,$9,$2,$3,0*
0 Add four circle primitives for the rounded corners*
1,1,$1+$1,$2,$3*
1,1,$1+$1,$4,$5*
1,1,$1+$1,$6,$7*
1,1,$1+$1,$8,$9*
0 Add four rect primitives between the rounded corners*
20,1,$1+$1,$2,$3,$4,$5,0*
20,1,$1+$1,$4,$5,$6,$7,0*
20,1,$1+$1,$6,$7,$8,$9,0*
20,1,$1+$1,$8,$9,$2,$3,0*%
G04 Aperture macros list end*
%TA.AperFunction,Profile*%
%ADD10C,0.100000*%
%TD*%
%ADD11RoundRect,0.250001X-2.474999X0.799999X-2.474999X-0.799999X2.474999X-0.799999X2.474999X0.799999X0*%
%ADD12RoundRect,0.250001X-0.799999X-2.474999X0.799999X-2.474999X0.799999X2.474999X-0.799999X2.474999X0*%
%ADD13RoundRect,0.250001X2.474999X-0.799999X2.474999X0.799999X-2.474999X0.799999X-2.474999X-0.799999X0*%
%ADD14R,2.032000X0.660400*%
G04 APERTURE END LIST*
D10*
X71170000Y-15400000D02*
X225860000Y-15400000D01*
X225860000Y-15400000D02*
X225860000Y-111370000D01*
X225860000Y-111370000D02*
X71170000Y-111370000D01*
X71170000Y-111370000D02*
X71170000Y-15400000D01*
X224595691Y-18325000D02*
G75*
G03*
X224595691Y-18325000I-1520691J0D01*
G01*
X224648975Y-108425000D02*
G75*
G03*
X224648975Y-108425000I-1523975J0D01*
G01*
X75676843Y-108350000D02*
G75*
G03*
X75676843Y-108350000I-1526843J0D01*
G01*
X75620691Y-18275000D02*
G75*
G03*
X75620691Y-18275000I-1520691J0D01*
G01*
D11*
%TO.C,F4*%
X187725000Y-44575000D03*
X187725000Y-51525000D03*
%TD*%
D12*
%TO.C,F2*%
X136500000Y-68550000D03*
X143450000Y-68550000D03*
%TD*%
D11*
%TO.C,F3*%
X117575000Y-44250000D03*
X117575000Y-51200000D03*
%TD*%
D13*
%TO.C,F6*%
X98575000Y-82300000D03*
X98575000Y-75350000D03*
%TD*%
%TO.C,F5*%
X168675000Y-82950000D03*
X168675000Y-76000000D03*
%TD*%
D14*
%TO.C,U1*%
X137076600Y-58720000D03*
X137076600Y-57450000D03*
X137076600Y-56180000D03*
X137076600Y-54910000D03*
X137076600Y-53640000D03*
X137076600Y-52370000D03*
X137076600Y-51100000D03*
X137076600Y-49830000D03*
X143223400Y-49830000D03*
X143223400Y-51100000D03*
X143223400Y-52370000D03*
X143223400Y-53640000D03*
X143223400Y-54910000D03*
X143223400Y-56180000D03*
X143223400Y-57450000D03*
X143223400Y-58720000D03*
%TD*%
M02*
