%TF.GenerationSoftware,KiCad,Pcbnew,6.0.2+dfsg-1*%
%TF.CreationDate,2023-04-29T01:12:17-04:00*%
%TF.ProjectId,BFUSB_HUB,42465553-425f-4485-9542-2e6b69636164,rev?*%
%TF.SameCoordinates,Original*%
%TF.FileFunction,Legend,Bot*%
%TF.FilePolarity,Positive*%
%FSLAX46Y46*%
G04 Gerber Fmt 4.6, Leading zero omitted, Abs format (unit mm)*
G04 Created by KiCad (PCBNEW 6.0.2+dfsg-1) date 2023-04-29 01:12:17*
%MOMM*%
%LPD*%
G01*
G04 APERTURE LIST*
%TA.AperFunction,Profile*%
%ADD10C,0.100000*%
%TD*%
%ADD11C,0.150000*%
%ADD12C,0.120000*%
%ADD13C,0.152400*%
%ADD14C,0.050800*%
G04 APERTURE END LIST*
D10*
X71170000Y-15400000D02*
X225860000Y-15400000D01*
X225860000Y-15400000D02*
X225860000Y-111370000D01*
X225860000Y-111370000D02*
X71170000Y-111370000D01*
X71170000Y-111370000D02*
X71170000Y-15400000D01*
X224595691Y-18325000D02*
G75*
G03*
X224595691Y-18325000I-1520691J0D01*
G01*
X224648975Y-108425000D02*
G75*
G03*
X224648975Y-108425000I-1523975J0D01*
G01*
X75676843Y-108350000D02*
G75*
G03*
X75676843Y-108350000I-1526843J0D01*
G01*
X75620691Y-18275000D02*
G75*
G03*
X75620691Y-18275000I-1520691J0D01*
G01*
D11*
%TO.C,F4*%
X183643333Y-52058571D02*
X183976666Y-52058571D01*
X183976666Y-52582380D02*
X183976666Y-51582380D01*
X183500476Y-51582380D01*
X182690952Y-51915714D02*
X182690952Y-52582380D01*
X182929047Y-51534761D02*
X183167142Y-52249047D01*
X182548095Y-52249047D01*
%TO.C,F2*%
X140308333Y-72158571D02*
X140641666Y-72158571D01*
X140641666Y-72682380D02*
X140641666Y-71682380D01*
X140165476Y-71682380D01*
X139832142Y-71777619D02*
X139784523Y-71730000D01*
X139689285Y-71682380D01*
X139451190Y-71682380D01*
X139355952Y-71730000D01*
X139308333Y-71777619D01*
X139260714Y-71872857D01*
X139260714Y-71968095D01*
X139308333Y-72110952D01*
X139879761Y-72682380D01*
X139260714Y-72682380D01*
%TO.C,F3*%
X114053333Y-47868571D02*
X114386666Y-47868571D01*
X114386666Y-48392380D02*
X114386666Y-47392380D01*
X113910476Y-47392380D01*
X113624761Y-47392380D02*
X113005714Y-47392380D01*
X113339047Y-47773333D01*
X113196190Y-47773333D01*
X113100952Y-47820952D01*
X113053333Y-47868571D01*
X113005714Y-47963809D01*
X113005714Y-48201904D01*
X113053333Y-48297142D01*
X113100952Y-48344761D01*
X113196190Y-48392380D01*
X113481904Y-48392380D01*
X113577142Y-48344761D01*
X113624761Y-48297142D01*
%TO.C,F6*%
X102943333Y-75588571D02*
X103276666Y-75588571D01*
X103276666Y-76112380D02*
X103276666Y-75112380D01*
X102800476Y-75112380D01*
X101990952Y-75112380D02*
X102181428Y-75112380D01*
X102276666Y-75160000D01*
X102324285Y-75207619D01*
X102419523Y-75350476D01*
X102467142Y-75540952D01*
X102467142Y-75921904D01*
X102419523Y-76017142D01*
X102371904Y-76064761D01*
X102276666Y-76112380D01*
X102086190Y-76112380D01*
X101990952Y-76064761D01*
X101943333Y-76017142D01*
X101895714Y-75921904D01*
X101895714Y-75683809D01*
X101943333Y-75588571D01*
X101990952Y-75540952D01*
X102086190Y-75493333D01*
X102276666Y-75493333D01*
X102371904Y-75540952D01*
X102419523Y-75588571D01*
X102467142Y-75683809D01*
%TO.C,F5*%
X173203333Y-75708571D02*
X173536666Y-75708571D01*
X173536666Y-76232380D02*
X173536666Y-75232380D01*
X173060476Y-75232380D01*
X172203333Y-75232380D02*
X172679523Y-75232380D01*
X172727142Y-75708571D01*
X172679523Y-75660952D01*
X172584285Y-75613333D01*
X172346190Y-75613333D01*
X172250952Y-75660952D01*
X172203333Y-75708571D01*
X172155714Y-75803809D01*
X172155714Y-76041904D01*
X172203333Y-76137142D01*
X172250952Y-76184761D01*
X172346190Y-76232380D01*
X172584285Y-76232380D01*
X172679523Y-76184761D01*
X172727142Y-76137142D01*
%TO.C,U1*%
X140921904Y-60132380D02*
X140921904Y-60941904D01*
X140874285Y-61037142D01*
X140826666Y-61084761D01*
X140731428Y-61132380D01*
X140540952Y-61132380D01*
X140445714Y-61084761D01*
X140398095Y-61037142D01*
X140350476Y-60941904D01*
X140350476Y-60132380D01*
X139350476Y-61132380D02*
X139921904Y-61132380D01*
X139636190Y-61132380D02*
X139636190Y-60132380D01*
X139731428Y-60275238D01*
X139826666Y-60370476D01*
X139921904Y-60418095D01*
D12*
%TO.C,F4*%
X190395000Y-45846248D02*
X190395000Y-50253752D01*
X185055000Y-45846248D02*
X185055000Y-50253752D01*
%TO.C,F2*%
X137771248Y-65880000D02*
X142178752Y-65880000D01*
X137771248Y-71220000D02*
X142178752Y-71220000D01*
%TO.C,F3*%
X114905000Y-45521248D02*
X114905000Y-49928752D01*
X120245000Y-45521248D02*
X120245000Y-49928752D01*
%TO.C,F6*%
X95905000Y-81028752D02*
X95905000Y-76621248D01*
X101245000Y-81028752D02*
X101245000Y-76621248D01*
%TO.C,F5*%
X166005000Y-81678752D02*
X166005000Y-77271248D01*
X171345000Y-81678752D02*
X171345000Y-77271248D01*
D13*
%TO.C,U1*%
X140658000Y-59355000D02*
X139642000Y-59355000D01*
X141724800Y-59355000D02*
X140658000Y-59355000D01*
X138575200Y-49195000D02*
X141724800Y-49195000D01*
D14*
X138549800Y-59355000D02*
X138549800Y-49195000D01*
D13*
X139642000Y-59355000D02*
X138575200Y-59355000D01*
X142105800Y-49576000D02*
X142105800Y-58974000D01*
X138194200Y-58974000D02*
X138194200Y-49576000D01*
X142105800Y-49576000D02*
G75*
G03*
X141724800Y-49195000I-380999J1D01*
G01*
X138194200Y-58974000D02*
G75*
G03*
X138575200Y-59355000I380999J-1D01*
G01*
X141724800Y-59355000D02*
G75*
G03*
X142105800Y-58974000I1J380999D01*
G01*
X140658000Y-59355000D02*
G75*
G03*
X139642000Y-59355000I-508000J0D01*
G01*
X138575200Y-49195000D02*
G75*
G03*
X138194200Y-49576000I-1J-380999D01*
G01*
%TD*%
M02*
